%TF.GenerationSoftware,KiCad,Pcbnew,9.0.4*%
%TF.CreationDate,2025-09-01T15:08:38-04:00*%
%TF.ProjectId,servo_regulator,73657276-6f5f-4726-9567-756c61746f72,rev?*%
%TF.SameCoordinates,Original*%
%TF.FileFunction,Copper,L2,Bot*%
%TF.FilePolarity,Positive*%
%FSLAX46Y46*%
G04 Gerber Fmt 4.6, Leading zero omitted, Abs format (unit mm)*
G04 Created by KiCad (PCBNEW 9.0.4) date 2025-09-01 15:08:38*
%MOMM*%
%LPD*%
G01*
G04 APERTURE LIST*
%TA.AperFunction,ComponentPad*%
%ADD10C,1.200000*%
%TD*%
%TA.AperFunction,ComponentPad*%
%ADD11R,1.905000X2.000000*%
%TD*%
%TA.AperFunction,ComponentPad*%
%ADD12O,1.905000X2.000000*%
%TD*%
%TA.AperFunction,ComponentPad*%
%ADD13C,1.600000*%
%TD*%
%TA.AperFunction,ComponentPad*%
%ADD14R,1.700000X1.700000*%
%TD*%
%TA.AperFunction,ComponentPad*%
%ADD15C,1.700000*%
%TD*%
%TA.AperFunction,Conductor*%
%ADD16C,0.500000*%
%TD*%
G04 APERTURE END LIST*
D10*
%TO.P,C3,1*%
%TO.N,Net-(J2-Pin_2)*%
X121250000Y-39250000D03*
%TO.P,C3,2*%
%TO.N,GND*%
X119250000Y-39250000D03*
%TD*%
D11*
%TO.P,U1,1,VI*%
%TO.N,Net-(J1-Pin_2)*%
X117711000Y-32000000D03*
D12*
%TO.P,U1,2,GND*%
%TO.N,GND*%
X120251000Y-32000000D03*
%TO.P,U1,3,VO*%
%TO.N,Net-(J2-Pin_2)*%
X122791000Y-32000000D03*
%TD*%
D13*
%TO.P,C1,1*%
%TO.N,Net-(J1-Pin_2)*%
X120250000Y-48500000D03*
%TO.P,C1,2*%
%TO.N,GND*%
X120250000Y-43500000D03*
%TD*%
D14*
%TO.P,J2,1,Pin_1*%
%TO.N,Net-(J1-Pin_1)*%
X123750000Y-43500000D03*
D15*
%TO.P,J2,2,Pin_2*%
%TO.N,Net-(J2-Pin_2)*%
X123750000Y-46040000D03*
%TO.P,J2,3,Pin_3*%
%TO.N,GND*%
X123750000Y-48580000D03*
%TD*%
D14*
%TO.P,J1,1,Pin_1*%
%TO.N,Net-(J1-Pin_1)*%
X116750000Y-43500000D03*
D15*
%TO.P,J1,2,Pin_2*%
%TO.N,Net-(J1-Pin_2)*%
X116750000Y-46040000D03*
%TO.P,J1,3,Pin_3*%
%TO.N,GND*%
X116750000Y-48580000D03*
%TD*%
D13*
%TO.P,C2,1*%
%TO.N,Net-(J2-Pin_2)*%
X117750000Y-35000000D03*
%TO.P,C2,2*%
%TO.N,GND*%
X122750000Y-35000000D03*
%TD*%
D16*
%TO.N,Net-(J1-Pin_2)*%
X118250000Y-44540000D02*
X118250000Y-42398000D01*
X115751000Y-40601000D02*
X115751000Y-33960000D01*
X117303000Y-41451000D02*
X116601000Y-41451000D01*
X115751000Y-33960000D02*
X117711000Y-32000000D01*
X118250000Y-42398000D02*
X117303000Y-41451000D01*
X116601000Y-41451000D02*
X115751000Y-40601000D01*
X116750000Y-46040000D02*
X118250000Y-44540000D01*
%TO.N,Net-(J2-Pin_2)*%
X122791000Y-32000000D02*
X119791000Y-35000000D01*
X123750000Y-46040000D02*
X122250000Y-44540000D01*
X119791000Y-35000000D02*
X117750000Y-35000000D01*
X122250000Y-40250000D02*
X121250000Y-39250000D01*
X122250000Y-44540000D02*
X122250000Y-40250000D01*
%TO.N,GND*%
X119250000Y-38500000D02*
X122750000Y-35000000D01*
X120250000Y-43500000D02*
X120250000Y-40250000D01*
X123750000Y-48580000D02*
X120250000Y-45080000D01*
X120250000Y-43500000D02*
X120250000Y-45080000D01*
X119250000Y-39250000D02*
X119250000Y-38500000D01*
X120250000Y-45080000D02*
X116750000Y-48580000D01*
X120250000Y-40250000D02*
X119250000Y-39250000D01*
%TD*%
%TA.AperFunction,Conductor*%
%TO.N,GND*%
G36*
X116284075Y-48772993D02*
G01*
X116349901Y-48887007D01*
X116442993Y-48980099D01*
X116557007Y-49045925D01*
X116620590Y-49062962D01*
X115988282Y-49695269D01*
X115988282Y-49695270D01*
X116042452Y-49734626D01*
X116042457Y-49734629D01*
X116102093Y-49765016D01*
X116152889Y-49812990D01*
X116169684Y-49880811D01*
X116147146Y-49946946D01*
X116092431Y-49990397D01*
X116045798Y-49999500D01*
X115624500Y-49999500D01*
X115557461Y-49979815D01*
X115511706Y-49927011D01*
X115500500Y-49875500D01*
X115500500Y-49465295D01*
X115520185Y-49398256D01*
X115572989Y-49352501D01*
X115634230Y-49341677D01*
X115634728Y-49341716D01*
X116267037Y-48709408D01*
X116284075Y-48772993D01*
G37*
%TD.AperFunction*%
%TA.AperFunction,Conductor*%
G36*
X119850000Y-43552661D02*
G01*
X119877259Y-43654394D01*
X119929920Y-43745606D01*
X120004394Y-43820080D01*
X120095606Y-43872741D01*
X120197339Y-43900000D01*
X120203553Y-43900000D01*
X119524076Y-44579474D01*
X119568650Y-44611859D01*
X119750968Y-44704755D01*
X119945582Y-44767990D01*
X120147683Y-44800000D01*
X120352317Y-44800000D01*
X120554417Y-44767990D01*
X120749031Y-44704755D01*
X120931349Y-44611859D01*
X120975921Y-44579474D01*
X120296447Y-43900000D01*
X120302661Y-43900000D01*
X120404394Y-43872741D01*
X120495606Y-43820080D01*
X120570080Y-43745606D01*
X120622741Y-43654394D01*
X120650000Y-43552661D01*
X120650000Y-43546447D01*
X121329473Y-44225921D01*
X121365771Y-44223065D01*
X121434148Y-44237429D01*
X121483905Y-44286480D01*
X121499500Y-44346683D01*
X121499500Y-44613918D01*
X121499500Y-44613920D01*
X121499499Y-44613920D01*
X121528340Y-44758907D01*
X121528343Y-44758917D01*
X121584914Y-44895492D01*
X121617812Y-44944727D01*
X121617813Y-44944730D01*
X121667046Y-45018414D01*
X121667052Y-45018421D01*
X122379824Y-45731191D01*
X122413309Y-45792514D01*
X122414616Y-45838270D01*
X122399500Y-45933707D01*
X122399500Y-46146286D01*
X122432753Y-46356239D01*
X122498444Y-46558414D01*
X122594951Y-46747820D01*
X122719890Y-46919786D01*
X122870213Y-47070109D01*
X123042179Y-47195048D01*
X123042181Y-47195049D01*
X123042184Y-47195051D01*
X123051493Y-47199794D01*
X123102290Y-47247766D01*
X123119087Y-47315587D01*
X123096552Y-47381722D01*
X123051505Y-47420760D01*
X123042446Y-47425376D01*
X123042440Y-47425380D01*
X122988282Y-47464727D01*
X122988282Y-47464728D01*
X123620591Y-48097037D01*
X123557007Y-48114075D01*
X123442993Y-48179901D01*
X123349901Y-48272993D01*
X123284075Y-48387007D01*
X123267037Y-48450591D01*
X122634728Y-47818282D01*
X122634727Y-47818282D01*
X122595380Y-47872439D01*
X122498904Y-48061782D01*
X122433242Y-48263869D01*
X122433242Y-48263872D01*
X122400000Y-48473753D01*
X122400000Y-48686246D01*
X122433242Y-48896127D01*
X122433242Y-48896130D01*
X122498904Y-49098217D01*
X122595375Y-49287550D01*
X122634728Y-49341716D01*
X123267037Y-48709408D01*
X123284075Y-48772993D01*
X123349901Y-48887007D01*
X123442993Y-48980099D01*
X123557007Y-49045925D01*
X123620590Y-49062962D01*
X122988282Y-49695269D01*
X122988282Y-49695270D01*
X123042452Y-49734626D01*
X123042457Y-49734629D01*
X123102093Y-49765016D01*
X123152889Y-49812990D01*
X123169684Y-49880811D01*
X123147146Y-49946946D01*
X123092431Y-49990397D01*
X123045798Y-49999500D01*
X120626425Y-49999500D01*
X120559386Y-49979815D01*
X120513631Y-49927011D01*
X120503687Y-49857853D01*
X120532712Y-49794297D01*
X120588106Y-49757569D01*
X120658707Y-49734629D01*
X120749219Y-49705220D01*
X120931610Y-49612287D01*
X121024590Y-49544732D01*
X121097213Y-49491971D01*
X121097215Y-49491968D01*
X121097219Y-49491966D01*
X121241966Y-49347219D01*
X121241968Y-49347215D01*
X121241971Y-49347213D01*
X121294732Y-49274590D01*
X121362287Y-49181610D01*
X121455220Y-48999219D01*
X121518477Y-48804534D01*
X121550500Y-48602352D01*
X121550500Y-48397648D01*
X121518477Y-48195466D01*
X121455220Y-48000781D01*
X121455218Y-48000778D01*
X121455218Y-48000776D01*
X121389826Y-47872439D01*
X121362287Y-47818390D01*
X121351800Y-47803956D01*
X121241971Y-47652786D01*
X121097213Y-47508028D01*
X120931613Y-47387715D01*
X120931612Y-47387714D01*
X120931610Y-47387713D01*
X120871815Y-47357246D01*
X120749223Y-47294781D01*
X120554534Y-47231522D01*
X120379995Y-47203878D01*
X120352352Y-47199500D01*
X120147648Y-47199500D01*
X120123329Y-47203351D01*
X119945465Y-47231522D01*
X119750776Y-47294781D01*
X119568386Y-47387715D01*
X119402786Y-47508028D01*
X119258028Y-47652786D01*
X119137715Y-47818386D01*
X119044781Y-48000776D01*
X118981522Y-48195465D01*
X118949500Y-48397648D01*
X118949500Y-48602351D01*
X118981522Y-48804534D01*
X119044781Y-48999223D01*
X119137715Y-49181613D01*
X119258028Y-49347213D01*
X119402786Y-49491971D01*
X119557749Y-49604556D01*
X119568390Y-49612287D01*
X119684607Y-49671503D01*
X119750776Y-49705218D01*
X119750778Y-49705218D01*
X119750781Y-49705220D01*
X119841293Y-49734629D01*
X119911894Y-49757569D01*
X119969569Y-49797007D01*
X119996767Y-49861366D01*
X119984852Y-49930212D01*
X119937608Y-49981688D01*
X119873575Y-49999500D01*
X117454202Y-49999500D01*
X117387163Y-49979815D01*
X117341408Y-49927011D01*
X117331464Y-49857853D01*
X117360489Y-49794297D01*
X117397907Y-49765016D01*
X117457549Y-49734626D01*
X117511716Y-49695270D01*
X117511717Y-49695270D01*
X116879408Y-49062962D01*
X116942993Y-49045925D01*
X117057007Y-48980099D01*
X117150099Y-48887007D01*
X117215925Y-48772993D01*
X117232962Y-48709409D01*
X117865270Y-49341717D01*
X117865270Y-49341716D01*
X117904622Y-49287554D01*
X118001095Y-49098217D01*
X118066757Y-48896130D01*
X118066757Y-48896127D01*
X118100000Y-48686246D01*
X118100000Y-48473753D01*
X118066757Y-48263872D01*
X118066757Y-48263869D01*
X118001095Y-48061782D01*
X117904624Y-47872449D01*
X117865270Y-47818282D01*
X117865269Y-47818282D01*
X117232962Y-48450590D01*
X117215925Y-48387007D01*
X117150099Y-48272993D01*
X117057007Y-48179901D01*
X116942993Y-48114075D01*
X116879409Y-48097037D01*
X117511716Y-47464728D01*
X117457547Y-47425373D01*
X117457547Y-47425372D01*
X117448500Y-47420763D01*
X117397706Y-47372788D01*
X117380912Y-47304966D01*
X117403451Y-47238832D01*
X117448508Y-47199793D01*
X117457816Y-47195051D01*
X117537007Y-47137515D01*
X117629786Y-47070109D01*
X117629788Y-47070106D01*
X117629792Y-47070104D01*
X117780104Y-46919792D01*
X117780106Y-46919788D01*
X117780109Y-46919786D01*
X117905048Y-46747820D01*
X117905047Y-46747820D01*
X117905051Y-46747816D01*
X118001557Y-46558412D01*
X118067246Y-46356243D01*
X118100500Y-46146287D01*
X118100500Y-45933713D01*
X118085382Y-45838267D01*
X118094336Y-45768978D01*
X118120171Y-45731194D01*
X118832951Y-45018416D01*
X118915084Y-44895495D01*
X118971658Y-44758913D01*
X119000500Y-44613918D01*
X119000500Y-44466083D01*
X119000500Y-44346683D01*
X119020185Y-44279644D01*
X119072989Y-44233889D01*
X119134229Y-44223065D01*
X119170525Y-44225921D01*
X119850000Y-43546446D01*
X119850000Y-43552661D01*
G37*
%TD.AperFunction*%
%TA.AperFunction,Conductor*%
G36*
X124865269Y-49341716D02*
G01*
X124865770Y-49341677D01*
X124934147Y-49356041D01*
X124983905Y-49405092D01*
X124999500Y-49465295D01*
X124999500Y-49875500D01*
X124979815Y-49942539D01*
X124927011Y-49988294D01*
X124875500Y-49999500D01*
X124454202Y-49999500D01*
X124387163Y-49979815D01*
X124341408Y-49927011D01*
X124331464Y-49857853D01*
X124360489Y-49794297D01*
X124397907Y-49765016D01*
X124457549Y-49734626D01*
X124511716Y-49695270D01*
X124511717Y-49695270D01*
X123879408Y-49062962D01*
X123942993Y-49045925D01*
X124057007Y-48980099D01*
X124150099Y-48887007D01*
X124215925Y-48772993D01*
X124232962Y-48709409D01*
X124865269Y-49341716D01*
G37*
%TD.AperFunction*%
%TA.AperFunction,Conductor*%
G36*
X115705703Y-46905316D02*
G01*
X115718786Y-46918493D01*
X115719893Y-46919789D01*
X115870213Y-47070109D01*
X116042179Y-47195048D01*
X116042181Y-47195049D01*
X116042184Y-47195051D01*
X116051493Y-47199794D01*
X116102290Y-47247766D01*
X116119087Y-47315587D01*
X116096552Y-47381722D01*
X116051505Y-47420760D01*
X116042446Y-47425376D01*
X116042440Y-47425380D01*
X115988282Y-47464727D01*
X115988282Y-47464728D01*
X116620591Y-48097037D01*
X116557007Y-48114075D01*
X116442993Y-48179901D01*
X116349901Y-48272993D01*
X116284075Y-48387007D01*
X116267037Y-48450591D01*
X115634727Y-47818281D01*
X115634228Y-47818321D01*
X115565851Y-47803956D01*
X115516095Y-47754905D01*
X115500500Y-47694703D01*
X115500500Y-46999029D01*
X115520185Y-46931990D01*
X115572989Y-46886235D01*
X115642147Y-46876291D01*
X115705703Y-46905316D01*
G37*
%TD.AperFunction*%
%TA.AperFunction,Conductor*%
G36*
X124968635Y-46917164D02*
G01*
X124998110Y-46980512D01*
X124999500Y-46999029D01*
X124999500Y-47694703D01*
X124979815Y-47761742D01*
X124927011Y-47807497D01*
X124865772Y-47818321D01*
X124865270Y-47818281D01*
X124232962Y-48450590D01*
X124215925Y-48387007D01*
X124150099Y-48272993D01*
X124057007Y-48179901D01*
X123942993Y-48114075D01*
X123879409Y-48097037D01*
X124511716Y-47464728D01*
X124457547Y-47425373D01*
X124457547Y-47425372D01*
X124448500Y-47420763D01*
X124397706Y-47372788D01*
X124380912Y-47304966D01*
X124403451Y-47238832D01*
X124448508Y-47199793D01*
X124457816Y-47195051D01*
X124537007Y-47137515D01*
X124629786Y-47070109D01*
X124629788Y-47070106D01*
X124629792Y-47070104D01*
X124780104Y-46919792D01*
X124780107Y-46919787D01*
X124781214Y-46918493D01*
X124781758Y-46918137D01*
X124783549Y-46916347D01*
X124783925Y-46916723D01*
X124839723Y-46880302D01*
X124909591Y-46879807D01*
X124968635Y-46917164D01*
G37*
%TD.AperFunction*%
%TA.AperFunction,Conductor*%
G36*
X124942539Y-30020185D02*
G01*
X124988294Y-30072989D01*
X124999500Y-30124500D01*
X124999500Y-42086230D01*
X124979815Y-42153269D01*
X124927011Y-42199024D01*
X124857853Y-42208968D01*
X124832168Y-42202412D01*
X124707485Y-42155909D01*
X124707483Y-42155908D01*
X124647883Y-42149501D01*
X124647881Y-42149500D01*
X124647873Y-42149500D01*
X124647865Y-42149500D01*
X123124500Y-42149500D01*
X123057461Y-42129815D01*
X123011706Y-42077011D01*
X123000500Y-42025500D01*
X123000500Y-40176082D01*
X122989858Y-40122584D01*
X122971659Y-40031088D01*
X122917408Y-39900117D01*
X122915764Y-39895522D01*
X122832954Y-39771588D01*
X122832953Y-39771587D01*
X122832951Y-39771584D01*
X122728416Y-39667049D01*
X122568951Y-39507584D01*
X122386819Y-39325451D01*
X122353334Y-39264128D01*
X122350500Y-39237770D01*
X122350500Y-39163389D01*
X122323402Y-38992299D01*
X122269873Y-38827555D01*
X122191232Y-38673212D01*
X122089414Y-38533072D01*
X121966928Y-38410586D01*
X121826788Y-38308768D01*
X121672445Y-38230127D01*
X121507701Y-38176598D01*
X121507699Y-38176597D01*
X121507698Y-38176597D01*
X121376271Y-38155781D01*
X121336611Y-38149500D01*
X121163389Y-38149500D01*
X121123728Y-38155781D01*
X120992302Y-38176597D01*
X120827552Y-38230128D01*
X120673211Y-38308768D01*
X120593256Y-38366859D01*
X120533072Y-38410586D01*
X120533070Y-38410588D01*
X120533069Y-38410588D01*
X120410588Y-38533069D01*
X120410581Y-38533078D01*
X120347049Y-38620521D01*
X120291719Y-38663187D01*
X120237003Y-38671253D01*
X120186289Y-38667261D01*
X119603553Y-39249999D01*
X119603553Y-39250000D01*
X120186289Y-39832736D01*
X120237007Y-39828747D01*
X120305384Y-39843113D01*
X120347049Y-39879479D01*
X120406852Y-39961789D01*
X120410586Y-39966928D01*
X120533072Y-40089414D01*
X120673212Y-40191232D01*
X120827555Y-40269873D01*
X120992299Y-40323402D01*
X121163389Y-40350500D01*
X121237771Y-40350500D01*
X121267211Y-40359144D01*
X121297198Y-40365668D01*
X121302213Y-40369422D01*
X121304810Y-40370185D01*
X121325452Y-40386819D01*
X121463181Y-40524548D01*
X121496666Y-40585871D01*
X121499500Y-40612229D01*
X121499500Y-42653315D01*
X121479815Y-42720354D01*
X121427011Y-42766109D01*
X121365772Y-42776933D01*
X121329474Y-42774076D01*
X120650000Y-43453551D01*
X120650000Y-43447339D01*
X120622741Y-43345606D01*
X120570080Y-43254394D01*
X120495606Y-43179920D01*
X120404394Y-43127259D01*
X120302661Y-43100000D01*
X120296446Y-43100000D01*
X120975922Y-42420524D01*
X120975921Y-42420523D01*
X120931359Y-42388147D01*
X120931350Y-42388141D01*
X120749031Y-42295244D01*
X120554417Y-42232009D01*
X120352317Y-42200000D01*
X120147683Y-42200000D01*
X119945582Y-42232009D01*
X119750968Y-42295244D01*
X119568644Y-42388143D01*
X119524077Y-42420523D01*
X119524077Y-42420524D01*
X120203554Y-43100000D01*
X120197339Y-43100000D01*
X120095606Y-43127259D01*
X120004394Y-43179920D01*
X119929920Y-43254394D01*
X119877259Y-43345606D01*
X119850000Y-43447339D01*
X119850000Y-43453553D01*
X119170524Y-42774077D01*
X119134230Y-42776934D01*
X119120618Y-42774074D01*
X119106853Y-42776054D01*
X119087101Y-42767033D01*
X119065852Y-42762570D01*
X119055947Y-42752806D01*
X119043297Y-42747029D01*
X119031557Y-42728762D01*
X119016095Y-42713519D01*
X119012268Y-42698747D01*
X119005523Y-42688251D01*
X119000500Y-42653316D01*
X119000500Y-42324079D01*
X118971659Y-42179092D01*
X118971658Y-42179091D01*
X118971658Y-42179087D01*
X118969514Y-42173910D01*
X118915087Y-42042511D01*
X118915080Y-42042498D01*
X118832952Y-41919585D01*
X118832951Y-41919584D01*
X118728416Y-41815049D01*
X118501858Y-41588491D01*
X117781421Y-40868052D01*
X117781414Y-40868046D01*
X117707729Y-40818812D01*
X117707729Y-40818813D01*
X117658491Y-40785913D01*
X117521917Y-40729343D01*
X117521907Y-40729340D01*
X117376920Y-40700500D01*
X117376918Y-40700500D01*
X116963229Y-40700500D01*
X116896190Y-40680815D01*
X116875548Y-40664181D01*
X116537819Y-40326451D01*
X116523115Y-40299523D01*
X116506523Y-40273705D01*
X116505631Y-40267504D01*
X116504334Y-40265128D01*
X116501500Y-40238770D01*
X116501500Y-40186289D01*
X118667261Y-40186289D01*
X118667262Y-40186290D01*
X118673471Y-40190801D01*
X118827742Y-40269408D01*
X118992415Y-40322914D01*
X119163429Y-40350000D01*
X119336571Y-40350000D01*
X119507584Y-40322914D01*
X119672257Y-40269408D01*
X119826525Y-40190803D01*
X119832736Y-40186289D01*
X119832737Y-40186289D01*
X119250001Y-39603553D01*
X119250000Y-39603553D01*
X118667261Y-40186289D01*
X116501500Y-40186289D01*
X116501500Y-39163428D01*
X118150000Y-39163428D01*
X118150000Y-39336571D01*
X118177085Y-39507584D01*
X118230592Y-39672259D01*
X118309196Y-39826525D01*
X118313709Y-39832736D01*
X118313709Y-39832737D01*
X118896446Y-39250000D01*
X118896446Y-39249999D01*
X118856951Y-39210504D01*
X118950000Y-39210504D01*
X118950000Y-39289496D01*
X118970444Y-39365796D01*
X119009940Y-39434205D01*
X119065795Y-39490060D01*
X119134204Y-39529556D01*
X119210504Y-39550000D01*
X119289496Y-39550000D01*
X119365796Y-39529556D01*
X119434205Y-39490060D01*
X119490060Y-39434205D01*
X119529556Y-39365796D01*
X119550000Y-39289496D01*
X119550000Y-39210504D01*
X119529556Y-39134204D01*
X119490060Y-39065795D01*
X119434205Y-39009940D01*
X119365796Y-38970444D01*
X119289496Y-38950000D01*
X119210504Y-38950000D01*
X119134204Y-38970444D01*
X119065795Y-39009940D01*
X119009940Y-39065795D01*
X118970444Y-39134204D01*
X118950000Y-39210504D01*
X118856951Y-39210504D01*
X118313709Y-38667261D01*
X118313708Y-38667261D01*
X118309203Y-38673463D01*
X118309193Y-38673480D01*
X118230592Y-38827740D01*
X118177085Y-38992415D01*
X118150000Y-39163428D01*
X116501500Y-39163428D01*
X116501500Y-38313708D01*
X118667261Y-38313708D01*
X118667261Y-38313709D01*
X119250000Y-38896446D01*
X119250001Y-38896446D01*
X119832737Y-38313709D01*
X119826525Y-38309196D01*
X119672259Y-38230592D01*
X119507584Y-38177085D01*
X119336571Y-38150000D01*
X119163429Y-38150000D01*
X118992415Y-38177085D01*
X118827740Y-38230592D01*
X118673480Y-38309193D01*
X118673463Y-38309203D01*
X118667261Y-38313708D01*
X116501500Y-38313708D01*
X116501500Y-35875763D01*
X116521185Y-35808724D01*
X116573989Y-35762969D01*
X116643147Y-35753025D01*
X116706703Y-35782050D01*
X116725819Y-35802879D01*
X116758030Y-35847215D01*
X116902786Y-35991971D01*
X117023226Y-36079474D01*
X117068390Y-36112287D01*
X117184607Y-36171503D01*
X117250776Y-36205218D01*
X117250778Y-36205218D01*
X117250781Y-36205220D01*
X117355137Y-36239127D01*
X117445465Y-36268477D01*
X117546557Y-36284488D01*
X117647648Y-36300500D01*
X117647649Y-36300500D01*
X117852351Y-36300500D01*
X117852352Y-36300500D01*
X118054534Y-36268477D01*
X118249219Y-36205220D01*
X118431610Y-36112287D01*
X118524590Y-36044732D01*
X118597213Y-35991971D01*
X118597215Y-35991968D01*
X118597219Y-35991966D01*
X118741966Y-35847219D01*
X118779056Y-35796168D01*
X118783581Y-35791181D01*
X118807882Y-35776335D01*
X118830429Y-35758949D01*
X118838967Y-35757345D01*
X118843205Y-35754757D01*
X118851716Y-35754951D01*
X118875418Y-35750500D01*
X119864920Y-35750500D01*
X119962462Y-35731096D01*
X120009913Y-35721658D01*
X120146495Y-35665084D01*
X120195729Y-35632186D01*
X120269416Y-35582952D01*
X121273865Y-34578502D01*
X121335185Y-34545019D01*
X121404876Y-34550003D01*
X121460810Y-34591874D01*
X121485227Y-34657339D01*
X121482484Y-34690725D01*
X121482772Y-34690771D01*
X121482166Y-34694594D01*
X121482125Y-34695099D01*
X121482011Y-34695571D01*
X121450000Y-34897682D01*
X121450000Y-35102317D01*
X121482009Y-35304417D01*
X121545244Y-35499031D01*
X121638141Y-35681350D01*
X121638147Y-35681359D01*
X121670523Y-35725921D01*
X121670524Y-35725922D01*
X122350000Y-35046446D01*
X122350000Y-35052661D01*
X122377259Y-35154394D01*
X122429920Y-35245606D01*
X122504394Y-35320080D01*
X122595606Y-35372741D01*
X122697339Y-35400000D01*
X122703553Y-35400000D01*
X122024076Y-36079474D01*
X122068650Y-36111859D01*
X122250968Y-36204755D01*
X122445582Y-36267990D01*
X122647683Y-36300000D01*
X122852317Y-36300000D01*
X123054417Y-36267990D01*
X123249031Y-36204755D01*
X123431349Y-36111859D01*
X123475921Y-36079474D01*
X122796447Y-35400000D01*
X122802661Y-35400000D01*
X122904394Y-35372741D01*
X122995606Y-35320080D01*
X123070080Y-35245606D01*
X123122741Y-35154394D01*
X123150000Y-35052661D01*
X123150000Y-35046447D01*
X123829474Y-35725921D01*
X123861859Y-35681349D01*
X123954755Y-35499031D01*
X124017990Y-35304417D01*
X124050000Y-35102317D01*
X124050000Y-34897682D01*
X124017990Y-34695582D01*
X123954755Y-34500968D01*
X123861859Y-34318650D01*
X123829474Y-34274077D01*
X123829474Y-34274076D01*
X123150000Y-34953551D01*
X123150000Y-34947339D01*
X123122741Y-34845606D01*
X123070080Y-34754394D01*
X122995606Y-34679920D01*
X122904394Y-34627259D01*
X122802661Y-34600000D01*
X122796446Y-34600000D01*
X123475922Y-33920524D01*
X123475921Y-33920523D01*
X123431359Y-33888147D01*
X123431350Y-33888141D01*
X123249031Y-33795244D01*
X123054417Y-33732009D01*
X123022301Y-33726923D01*
X122959166Y-33696993D01*
X122922235Y-33637682D01*
X122923233Y-33567819D01*
X122961843Y-33509587D01*
X123022300Y-33481977D01*
X123131245Y-33464722D01*
X123131248Y-33464721D01*
X123131249Y-33464721D01*
X123348755Y-33394049D01*
X123348755Y-33394048D01*
X123348758Y-33394048D01*
X123552538Y-33290217D01*
X123737566Y-33155786D01*
X123899286Y-32994066D01*
X124033717Y-32809038D01*
X124137548Y-32605258D01*
X124201866Y-32407308D01*
X124208221Y-32387749D01*
X124208221Y-32387748D01*
X124208222Y-32387745D01*
X124244000Y-32161854D01*
X124244000Y-31838146D01*
X124208222Y-31612255D01*
X124208221Y-31612251D01*
X124208221Y-31612250D01*
X124137549Y-31394744D01*
X124033716Y-31190961D01*
X123996333Y-31139508D01*
X123899286Y-31005934D01*
X123737566Y-30844214D01*
X123552538Y-30709783D01*
X123348755Y-30605950D01*
X123131248Y-30535278D01*
X122945812Y-30505908D01*
X122905354Y-30499500D01*
X122676646Y-30499500D01*
X122636188Y-30505908D01*
X122450753Y-30535278D01*
X122450750Y-30535278D01*
X122233244Y-30605950D01*
X122029461Y-30709783D01*
X121963550Y-30757671D01*
X121844434Y-30844214D01*
X121844432Y-30844216D01*
X121844431Y-30844216D01*
X121682716Y-31005931D01*
X121682709Y-31005940D01*
X121621007Y-31090864D01*
X121565677Y-31133530D01*
X121496063Y-31139508D01*
X121434269Y-31106901D01*
X121420372Y-31090863D01*
X121358907Y-31006263D01*
X121358902Y-31006257D01*
X121197242Y-30844597D01*
X121012276Y-30710211D01*
X120808568Y-30606417D01*
X120591124Y-30535765D01*
X120501000Y-30521490D01*
X120501000Y-31509252D01*
X120463292Y-31487482D01*
X120323409Y-31450000D01*
X120178591Y-31450000D01*
X120038708Y-31487482D01*
X120001000Y-31509252D01*
X120001000Y-30521490D01*
X120000999Y-30521490D01*
X119910875Y-30535765D01*
X119693431Y-30606417D01*
X119489719Y-30710213D01*
X119306939Y-30843010D01*
X119241132Y-30866490D01*
X119173079Y-30850664D01*
X119124384Y-30800558D01*
X119117875Y-30786033D01*
X119107296Y-30757669D01*
X119107295Y-30757667D01*
X119107293Y-30757664D01*
X119021047Y-30642455D01*
X119021044Y-30642452D01*
X118905835Y-30556206D01*
X118905828Y-30556202D01*
X118770982Y-30505908D01*
X118770983Y-30505908D01*
X118711383Y-30499501D01*
X118711381Y-30499500D01*
X118711373Y-30499500D01*
X118711364Y-30499500D01*
X116710629Y-30499500D01*
X116710623Y-30499501D01*
X116651016Y-30505908D01*
X116516171Y-30556202D01*
X116516164Y-30556206D01*
X116400955Y-30642452D01*
X116400952Y-30642455D01*
X116314706Y-30757664D01*
X116314702Y-30757671D01*
X116264408Y-30892517D01*
X116258001Y-30952116D01*
X116258000Y-30952135D01*
X116258000Y-32340269D01*
X116238315Y-32407308D01*
X116221681Y-32427950D01*
X115712181Y-32937450D01*
X115650858Y-32970935D01*
X115581166Y-32965951D01*
X115525233Y-32924079D01*
X115500816Y-32858615D01*
X115500500Y-32849769D01*
X115500500Y-30124500D01*
X115520185Y-30057461D01*
X115572989Y-30011706D01*
X115624500Y-30000500D01*
X124875500Y-30000500D01*
X124942539Y-30020185D01*
G37*
%TD.AperFunction*%
%TD*%
M02*
