G04 #@! TF.GenerationSoftware,KiCad,Pcbnew,9.0.3*
G04 #@! TF.CreationDate,2025-07-11T16:30:41-04:00*
G04 #@! TF.ProjectId,main,6d61696e-2e6b-4696-9361-645f70636258,rev?*
G04 #@! TF.SameCoordinates,Original*
G04 #@! TF.FileFunction,Paste,Top*
G04 #@! TF.FilePolarity,Positive*
%FSLAX46Y46*%
G04 Gerber Fmt 4.6, Leading zero omitted, Abs format (unit mm)*
G04 Created by KiCad (PCBNEW 9.0.3) date 2025-07-11 16:30:41*
%MOMM*%
%LPD*%
G01*
G04 APERTURE LIST*
G04 Aperture macros list*
%AMRoundRect*
0 Rectangle with rounded corners*
0 $1 Rounding radius*
0 $2 $3 $4 $5 $6 $7 $8 $9 X,Y pos of 4 corners*
0 Add a 4 corners polygon primitive as box body*
4,1,4,$2,$3,$4,$5,$6,$7,$8,$9,$2,$3,0*
0 Add four circle primitives for the rounded corners*
1,1,$1+$1,$2,$3*
1,1,$1+$1,$4,$5*
1,1,$1+$1,$6,$7*
1,1,$1+$1,$8,$9*
0 Add four rect primitives between the rounded corners*
20,1,$1+$1,$2,$3,$4,$5,0*
20,1,$1+$1,$4,$5,$6,$7,0*
20,1,$1+$1,$6,$7,$8,$9,0*
20,1,$1+$1,$8,$9,$2,$3,0*%
G04 Aperture macros list end*
%ADD10RoundRect,0.225000X-0.225000X-0.250000X0.225000X-0.250000X0.225000X0.250000X-0.225000X0.250000X0*%
%ADD11RoundRect,0.200000X0.200000X0.275000X-0.200000X0.275000X-0.200000X-0.275000X0.200000X-0.275000X0*%
%ADD12RoundRect,0.200000X-0.275000X0.200000X-0.275000X-0.200000X0.275000X-0.200000X0.275000X0.200000X0*%
%ADD13RoundRect,0.200000X0.275000X-0.200000X0.275000X0.200000X-0.275000X0.200000X-0.275000X-0.200000X0*%
%ADD14RoundRect,0.225000X0.225000X0.250000X-0.225000X0.250000X-0.225000X-0.250000X0.225000X-0.250000X0*%
%ADD15RoundRect,0.225000X-0.250000X0.225000X-0.250000X-0.225000X0.250000X-0.225000X0.250000X0.225000X0*%
%ADD16RoundRect,0.100000X0.100000X-0.637500X0.100000X0.637500X-0.100000X0.637500X-0.100000X-0.637500X0*%
%ADD17RoundRect,0.232500X0.757500X0.232500X-0.757500X0.232500X-0.757500X-0.232500X0.757500X-0.232500X0*%
%ADD18RoundRect,0.100000X0.687500X0.100000X-0.687500X0.100000X-0.687500X-0.100000X0.687500X-0.100000X0*%
G04 APERTURE END LIST*
D10*
X146700000Y-81950000D03*
X148250000Y-81950000D03*
D11*
X125150000Y-79000000D03*
X123500000Y-79000000D03*
D12*
X142500000Y-84420000D03*
X142500000Y-86070000D03*
D13*
X147050000Y-80325000D03*
X147050000Y-78675000D03*
D11*
X125150000Y-81500000D03*
X123500000Y-81500000D03*
D14*
X134250000Y-76500000D03*
X132700000Y-76500000D03*
D13*
X145500000Y-80325000D03*
X145500000Y-78675000D03*
D15*
X117000000Y-82000000D03*
X117000000Y-83550000D03*
D16*
X109600000Y-83137500D03*
X110250000Y-83137500D03*
X110900000Y-83137500D03*
X111550000Y-83137500D03*
X112200000Y-83137500D03*
X112850000Y-83137500D03*
X113500000Y-83137500D03*
X114150000Y-83137500D03*
X114800000Y-83137500D03*
X115450000Y-83137500D03*
X115450000Y-77412500D03*
X114800000Y-77412500D03*
X114150000Y-77412500D03*
X113500000Y-77412500D03*
X112850000Y-77412500D03*
X112200000Y-77412500D03*
X111550000Y-77412500D03*
X110900000Y-77412500D03*
X110250000Y-77412500D03*
X109600000Y-77412500D03*
D10*
X135750000Y-76500000D03*
X137300000Y-76500000D03*
D17*
X147500000Y-86080000D03*
X147500000Y-84920000D03*
D18*
X150362500Y-87775000D03*
X150362500Y-87125000D03*
X150362500Y-86475000D03*
X150362500Y-85825000D03*
X150362500Y-85175000D03*
X150362500Y-84525000D03*
X150362500Y-83875000D03*
X150362500Y-83225000D03*
X144637500Y-83225000D03*
X144637500Y-83875000D03*
X144637500Y-84525000D03*
X144637500Y-85175000D03*
X144637500Y-85825000D03*
X144637500Y-86475000D03*
X144637500Y-87125000D03*
X144637500Y-87775000D03*
M02*
