G04 #@! TF.GenerationSoftware,KiCad,Pcbnew,9.0.3*
G04 #@! TF.CreationDate,2025-07-11T16:30:41-04:00*
G04 #@! TF.ProjectId,main,6d61696e-2e6b-4696-9361-645f70636258,rev?*
G04 #@! TF.SameCoordinates,Original*
G04 #@! TF.FileFunction,Legend,Bot*
G04 #@! TF.FilePolarity,Positive*
%FSLAX46Y46*%
G04 Gerber Fmt 4.6, Leading zero omitted, Abs format (unit mm)*
G04 Created by KiCad (PCBNEW 9.0.3) date 2025-07-11 16:30:41*
%MOMM*%
%LPD*%
G01*
G04 APERTURE LIST*
%ADD10C,0.150000*%
%ADD11C,0.120000*%
%ADD12C,0.000000*%
G04 APERTURE END LIST*
D10*
X126828572Y-77088026D02*
X126923811Y-77040407D01*
X126923811Y-77040407D02*
X127114287Y-77040407D01*
X127114287Y-77040407D02*
X127209525Y-77088026D01*
X127209525Y-77088026D02*
X127304763Y-77183264D01*
X127304763Y-77183264D02*
X127352382Y-77278502D01*
X127352382Y-77278502D02*
X127352382Y-77468978D01*
X127352382Y-77468978D02*
X127304763Y-77564216D01*
X127304763Y-77564216D02*
X127209525Y-77659454D01*
X127209525Y-77659454D02*
X127114287Y-77707073D01*
X127114287Y-77707073D02*
X126923811Y-77707073D01*
X126923811Y-77707073D02*
X126828572Y-77659454D01*
X127019049Y-76707073D02*
X127257144Y-76754692D01*
X127257144Y-76754692D02*
X127495239Y-76897550D01*
X127495239Y-76897550D02*
X127638096Y-77135645D01*
X127638096Y-77135645D02*
X127685715Y-77373740D01*
X127685715Y-77373740D02*
X127638096Y-77611835D01*
X127638096Y-77611835D02*
X127495239Y-77849931D01*
X127495239Y-77849931D02*
X127257144Y-77992788D01*
X127257144Y-77992788D02*
X127019049Y-78040407D01*
X127019049Y-78040407D02*
X126780953Y-77992788D01*
X126780953Y-77992788D02*
X126542858Y-77849931D01*
X126542858Y-77849931D02*
X126400001Y-77611835D01*
X126400001Y-77611835D02*
X126352382Y-77373740D01*
X126352382Y-77373740D02*
X126400001Y-77135645D01*
X126400001Y-77135645D02*
X126542858Y-76897550D01*
X126542858Y-76897550D02*
X126780953Y-76754692D01*
X126780953Y-76754692D02*
X127019049Y-76707073D01*
X125209524Y-76945169D02*
X125161905Y-76897550D01*
X125161905Y-76897550D02*
X125066667Y-76849931D01*
X125066667Y-76849931D02*
X124828572Y-76849931D01*
X124828572Y-76849931D02*
X124733334Y-76897550D01*
X124733334Y-76897550D02*
X124685715Y-76945169D01*
X124685715Y-76945169D02*
X124638096Y-77040407D01*
X124638096Y-77040407D02*
X124638096Y-77135645D01*
X124638096Y-77135645D02*
X124685715Y-77278502D01*
X124685715Y-77278502D02*
X125257143Y-77849931D01*
X125257143Y-77849931D02*
X124638096Y-77849931D01*
X124019048Y-76849931D02*
X123923810Y-76849931D01*
X123923810Y-76849931D02*
X123828572Y-76897550D01*
X123828572Y-76897550D02*
X123780953Y-76945169D01*
X123780953Y-76945169D02*
X123733334Y-77040407D01*
X123733334Y-77040407D02*
X123685715Y-77230883D01*
X123685715Y-77230883D02*
X123685715Y-77468978D01*
X123685715Y-77468978D02*
X123733334Y-77659454D01*
X123733334Y-77659454D02*
X123780953Y-77754692D01*
X123780953Y-77754692D02*
X123828572Y-77802312D01*
X123828572Y-77802312D02*
X123923810Y-77849931D01*
X123923810Y-77849931D02*
X124019048Y-77849931D01*
X124019048Y-77849931D02*
X124114286Y-77802312D01*
X124114286Y-77802312D02*
X124161905Y-77754692D01*
X124161905Y-77754692D02*
X124209524Y-77659454D01*
X124209524Y-77659454D02*
X124257143Y-77468978D01*
X124257143Y-77468978D02*
X124257143Y-77230883D01*
X124257143Y-77230883D02*
X124209524Y-77040407D01*
X124209524Y-77040407D02*
X124161905Y-76945169D01*
X124161905Y-76945169D02*
X124114286Y-76897550D01*
X124114286Y-76897550D02*
X124019048Y-76849931D01*
X123304762Y-76945169D02*
X123257143Y-76897550D01*
X123257143Y-76897550D02*
X123161905Y-76849931D01*
X123161905Y-76849931D02*
X122923810Y-76849931D01*
X122923810Y-76849931D02*
X122828572Y-76897550D01*
X122828572Y-76897550D02*
X122780953Y-76945169D01*
X122780953Y-76945169D02*
X122733334Y-77040407D01*
X122733334Y-77040407D02*
X122733334Y-77135645D01*
X122733334Y-77135645D02*
X122780953Y-77278502D01*
X122780953Y-77278502D02*
X123352381Y-77849931D01*
X123352381Y-77849931D02*
X122733334Y-77849931D01*
X121828572Y-76849931D02*
X122304762Y-76849931D01*
X122304762Y-76849931D02*
X122352381Y-77326121D01*
X122352381Y-77326121D02*
X122304762Y-77278502D01*
X122304762Y-77278502D02*
X122209524Y-77230883D01*
X122209524Y-77230883D02*
X121971429Y-77230883D01*
X121971429Y-77230883D02*
X121876191Y-77278502D01*
X121876191Y-77278502D02*
X121828572Y-77326121D01*
X121828572Y-77326121D02*
X121780953Y-77421359D01*
X121780953Y-77421359D02*
X121780953Y-77659454D01*
X121780953Y-77659454D02*
X121828572Y-77754692D01*
X121828572Y-77754692D02*
X121876191Y-77802312D01*
X121876191Y-77802312D02*
X121971429Y-77849931D01*
X121971429Y-77849931D02*
X122209524Y-77849931D01*
X122209524Y-77849931D02*
X122304762Y-77802312D01*
X122304762Y-77802312D02*
X122352381Y-77754692D01*
X120638095Y-77802312D02*
X120495238Y-77849931D01*
X120495238Y-77849931D02*
X120257143Y-77849931D01*
X120257143Y-77849931D02*
X120161905Y-77802312D01*
X120161905Y-77802312D02*
X120114286Y-77754692D01*
X120114286Y-77754692D02*
X120066667Y-77659454D01*
X120066667Y-77659454D02*
X120066667Y-77564216D01*
X120066667Y-77564216D02*
X120114286Y-77468978D01*
X120114286Y-77468978D02*
X120161905Y-77421359D01*
X120161905Y-77421359D02*
X120257143Y-77373740D01*
X120257143Y-77373740D02*
X120447619Y-77326121D01*
X120447619Y-77326121D02*
X120542857Y-77278502D01*
X120542857Y-77278502D02*
X120590476Y-77230883D01*
X120590476Y-77230883D02*
X120638095Y-77135645D01*
X120638095Y-77135645D02*
X120638095Y-77040407D01*
X120638095Y-77040407D02*
X120590476Y-76945169D01*
X120590476Y-76945169D02*
X120542857Y-76897550D01*
X120542857Y-76897550D02*
X120447619Y-76849931D01*
X120447619Y-76849931D02*
X120209524Y-76849931D01*
X120209524Y-76849931D02*
X120066667Y-76897550D01*
X119780952Y-77183264D02*
X119400000Y-77183264D01*
X119638095Y-76849931D02*
X119638095Y-77707073D01*
X119638095Y-77707073D02*
X119590476Y-77802312D01*
X119590476Y-77802312D02*
X119495238Y-77849931D01*
X119495238Y-77849931D02*
X119400000Y-77849931D01*
X118685714Y-77802312D02*
X118780952Y-77849931D01*
X118780952Y-77849931D02*
X118971428Y-77849931D01*
X118971428Y-77849931D02*
X119066666Y-77802312D01*
X119066666Y-77802312D02*
X119114285Y-77707073D01*
X119114285Y-77707073D02*
X119114285Y-77326121D01*
X119114285Y-77326121D02*
X119066666Y-77230883D01*
X119066666Y-77230883D02*
X118971428Y-77183264D01*
X118971428Y-77183264D02*
X118780952Y-77183264D01*
X118780952Y-77183264D02*
X118685714Y-77230883D01*
X118685714Y-77230883D02*
X118638095Y-77326121D01*
X118638095Y-77326121D02*
X118638095Y-77421359D01*
X118638095Y-77421359D02*
X119114285Y-77516597D01*
X118352380Y-77183264D02*
X117971428Y-77183264D01*
X118209523Y-77849931D02*
X118209523Y-76992788D01*
X118209523Y-76992788D02*
X118161904Y-76897550D01*
X118161904Y-76897550D02*
X118066666Y-76849931D01*
X118066666Y-76849931D02*
X117971428Y-76849931D01*
X117209523Y-77849931D02*
X117209523Y-77326121D01*
X117209523Y-77326121D02*
X117257142Y-77230883D01*
X117257142Y-77230883D02*
X117352380Y-77183264D01*
X117352380Y-77183264D02*
X117542856Y-77183264D01*
X117542856Y-77183264D02*
X117638094Y-77230883D01*
X117209523Y-77802312D02*
X117304761Y-77849931D01*
X117304761Y-77849931D02*
X117542856Y-77849931D01*
X117542856Y-77849931D02*
X117638094Y-77802312D01*
X117638094Y-77802312D02*
X117685713Y-77707073D01*
X117685713Y-77707073D02*
X117685713Y-77611835D01*
X117685713Y-77611835D02*
X117638094Y-77516597D01*
X117638094Y-77516597D02*
X117542856Y-77468978D01*
X117542856Y-77468978D02*
X117304761Y-77468978D01*
X117304761Y-77468978D02*
X117209523Y-77421359D01*
X116733332Y-77183264D02*
X116733332Y-77849931D01*
X116733332Y-77278502D02*
X116685713Y-77230883D01*
X116685713Y-77230883D02*
X116590475Y-77183264D01*
X116590475Y-77183264D02*
X116447618Y-77183264D01*
X116447618Y-77183264D02*
X116352380Y-77230883D01*
X116352380Y-77230883D02*
X116304761Y-77326121D01*
X116304761Y-77326121D02*
X116304761Y-77849931D01*
X115209522Y-76849931D02*
X114638094Y-76849931D01*
X114923808Y-77849931D02*
X114923808Y-76849931D01*
X113923808Y-77802312D02*
X114019046Y-77849931D01*
X114019046Y-77849931D02*
X114209522Y-77849931D01*
X114209522Y-77849931D02*
X114304760Y-77802312D01*
X114304760Y-77802312D02*
X114352379Y-77707073D01*
X114352379Y-77707073D02*
X114352379Y-77326121D01*
X114352379Y-77326121D02*
X114304760Y-77230883D01*
X114304760Y-77230883D02*
X114209522Y-77183264D01*
X114209522Y-77183264D02*
X114019046Y-77183264D01*
X114019046Y-77183264D02*
X113923808Y-77230883D01*
X113923808Y-77230883D02*
X113876189Y-77326121D01*
X113876189Y-77326121D02*
X113876189Y-77421359D01*
X113876189Y-77421359D02*
X114352379Y-77516597D01*
X113304760Y-77849931D02*
X113399998Y-77802312D01*
X113399998Y-77802312D02*
X113447617Y-77754692D01*
X113447617Y-77754692D02*
X113495236Y-77659454D01*
X113495236Y-77659454D02*
X113495236Y-77373740D01*
X113495236Y-77373740D02*
X113447617Y-77278502D01*
X113447617Y-77278502D02*
X113399998Y-77230883D01*
X113399998Y-77230883D02*
X113304760Y-77183264D01*
X113304760Y-77183264D02*
X113161903Y-77183264D01*
X113161903Y-77183264D02*
X113066665Y-77230883D01*
X113066665Y-77230883D02*
X113019046Y-77278502D01*
X113019046Y-77278502D02*
X112971427Y-77373740D01*
X112971427Y-77373740D02*
X112971427Y-77659454D01*
X112971427Y-77659454D02*
X113019046Y-77754692D01*
X113019046Y-77754692D02*
X113066665Y-77802312D01*
X113066665Y-77802312D02*
X113161903Y-77849931D01*
X113161903Y-77849931D02*
X113304760Y-77849931D01*
X112114284Y-77849931D02*
X112114284Y-76849931D01*
X112114284Y-77802312D02*
X112209522Y-77849931D01*
X112209522Y-77849931D02*
X112399998Y-77849931D01*
X112399998Y-77849931D02*
X112495236Y-77802312D01*
X112495236Y-77802312D02*
X112542855Y-77754692D01*
X112542855Y-77754692D02*
X112590474Y-77659454D01*
X112590474Y-77659454D02*
X112590474Y-77373740D01*
X112590474Y-77373740D02*
X112542855Y-77278502D01*
X112542855Y-77278502D02*
X112495236Y-77230883D01*
X112495236Y-77230883D02*
X112399998Y-77183264D01*
X112399998Y-77183264D02*
X112209522Y-77183264D01*
X112209522Y-77183264D02*
X112114284Y-77230883D01*
X111495236Y-77849931D02*
X111590474Y-77802312D01*
X111590474Y-77802312D02*
X111638093Y-77754692D01*
X111638093Y-77754692D02*
X111685712Y-77659454D01*
X111685712Y-77659454D02*
X111685712Y-77373740D01*
X111685712Y-77373740D02*
X111638093Y-77278502D01*
X111638093Y-77278502D02*
X111590474Y-77230883D01*
X111590474Y-77230883D02*
X111495236Y-77183264D01*
X111495236Y-77183264D02*
X111352379Y-77183264D01*
X111352379Y-77183264D02*
X111257141Y-77230883D01*
X111257141Y-77230883D02*
X111209522Y-77278502D01*
X111209522Y-77278502D02*
X111161903Y-77373740D01*
X111161903Y-77373740D02*
X111161903Y-77659454D01*
X111161903Y-77659454D02*
X111209522Y-77754692D01*
X111209522Y-77754692D02*
X111257141Y-77802312D01*
X111257141Y-77802312D02*
X111352379Y-77849931D01*
X111352379Y-77849931D02*
X111495236Y-77849931D01*
X110733331Y-77849931D02*
X110733331Y-77183264D01*
X110733331Y-77373740D02*
X110685712Y-77278502D01*
X110685712Y-77278502D02*
X110638093Y-77230883D01*
X110638093Y-77230883D02*
X110542855Y-77183264D01*
X110542855Y-77183264D02*
X110447617Y-77183264D01*
X109733331Y-77802312D02*
X109828569Y-77849931D01*
X109828569Y-77849931D02*
X110019045Y-77849931D01*
X110019045Y-77849931D02*
X110114283Y-77802312D01*
X110114283Y-77802312D02*
X110161902Y-77707073D01*
X110161902Y-77707073D02*
X110161902Y-77326121D01*
X110161902Y-77326121D02*
X110114283Y-77230883D01*
X110114283Y-77230883D02*
X110019045Y-77183264D01*
X110019045Y-77183264D02*
X109828569Y-77183264D01*
X109828569Y-77183264D02*
X109733331Y-77230883D01*
X109733331Y-77230883D02*
X109685712Y-77326121D01*
X109685712Y-77326121D02*
X109685712Y-77421359D01*
X109685712Y-77421359D02*
X110161902Y-77516597D01*
X109304759Y-77802312D02*
X109209521Y-77849931D01*
X109209521Y-77849931D02*
X109019045Y-77849931D01*
X109019045Y-77849931D02*
X108923807Y-77802312D01*
X108923807Y-77802312D02*
X108876188Y-77707073D01*
X108876188Y-77707073D02*
X108876188Y-77659454D01*
X108876188Y-77659454D02*
X108923807Y-77564216D01*
X108923807Y-77564216D02*
X109019045Y-77516597D01*
X109019045Y-77516597D02*
X109161902Y-77516597D01*
X109161902Y-77516597D02*
X109257140Y-77468978D01*
X109257140Y-77468978D02*
X109304759Y-77373740D01*
X109304759Y-77373740D02*
X109304759Y-77326121D01*
X109304759Y-77326121D02*
X109257140Y-77230883D01*
X109257140Y-77230883D02*
X109161902Y-77183264D01*
X109161902Y-77183264D02*
X109019045Y-77183264D01*
X109019045Y-77183264D02*
X108923807Y-77230883D01*
X108019045Y-77802312D02*
X108114283Y-77849931D01*
X108114283Y-77849931D02*
X108304759Y-77849931D01*
X108304759Y-77849931D02*
X108399997Y-77802312D01*
X108399997Y-77802312D02*
X108447616Y-77754692D01*
X108447616Y-77754692D02*
X108495235Y-77659454D01*
X108495235Y-77659454D02*
X108495235Y-77373740D01*
X108495235Y-77373740D02*
X108447616Y-77278502D01*
X108447616Y-77278502D02*
X108399997Y-77230883D01*
X108399997Y-77230883D02*
X108304759Y-77183264D01*
X108304759Y-77183264D02*
X108114283Y-77183264D01*
X108114283Y-77183264D02*
X108019045Y-77230883D01*
X107161902Y-77183264D02*
X107161902Y-77849931D01*
X107590473Y-77183264D02*
X107590473Y-77707073D01*
X107590473Y-77707073D02*
X107542854Y-77802312D01*
X107542854Y-77802312D02*
X107447616Y-77849931D01*
X107447616Y-77849931D02*
X107304759Y-77849931D01*
X107304759Y-77849931D02*
X107209521Y-77802312D01*
X107209521Y-77802312D02*
X107161902Y-77754692D01*
X125852382Y-79459875D02*
X125852382Y-78936065D01*
X125852382Y-78936065D02*
X125900001Y-78840827D01*
X125900001Y-78840827D02*
X125995239Y-78793208D01*
X125995239Y-78793208D02*
X126185715Y-78793208D01*
X126185715Y-78793208D02*
X126280953Y-78840827D01*
X125852382Y-79412256D02*
X125947620Y-79459875D01*
X125947620Y-79459875D02*
X126185715Y-79459875D01*
X126185715Y-79459875D02*
X126280953Y-79412256D01*
X126280953Y-79412256D02*
X126328572Y-79317017D01*
X126328572Y-79317017D02*
X126328572Y-79221779D01*
X126328572Y-79221779D02*
X126280953Y-79126541D01*
X126280953Y-79126541D02*
X126185715Y-79078922D01*
X126185715Y-79078922D02*
X125947620Y-79078922D01*
X125947620Y-79078922D02*
X125852382Y-79031303D01*
X125376191Y-78793208D02*
X125376191Y-79459875D01*
X125376191Y-78888446D02*
X125328572Y-78840827D01*
X125328572Y-78840827D02*
X125233334Y-78793208D01*
X125233334Y-78793208D02*
X125090477Y-78793208D01*
X125090477Y-78793208D02*
X124995239Y-78840827D01*
X124995239Y-78840827D02*
X124947620Y-78936065D01*
X124947620Y-78936065D02*
X124947620Y-79459875D01*
X124042858Y-79459875D02*
X124042858Y-78459875D01*
X124042858Y-79412256D02*
X124138096Y-79459875D01*
X124138096Y-79459875D02*
X124328572Y-79459875D01*
X124328572Y-79459875D02*
X124423810Y-79412256D01*
X124423810Y-79412256D02*
X124471429Y-79364636D01*
X124471429Y-79364636D02*
X124519048Y-79269398D01*
X124519048Y-79269398D02*
X124519048Y-78983684D01*
X124519048Y-78983684D02*
X124471429Y-78888446D01*
X124471429Y-78888446D02*
X124423810Y-78840827D01*
X124423810Y-78840827D02*
X124328572Y-78793208D01*
X124328572Y-78793208D02*
X124138096Y-78793208D01*
X124138096Y-78793208D02*
X124042858Y-78840827D01*
X122614286Y-78459875D02*
X122423810Y-78459875D01*
X122423810Y-78459875D02*
X122328572Y-78507494D01*
X122328572Y-78507494D02*
X122233334Y-78602732D01*
X122233334Y-78602732D02*
X122185715Y-78793208D01*
X122185715Y-78793208D02*
X122185715Y-79126541D01*
X122185715Y-79126541D02*
X122233334Y-79317017D01*
X122233334Y-79317017D02*
X122328572Y-79412256D01*
X122328572Y-79412256D02*
X122423810Y-79459875D01*
X122423810Y-79459875D02*
X122614286Y-79459875D01*
X122614286Y-79459875D02*
X122709524Y-79412256D01*
X122709524Y-79412256D02*
X122804762Y-79317017D01*
X122804762Y-79317017D02*
X122852381Y-79126541D01*
X122852381Y-79126541D02*
X122852381Y-78793208D01*
X122852381Y-78793208D02*
X122804762Y-78602732D01*
X122804762Y-78602732D02*
X122709524Y-78507494D01*
X122709524Y-78507494D02*
X122614286Y-78459875D01*
X121804762Y-79412256D02*
X121709524Y-79459875D01*
X121709524Y-79459875D02*
X121519048Y-79459875D01*
X121519048Y-79459875D02*
X121423810Y-79412256D01*
X121423810Y-79412256D02*
X121376191Y-79317017D01*
X121376191Y-79317017D02*
X121376191Y-79269398D01*
X121376191Y-79269398D02*
X121423810Y-79174160D01*
X121423810Y-79174160D02*
X121519048Y-79126541D01*
X121519048Y-79126541D02*
X121661905Y-79126541D01*
X121661905Y-79126541D02*
X121757143Y-79078922D01*
X121757143Y-79078922D02*
X121804762Y-78983684D01*
X121804762Y-78983684D02*
X121804762Y-78936065D01*
X121804762Y-78936065D02*
X121757143Y-78840827D01*
X121757143Y-78840827D02*
X121661905Y-78793208D01*
X121661905Y-78793208D02*
X121519048Y-78793208D01*
X121519048Y-78793208D02*
X121423810Y-78840827D01*
X120519048Y-79412256D02*
X120614286Y-79459875D01*
X120614286Y-79459875D02*
X120804762Y-79459875D01*
X120804762Y-79459875D02*
X120900000Y-79412256D01*
X120900000Y-79412256D02*
X120947619Y-79364636D01*
X120947619Y-79364636D02*
X120995238Y-79269398D01*
X120995238Y-79269398D02*
X120995238Y-78983684D01*
X120995238Y-78983684D02*
X120947619Y-78888446D01*
X120947619Y-78888446D02*
X120900000Y-78840827D01*
X120900000Y-78840827D02*
X120804762Y-78793208D01*
X120804762Y-78793208D02*
X120614286Y-78793208D01*
X120614286Y-78793208D02*
X120519048Y-78840827D01*
X119661905Y-79459875D02*
X119661905Y-78936065D01*
X119661905Y-78936065D02*
X119709524Y-78840827D01*
X119709524Y-78840827D02*
X119804762Y-78793208D01*
X119804762Y-78793208D02*
X119995238Y-78793208D01*
X119995238Y-78793208D02*
X120090476Y-78840827D01*
X119661905Y-79412256D02*
X119757143Y-79459875D01*
X119757143Y-79459875D02*
X119995238Y-79459875D01*
X119995238Y-79459875D02*
X120090476Y-79412256D01*
X120090476Y-79412256D02*
X120138095Y-79317017D01*
X120138095Y-79317017D02*
X120138095Y-79221779D01*
X120138095Y-79221779D02*
X120090476Y-79126541D01*
X120090476Y-79126541D02*
X119995238Y-79078922D01*
X119995238Y-79078922D02*
X119757143Y-79078922D01*
X119757143Y-79078922D02*
X119661905Y-79031303D01*
X119185714Y-79459875D02*
X119185714Y-78793208D01*
X119185714Y-78983684D02*
X119138095Y-78888446D01*
X119138095Y-78888446D02*
X119090476Y-78840827D01*
X119090476Y-78840827D02*
X118995238Y-78793208D01*
X118995238Y-78793208D02*
X118900000Y-78793208D01*
X117471428Y-78936065D02*
X117328571Y-78983684D01*
X117328571Y-78983684D02*
X117280952Y-79031303D01*
X117280952Y-79031303D02*
X117233333Y-79126541D01*
X117233333Y-79126541D02*
X117233333Y-79269398D01*
X117233333Y-79269398D02*
X117280952Y-79364636D01*
X117280952Y-79364636D02*
X117328571Y-79412256D01*
X117328571Y-79412256D02*
X117423809Y-79459875D01*
X117423809Y-79459875D02*
X117804761Y-79459875D01*
X117804761Y-79459875D02*
X117804761Y-78459875D01*
X117804761Y-78459875D02*
X117471428Y-78459875D01*
X117471428Y-78459875D02*
X117376190Y-78507494D01*
X117376190Y-78507494D02*
X117328571Y-78555113D01*
X117328571Y-78555113D02*
X117280952Y-78650351D01*
X117280952Y-78650351D02*
X117280952Y-78745589D01*
X117280952Y-78745589D02*
X117328571Y-78840827D01*
X117328571Y-78840827D02*
X117376190Y-78888446D01*
X117376190Y-78888446D02*
X117471428Y-78936065D01*
X117471428Y-78936065D02*
X117804761Y-78936065D01*
X116376190Y-79459875D02*
X116376190Y-78936065D01*
X116376190Y-78936065D02*
X116423809Y-78840827D01*
X116423809Y-78840827D02*
X116519047Y-78793208D01*
X116519047Y-78793208D02*
X116709523Y-78793208D01*
X116709523Y-78793208D02*
X116804761Y-78840827D01*
X116376190Y-79412256D02*
X116471428Y-79459875D01*
X116471428Y-79459875D02*
X116709523Y-79459875D01*
X116709523Y-79459875D02*
X116804761Y-79412256D01*
X116804761Y-79412256D02*
X116852380Y-79317017D01*
X116852380Y-79317017D02*
X116852380Y-79221779D01*
X116852380Y-79221779D02*
X116804761Y-79126541D01*
X116804761Y-79126541D02*
X116709523Y-79078922D01*
X116709523Y-79078922D02*
X116471428Y-79078922D01*
X116471428Y-79078922D02*
X116376190Y-79031303D01*
X115899999Y-79459875D02*
X115899999Y-78793208D01*
X115899999Y-78983684D02*
X115852380Y-78888446D01*
X115852380Y-78888446D02*
X115804761Y-78840827D01*
X115804761Y-78840827D02*
X115709523Y-78793208D01*
X115709523Y-78793208D02*
X115614285Y-78793208D01*
X115280951Y-79459875D02*
X115280951Y-78459875D01*
X115280951Y-78840827D02*
X115185713Y-78793208D01*
X115185713Y-78793208D02*
X114995237Y-78793208D01*
X114995237Y-78793208D02*
X114899999Y-78840827D01*
X114899999Y-78840827D02*
X114852380Y-78888446D01*
X114852380Y-78888446D02*
X114804761Y-78983684D01*
X114804761Y-78983684D02*
X114804761Y-79269398D01*
X114804761Y-79269398D02*
X114852380Y-79364636D01*
X114852380Y-79364636D02*
X114899999Y-79412256D01*
X114899999Y-79412256D02*
X114995237Y-79459875D01*
X114995237Y-79459875D02*
X115185713Y-79459875D01*
X115185713Y-79459875D02*
X115280951Y-79412256D01*
X114376189Y-79459875D02*
X114376189Y-78793208D01*
X114376189Y-78459875D02*
X114423808Y-78507494D01*
X114423808Y-78507494D02*
X114376189Y-78555113D01*
X114376189Y-78555113D02*
X114328570Y-78507494D01*
X114328570Y-78507494D02*
X114376189Y-78459875D01*
X114376189Y-78459875D02*
X114376189Y-78555113D01*
X113519047Y-79412256D02*
X113614285Y-79459875D01*
X113614285Y-79459875D02*
X113804761Y-79459875D01*
X113804761Y-79459875D02*
X113899999Y-79412256D01*
X113899999Y-79412256D02*
X113947618Y-79317017D01*
X113947618Y-79317017D02*
X113947618Y-78936065D01*
X113947618Y-78936065D02*
X113899999Y-78840827D01*
X113899999Y-78840827D02*
X113804761Y-78793208D01*
X113804761Y-78793208D02*
X113614285Y-78793208D01*
X113614285Y-78793208D02*
X113519047Y-78840827D01*
X113519047Y-78840827D02*
X113471428Y-78936065D01*
X113471428Y-78936065D02*
X113471428Y-79031303D01*
X113471428Y-79031303D02*
X113947618Y-79126541D01*
X113042856Y-79459875D02*
X113042856Y-78793208D01*
X113042856Y-78983684D02*
X112995237Y-78888446D01*
X112995237Y-78888446D02*
X112947618Y-78840827D01*
X112947618Y-78840827D02*
X112852380Y-78793208D01*
X112852380Y-78793208D02*
X112757142Y-78793208D01*
X112423808Y-79459875D02*
X112423808Y-78793208D01*
X112423808Y-78459875D02*
X112471427Y-78507494D01*
X112471427Y-78507494D02*
X112423808Y-78555113D01*
X112423808Y-78555113D02*
X112376189Y-78507494D01*
X112376189Y-78507494D02*
X112423808Y-78459875D01*
X112423808Y-78459875D02*
X112423808Y-78555113D01*
X111947618Y-79364636D02*
X111899999Y-79412256D01*
X111899999Y-79412256D02*
X111947618Y-79459875D01*
X111947618Y-79459875D02*
X111995237Y-79412256D01*
X111995237Y-79412256D02*
X111947618Y-79364636D01*
X111947618Y-79364636D02*
X111947618Y-79459875D01*
X110757142Y-79174160D02*
X110280952Y-79174160D01*
X110852380Y-79459875D02*
X110519047Y-78459875D01*
X110519047Y-78459875D02*
X110185714Y-79459875D01*
X109709523Y-79459875D02*
X109804761Y-79412256D01*
X109804761Y-79412256D02*
X109852380Y-79317017D01*
X109852380Y-79317017D02*
X109852380Y-78459875D01*
X109185713Y-79459875D02*
X109280951Y-79412256D01*
X109280951Y-79412256D02*
X109328570Y-79317017D01*
X109328570Y-79317017D02*
X109328570Y-78459875D01*
X123066667Y-81069819D02*
X123066667Y-80403152D01*
X123066667Y-80593628D02*
X123019048Y-80498390D01*
X123019048Y-80498390D02*
X122971429Y-80450771D01*
X122971429Y-80450771D02*
X122876191Y-80403152D01*
X122876191Y-80403152D02*
X122780953Y-80403152D01*
X122447619Y-81069819D02*
X122447619Y-80403152D01*
X122447619Y-80069819D02*
X122495238Y-80117438D01*
X122495238Y-80117438D02*
X122447619Y-80165057D01*
X122447619Y-80165057D02*
X122400000Y-80117438D01*
X122400000Y-80117438D02*
X122447619Y-80069819D01*
X122447619Y-80069819D02*
X122447619Y-80165057D01*
X121542858Y-80403152D02*
X121542858Y-81212676D01*
X121542858Y-81212676D02*
X121590477Y-81307914D01*
X121590477Y-81307914D02*
X121638096Y-81355533D01*
X121638096Y-81355533D02*
X121733334Y-81403152D01*
X121733334Y-81403152D02*
X121876191Y-81403152D01*
X121876191Y-81403152D02*
X121971429Y-81355533D01*
X121542858Y-81022200D02*
X121638096Y-81069819D01*
X121638096Y-81069819D02*
X121828572Y-81069819D01*
X121828572Y-81069819D02*
X121923810Y-81022200D01*
X121923810Y-81022200D02*
X121971429Y-80974580D01*
X121971429Y-80974580D02*
X122019048Y-80879342D01*
X122019048Y-80879342D02*
X122019048Y-80593628D01*
X122019048Y-80593628D02*
X121971429Y-80498390D01*
X121971429Y-80498390D02*
X121923810Y-80450771D01*
X121923810Y-80450771D02*
X121828572Y-80403152D01*
X121828572Y-80403152D02*
X121638096Y-80403152D01*
X121638096Y-80403152D02*
X121542858Y-80450771D01*
X121066667Y-81069819D02*
X121066667Y-80069819D01*
X120638096Y-81069819D02*
X120638096Y-80546009D01*
X120638096Y-80546009D02*
X120685715Y-80450771D01*
X120685715Y-80450771D02*
X120780953Y-80403152D01*
X120780953Y-80403152D02*
X120923810Y-80403152D01*
X120923810Y-80403152D02*
X121019048Y-80450771D01*
X121019048Y-80450771D02*
X121066667Y-80498390D01*
X120304762Y-80403152D02*
X119923810Y-80403152D01*
X120161905Y-80069819D02*
X120161905Y-80926961D01*
X120161905Y-80926961D02*
X120114286Y-81022200D01*
X120114286Y-81022200D02*
X120019048Y-81069819D01*
X120019048Y-81069819D02*
X119923810Y-81069819D01*
X119638095Y-81022200D02*
X119542857Y-81069819D01*
X119542857Y-81069819D02*
X119352381Y-81069819D01*
X119352381Y-81069819D02*
X119257143Y-81022200D01*
X119257143Y-81022200D02*
X119209524Y-80926961D01*
X119209524Y-80926961D02*
X119209524Y-80879342D01*
X119209524Y-80879342D02*
X119257143Y-80784104D01*
X119257143Y-80784104D02*
X119352381Y-80736485D01*
X119352381Y-80736485D02*
X119495238Y-80736485D01*
X119495238Y-80736485D02*
X119590476Y-80688866D01*
X119590476Y-80688866D02*
X119638095Y-80593628D01*
X119638095Y-80593628D02*
X119638095Y-80546009D01*
X119638095Y-80546009D02*
X119590476Y-80450771D01*
X119590476Y-80450771D02*
X119495238Y-80403152D01*
X119495238Y-80403152D02*
X119352381Y-80403152D01*
X119352381Y-80403152D02*
X119257143Y-80450771D01*
X118019047Y-81069819D02*
X118019047Y-80403152D01*
X118019047Y-80593628D02*
X117971428Y-80498390D01*
X117971428Y-80498390D02*
X117923809Y-80450771D01*
X117923809Y-80450771D02*
X117828571Y-80403152D01*
X117828571Y-80403152D02*
X117733333Y-80403152D01*
X117019047Y-81022200D02*
X117114285Y-81069819D01*
X117114285Y-81069819D02*
X117304761Y-81069819D01*
X117304761Y-81069819D02*
X117399999Y-81022200D01*
X117399999Y-81022200D02*
X117447618Y-80926961D01*
X117447618Y-80926961D02*
X117447618Y-80546009D01*
X117447618Y-80546009D02*
X117399999Y-80450771D01*
X117399999Y-80450771D02*
X117304761Y-80403152D01*
X117304761Y-80403152D02*
X117114285Y-80403152D01*
X117114285Y-80403152D02*
X117019047Y-80450771D01*
X117019047Y-80450771D02*
X116971428Y-80546009D01*
X116971428Y-80546009D02*
X116971428Y-80641247D01*
X116971428Y-80641247D02*
X117447618Y-80736485D01*
X116590475Y-81022200D02*
X116495237Y-81069819D01*
X116495237Y-81069819D02*
X116304761Y-81069819D01*
X116304761Y-81069819D02*
X116209523Y-81022200D01*
X116209523Y-81022200D02*
X116161904Y-80926961D01*
X116161904Y-80926961D02*
X116161904Y-80879342D01*
X116161904Y-80879342D02*
X116209523Y-80784104D01*
X116209523Y-80784104D02*
X116304761Y-80736485D01*
X116304761Y-80736485D02*
X116447618Y-80736485D01*
X116447618Y-80736485D02*
X116542856Y-80688866D01*
X116542856Y-80688866D02*
X116590475Y-80593628D01*
X116590475Y-80593628D02*
X116590475Y-80546009D01*
X116590475Y-80546009D02*
X116542856Y-80450771D01*
X116542856Y-80450771D02*
X116447618Y-80403152D01*
X116447618Y-80403152D02*
X116304761Y-80403152D01*
X116304761Y-80403152D02*
X116209523Y-80450771D01*
X115352380Y-81022200D02*
X115447618Y-81069819D01*
X115447618Y-81069819D02*
X115638094Y-81069819D01*
X115638094Y-81069819D02*
X115733332Y-81022200D01*
X115733332Y-81022200D02*
X115780951Y-80926961D01*
X115780951Y-80926961D02*
X115780951Y-80546009D01*
X115780951Y-80546009D02*
X115733332Y-80450771D01*
X115733332Y-80450771D02*
X115638094Y-80403152D01*
X115638094Y-80403152D02*
X115447618Y-80403152D01*
X115447618Y-80403152D02*
X115352380Y-80450771D01*
X115352380Y-80450771D02*
X115304761Y-80546009D01*
X115304761Y-80546009D02*
X115304761Y-80641247D01*
X115304761Y-80641247D02*
X115780951Y-80736485D01*
X114876189Y-81069819D02*
X114876189Y-80403152D01*
X114876189Y-80593628D02*
X114828570Y-80498390D01*
X114828570Y-80498390D02*
X114780951Y-80450771D01*
X114780951Y-80450771D02*
X114685713Y-80403152D01*
X114685713Y-80403152D02*
X114590475Y-80403152D01*
X114352379Y-80403152D02*
X114114284Y-81069819D01*
X114114284Y-81069819D02*
X113876189Y-80403152D01*
X113114284Y-81022200D02*
X113209522Y-81069819D01*
X113209522Y-81069819D02*
X113399998Y-81069819D01*
X113399998Y-81069819D02*
X113495236Y-81022200D01*
X113495236Y-81022200D02*
X113542855Y-80926961D01*
X113542855Y-80926961D02*
X113542855Y-80546009D01*
X113542855Y-80546009D02*
X113495236Y-80450771D01*
X113495236Y-80450771D02*
X113399998Y-80403152D01*
X113399998Y-80403152D02*
X113209522Y-80403152D01*
X113209522Y-80403152D02*
X113114284Y-80450771D01*
X113114284Y-80450771D02*
X113066665Y-80546009D01*
X113066665Y-80546009D02*
X113066665Y-80641247D01*
X113066665Y-80641247D02*
X113542855Y-80736485D01*
X112209522Y-81069819D02*
X112209522Y-80069819D01*
X112209522Y-81022200D02*
X112304760Y-81069819D01*
X112304760Y-81069819D02*
X112495236Y-81069819D01*
X112495236Y-81069819D02*
X112590474Y-81022200D01*
X112590474Y-81022200D02*
X112638093Y-80974580D01*
X112638093Y-80974580D02*
X112685712Y-80879342D01*
X112685712Y-80879342D02*
X112685712Y-80593628D01*
X112685712Y-80593628D02*
X112638093Y-80498390D01*
X112638093Y-80498390D02*
X112590474Y-80450771D01*
X112590474Y-80450771D02*
X112495236Y-80403152D01*
X112495236Y-80403152D02*
X112304760Y-80403152D01*
X112304760Y-80403152D02*
X112209522Y-80450771D01*
X111733331Y-80974580D02*
X111685712Y-81022200D01*
X111685712Y-81022200D02*
X111733331Y-81069819D01*
X111733331Y-81069819D02*
X111780950Y-81022200D01*
X111780950Y-81022200D02*
X111733331Y-80974580D01*
X111733331Y-80974580D02*
X111733331Y-81069819D01*
D11*
X107040000Y-70900000D02*
X107040000Y-73500000D01*
X107040000Y-70900000D02*
X157960000Y-70900000D01*
X107040000Y-73500000D02*
X109640000Y-73500000D01*
X107040000Y-74770000D02*
X107040000Y-76100000D01*
X107040000Y-76100000D02*
X108370000Y-76100000D01*
X109640000Y-73500000D02*
X109640000Y-76100000D01*
X109640000Y-76100000D02*
X157960000Y-76100000D01*
X157960000Y-70900000D02*
X157960000Y-76100000D01*
D12*
G36*
X132689386Y-90250000D02*
G01*
X132689386Y-92750615D01*
X131439078Y-92750615D01*
X130188770Y-92750615D01*
X130188770Y-90250000D01*
X130188770Y-87749385D01*
X131439078Y-87749385D01*
X132689386Y-87749385D01*
X132689386Y-90250000D01*
G37*
G36*
X140191231Y-90250000D02*
G01*
X140191231Y-92750615D01*
X138940924Y-92750615D01*
X137690616Y-92750615D01*
X137690616Y-90250000D01*
X137690616Y-87749385D01*
X138940924Y-87749385D01*
X140191231Y-87749385D01*
X140191231Y-90250000D01*
G37*
G36*
X135190112Y-88174837D02*
G01*
X135194077Y-88181556D01*
X135203136Y-88198362D01*
X135216799Y-88224305D01*
X135234572Y-88258434D01*
X135255964Y-88299796D01*
X135280483Y-88347442D01*
X135307636Y-88400420D01*
X135336932Y-88457780D01*
X135367879Y-88518569D01*
X135381034Y-88544426D01*
X135420420Y-88621472D01*
X135454563Y-88687643D01*
X135483620Y-88743227D01*
X135507748Y-88788515D01*
X135527100Y-88823796D01*
X135541834Y-88849362D01*
X135552105Y-88865500D01*
X135558069Y-88872503D01*
X135564665Y-88876549D01*
X135574822Y-88881091D01*
X135585833Y-88883007D01*
X135598929Y-88881824D01*
X135615347Y-88877064D01*
X135636319Y-88868254D01*
X135663079Y-88854917D01*
X135696862Y-88836579D01*
X135738901Y-88812763D01*
X135790430Y-88782995D01*
X135813975Y-88769407D01*
X135854009Y-88746677D01*
X135889749Y-88726861D01*
X135919902Y-88710646D01*
X135943175Y-88698725D01*
X135958271Y-88691786D01*
X135963899Y-88690519D01*
X135963356Y-88695331D01*
X135960648Y-88711672D01*
X135955845Y-88738660D01*
X135949118Y-88775398D01*
X135940634Y-88820989D01*
X135930563Y-88874534D01*
X135919073Y-88935137D01*
X135906334Y-89001900D01*
X135892515Y-89073925D01*
X135877785Y-89150315D01*
X135862311Y-89230173D01*
X135850294Y-89292217D01*
X135835275Y-89370246D01*
X135821099Y-89444439D01*
X135807939Y-89513858D01*
X135795969Y-89577568D01*
X135785364Y-89634630D01*
X135776298Y-89684108D01*
X135768943Y-89725064D01*
X135763474Y-89756563D01*
X135760066Y-89777667D01*
X135758891Y-89787438D01*
X135758982Y-89791767D01*
X135763615Y-89812938D01*
X135777133Y-89832611D01*
X135789574Y-89844747D01*
X135803615Y-89851429D01*
X135823516Y-89853027D01*
X135831460Y-89852819D01*
X135851971Y-89848612D01*
X135868620Y-89837398D01*
X135869201Y-89836850D01*
X135877900Y-89828032D01*
X135894098Y-89811149D01*
X135916901Y-89787150D01*
X135945414Y-89756982D01*
X135978743Y-89721594D01*
X136015993Y-89681934D01*
X136056269Y-89638949D01*
X136098677Y-89593588D01*
X136107548Y-89584092D01*
X136148879Y-89539946D01*
X136187432Y-89498920D01*
X136222387Y-89461875D01*
X136252924Y-89429674D01*
X136278224Y-89403179D01*
X136297467Y-89383253D01*
X136309834Y-89370757D01*
X136314505Y-89366554D01*
X136315552Y-89368224D01*
X136320879Y-89379356D01*
X136329949Y-89399526D01*
X136342035Y-89427092D01*
X136356415Y-89460410D01*
X136372364Y-89497836D01*
X136376977Y-89508706D01*
X136396373Y-89553627D01*
X136412302Y-89588442D01*
X136425672Y-89614416D01*
X136437394Y-89632814D01*
X136448377Y-89644902D01*
X136459529Y-89651947D01*
X136471761Y-89655212D01*
X136485981Y-89655964D01*
X136492423Y-89655361D01*
X136511342Y-89652411D01*
X136540159Y-89647249D01*
X136577486Y-89640146D01*
X136621937Y-89631372D01*
X136672122Y-89621199D01*
X136726653Y-89609898D01*
X136784143Y-89597739D01*
X136826558Y-89588740D01*
X136880186Y-89577541D01*
X136929020Y-89567547D01*
X136971821Y-89559001D01*
X137007354Y-89552145D01*
X137034380Y-89547220D01*
X137051664Y-89544470D01*
X137057967Y-89544136D01*
X137057950Y-89544660D01*
X137055584Y-89553897D01*
X137049760Y-89573605D01*
X137040838Y-89602640D01*
X137029178Y-89639861D01*
X137015139Y-89684123D01*
X136999083Y-89734285D01*
X136981368Y-89789203D01*
X136962355Y-89847733D01*
X136951048Y-89882492D01*
X136929097Y-89950485D01*
X136910896Y-90007719D01*
X136896228Y-90054922D01*
X136884879Y-90092827D01*
X136876631Y-90122163D01*
X136871269Y-90143663D01*
X136868577Y-90158055D01*
X136868340Y-90166072D01*
X136871447Y-90176912D01*
X136878412Y-90188621D01*
X136890281Y-90200360D01*
X136908393Y-90213052D01*
X136934091Y-90227620D01*
X136968715Y-90244987D01*
X137013606Y-90266076D01*
X137015532Y-90266964D01*
X137048825Y-90282555D01*
X137077634Y-90296476D01*
X137100232Y-90307858D01*
X137114891Y-90315832D01*
X137119882Y-90319529D01*
X137118095Y-90321212D01*
X137107710Y-90329995D01*
X137088637Y-90345782D01*
X137061531Y-90368038D01*
X137027048Y-90396231D01*
X136985842Y-90429827D01*
X136938568Y-90468294D01*
X136885881Y-90511097D01*
X136828437Y-90557704D01*
X136766889Y-90607582D01*
X136701894Y-90660196D01*
X136634106Y-90715014D01*
X136596321Y-90745579D01*
X136529502Y-90799754D01*
X136465631Y-90851696D01*
X136405388Y-90900844D01*
X136349451Y-90946639D01*
X136298499Y-90988518D01*
X136253213Y-91025924D01*
X136214273Y-91058294D01*
X136182356Y-91085068D01*
X136158143Y-91105687D01*
X136142313Y-91119589D01*
X136135546Y-91126215D01*
X136134003Y-91128463D01*
X136125111Y-91146149D01*
X136121484Y-91162086D01*
X136121546Y-91162990D01*
X136124322Y-91174745D01*
X136130818Y-91196282D01*
X136140483Y-91225945D01*
X136152768Y-91262080D01*
X136167123Y-91303031D01*
X136182997Y-91347145D01*
X136186634Y-91357132D01*
X136202042Y-91399600D01*
X136215787Y-91437736D01*
X136227343Y-91470059D01*
X136236180Y-91495087D01*
X136241773Y-91511338D01*
X136243593Y-91517331D01*
X136239130Y-91516762D01*
X136223301Y-91514217D01*
X136196962Y-91509804D01*
X136161089Y-91503691D01*
X136116654Y-91496047D01*
X136064635Y-91487040D01*
X136006004Y-91476839D01*
X135941738Y-91465611D01*
X135872810Y-91453525D01*
X135800196Y-91440750D01*
X135742266Y-91430581D01*
X135671171Y-91418214D01*
X135603973Y-91406647D01*
X135541725Y-91396055D01*
X135485478Y-91386614D01*
X135436283Y-91378497D01*
X135395190Y-91371880D01*
X135363252Y-91366938D01*
X135341520Y-91363844D01*
X135331045Y-91362774D01*
X135325292Y-91362957D01*
X135294440Y-91370891D01*
X135268203Y-91389890D01*
X135247916Y-91419049D01*
X135233939Y-91447175D01*
X135255460Y-91866025D01*
X135257030Y-91896503D01*
X135260726Y-91967847D01*
X135264286Y-92035916D01*
X135267646Y-92099556D01*
X135270744Y-92157618D01*
X135273519Y-92208950D01*
X135275909Y-92252400D01*
X135277850Y-92286817D01*
X135279282Y-92311050D01*
X135280143Y-92323948D01*
X135283304Y-92363020D01*
X135190001Y-92363020D01*
X135096698Y-92363020D01*
X135099859Y-92323948D01*
X135101412Y-92302545D01*
X135103459Y-92270285D01*
X135105842Y-92229609D01*
X135108504Y-92181747D01*
X135111384Y-92127929D01*
X135114426Y-92069384D01*
X135117570Y-92007341D01*
X135120759Y-91943030D01*
X135123932Y-91877681D01*
X135127033Y-91812522D01*
X135130003Y-91748784D01*
X135132783Y-91687695D01*
X135135314Y-91630486D01*
X135137539Y-91578386D01*
X135139398Y-91532624D01*
X135140834Y-91494430D01*
X135141787Y-91465033D01*
X135142200Y-91445663D01*
X135142014Y-91437550D01*
X135140119Y-91431430D01*
X135127788Y-91408600D01*
X135109666Y-91387076D01*
X135089964Y-91372144D01*
X135088104Y-91371242D01*
X135068485Y-91365232D01*
X135047000Y-91362774D01*
X135043912Y-91363051D01*
X135029182Y-91365121D01*
X135003975Y-91369037D01*
X134969507Y-91374592D01*
X134926997Y-91381577D01*
X134877659Y-91389783D01*
X134822710Y-91399003D01*
X134763368Y-91409027D01*
X134700848Y-91419647D01*
X134636367Y-91430655D01*
X134571142Y-91441842D01*
X134506390Y-91453001D01*
X134443326Y-91463922D01*
X134383168Y-91474397D01*
X134327131Y-91484218D01*
X134276433Y-91493176D01*
X134232291Y-91501063D01*
X134195920Y-91507670D01*
X134168537Y-91512790D01*
X134151360Y-91516213D01*
X134149982Y-91516502D01*
X134145684Y-91516973D01*
X134142978Y-91515550D01*
X134142198Y-91511002D01*
X134143679Y-91502096D01*
X134147753Y-91487599D01*
X134154757Y-91466279D01*
X134165022Y-91436904D01*
X134178885Y-91398240D01*
X134196679Y-91349056D01*
X134199992Y-91339885D01*
X134215606Y-91296019D01*
X134229602Y-91255653D01*
X134241435Y-91220431D01*
X134250562Y-91191999D01*
X134256437Y-91172002D01*
X134258517Y-91162086D01*
X134258434Y-91160193D01*
X134253863Y-91143534D01*
X134244456Y-91126233D01*
X134241898Y-91123528D01*
X134230065Y-91112837D01*
X134209541Y-91095180D01*
X134181006Y-91071115D01*
X134145141Y-91041204D01*
X134102624Y-91006006D01*
X134054135Y-90966082D01*
X134000353Y-90921993D01*
X133941959Y-90874298D01*
X133879632Y-90823557D01*
X133814051Y-90770332D01*
X133745896Y-90715182D01*
X133705578Y-90682596D01*
X133639350Y-90629023D01*
X133576299Y-90577967D01*
X133517081Y-90529959D01*
X133462352Y-90485534D01*
X133412766Y-90445225D01*
X133368979Y-90409565D01*
X133331647Y-90379088D01*
X133301424Y-90354327D01*
X133278967Y-90335817D01*
X133264931Y-90324089D01*
X133259971Y-90319678D01*
X133259963Y-90319593D01*
X133265517Y-90315584D01*
X133280647Y-90307361D01*
X133303629Y-90295794D01*
X133332737Y-90281753D01*
X133366247Y-90266107D01*
X133405676Y-90247677D01*
X133441660Y-90229865D01*
X133468530Y-90214967D01*
X133487624Y-90202061D01*
X133500284Y-90190225D01*
X133507849Y-90178536D01*
X133511661Y-90166072D01*
X133511846Y-90163278D01*
X133510555Y-90152534D01*
X133506712Y-90135088D01*
X133500101Y-90110210D01*
X133490506Y-90077168D01*
X133477711Y-90035229D01*
X133461501Y-89983661D01*
X133441657Y-89921733D01*
X133417966Y-89848714D01*
X133413812Y-89835963D01*
X133395017Y-89778152D01*
X133377534Y-89724172D01*
X133361730Y-89675172D01*
X133347974Y-89632304D01*
X133336634Y-89596717D01*
X133328078Y-89569562D01*
X133322674Y-89551989D01*
X133320791Y-89545149D01*
X133324356Y-89545032D01*
X133338879Y-89547053D01*
X133363453Y-89551304D01*
X133396855Y-89557550D01*
X133437863Y-89565556D01*
X133485254Y-89575087D01*
X133537806Y-89585908D01*
X133594296Y-89597782D01*
X133634374Y-89606233D01*
X133690136Y-89617794D01*
X133741981Y-89628317D01*
X133788525Y-89637535D01*
X133828385Y-89645178D01*
X133860177Y-89650978D01*
X133882517Y-89654666D01*
X133894021Y-89655974D01*
X133897221Y-89655960D01*
X133910949Y-89654780D01*
X133922879Y-89650821D01*
X133933922Y-89642817D01*
X133944985Y-89629504D01*
X133956979Y-89609615D01*
X133970812Y-89581885D01*
X133987396Y-89545047D01*
X134007637Y-89497836D01*
X134016081Y-89478022D01*
X134031408Y-89442678D01*
X134044889Y-89412397D01*
X134055783Y-89388799D01*
X134063351Y-89373504D01*
X134066854Y-89368132D01*
X134067127Y-89368286D01*
X134073477Y-89374312D01*
X134087371Y-89388465D01*
X134107979Y-89409872D01*
X134134472Y-89437660D01*
X134166020Y-89470956D01*
X134201793Y-89508887D01*
X134240962Y-89550582D01*
X134282697Y-89595166D01*
X134287686Y-89600505D01*
X134329767Y-89645476D01*
X134369612Y-89687962D01*
X134406321Y-89727010D01*
X134438996Y-89761671D01*
X134466740Y-89790991D01*
X134488654Y-89814020D01*
X134503839Y-89829807D01*
X134511397Y-89837398D01*
X134516440Y-89841700D01*
X134533608Y-89850544D01*
X134556486Y-89853027D01*
X134574250Y-89851868D01*
X134588692Y-89846013D01*
X134602869Y-89832611D01*
X134603161Y-89832284D01*
X134617020Y-89811368D01*
X134621230Y-89788850D01*
X134620469Y-89781997D01*
X134617492Y-89763177D01*
X134612426Y-89733772D01*
X134605443Y-89694712D01*
X134596716Y-89646927D01*
X134586418Y-89591347D01*
X134574721Y-89528903D01*
X134561797Y-89460524D01*
X134547819Y-89387141D01*
X134532960Y-89309683D01*
X134517392Y-89229081D01*
X134504103Y-89160327D01*
X134489288Y-89083245D01*
X134475390Y-89010460D01*
X134462572Y-88942855D01*
X134450999Y-88881319D01*
X134440837Y-88826736D01*
X134432249Y-88779993D01*
X134425402Y-88741977D01*
X134420460Y-88713572D01*
X134417587Y-88695666D01*
X134416948Y-88689145D01*
X134418803Y-88689506D01*
X134429904Y-88694622D01*
X134449795Y-88704962D01*
X134477154Y-88719804D01*
X134510662Y-88738426D01*
X134548998Y-88760107D01*
X134590839Y-88784125D01*
X134621457Y-88801783D01*
X134667279Y-88827897D01*
X134704317Y-88848343D01*
X134733809Y-88863597D01*
X134756993Y-88874132D01*
X134775109Y-88880426D01*
X134789395Y-88882952D01*
X134801090Y-88882186D01*
X134811432Y-88878604D01*
X134821662Y-88872680D01*
X134821852Y-88872547D01*
X134828275Y-88864606D01*
X134839457Y-88846657D01*
X134855492Y-88818519D01*
X134876478Y-88780015D01*
X134902511Y-88730965D01*
X134933687Y-88671190D01*
X134970102Y-88600511D01*
X135011852Y-88518750D01*
X135015821Y-88510951D01*
X135046624Y-88450531D01*
X135075713Y-88393659D01*
X135102596Y-88341286D01*
X135126781Y-88294362D01*
X135147775Y-88253839D01*
X135165087Y-88220665D01*
X135178223Y-88195793D01*
X135186692Y-88180172D01*
X135190001Y-88174754D01*
X135190112Y-88174837D01*
G37*
M02*
