M48
; DRILL file {KiCad 9.0.3} date 2025-07-11T16:31:00-0400
; FORMAT={-:-/ absolute / metric / decimal}
; #@! TF.CreationDate,2025-07-11T16:31:00-04:00
; #@! TF.GenerationSoftware,Kicad,Pcbnew,9.0.3
; #@! TF.FileFunction,Plated,1,2,PTH
FMAT,2
METRIC
; #@! TA.AperFunction,Plated,PTH,ComponentDrill
T1C0.300
; #@! TA.AperFunction,Plated,PTH,ViaDrill
T2C0.600
; #@! TA.AperFunction,Plated,PTH,ComponentDrill
T3C0.600
; #@! TA.AperFunction,Plated,PTH,ComponentDrill
T4C0.750
; #@! TA.AperFunction,Plated,PTH,ComponentDrill
T5C0.800
; #@! TA.AperFunction,Plated,PTH,ComponentDrill
T6C1.000
; #@! TA.AperFunction,Plated,PTH,ComponentDrill
T7C1.300
%
G90
G05
T1
X146.75Y-84.0
X146.75Y-85.5
X146.75Y-87.0
X148.25Y-84.0
X148.25Y-85.5
X148.25Y-87.0
T2
X106.2Y-88.4
X111.2Y-81.0
X118.5Y-83.5
X124.6Y-88.4
X134.5Y-78.25
X135.2Y-81.2
X135.2Y-84.6
X142.474Y-89.7
X142.5Y-87.5
X142.5Y-88.6
X143.285Y-83.424
X145.2Y-90.8
X146.25Y-77.25
X146.6Y-90.8
X148.0Y-90.8
X150.4Y-81.95
X152.049Y-84.37
X152.45Y-86.6
X152.457Y-89.043
X154.839Y-84.259
T3
X154.6Y-96.7
X156.6Y-96.7
T4
X161.5Y-85.42
X161.5Y-87.42
T5
X102.72Y-86.0
X105.26Y-86.0
X107.8Y-86.0
X110.34Y-86.0
X112.88Y-86.0
X115.42Y-86.0
X117.96Y-86.0
X120.5Y-86.0
X123.04Y-86.0
X131.38Y-79.0
X131.38Y-81.54
X131.38Y-84.08
X131.38Y-86.62
X139.0Y-79.0
X139.0Y-81.54
X139.0Y-84.08
X139.0Y-86.62
X153.46Y-91.42
X153.5Y-82.92
X153.5Y-85.46
X156.0Y-91.42
T6
X108.37Y-72.23
X108.37Y-74.77
X108.5Y-90.5
X108.5Y-93.04
X108.5Y-95.58
X108.5Y-98.12
X110.91Y-72.23
X110.91Y-74.77
X113.09Y-90.5
X113.09Y-93.04
X113.09Y-95.58
X113.09Y-98.12
X113.45Y-72.23
X113.45Y-74.77
X115.99Y-72.23
X115.99Y-74.77
X117.68Y-90.5
X117.68Y-93.04
X117.68Y-95.58
X117.68Y-98.12
X118.53Y-72.23
X118.53Y-74.77
X121.07Y-72.23
X121.07Y-74.77
X122.27Y-90.5
X122.27Y-93.04
X122.27Y-95.58
X122.27Y-98.12
X123.61Y-72.23
X123.61Y-74.77
X126.15Y-72.23
X126.15Y-74.77
X126.86Y-90.5
X126.86Y-93.04
X126.86Y-95.58
X126.86Y-98.12
X128.0Y-80.0
X128.0Y-82.54
X128.0Y-85.08
X128.69Y-72.23
X128.69Y-74.77
X131.23Y-72.23
X131.23Y-74.77
X133.77Y-72.23
X133.77Y-74.77
X136.31Y-72.23
X136.31Y-74.77
X138.85Y-72.23
X138.85Y-74.77
X141.39Y-72.23
X141.39Y-74.77
X143.93Y-72.23
X143.93Y-74.77
X146.47Y-72.23
X146.47Y-74.77
X149.01Y-72.23
X149.01Y-74.77
X149.67Y-79.0
X151.55Y-72.23
X151.55Y-74.77
X152.21Y-79.0
X154.09Y-72.23
X154.09Y-74.77
X154.75Y-79.0
X156.63Y-72.23
X156.63Y-74.77
X157.0Y-82.92
X157.0Y-87.92
T7
X132.5Y-94.5
X137.5Y-94.5
X144.0Y-94.5
X149.0Y-94.5
M30
