G04 #@! TF.GenerationSoftware,KiCad,Pcbnew,9.0.3*
G04 #@! TF.CreationDate,2025-07-11T16:30:40-04:00*
G04 #@! TF.ProjectId,main,6d61696e-2e6b-4696-9361-645f70636258,rev?*
G04 #@! TF.SameCoordinates,Original*
G04 #@! TF.FileFunction,Copper,L1,Top*
G04 #@! TF.FilePolarity,Positive*
%FSLAX46Y46*%
G04 Gerber Fmt 4.6, Leading zero omitted, Abs format (unit mm)*
G04 Created by KiCad (PCBNEW 9.0.3) date 2025-07-11 16:30:40*
%MOMM*%
%LPD*%
G01*
G04 APERTURE LIST*
G04 Aperture macros list*
%AMRoundRect*
0 Rectangle with rounded corners*
0 $1 Rounding radius*
0 $2 $3 $4 $5 $6 $7 $8 $9 X,Y pos of 4 corners*
0 Add a 4 corners polygon primitive as box body*
4,1,4,$2,$3,$4,$5,$6,$7,$8,$9,$2,$3,0*
0 Add four circle primitives for the rounded corners*
1,1,$1+$1,$2,$3*
1,1,$1+$1,$4,$5*
1,1,$1+$1,$6,$7*
1,1,$1+$1,$8,$9*
0 Add four rect primitives between the rounded corners*
20,1,$1+$1,$2,$3,$4,$5,0*
20,1,$1+$1,$4,$5,$6,$7,0*
20,1,$1+$1,$6,$7,$8,$9,0*
20,1,$1+$1,$8,$9,$2,$3,0*%
G04 Aperture macros list end*
G04 #@! TA.AperFunction,ComponentPad*
%ADD10R,1.700000X1.700000*%
G04 #@! TD*
G04 #@! TA.AperFunction,ComponentPad*
%ADD11C,1.700000*%
G04 #@! TD*
G04 #@! TA.AperFunction,SMDPad,CuDef*
%ADD12RoundRect,0.225000X-0.225000X-0.250000X0.225000X-0.250000X0.225000X0.250000X-0.225000X0.250000X0*%
G04 #@! TD*
G04 #@! TA.AperFunction,SMDPad,CuDef*
%ADD13RoundRect,0.200000X0.200000X0.275000X-0.200000X0.275000X-0.200000X-0.275000X0.200000X-0.275000X0*%
G04 #@! TD*
G04 #@! TA.AperFunction,ComponentPad*
%ADD14C,1.600000*%
G04 #@! TD*
G04 #@! TA.AperFunction,SMDPad,CuDef*
%ADD15R,2.000000X2.000000*%
G04 #@! TD*
G04 #@! TA.AperFunction,ComponentPad*
%ADD16C,2.000000*%
G04 #@! TD*
G04 #@! TA.AperFunction,SMDPad,CuDef*
%ADD17RoundRect,0.200000X-0.275000X0.200000X-0.275000X-0.200000X0.275000X-0.200000X0.275000X0.200000X0*%
G04 #@! TD*
G04 #@! TA.AperFunction,SMDPad,CuDef*
%ADD18RoundRect,0.200000X0.275000X-0.200000X0.275000X0.200000X-0.275000X0.200000X-0.275000X-0.200000X0*%
G04 #@! TD*
G04 #@! TA.AperFunction,ComponentPad*
%ADD19RoundRect,0.250000X-1.050000X-1.050000X1.050000X-1.050000X1.050000X1.050000X-1.050000X1.050000X0*%
G04 #@! TD*
G04 #@! TA.AperFunction,ComponentPad*
%ADD20C,2.600000*%
G04 #@! TD*
G04 #@! TA.AperFunction,ComponentPad*
%ADD21R,1.600000X1.600000*%
G04 #@! TD*
G04 #@! TA.AperFunction,SMDPad,CuDef*
%ADD22RoundRect,0.225000X0.225000X0.250000X-0.225000X0.250000X-0.225000X-0.250000X0.225000X-0.250000X0*%
G04 #@! TD*
G04 #@! TA.AperFunction,SMDPad,CuDef*
%ADD23RoundRect,0.225000X-0.250000X0.225000X-0.250000X-0.225000X0.250000X-0.225000X0.250000X0.225000X0*%
G04 #@! TD*
G04 #@! TA.AperFunction,ComponentPad*
%ADD24C,1.200000*%
G04 #@! TD*
G04 #@! TA.AperFunction,ComponentPad*
%ADD25RoundRect,0.250000X0.550000X0.550000X-0.550000X0.550000X-0.550000X-0.550000X0.550000X-0.550000X0*%
G04 #@! TD*
G04 #@! TA.AperFunction,ComponentPad*
%ADD26RoundRect,0.250000X0.625000X-0.350000X0.625000X0.350000X-0.625000X0.350000X-0.625000X-0.350000X0*%
G04 #@! TD*
G04 #@! TA.AperFunction,ComponentPad*
%ADD27O,1.750000X1.200000*%
G04 #@! TD*
G04 #@! TA.AperFunction,SMDPad,CuDef*
%ADD28RoundRect,0.100000X0.100000X-0.637500X0.100000X0.637500X-0.100000X0.637500X-0.100000X-0.637500X0*%
G04 #@! TD*
G04 #@! TA.AperFunction,SMDPad,CuDef*
%ADD29RoundRect,0.100000X0.687500X0.100000X-0.687500X0.100000X-0.687500X-0.100000X0.687500X-0.100000X0*%
G04 #@! TD*
G04 #@! TA.AperFunction,HeatsinkPad*
%ADD30C,0.500000*%
G04 #@! TD*
G04 #@! TA.AperFunction,HeatsinkPad*
%ADD31R,3.400000X5.000000*%
G04 #@! TD*
G04 #@! TA.AperFunction,ComponentPad*
%ADD32O,1.700000X1.700000*%
G04 #@! TD*
G04 #@! TA.AperFunction,ViaPad*
%ADD33C,0.900000*%
G04 #@! TD*
G04 #@! TA.AperFunction,Conductor*
%ADD34C,0.400000*%
G04 #@! TD*
G04 #@! TA.AperFunction,Conductor*
%ADD35C,0.350000*%
G04 #@! TD*
G04 #@! TA.AperFunction,Conductor*
%ADD36C,0.500000*%
G04 #@! TD*
G04 #@! TA.AperFunction,Conductor*
%ADD37C,1.000000*%
G04 #@! TD*
G04 #@! TA.AperFunction,Conductor*
%ADD38C,0.750000*%
G04 #@! TD*
G04 APERTURE END LIST*
D10*
X128000000Y-80000000D03*
D11*
X128000000Y-82540000D03*
X128000000Y-85080000D03*
D12*
X146700000Y-81950000D03*
X148250000Y-81950000D03*
D10*
X117680000Y-90500000D03*
D11*
X117680000Y-93040000D03*
X117680000Y-95580000D03*
X117680000Y-98120000D03*
D13*
X125150000Y-79000000D03*
X123500000Y-79000000D03*
D14*
X153500000Y-82920000D03*
X153500000Y-85460000D03*
D15*
X143250000Y-81000000D03*
D16*
X157000000Y-87920000D03*
X157000000Y-82920000D03*
D17*
X142500000Y-84420000D03*
X142500000Y-86070000D03*
D18*
X147050000Y-80325000D03*
X147050000Y-78675000D03*
D10*
X113090000Y-90500000D03*
D11*
X113090000Y-93040000D03*
X113090000Y-95580000D03*
X113090000Y-98120000D03*
D13*
X125150000Y-81500000D03*
X123500000Y-81500000D03*
D19*
X132500000Y-94500000D03*
D20*
X137500000Y-94500000D03*
D21*
X102720000Y-86000000D03*
D14*
X105260000Y-86000000D03*
X107800000Y-86000000D03*
X110340000Y-86000000D03*
X112880000Y-86000000D03*
X115420000Y-86000000D03*
X117960000Y-86000000D03*
X120500000Y-86000000D03*
X123040000Y-86000000D03*
D10*
X122270000Y-90500000D03*
D11*
X122270000Y-93040000D03*
X122270000Y-95580000D03*
X122270000Y-98120000D03*
D22*
X134250000Y-76500000D03*
X132700000Y-76500000D03*
D10*
X108500000Y-90500000D03*
D11*
X108500000Y-93040000D03*
X108500000Y-95580000D03*
X108500000Y-98120000D03*
D18*
X145500000Y-80325000D03*
X145500000Y-78675000D03*
D23*
X117000000Y-82000000D03*
X117000000Y-83550000D03*
D24*
X154600000Y-96700000D03*
X156600000Y-96700000D03*
D25*
X139000000Y-86620000D03*
D14*
X139000000Y-84080000D03*
X139000000Y-81540000D03*
X139000000Y-79000000D03*
X131380000Y-79000000D03*
X131380000Y-81540000D03*
X131380000Y-84080000D03*
X131380000Y-86620000D03*
D19*
X144000000Y-94500000D03*
D20*
X149000000Y-94500000D03*
D26*
X161500000Y-87420000D03*
D27*
X161500000Y-85420000D03*
D28*
X109600000Y-83137500D03*
X110250000Y-83137500D03*
X110900000Y-83137500D03*
X111550000Y-83137500D03*
X112200000Y-83137500D03*
X112850000Y-83137500D03*
X113500000Y-83137500D03*
X114150000Y-83137500D03*
X114800000Y-83137500D03*
X115450000Y-83137500D03*
X115450000Y-77412500D03*
X114800000Y-77412500D03*
X114150000Y-77412500D03*
X113500000Y-77412500D03*
X112850000Y-77412500D03*
X112200000Y-77412500D03*
X111550000Y-77412500D03*
X110900000Y-77412500D03*
X110250000Y-77412500D03*
X109600000Y-77412500D03*
D10*
X126860000Y-90500000D03*
D11*
X126860000Y-93040000D03*
X126860000Y-95580000D03*
X126860000Y-98120000D03*
D12*
X135750000Y-76500000D03*
X137300000Y-76500000D03*
D29*
X150362500Y-87775000D03*
X150362500Y-87125000D03*
X150362500Y-86475000D03*
X150362500Y-85825000D03*
X150362500Y-85175000D03*
X150362500Y-84525000D03*
X150362500Y-83875000D03*
X150362500Y-83225000D03*
X144637500Y-83225000D03*
X144637500Y-83875000D03*
X144637500Y-84525000D03*
X144637500Y-85175000D03*
X144637500Y-85825000D03*
X144637500Y-86475000D03*
X144637500Y-87125000D03*
X144637500Y-87775000D03*
D30*
X148250000Y-87000000D03*
X148250000Y-85500000D03*
X148250000Y-84000000D03*
D31*
X147500000Y-85500000D03*
D30*
X146750000Y-87000000D03*
X146750000Y-85500000D03*
X146750000Y-84000000D03*
D15*
X143250000Y-78000000D03*
D14*
X156000000Y-91420000D03*
X153460000Y-91420000D03*
D10*
X154750000Y-79000000D03*
D11*
X152210000Y-79000000D03*
X149670000Y-79000000D03*
D10*
X108370000Y-74770000D03*
D32*
X108370000Y-72230000D03*
X110910000Y-74770000D03*
X110910000Y-72230000D03*
X113450000Y-74770000D03*
X113450000Y-72230000D03*
X115990000Y-74770000D03*
X115990000Y-72230000D03*
X118530000Y-74770000D03*
X118530000Y-72230000D03*
X121070000Y-74770000D03*
X121070000Y-72230000D03*
X123610000Y-74770000D03*
X123610000Y-72230000D03*
X126150000Y-74770000D03*
X126150000Y-72230000D03*
X128690000Y-74770000D03*
X128690000Y-72230000D03*
X131230000Y-74770000D03*
X131230000Y-72230000D03*
X133770000Y-74770000D03*
X133770000Y-72230000D03*
X136310000Y-74770000D03*
X136310000Y-72230000D03*
X138850000Y-74770000D03*
X138850000Y-72230000D03*
X141390000Y-74770000D03*
X141390000Y-72230000D03*
X143930000Y-74770000D03*
X143930000Y-72230000D03*
X146470000Y-74770000D03*
X146470000Y-72230000D03*
X149010000Y-74770000D03*
X149010000Y-72230000D03*
X151550000Y-74770000D03*
X151550000Y-72230000D03*
X154090000Y-74770000D03*
X154090000Y-72230000D03*
X156630000Y-74770000D03*
X156630000Y-72230000D03*
D33*
X143285479Y-83424160D03*
X135200000Y-81200000D03*
X118500000Y-83500000D03*
X145200000Y-90800000D03*
X135200000Y-84600000D03*
X148000000Y-90800000D03*
X124600000Y-88400000D03*
X106200000Y-88400000D03*
X111200000Y-81000000D03*
X146600000Y-90800000D03*
X152456636Y-89043364D03*
X146250000Y-77250000D03*
X150400000Y-81950000D03*
X134500000Y-78250000D03*
X142500000Y-87500000D03*
X152049017Y-84369570D03*
X142474000Y-89699698D03*
X142500000Y-88600003D03*
X154839000Y-84259000D03*
X152450000Y-86600000D03*
D34*
X150362500Y-86475000D02*
X152325000Y-86475000D01*
X152325000Y-86475000D02*
X152450000Y-86600000D01*
X154839000Y-84259000D02*
X153140529Y-84259000D01*
X153140529Y-84259000D02*
X152900017Y-84018488D01*
X151340091Y-83875000D02*
X150362500Y-83875000D01*
X152900017Y-84018488D02*
X152900017Y-84017074D01*
X152900017Y-84017074D02*
X152401513Y-83518570D01*
X152401513Y-83518570D02*
X151696521Y-83518570D01*
X151696521Y-83518570D02*
X151340091Y-83875000D01*
D35*
X154839000Y-84259000D02*
X154864000Y-84284000D01*
D34*
X152001000Y-84417587D02*
X152001000Y-84419000D01*
X152049017Y-84369570D02*
X152001000Y-84417587D01*
X152001000Y-84419000D02*
X151895000Y-84525000D01*
X151895000Y-84525000D02*
X150362500Y-84525000D01*
X152225793Y-87920000D02*
X151430793Y-87125000D01*
X144637500Y-85825000D02*
X147175000Y-85825000D01*
D35*
X118530000Y-74770000D02*
X120260000Y-76500000D01*
X147500000Y-86591370D02*
X147500000Y-85500000D01*
X117000000Y-83550000D02*
X115862500Y-83550000D01*
D34*
X104059000Y-86497471D02*
X105961529Y-88400000D01*
D35*
X148250000Y-84750000D02*
X147500000Y-85500000D01*
X147175000Y-85825000D02*
X147500000Y-85500000D01*
D34*
X105961529Y-88400000D02*
X106200000Y-88400000D01*
X145181000Y-73481000D02*
X143930000Y-72230000D01*
X155379000Y-73519000D02*
X156630000Y-74770000D01*
D35*
X132700000Y-76500000D02*
X132544000Y-76344000D01*
X139000000Y-79000000D02*
X139000000Y-78500000D01*
D34*
X149010000Y-72230000D02*
X147759000Y-73481000D01*
D35*
X122384000Y-71004000D02*
X114676000Y-71004000D01*
D34*
X110900000Y-83137500D02*
X109600000Y-83137500D01*
X143930000Y-72230000D02*
X142679000Y-73481000D01*
X149010000Y-72230000D02*
X150299000Y-73519000D01*
D35*
X123610000Y-72230000D02*
X122384000Y-71004000D01*
X139000000Y-78500000D02*
X138850000Y-78350000D01*
X148250000Y-81950000D02*
X148550000Y-81950000D01*
D34*
X142500000Y-86070000D02*
X142720000Y-85850000D01*
D35*
X118500000Y-83500000D02*
X117050000Y-83500000D01*
D34*
X137599000Y-73519000D02*
X132519000Y-73519000D01*
X138850000Y-74770000D02*
X137599000Y-73519000D01*
X142679000Y-73481000D02*
X140139000Y-73481000D01*
D35*
X114676000Y-71004000D02*
X113450000Y-72230000D01*
X135250000Y-82750000D02*
X139000000Y-79000000D01*
X115862500Y-83550000D02*
X115450000Y-83137500D01*
D34*
X106424029Y-83137500D02*
X104059000Y-85502529D01*
X150299000Y-73519000D02*
X155379000Y-73519000D01*
D35*
X120260000Y-76500000D02*
X132700000Y-76500000D01*
D34*
X142720000Y-85850000D02*
X144612500Y-85850000D01*
D35*
X128210000Y-82750000D02*
X135250000Y-82750000D01*
D34*
X140139000Y-73481000D02*
X138850000Y-74770000D01*
X144637500Y-83875000D02*
X145875000Y-83875000D01*
X144612500Y-85850000D02*
X144637500Y-85825000D01*
D35*
X137300000Y-76500000D02*
X137300000Y-76320000D01*
X128000000Y-82540000D02*
X128210000Y-82750000D01*
X117050000Y-83500000D02*
X117000000Y-83550000D01*
D34*
X104059000Y-85502529D02*
X104059000Y-86497471D01*
X147759000Y-73481000D02*
X145181000Y-73481000D01*
D35*
X145875000Y-83875000D02*
X147500000Y-85500000D01*
D34*
X132519000Y-73519000D02*
X131230000Y-72230000D01*
X109600000Y-83137500D02*
X106424029Y-83137500D01*
D35*
X122724000Y-80724000D02*
X122724000Y-78480870D01*
X110250000Y-75430000D02*
X110250000Y-77412500D01*
X126223000Y-85223000D02*
X126223000Y-85816058D01*
X128949000Y-93491000D02*
X126860000Y-95580000D01*
X129880000Y-77500000D02*
X131380000Y-79000000D01*
X110910000Y-74770000D02*
X110250000Y-75430000D01*
X128949000Y-87949000D02*
X128949000Y-93491000D01*
X123500000Y-81500000D02*
X123500000Y-82500000D01*
X127857000Y-86857000D02*
X128949000Y-87949000D01*
X123704870Y-77500000D02*
X129880000Y-77500000D01*
X123500000Y-82500000D02*
X126223000Y-85223000D01*
X126223000Y-85816058D02*
X127263942Y-86857000D01*
X122724000Y-78480870D02*
X123704870Y-77500000D01*
X123500000Y-81500000D02*
X122724000Y-80724000D01*
X127263942Y-86857000D02*
X127857000Y-86857000D01*
X126774000Y-79274000D02*
X126774000Y-83047826D01*
X112779062Y-74770000D02*
X110900000Y-76649062D01*
X125649000Y-78149000D02*
X126774000Y-79274000D01*
X124351000Y-78149000D02*
X125649000Y-78149000D01*
X126774000Y-85587826D02*
X127492174Y-86306000D01*
X123500000Y-79000000D02*
X124276000Y-79776000D01*
X124276000Y-79776000D02*
X124276000Y-82276000D01*
X126774000Y-83047826D02*
X127580174Y-83854000D01*
X129500000Y-95480000D02*
X126860000Y-98120000D01*
X131154000Y-83854000D02*
X131380000Y-84080000D01*
X110900000Y-76649062D02*
X110900000Y-77412500D01*
X127492174Y-86306000D02*
X128306000Y-86306000D01*
X128306000Y-86306000D02*
X129500000Y-87500000D01*
X129500000Y-87500000D02*
X129500000Y-95480000D01*
X123500000Y-79000000D02*
X124351000Y-78149000D01*
X126774000Y-84774000D02*
X126774000Y-85587826D01*
X113450000Y-74770000D02*
X112779062Y-74770000D01*
X127580174Y-83854000D02*
X131154000Y-83854000D01*
X124276000Y-82276000D02*
X126774000Y-84774000D01*
X151500000Y-88912500D02*
X150362500Y-87775000D01*
X152325772Y-88912500D02*
X151500000Y-88912500D01*
X152456636Y-89043364D02*
X152325772Y-88912500D01*
X150400000Y-81950000D02*
X150362500Y-81987500D01*
X147050000Y-78675000D02*
X147050000Y-78050000D01*
X150362500Y-81987500D02*
X150362500Y-83225000D01*
X147050000Y-78050000D02*
X146250000Y-77250000D01*
X148960000Y-74820000D02*
X149010000Y-74770000D01*
X149010000Y-75791826D02*
X150992174Y-77774000D01*
X153524000Y-77774000D02*
X154750000Y-79000000D01*
X149010000Y-74770000D02*
X149010000Y-75791826D01*
X150992174Y-77774000D02*
X153524000Y-77774000D01*
X111550000Y-82374062D02*
X111550000Y-83137500D01*
X102720000Y-86000000D02*
X106696000Y-82024000D01*
X109600000Y-77412500D02*
X109600000Y-76000000D01*
X115450000Y-76450000D02*
X115098062Y-76098062D01*
X135000000Y-76500000D02*
X134250000Y-76500000D01*
X113921768Y-76098062D02*
X113500000Y-76519830D01*
X125150000Y-79000000D02*
X125150000Y-82230000D01*
X135750000Y-76500000D02*
X135000000Y-76500000D01*
X129540000Y-86620000D02*
X131380000Y-86620000D01*
X108370000Y-74770000D02*
X109596000Y-73544000D01*
X128000000Y-85080000D02*
X129540000Y-86620000D01*
X143775000Y-83225000D02*
X144637500Y-83225000D01*
X143525000Y-86475000D02*
X142500000Y-87500000D01*
X113500000Y-76519830D02*
X113500000Y-77412500D01*
X113500000Y-76519830D02*
X114764000Y-75255830D01*
X115098062Y-76098062D02*
X113921768Y-76098062D01*
D36*
X105790000Y-93040000D02*
X102720000Y-89970000D01*
D35*
X109600000Y-81924000D02*
X109500000Y-82024000D01*
X147050000Y-80325000D02*
X145500000Y-80325000D01*
X111199938Y-82024000D02*
X111550000Y-82374062D01*
X113149938Y-82024000D02*
X111199938Y-82024000D01*
X109600000Y-77412500D02*
X109600000Y-81924000D01*
D36*
X117680000Y-93040000D02*
X122270000Y-93040000D01*
D35*
X143575840Y-83424160D02*
X143775000Y-83225000D01*
D36*
X108500000Y-93040000D02*
X105790000Y-93040000D01*
D35*
X146700000Y-81950000D02*
X145912500Y-81950000D01*
D36*
X126860000Y-93040000D02*
X122270000Y-93040000D01*
D35*
X145500000Y-80325000D02*
X145500000Y-82362500D01*
X114764000Y-74262174D02*
X115482174Y-73544000D01*
D36*
X102720000Y-89970000D02*
X102720000Y-86000000D01*
D35*
X135000000Y-76500000D02*
X135000000Y-77750000D01*
X117000000Y-82000000D02*
X113874062Y-82000000D01*
X109596000Y-73544000D02*
X115500000Y-73544000D01*
X109600000Y-76000000D02*
X108370000Y-74770000D01*
X115482174Y-73544000D02*
X115500000Y-73544000D01*
D36*
X113090000Y-93040000D02*
X117680000Y-93040000D01*
D35*
X145912500Y-81950000D02*
X145500000Y-82362500D01*
X113500000Y-82374062D02*
X113149938Y-82024000D01*
X127464000Y-73544000D02*
X128690000Y-74770000D01*
X109500000Y-82024000D02*
X111199938Y-82024000D01*
X113500000Y-82374062D02*
X113500000Y-83137500D01*
D36*
X108500000Y-93040000D02*
X113090000Y-93040000D01*
D35*
X145500000Y-82362500D02*
X144637500Y-83225000D01*
X115450000Y-77412500D02*
X115450000Y-76450000D01*
X115500000Y-73544000D02*
X127464000Y-73544000D01*
X135000000Y-77750000D02*
X134500000Y-78250000D01*
X125150000Y-82230000D02*
X128000000Y-85080000D01*
X144637500Y-86475000D02*
X143525000Y-86475000D01*
X106696000Y-82024000D02*
X109500000Y-82024000D01*
X114764000Y-75255830D02*
X114764000Y-74262174D01*
X113874062Y-82000000D02*
X113500000Y-82374062D01*
X143285479Y-83424160D02*
X143575840Y-83424160D01*
D37*
X141323000Y-83000000D02*
X141323000Y-80500000D01*
D34*
X143575000Y-85175000D02*
X143500000Y-85250000D01*
D37*
X146200000Y-96700000D02*
X144000000Y-94500000D01*
X141323000Y-80686500D02*
X141323000Y-79927000D01*
D34*
X143500000Y-85250000D02*
X141323000Y-85250000D01*
D37*
X141323000Y-84750000D02*
X141323000Y-85250000D01*
X141323000Y-91823000D02*
X141323000Y-83000000D01*
X141323000Y-83000000D02*
X141323000Y-84750000D01*
X144000000Y-94500000D02*
X141323000Y-91823000D01*
D34*
X144637500Y-85175000D02*
X143575000Y-85175000D01*
X141750000Y-79500000D02*
X149170000Y-79500000D01*
D37*
X141323000Y-79927000D02*
X141750000Y-79500000D01*
X154600000Y-96700000D02*
X146200000Y-96700000D01*
D34*
X149170000Y-79500000D02*
X149670000Y-79000000D01*
D35*
X129540000Y-81540000D02*
X128000000Y-80000000D01*
X131380000Y-81540000D02*
X129540000Y-81540000D01*
X153540000Y-85420000D02*
X153500000Y-85460000D01*
D38*
X150402500Y-85460000D02*
X153500000Y-85460000D01*
X161500000Y-85420000D02*
X153540000Y-85420000D01*
D35*
X112056170Y-84824000D02*
X112850000Y-84030170D01*
X109164000Y-86336000D02*
X109164000Y-85512884D01*
X109164000Y-85512884D02*
X109852884Y-84824000D01*
X106436000Y-87176000D02*
X108324000Y-87176000D01*
X108324000Y-87176000D02*
X109164000Y-86336000D01*
X112850000Y-84030170D02*
X112850000Y-83137500D01*
X105260000Y-86000000D02*
X106436000Y-87176000D01*
X109852884Y-84824000D02*
X112056170Y-84824000D01*
X111225000Y-84225938D02*
X111250062Y-84251000D01*
X110600062Y-84251000D02*
X111199938Y-84251000D01*
X109925000Y-84225938D02*
X109950062Y-84251000D01*
X107800000Y-86000000D02*
X109549000Y-84251000D01*
X109950062Y-84251000D02*
X110549938Y-84251000D01*
X110549938Y-84251000D02*
X110575000Y-84225938D01*
X110575000Y-84225938D02*
X110600062Y-84251000D01*
X111849938Y-84251000D02*
X112200000Y-83900938D01*
X111199938Y-84251000D02*
X111225000Y-84225938D01*
X109899938Y-84251000D02*
X109925000Y-84225938D01*
X111250062Y-84251000D02*
X111849938Y-84251000D01*
X109549000Y-84251000D02*
X109899938Y-84251000D01*
X112200000Y-83900938D02*
X112200000Y-83137500D01*
X114056000Y-85695000D02*
X114800000Y-84951000D01*
X114800000Y-84951000D02*
X114800000Y-83137500D01*
X113367116Y-87176000D02*
X114056000Y-86487116D01*
X114056000Y-86487116D02*
X114056000Y-85695000D01*
X110340000Y-86000000D02*
X111516000Y-87176000D01*
X111516000Y-87176000D02*
X113367116Y-87176000D01*
X115420000Y-86000000D02*
X116596000Y-84824000D01*
X118447116Y-84824000D02*
X119136000Y-85512884D01*
X119136000Y-86299116D02*
X120012884Y-87176000D01*
X124216000Y-85512884D02*
X123527116Y-84824000D01*
X117618768Y-79398000D02*
X114677232Y-79398000D01*
X123044768Y-84824000D02*
X117618768Y-79398000D01*
X124216000Y-86487116D02*
X124216000Y-85512884D01*
X123527116Y-87176000D02*
X124216000Y-86487116D01*
X114150000Y-78870768D02*
X114150000Y-77412500D01*
X120012884Y-87176000D02*
X123527116Y-87176000D01*
X116596000Y-84824000D02*
X118447116Y-84824000D01*
X114677232Y-79398000D02*
X114150000Y-78870768D01*
X123527116Y-84824000D02*
X123044768Y-84824000D01*
X114150000Y-76649062D02*
X114150000Y-77412500D01*
X119136000Y-85512884D02*
X119136000Y-86299116D01*
X112850000Y-78350000D02*
X112850000Y-77412500D01*
X123040000Y-85375000D02*
X122816536Y-85375000D01*
X114449000Y-79949000D02*
X112850000Y-78350000D01*
X117390536Y-79949000D02*
X114449000Y-79949000D01*
X122816536Y-85375000D02*
X117390536Y-79949000D01*
X123040000Y-86000000D02*
X123040000Y-85375000D01*
D34*
X144637500Y-84525000D02*
X142605000Y-84525000D01*
D35*
X142605000Y-84525000D02*
X142500000Y-84420000D01*
X142500000Y-84420000D02*
X142199000Y-84119000D01*
X142199000Y-81801000D02*
X143000000Y-81000000D01*
X142199000Y-84119000D02*
X142199000Y-81801000D01*
X144187500Y-87775000D02*
X144637500Y-87775000D01*
X144000000Y-87962500D02*
X144187500Y-87775000D01*
X142474000Y-89699698D02*
X142800302Y-89699698D01*
X144000000Y-88500000D02*
X144000000Y-87962500D01*
X142800302Y-89699698D02*
X144000000Y-88500000D01*
X142733270Y-88833273D02*
X142887495Y-88833273D01*
X142887495Y-88833273D02*
X143449000Y-88271768D01*
X143449000Y-87342634D02*
X143666634Y-87125000D01*
X142500000Y-88600003D02*
X142733270Y-88833273D01*
X143666634Y-87125000D02*
X144637500Y-87125000D01*
X143449000Y-88271768D02*
X143449000Y-87342634D01*
D36*
X153500000Y-82920000D02*
X157000000Y-82920000D01*
D35*
X145500000Y-78675000D02*
X145500000Y-78500000D01*
X140250000Y-79400000D02*
X140250000Y-85370000D01*
X140250000Y-85370000D02*
X139000000Y-86620000D01*
X141650000Y-78000000D02*
X140250000Y-79400000D01*
X145500000Y-78500000D02*
X145000000Y-78000000D01*
X143000000Y-78000000D02*
X141650000Y-78000000D01*
X145000000Y-78000000D02*
X143000000Y-78000000D01*
D38*
X158000000Y-87420000D02*
X161500000Y-87420000D01*
D34*
X151430793Y-87125000D02*
X150362500Y-87125000D01*
D38*
X157500000Y-87920000D02*
X158000000Y-87420000D01*
D36*
X157000000Y-87920000D02*
X157500000Y-87920000D01*
D34*
X157000000Y-87920000D02*
X152225793Y-87920000D01*
D35*
X112880000Y-86000000D02*
X114150000Y-84730000D01*
X114150000Y-84730000D02*
X114150000Y-83137500D01*
X120500000Y-86000000D02*
X120500000Y-83869616D01*
X114220768Y-80500000D02*
X112200000Y-78479232D01*
X117130384Y-80500000D02*
X114220768Y-80500000D01*
X112200000Y-78479232D02*
X112200000Y-77412500D01*
X120500000Y-83869616D02*
X117130384Y-80500000D01*
X115347000Y-78847000D02*
X114800000Y-78300000D01*
X117960000Y-86000000D02*
X119687000Y-87727000D01*
X123755348Y-87727000D02*
X124767000Y-86715348D01*
X124767000Y-85284652D02*
X123755348Y-84273000D01*
X124767000Y-86715348D02*
X124767000Y-85284652D01*
X123273000Y-84273000D02*
X117847000Y-78847000D01*
X114800000Y-78300000D02*
X114800000Y-77412500D01*
X117847000Y-78847000D02*
X115347000Y-78847000D01*
X123755348Y-84273000D02*
X123273000Y-84273000D01*
X119687000Y-87727000D02*
X123755348Y-87727000D01*
X150250000Y-85175000D02*
X150250000Y-85825000D01*
G04 #@! TA.AperFunction,Conductor*
G36*
X117880703Y-81781802D02*
G01*
X117887181Y-81787834D01*
X120088181Y-83988834D01*
X120121666Y-84050157D01*
X120124500Y-84076515D01*
X120124500Y-84989749D01*
X120104815Y-85056788D01*
X120052011Y-85102543D01*
X120047953Y-85104310D01*
X120026089Y-85113366D01*
X120026079Y-85113371D01*
X119862218Y-85222860D01*
X119862214Y-85222863D01*
X119722861Y-85362216D01*
X119704006Y-85390435D01*
X119650393Y-85435239D01*
X119581067Y-85443945D01*
X119518041Y-85413789D01*
X119490407Y-85374734D01*
X119489974Y-85374985D01*
X119487269Y-85370301D01*
X119486342Y-85368990D01*
X119485911Y-85367951D01*
X119485910Y-85367946D01*
X119436475Y-85282322D01*
X119366562Y-85212409D01*
X118677679Y-84523526D01*
X118677678Y-84523525D01*
X118592054Y-84474090D01*
X118544302Y-84461295D01*
X118544300Y-84461294D01*
X118544298Y-84461293D01*
X118496552Y-84448500D01*
X118496551Y-84448500D01*
X117901167Y-84448500D01*
X117834128Y-84428815D01*
X117788373Y-84376011D01*
X117778429Y-84306853D01*
X117807454Y-84243297D01*
X117813486Y-84236819D01*
X117822572Y-84227732D01*
X117822575Y-84227728D01*
X117911542Y-84083492D01*
X117911547Y-84083481D01*
X117964855Y-83922606D01*
X117974999Y-83823322D01*
X117975000Y-83823309D01*
X117975000Y-83800000D01*
X117124000Y-83800000D01*
X117056961Y-83780315D01*
X117011206Y-83727511D01*
X117000000Y-83676000D01*
X117000000Y-83424000D01*
X117019685Y-83356961D01*
X117072489Y-83311206D01*
X117124000Y-83300000D01*
X117974999Y-83300000D01*
X117974999Y-83276692D01*
X117974998Y-83276677D01*
X117964855Y-83177392D01*
X117911547Y-83016518D01*
X117911542Y-83016507D01*
X117822575Y-82872271D01*
X117822572Y-82872267D01*
X117702732Y-82752427D01*
X117702728Y-82752424D01*
X117602159Y-82690392D01*
X117555434Y-82638444D01*
X117544213Y-82569482D01*
X117572056Y-82505400D01*
X117579565Y-82497182D01*
X117598528Y-82478220D01*
X117659719Y-82358126D01*
X117666211Y-82317139D01*
X117675500Y-82258493D01*
X117675500Y-81875515D01*
X117695185Y-81808476D01*
X117747989Y-81762721D01*
X117817147Y-81752777D01*
X117880703Y-81781802D01*
G37*
G04 #@! TD.AperFunction*
G04 #@! TA.AperFunction,Conductor*
G36*
X115593039Y-83157185D02*
G01*
X115638794Y-83209989D01*
X115650000Y-83261500D01*
X115650000Y-84367010D01*
X115650001Y-84367011D01*
X115706627Y-84359557D01*
X115706633Y-84359555D01*
X115852585Y-84299100D01*
X115977926Y-84202922D01*
X115980957Y-84199892D01*
X115984146Y-84198150D01*
X115984372Y-84197977D01*
X115984399Y-84198012D01*
X116042278Y-84166403D01*
X116111970Y-84171384D01*
X116167906Y-84213252D01*
X116174180Y-84222468D01*
X116177427Y-84227732D01*
X116297268Y-84347573D01*
X116314781Y-84358375D01*
X116361506Y-84410322D01*
X116372729Y-84479285D01*
X116344886Y-84543367D01*
X116337366Y-84551595D01*
X115868835Y-85020126D01*
X115807512Y-85053611D01*
X115737820Y-85048627D01*
X115733704Y-85047007D01*
X115711836Y-85037949D01*
X115711828Y-85037947D01*
X115518543Y-84999500D01*
X115518541Y-84999500D01*
X115321459Y-84999500D01*
X115321456Y-84999500D01*
X115315394Y-85000097D01*
X115315216Y-84998298D01*
X115254090Y-84992824D01*
X115198916Y-84949956D01*
X115175677Y-84884065D01*
X115175500Y-84877438D01*
X115175500Y-84488529D01*
X115195185Y-84421490D01*
X115217741Y-84395301D01*
X115250000Y-84367010D01*
X115250000Y-83261500D01*
X115252550Y-83252814D01*
X115251262Y-83243853D01*
X115262240Y-83219812D01*
X115269685Y-83194461D01*
X115276525Y-83188533D01*
X115280287Y-83180297D01*
X115302521Y-83166007D01*
X115322489Y-83148706D01*
X115333003Y-83146418D01*
X115339065Y-83142523D01*
X115374000Y-83137500D01*
X115526000Y-83137500D01*
X115593039Y-83157185D01*
G37*
G04 #@! TD.AperFunction*
G04 #@! TA.AperFunction,Conductor*
G36*
X111275085Y-78301257D02*
G01*
X111353617Y-78335932D01*
X111380009Y-78347585D01*
X111405135Y-78350500D01*
X111694864Y-78350499D01*
X111698444Y-78350499D01*
X111698444Y-78351771D01*
X111761400Y-78366365D01*
X111810129Y-78416437D01*
X111824500Y-78474380D01*
X111824500Y-78528667D01*
X111850090Y-78624170D01*
X111899525Y-78709794D01*
X111899526Y-78709795D01*
X113990206Y-80800475D01*
X114075831Y-80849911D01*
X114171332Y-80875500D01*
X114171333Y-80875500D01*
X116923485Y-80875500D01*
X116990524Y-80895185D01*
X117011166Y-80911819D01*
X117237166Y-81137819D01*
X117270651Y-81199142D01*
X117265667Y-81268834D01*
X117223795Y-81324767D01*
X117158331Y-81349184D01*
X117149485Y-81349500D01*
X116716507Y-81349500D01*
X116616878Y-81365279D01*
X116496778Y-81426473D01*
X116496774Y-81426476D01*
X116401476Y-81521774D01*
X116401471Y-81521781D01*
X116383632Y-81556794D01*
X116335658Y-81607590D01*
X116273147Y-81624500D01*
X113824626Y-81624500D01*
X113729123Y-81650089D01*
X113643500Y-81699525D01*
X113643497Y-81699527D01*
X113587681Y-81755344D01*
X113526358Y-81788829D01*
X113456666Y-81783845D01*
X113412319Y-81755344D01*
X113380501Y-81723526D01*
X113380500Y-81723525D01*
X113294876Y-81674090D01*
X113247124Y-81661295D01*
X113247122Y-81661294D01*
X113247120Y-81661293D01*
X113199374Y-81648500D01*
X113199373Y-81648500D01*
X111249374Y-81648500D01*
X111249373Y-81648500D01*
X110099500Y-81648500D01*
X110032461Y-81628815D01*
X109986706Y-81576011D01*
X109975500Y-81524500D01*
X109975500Y-78474381D01*
X109995185Y-78407342D01*
X110047989Y-78361587D01*
X110101554Y-78351548D01*
X110101554Y-78350500D01*
X110105134Y-78350499D01*
X110105135Y-78350500D01*
X110394864Y-78350499D01*
X110394879Y-78350497D01*
X110394882Y-78350497D01*
X110419987Y-78347586D01*
X110419987Y-78347585D01*
X110419991Y-78347585D01*
X110522765Y-78302206D01*
X110522766Y-78302204D01*
X110524912Y-78301257D01*
X110594190Y-78292185D01*
X110625085Y-78301257D01*
X110703617Y-78335932D01*
X110730009Y-78347585D01*
X110755135Y-78350500D01*
X111044864Y-78350499D01*
X111044879Y-78350497D01*
X111044882Y-78350497D01*
X111069987Y-78347586D01*
X111069987Y-78347585D01*
X111069991Y-78347585D01*
X111172765Y-78302206D01*
X111172766Y-78302204D01*
X111174912Y-78301257D01*
X111244190Y-78292185D01*
X111275085Y-78301257D01*
G37*
G04 #@! TD.AperFunction*
G04 #@! TA.AperFunction,Conductor*
G36*
X162003472Y-70050695D02*
G01*
X162323297Y-70068656D01*
X162337094Y-70070210D01*
X162649457Y-70123283D01*
X162663014Y-70126377D01*
X162967469Y-70214089D01*
X162980593Y-70218682D01*
X163273304Y-70339926D01*
X163285826Y-70345955D01*
X163452594Y-70438125D01*
X163563139Y-70499221D01*
X163574900Y-70506611D01*
X163833314Y-70689966D01*
X163844174Y-70698627D01*
X164080418Y-70909749D01*
X164090250Y-70919581D01*
X164301372Y-71155825D01*
X164310035Y-71166687D01*
X164493385Y-71425094D01*
X164500778Y-71436860D01*
X164654040Y-71714166D01*
X164660073Y-71726695D01*
X164781317Y-72019406D01*
X164785910Y-72032530D01*
X164873622Y-72336985D01*
X164876716Y-72350542D01*
X164929787Y-72662894D01*
X164931344Y-72676712D01*
X164949305Y-72996527D01*
X164949500Y-73003480D01*
X164949500Y-96996519D01*
X164949305Y-97003472D01*
X164931344Y-97323287D01*
X164929787Y-97337105D01*
X164876716Y-97649457D01*
X164873622Y-97663014D01*
X164785910Y-97967469D01*
X164781317Y-97980593D01*
X164660073Y-98273304D01*
X164654040Y-98285833D01*
X164500778Y-98563139D01*
X164493380Y-98574913D01*
X164310043Y-98833302D01*
X164301372Y-98844174D01*
X164090250Y-99080418D01*
X164080418Y-99090250D01*
X163844174Y-99301372D01*
X163833302Y-99310043D01*
X163574913Y-99493380D01*
X163563139Y-99500778D01*
X163285833Y-99654040D01*
X163273304Y-99660073D01*
X162980593Y-99781317D01*
X162967469Y-99785910D01*
X162663014Y-99873622D01*
X162649457Y-99876716D01*
X162337105Y-99929787D01*
X162323287Y-99931344D01*
X162003472Y-99949305D01*
X161996519Y-99949500D01*
X103003481Y-99949500D01*
X102996528Y-99949305D01*
X102676712Y-99931344D01*
X102662894Y-99929787D01*
X102350542Y-99876716D01*
X102336985Y-99873622D01*
X102032530Y-99785910D01*
X102019406Y-99781317D01*
X101726695Y-99660073D01*
X101714166Y-99654040D01*
X101436860Y-99500778D01*
X101425094Y-99493385D01*
X101166687Y-99310035D01*
X101155825Y-99301372D01*
X100919581Y-99090250D01*
X100909749Y-99080418D01*
X100698627Y-98844174D01*
X100689966Y-98833314D01*
X100506611Y-98574900D01*
X100499221Y-98563139D01*
X100423659Y-98426420D01*
X100345955Y-98285826D01*
X100339929Y-98273313D01*
X100233567Y-98016530D01*
X107449500Y-98016530D01*
X107449500Y-98223469D01*
X107489868Y-98426412D01*
X107489870Y-98426420D01*
X107569058Y-98617596D01*
X107684024Y-98789657D01*
X107830342Y-98935975D01*
X107830345Y-98935977D01*
X108002402Y-99050941D01*
X108193580Y-99130130D01*
X108396530Y-99170499D01*
X108396534Y-99170500D01*
X108396535Y-99170500D01*
X108603466Y-99170500D01*
X108603467Y-99170499D01*
X108806420Y-99130130D01*
X108997598Y-99050941D01*
X109169655Y-98935977D01*
X109315977Y-98789655D01*
X109430941Y-98617598D01*
X109510130Y-98426420D01*
X109550500Y-98223465D01*
X109550500Y-98016535D01*
X109550499Y-98016530D01*
X112039500Y-98016530D01*
X112039500Y-98223469D01*
X112079868Y-98426412D01*
X112079870Y-98426420D01*
X112159058Y-98617596D01*
X112274024Y-98789657D01*
X112420342Y-98935975D01*
X112420345Y-98935977D01*
X112592402Y-99050941D01*
X112783580Y-99130130D01*
X112986530Y-99170499D01*
X112986534Y-99170500D01*
X112986535Y-99170500D01*
X113193466Y-99170500D01*
X113193467Y-99170499D01*
X113396420Y-99130130D01*
X113587598Y-99050941D01*
X113759655Y-98935977D01*
X113905977Y-98789655D01*
X114020941Y-98617598D01*
X114100130Y-98426420D01*
X114140500Y-98223465D01*
X114140500Y-98016535D01*
X114140499Y-98016530D01*
X116629500Y-98016530D01*
X116629500Y-98223469D01*
X116669868Y-98426412D01*
X116669870Y-98426420D01*
X116749058Y-98617596D01*
X116864024Y-98789657D01*
X117010342Y-98935975D01*
X117010345Y-98935977D01*
X117182402Y-99050941D01*
X117373580Y-99130130D01*
X117576530Y-99170499D01*
X117576534Y-99170500D01*
X117576535Y-99170500D01*
X117783466Y-99170500D01*
X117783467Y-99170499D01*
X117986420Y-99130130D01*
X118177598Y-99050941D01*
X118349655Y-98935977D01*
X118495977Y-98789655D01*
X118610941Y-98617598D01*
X118690130Y-98426420D01*
X118730500Y-98223465D01*
X118730500Y-98016535D01*
X118730499Y-98016530D01*
X121219500Y-98016530D01*
X121219500Y-98223469D01*
X121259868Y-98426412D01*
X121259870Y-98426420D01*
X121339058Y-98617596D01*
X121454024Y-98789657D01*
X121600342Y-98935975D01*
X121600345Y-98935977D01*
X121772402Y-99050941D01*
X121963580Y-99130130D01*
X122166530Y-99170499D01*
X122166534Y-99170500D01*
X122166535Y-99170500D01*
X122373466Y-99170500D01*
X122373467Y-99170499D01*
X122576420Y-99130130D01*
X122767598Y-99050941D01*
X122939655Y-98935977D01*
X123085977Y-98789655D01*
X123200941Y-98617598D01*
X123280130Y-98426420D01*
X123320500Y-98223465D01*
X123320500Y-98016535D01*
X123280130Y-97813580D01*
X123200941Y-97622402D01*
X123085977Y-97450345D01*
X123085975Y-97450342D01*
X122939657Y-97304024D01*
X122849990Y-97244111D01*
X122767598Y-97189059D01*
X122637914Y-97135342D01*
X122576420Y-97109870D01*
X122576412Y-97109868D01*
X122373469Y-97069500D01*
X122373465Y-97069500D01*
X122166535Y-97069500D01*
X122166530Y-97069500D01*
X121963587Y-97109868D01*
X121963579Y-97109870D01*
X121772403Y-97189058D01*
X121600342Y-97304024D01*
X121454024Y-97450342D01*
X121339058Y-97622403D01*
X121259870Y-97813579D01*
X121259868Y-97813587D01*
X121219500Y-98016530D01*
X118730499Y-98016530D01*
X118690130Y-97813580D01*
X118610941Y-97622402D01*
X118495977Y-97450345D01*
X118495975Y-97450342D01*
X118349657Y-97304024D01*
X118259990Y-97244111D01*
X118177598Y-97189059D01*
X118047914Y-97135342D01*
X117986420Y-97109870D01*
X117986412Y-97109868D01*
X117783469Y-97069500D01*
X117783465Y-97069500D01*
X117576535Y-97069500D01*
X117576530Y-97069500D01*
X117373587Y-97109868D01*
X117373579Y-97109870D01*
X117182403Y-97189058D01*
X117010342Y-97304024D01*
X116864024Y-97450342D01*
X116749058Y-97622403D01*
X116669870Y-97813579D01*
X116669868Y-97813587D01*
X116629500Y-98016530D01*
X114140499Y-98016530D01*
X114100130Y-97813580D01*
X114020941Y-97622402D01*
X113905977Y-97450345D01*
X113905975Y-97450342D01*
X113759657Y-97304024D01*
X113669990Y-97244111D01*
X113587598Y-97189059D01*
X113457914Y-97135342D01*
X113396420Y-97109870D01*
X113396412Y-97109868D01*
X113193469Y-97069500D01*
X113193465Y-97069500D01*
X112986535Y-97069500D01*
X112986530Y-97069500D01*
X112783587Y-97109868D01*
X112783579Y-97109870D01*
X112592403Y-97189058D01*
X112420342Y-97304024D01*
X112274024Y-97450342D01*
X112159058Y-97622403D01*
X112079870Y-97813579D01*
X112079868Y-97813587D01*
X112039500Y-98016530D01*
X109550499Y-98016530D01*
X109510130Y-97813580D01*
X109430941Y-97622402D01*
X109315977Y-97450345D01*
X109315975Y-97450342D01*
X109169657Y-97304024D01*
X109079990Y-97244111D01*
X108997598Y-97189059D01*
X108867914Y-97135342D01*
X108806420Y-97109870D01*
X108806412Y-97109868D01*
X108603469Y-97069500D01*
X108603465Y-97069500D01*
X108396535Y-97069500D01*
X108396530Y-97069500D01*
X108193587Y-97109868D01*
X108193579Y-97109870D01*
X108002403Y-97189058D01*
X107830342Y-97304024D01*
X107684024Y-97450342D01*
X107569058Y-97622403D01*
X107489870Y-97813579D01*
X107489868Y-97813587D01*
X107449500Y-98016530D01*
X100233567Y-98016530D01*
X100218682Y-97980593D01*
X100214089Y-97967469D01*
X100136618Y-97698561D01*
X100126376Y-97663012D01*
X100123283Y-97649457D01*
X100121046Y-97636289D01*
X100070210Y-97337094D01*
X100068656Y-97323297D01*
X100050695Y-97003472D01*
X100050500Y-96996519D01*
X100050500Y-96393713D01*
X102149500Y-96393713D01*
X102149500Y-96606287D01*
X102182754Y-96816243D01*
X102241329Y-96996519D01*
X102248444Y-97018414D01*
X102344951Y-97207820D01*
X102469890Y-97379786D01*
X102620213Y-97530109D01*
X102792179Y-97655048D01*
X102792181Y-97655049D01*
X102792184Y-97655051D01*
X102981588Y-97751557D01*
X103183757Y-97817246D01*
X103393713Y-97850500D01*
X103393714Y-97850500D01*
X103606286Y-97850500D01*
X103606287Y-97850500D01*
X103816243Y-97817246D01*
X104018412Y-97751557D01*
X104207816Y-97655051D01*
X104229789Y-97639086D01*
X104379786Y-97530109D01*
X104379788Y-97530106D01*
X104379792Y-97530104D01*
X104530104Y-97379792D01*
X104530106Y-97379788D01*
X104530109Y-97379786D01*
X104655048Y-97207820D01*
X104655047Y-97207820D01*
X104655051Y-97207816D01*
X104751557Y-97018412D01*
X104817246Y-96816243D01*
X104850500Y-96606287D01*
X104850500Y-96393713D01*
X104817246Y-96183757D01*
X104751557Y-95981588D01*
X104655051Y-95792184D01*
X104655049Y-95792181D01*
X104655048Y-95792179D01*
X104530109Y-95620213D01*
X104386426Y-95476530D01*
X107449500Y-95476530D01*
X107449500Y-95683469D01*
X107489868Y-95886412D01*
X107489870Y-95886420D01*
X107545277Y-96020185D01*
X107569059Y-96077598D01*
X107595944Y-96117834D01*
X107684024Y-96249657D01*
X107830342Y-96395975D01*
X107830345Y-96395977D01*
X108002402Y-96510941D01*
X108193580Y-96590130D01*
X108396530Y-96630499D01*
X108396534Y-96630500D01*
X108396535Y-96630500D01*
X108603466Y-96630500D01*
X108603467Y-96630499D01*
X108806420Y-96590130D01*
X108997598Y-96510941D01*
X109169655Y-96395977D01*
X109315977Y-96249655D01*
X109430941Y-96077598D01*
X109510130Y-95886420D01*
X109550500Y-95683465D01*
X109550500Y-95476535D01*
X109550499Y-95476530D01*
X112039500Y-95476530D01*
X112039500Y-95683469D01*
X112079868Y-95886412D01*
X112079870Y-95886420D01*
X112135277Y-96020185D01*
X112159059Y-96077598D01*
X112185944Y-96117834D01*
X112274024Y-96249657D01*
X112420342Y-96395975D01*
X112420345Y-96395977D01*
X112592402Y-96510941D01*
X112783580Y-96590130D01*
X112986530Y-96630499D01*
X112986534Y-96630500D01*
X112986535Y-96630500D01*
X113193466Y-96630500D01*
X113193467Y-96630499D01*
X113396420Y-96590130D01*
X113587598Y-96510941D01*
X113759655Y-96395977D01*
X113905977Y-96249655D01*
X114020941Y-96077598D01*
X114100130Y-95886420D01*
X114140500Y-95683465D01*
X114140500Y-95476535D01*
X114140499Y-95476530D01*
X116629500Y-95476530D01*
X116629500Y-95683469D01*
X116669868Y-95886412D01*
X116669870Y-95886420D01*
X116725277Y-96020185D01*
X116749059Y-96077598D01*
X116775944Y-96117834D01*
X116864024Y-96249657D01*
X117010342Y-96395975D01*
X117010345Y-96395977D01*
X117182402Y-96510941D01*
X117373580Y-96590130D01*
X117576530Y-96630499D01*
X117576534Y-96630500D01*
X117576535Y-96630500D01*
X117783466Y-96630500D01*
X117783467Y-96630499D01*
X117986420Y-96590130D01*
X118177598Y-96510941D01*
X118349655Y-96395977D01*
X118495977Y-96249655D01*
X118610941Y-96077598D01*
X118690130Y-95886420D01*
X118730500Y-95683465D01*
X118730500Y-95476535D01*
X118730499Y-95476530D01*
X121219500Y-95476530D01*
X121219500Y-95683469D01*
X121259868Y-95886412D01*
X121259870Y-95886420D01*
X121315277Y-96020185D01*
X121339059Y-96077598D01*
X121365944Y-96117834D01*
X121454024Y-96249657D01*
X121600342Y-96395975D01*
X121600345Y-96395977D01*
X121772402Y-96510941D01*
X121963580Y-96590130D01*
X122166530Y-96630499D01*
X122166534Y-96630500D01*
X122166535Y-96630500D01*
X122373466Y-96630500D01*
X122373467Y-96630499D01*
X122576420Y-96590130D01*
X122767598Y-96510941D01*
X122939655Y-96395977D01*
X123085977Y-96249655D01*
X123200941Y-96077598D01*
X123280130Y-95886420D01*
X123320500Y-95683465D01*
X123320500Y-95476535D01*
X123280130Y-95273580D01*
X123200941Y-95082402D01*
X123085977Y-94910345D01*
X123085975Y-94910342D01*
X122939657Y-94764024D01*
X122828269Y-94689598D01*
X122767598Y-94649059D01*
X122692545Y-94617971D01*
X122576420Y-94569870D01*
X122576412Y-94569868D01*
X122373469Y-94529500D01*
X122373465Y-94529500D01*
X122166535Y-94529500D01*
X122166530Y-94529500D01*
X121963587Y-94569868D01*
X121963579Y-94569870D01*
X121772403Y-94649058D01*
X121600342Y-94764024D01*
X121454024Y-94910342D01*
X121339058Y-95082403D01*
X121259870Y-95273579D01*
X121259868Y-95273587D01*
X121219500Y-95476530D01*
X118730499Y-95476530D01*
X118690130Y-95273580D01*
X118610941Y-95082402D01*
X118495977Y-94910345D01*
X118495975Y-94910342D01*
X118349657Y-94764024D01*
X118238269Y-94689598D01*
X118177598Y-94649059D01*
X118102545Y-94617971D01*
X117986420Y-94569870D01*
X117986412Y-94569868D01*
X117783469Y-94529500D01*
X117783465Y-94529500D01*
X117576535Y-94529500D01*
X117576530Y-94529500D01*
X117373587Y-94569868D01*
X117373579Y-94569870D01*
X117182403Y-94649058D01*
X117010342Y-94764024D01*
X116864024Y-94910342D01*
X116749058Y-95082403D01*
X116669870Y-95273579D01*
X116669868Y-95273587D01*
X116629500Y-95476530D01*
X114140499Y-95476530D01*
X114100130Y-95273580D01*
X114020941Y-95082402D01*
X113905977Y-94910345D01*
X113905975Y-94910342D01*
X113759657Y-94764024D01*
X113648269Y-94689598D01*
X113587598Y-94649059D01*
X113512545Y-94617971D01*
X113396420Y-94569870D01*
X113396412Y-94569868D01*
X113193469Y-94529500D01*
X113193465Y-94529500D01*
X112986535Y-94529500D01*
X112986530Y-94529500D01*
X112783587Y-94569868D01*
X112783579Y-94569870D01*
X112592403Y-94649058D01*
X112420342Y-94764024D01*
X112274024Y-94910342D01*
X112159058Y-95082403D01*
X112079870Y-95273579D01*
X112079868Y-95273587D01*
X112039500Y-95476530D01*
X109550499Y-95476530D01*
X109510130Y-95273580D01*
X109430941Y-95082402D01*
X109315977Y-94910345D01*
X109315975Y-94910342D01*
X109169657Y-94764024D01*
X109058269Y-94689598D01*
X108997598Y-94649059D01*
X108922545Y-94617971D01*
X108806420Y-94569870D01*
X108806412Y-94569868D01*
X108603469Y-94529500D01*
X108603465Y-94529500D01*
X108396535Y-94529500D01*
X108396530Y-94529500D01*
X108193587Y-94569868D01*
X108193579Y-94569870D01*
X108002403Y-94649058D01*
X107830342Y-94764024D01*
X107684024Y-94910342D01*
X107569058Y-95082403D01*
X107489870Y-95273579D01*
X107489868Y-95273587D01*
X107449500Y-95476530D01*
X104386426Y-95476530D01*
X104379786Y-95469890D01*
X104207820Y-95344951D01*
X104018414Y-95248444D01*
X104018413Y-95248443D01*
X104018412Y-95248443D01*
X103816243Y-95182754D01*
X103816241Y-95182753D01*
X103816240Y-95182753D01*
X103618794Y-95151481D01*
X103606287Y-95149500D01*
X103393713Y-95149500D01*
X103381206Y-95151481D01*
X103183760Y-95182753D01*
X102981585Y-95248444D01*
X102792179Y-95344951D01*
X102620213Y-95469890D01*
X102469890Y-95620213D01*
X102344951Y-95792179D01*
X102248444Y-95981585D01*
X102182753Y-96183760D01*
X102172316Y-96249657D01*
X102149500Y-96393713D01*
X100050500Y-96393713D01*
X100050500Y-85180247D01*
X101719500Y-85180247D01*
X101719500Y-86819752D01*
X101731131Y-86878229D01*
X101731132Y-86878230D01*
X101775447Y-86944552D01*
X101841769Y-86988867D01*
X101841770Y-86988868D01*
X101900247Y-87000499D01*
X101900250Y-87000500D01*
X101900252Y-87000500D01*
X102145500Y-87000500D01*
X102212539Y-87020185D01*
X102258294Y-87072989D01*
X102269500Y-87124500D01*
X102269500Y-90029310D01*
X102281795Y-90075198D01*
X102281796Y-90075198D01*
X102300201Y-90143888D01*
X102328553Y-90192993D01*
X102359511Y-90246614D01*
X102359513Y-90246616D01*
X105513384Y-93400488D01*
X105513386Y-93400490D01*
X105584530Y-93441564D01*
X105584531Y-93441564D01*
X105616114Y-93459799D01*
X105730691Y-93490500D01*
X107471309Y-93490500D01*
X107538348Y-93510185D01*
X107574411Y-93545609D01*
X107684022Y-93709655D01*
X107830342Y-93855975D01*
X107830345Y-93855977D01*
X108002402Y-93970941D01*
X108193580Y-94050130D01*
X108372147Y-94085649D01*
X108396530Y-94090499D01*
X108396534Y-94090500D01*
X108396535Y-94090500D01*
X108603466Y-94090500D01*
X108603467Y-94090499D01*
X108806420Y-94050130D01*
X108997598Y-93970941D01*
X109169655Y-93855977D01*
X109315977Y-93709655D01*
X109320978Y-93702171D01*
X109425589Y-93545609D01*
X109479201Y-93500804D01*
X109528691Y-93490500D01*
X112061309Y-93490500D01*
X112128348Y-93510185D01*
X112164411Y-93545609D01*
X112274022Y-93709655D01*
X112420342Y-93855975D01*
X112420345Y-93855977D01*
X112592402Y-93970941D01*
X112783580Y-94050130D01*
X112962147Y-94085649D01*
X112986530Y-94090499D01*
X112986534Y-94090500D01*
X112986535Y-94090500D01*
X113193466Y-94090500D01*
X113193467Y-94090499D01*
X113396420Y-94050130D01*
X113587598Y-93970941D01*
X113759655Y-93855977D01*
X113905977Y-93709655D01*
X113910978Y-93702171D01*
X114015589Y-93545609D01*
X114069201Y-93500804D01*
X114118691Y-93490500D01*
X116651309Y-93490500D01*
X116718348Y-93510185D01*
X116754411Y-93545609D01*
X116864022Y-93709655D01*
X117010342Y-93855975D01*
X117010345Y-93855977D01*
X117182402Y-93970941D01*
X117373580Y-94050130D01*
X117552147Y-94085649D01*
X117576530Y-94090499D01*
X117576534Y-94090500D01*
X117576535Y-94090500D01*
X117783466Y-94090500D01*
X117783467Y-94090499D01*
X117986420Y-94050130D01*
X118177598Y-93970941D01*
X118349655Y-93855977D01*
X118495977Y-93709655D01*
X118500978Y-93702171D01*
X118605589Y-93545609D01*
X118659201Y-93500804D01*
X118708691Y-93490500D01*
X121241309Y-93490500D01*
X121308348Y-93510185D01*
X121344411Y-93545609D01*
X121454022Y-93709655D01*
X121600342Y-93855975D01*
X121600345Y-93855977D01*
X121772402Y-93970941D01*
X121963580Y-94050130D01*
X122142147Y-94085649D01*
X122166530Y-94090499D01*
X122166534Y-94090500D01*
X122166535Y-94090500D01*
X122373466Y-94090500D01*
X122373467Y-94090499D01*
X122576420Y-94050130D01*
X122767598Y-93970941D01*
X122939655Y-93855977D01*
X123085977Y-93709655D01*
X123090978Y-93702171D01*
X123195589Y-93545609D01*
X123249201Y-93500804D01*
X123298691Y-93490500D01*
X125831309Y-93490500D01*
X125898348Y-93510185D01*
X125934411Y-93545609D01*
X126044022Y-93709655D01*
X126190342Y-93855975D01*
X126190345Y-93855977D01*
X126362402Y-93970941D01*
X126553580Y-94050130D01*
X126732147Y-94085649D01*
X126756530Y-94090499D01*
X126756534Y-94090500D01*
X126756535Y-94090500D01*
X126963466Y-94090500D01*
X126963467Y-94090499D01*
X127166420Y-94050130D01*
X127357598Y-93970941D01*
X127529655Y-93855977D01*
X127675977Y-93709655D01*
X127790941Y-93537598D01*
X127870130Y-93346420D01*
X127910500Y-93143465D01*
X127910500Y-92936535D01*
X127870130Y-92733580D01*
X127790941Y-92542402D01*
X127675977Y-92370345D01*
X127675976Y-92370344D01*
X127675975Y-92370342D01*
X127529657Y-92224024D01*
X127412766Y-92145921D01*
X127357598Y-92109059D01*
X127308112Y-92088561D01*
X127253709Y-92044720D01*
X127231644Y-91978426D01*
X127248923Y-91910726D01*
X127300061Y-91863116D01*
X127355565Y-91850000D01*
X127757828Y-91850000D01*
X127757844Y-91849999D01*
X127817372Y-91843598D01*
X127817379Y-91843596D01*
X127952086Y-91793354D01*
X127952093Y-91793350D01*
X128067187Y-91707190D01*
X128067190Y-91707187D01*
X128153350Y-91592093D01*
X128153354Y-91592086D01*
X128203596Y-91457379D01*
X128203598Y-91457372D01*
X128209999Y-91397844D01*
X128210000Y-91397827D01*
X128210000Y-90750000D01*
X127293012Y-90750000D01*
X127325925Y-90692993D01*
X127360000Y-90565826D01*
X127360000Y-90434174D01*
X127325925Y-90307007D01*
X127293012Y-90250000D01*
X128210000Y-90250000D01*
X128210000Y-89602172D01*
X128209999Y-89602155D01*
X128203598Y-89542627D01*
X128203596Y-89542620D01*
X128153354Y-89407913D01*
X128153350Y-89407906D01*
X128067190Y-89292812D01*
X128067187Y-89292809D01*
X127952093Y-89206649D01*
X127952086Y-89206645D01*
X127817379Y-89156403D01*
X127817372Y-89156401D01*
X127757844Y-89150000D01*
X127110000Y-89150000D01*
X127110000Y-90066988D01*
X127052993Y-90034075D01*
X126925826Y-90000000D01*
X126794174Y-90000000D01*
X126667007Y-90034075D01*
X126610000Y-90066988D01*
X126610000Y-89150000D01*
X125962155Y-89150000D01*
X125902627Y-89156401D01*
X125902620Y-89156403D01*
X125767913Y-89206645D01*
X125767906Y-89206649D01*
X125652812Y-89292809D01*
X125652809Y-89292812D01*
X125566649Y-89407906D01*
X125566645Y-89407913D01*
X125516403Y-89542620D01*
X125516401Y-89542627D01*
X125510000Y-89602155D01*
X125510000Y-90250000D01*
X126426988Y-90250000D01*
X126394075Y-90307007D01*
X126360000Y-90434174D01*
X126360000Y-90565826D01*
X126394075Y-90692993D01*
X126426988Y-90750000D01*
X125510000Y-90750000D01*
X125510000Y-91397844D01*
X125516401Y-91457372D01*
X125516403Y-91457379D01*
X125566645Y-91592086D01*
X125566649Y-91592093D01*
X125652809Y-91707187D01*
X125652812Y-91707190D01*
X125767906Y-91793350D01*
X125767913Y-91793354D01*
X125902620Y-91843596D01*
X125902627Y-91843598D01*
X125962155Y-91849999D01*
X125962172Y-91850000D01*
X126364435Y-91850000D01*
X126431474Y-91869685D01*
X126477229Y-91922489D01*
X126487173Y-91991647D01*
X126458148Y-92055203D01*
X126411888Y-92088561D01*
X126362403Y-92109058D01*
X126190342Y-92224024D01*
X126044022Y-92370344D01*
X125934411Y-92534391D01*
X125880799Y-92579196D01*
X125831309Y-92589500D01*
X123298691Y-92589500D01*
X123231652Y-92569815D01*
X123195589Y-92534391D01*
X123085977Y-92370344D01*
X122939657Y-92224024D01*
X122822766Y-92145921D01*
X122767598Y-92109059D01*
X122718112Y-92088561D01*
X122663709Y-92044720D01*
X122641644Y-91978426D01*
X122658923Y-91910726D01*
X122710061Y-91863116D01*
X122765565Y-91850000D01*
X123167828Y-91850000D01*
X123167844Y-91849999D01*
X123227372Y-91843598D01*
X123227379Y-91843596D01*
X123362086Y-91793354D01*
X123362093Y-91793350D01*
X123477187Y-91707190D01*
X123477190Y-91707187D01*
X123563350Y-91592093D01*
X123563354Y-91592086D01*
X123613596Y-91457379D01*
X123613598Y-91457372D01*
X123619999Y-91397844D01*
X123620000Y-91397827D01*
X123620000Y-90750000D01*
X122703012Y-90750000D01*
X122735925Y-90692993D01*
X122770000Y-90565826D01*
X122770000Y-90434174D01*
X122735925Y-90307007D01*
X122703012Y-90250000D01*
X123620000Y-90250000D01*
X123620000Y-89602172D01*
X123619999Y-89602155D01*
X123613598Y-89542627D01*
X123613596Y-89542620D01*
X123563354Y-89407913D01*
X123563350Y-89407906D01*
X123477190Y-89292812D01*
X123477187Y-89292809D01*
X123362093Y-89206649D01*
X123362086Y-89206645D01*
X123227379Y-89156403D01*
X123227372Y-89156401D01*
X123167844Y-89150000D01*
X122520000Y-89150000D01*
X122520000Y-90066988D01*
X122462993Y-90034075D01*
X122335826Y-90000000D01*
X122204174Y-90000000D01*
X122077007Y-90034075D01*
X122020000Y-90066988D01*
X122020000Y-89150000D01*
X121372155Y-89150000D01*
X121312627Y-89156401D01*
X121312620Y-89156403D01*
X121177913Y-89206645D01*
X121177906Y-89206649D01*
X121062812Y-89292809D01*
X121062809Y-89292812D01*
X120976649Y-89407906D01*
X120976645Y-89407913D01*
X120926403Y-89542620D01*
X120926401Y-89542627D01*
X120920000Y-89602155D01*
X120920000Y-90250000D01*
X121836988Y-90250000D01*
X121804075Y-90307007D01*
X121770000Y-90434174D01*
X121770000Y-90565826D01*
X121804075Y-90692993D01*
X121836988Y-90750000D01*
X120920000Y-90750000D01*
X120920000Y-91397844D01*
X120926401Y-91457372D01*
X120926403Y-91457379D01*
X120976645Y-91592086D01*
X120976649Y-91592093D01*
X121062809Y-91707187D01*
X121062812Y-91707190D01*
X121177906Y-91793350D01*
X121177913Y-91793354D01*
X121312620Y-91843596D01*
X121312627Y-91843598D01*
X121372155Y-91849999D01*
X121372172Y-91850000D01*
X121774435Y-91850000D01*
X121841474Y-91869685D01*
X121887229Y-91922489D01*
X121897173Y-91991647D01*
X121868148Y-92055203D01*
X121821888Y-92088561D01*
X121772403Y-92109058D01*
X121600342Y-92224024D01*
X121454022Y-92370344D01*
X121344411Y-92534391D01*
X121290799Y-92579196D01*
X121241309Y-92589500D01*
X118708691Y-92589500D01*
X118641652Y-92569815D01*
X118605589Y-92534391D01*
X118495977Y-92370344D01*
X118349657Y-92224024D01*
X118232766Y-92145921D01*
X118177598Y-92109059D01*
X118128112Y-92088561D01*
X118073709Y-92044720D01*
X118051644Y-91978426D01*
X118068923Y-91910726D01*
X118120061Y-91863116D01*
X118175565Y-91850000D01*
X118577828Y-91850000D01*
X118577844Y-91849999D01*
X118637372Y-91843598D01*
X118637379Y-91843596D01*
X118772086Y-91793354D01*
X118772093Y-91793350D01*
X118887187Y-91707190D01*
X118887190Y-91707187D01*
X118973350Y-91592093D01*
X118973354Y-91592086D01*
X119023596Y-91457379D01*
X119023598Y-91457372D01*
X119029999Y-91397844D01*
X119030000Y-91397827D01*
X119030000Y-90750000D01*
X118113012Y-90750000D01*
X118145925Y-90692993D01*
X118180000Y-90565826D01*
X118180000Y-90434174D01*
X118145925Y-90307007D01*
X118113012Y-90250000D01*
X119030000Y-90250000D01*
X119030000Y-89602172D01*
X119029999Y-89602155D01*
X119023598Y-89542627D01*
X119023596Y-89542620D01*
X118973354Y-89407913D01*
X118973350Y-89407906D01*
X118887190Y-89292812D01*
X118887187Y-89292809D01*
X118772093Y-89206649D01*
X118772086Y-89206645D01*
X118637379Y-89156403D01*
X118637372Y-89156401D01*
X118577844Y-89150000D01*
X117930000Y-89150000D01*
X117930000Y-90066988D01*
X117872993Y-90034075D01*
X117745826Y-90000000D01*
X117614174Y-90000000D01*
X117487007Y-90034075D01*
X117430000Y-90066988D01*
X117430000Y-89150000D01*
X116782155Y-89150000D01*
X116722627Y-89156401D01*
X116722620Y-89156403D01*
X116587913Y-89206645D01*
X116587906Y-89206649D01*
X116472812Y-89292809D01*
X116472809Y-89292812D01*
X116386649Y-89407906D01*
X116386645Y-89407913D01*
X116336403Y-89542620D01*
X116336401Y-89542627D01*
X116330000Y-89602155D01*
X116330000Y-90250000D01*
X117246988Y-90250000D01*
X117214075Y-90307007D01*
X117180000Y-90434174D01*
X117180000Y-90565826D01*
X117214075Y-90692993D01*
X117246988Y-90750000D01*
X116330000Y-90750000D01*
X116330000Y-91397844D01*
X116336401Y-91457372D01*
X116336403Y-91457379D01*
X116386645Y-91592086D01*
X116386649Y-91592093D01*
X116472809Y-91707187D01*
X116472812Y-91707190D01*
X116587906Y-91793350D01*
X116587913Y-91793354D01*
X116722620Y-91843596D01*
X116722627Y-91843598D01*
X116782155Y-91849999D01*
X116782172Y-91850000D01*
X117184435Y-91850000D01*
X117251474Y-91869685D01*
X117297229Y-91922489D01*
X117307173Y-91991647D01*
X117278148Y-92055203D01*
X117231888Y-92088561D01*
X117182403Y-92109058D01*
X117010342Y-92224024D01*
X116864022Y-92370344D01*
X116754411Y-92534391D01*
X116700799Y-92579196D01*
X116651309Y-92589500D01*
X114118691Y-92589500D01*
X114051652Y-92569815D01*
X114015589Y-92534391D01*
X113905977Y-92370344D01*
X113759657Y-92224024D01*
X113642766Y-92145921D01*
X113587598Y-92109059D01*
X113538112Y-92088561D01*
X113483709Y-92044720D01*
X113461644Y-91978426D01*
X113478923Y-91910726D01*
X113530061Y-91863116D01*
X113585565Y-91850000D01*
X113987828Y-91850000D01*
X113987844Y-91849999D01*
X114047372Y-91843598D01*
X114047379Y-91843596D01*
X114182086Y-91793354D01*
X114182093Y-91793350D01*
X114297187Y-91707190D01*
X114297190Y-91707187D01*
X114383350Y-91592093D01*
X114383354Y-91592086D01*
X114433596Y-91457379D01*
X114433598Y-91457372D01*
X114439999Y-91397844D01*
X114440000Y-91397827D01*
X114440000Y-90750000D01*
X113523012Y-90750000D01*
X113555925Y-90692993D01*
X113590000Y-90565826D01*
X113590000Y-90434174D01*
X113555925Y-90307007D01*
X113523012Y-90250000D01*
X114440000Y-90250000D01*
X114440000Y-89602172D01*
X114439999Y-89602155D01*
X114433598Y-89542627D01*
X114433596Y-89542620D01*
X114383354Y-89407913D01*
X114383350Y-89407906D01*
X114297190Y-89292812D01*
X114297187Y-89292809D01*
X114182093Y-89206649D01*
X114182086Y-89206645D01*
X114047379Y-89156403D01*
X114047372Y-89156401D01*
X113987844Y-89150000D01*
X113340000Y-89150000D01*
X113340000Y-90066988D01*
X113282993Y-90034075D01*
X113155826Y-90000000D01*
X113024174Y-90000000D01*
X112897007Y-90034075D01*
X112840000Y-90066988D01*
X112840000Y-89150000D01*
X112192155Y-89150000D01*
X112132627Y-89156401D01*
X112132620Y-89156403D01*
X111997913Y-89206645D01*
X111997906Y-89206649D01*
X111882812Y-89292809D01*
X111882809Y-89292812D01*
X111796649Y-89407906D01*
X111796645Y-89407913D01*
X111746403Y-89542620D01*
X111746401Y-89542627D01*
X111740000Y-89602155D01*
X111740000Y-90250000D01*
X112656988Y-90250000D01*
X112624075Y-90307007D01*
X112590000Y-90434174D01*
X112590000Y-90565826D01*
X112624075Y-90692993D01*
X112656988Y-90750000D01*
X111740000Y-90750000D01*
X111740000Y-91397844D01*
X111746401Y-91457372D01*
X111746403Y-91457379D01*
X111796645Y-91592086D01*
X111796649Y-91592093D01*
X111882809Y-91707187D01*
X111882812Y-91707190D01*
X111997906Y-91793350D01*
X111997913Y-91793354D01*
X112132620Y-91843596D01*
X112132627Y-91843598D01*
X112192155Y-91849999D01*
X112192172Y-91850000D01*
X112594435Y-91850000D01*
X112661474Y-91869685D01*
X112707229Y-91922489D01*
X112717173Y-91991647D01*
X112688148Y-92055203D01*
X112641888Y-92088561D01*
X112592403Y-92109058D01*
X112420342Y-92224024D01*
X112274022Y-92370344D01*
X112164411Y-92534391D01*
X112110799Y-92579196D01*
X112061309Y-92589500D01*
X109528691Y-92589500D01*
X109461652Y-92569815D01*
X109425589Y-92534391D01*
X109315977Y-92370344D01*
X109169657Y-92224024D01*
X109052766Y-92145921D01*
X108997598Y-92109059D01*
X108948112Y-92088561D01*
X108893709Y-92044720D01*
X108871644Y-91978426D01*
X108888923Y-91910726D01*
X108940061Y-91863116D01*
X108995565Y-91850000D01*
X109397828Y-91850000D01*
X109397844Y-91849999D01*
X109457372Y-91843598D01*
X109457379Y-91843596D01*
X109592086Y-91793354D01*
X109592093Y-91793350D01*
X109707187Y-91707190D01*
X109707190Y-91707187D01*
X109793350Y-91592093D01*
X109793354Y-91592086D01*
X109843596Y-91457379D01*
X109843598Y-91457372D01*
X109849999Y-91397844D01*
X109850000Y-91397827D01*
X109850000Y-90750000D01*
X108933012Y-90750000D01*
X108965925Y-90692993D01*
X109000000Y-90565826D01*
X109000000Y-90434174D01*
X108965925Y-90307007D01*
X108933012Y-90250000D01*
X109850000Y-90250000D01*
X109850000Y-89602172D01*
X109849999Y-89602155D01*
X109843598Y-89542627D01*
X109843596Y-89542620D01*
X109793354Y-89407913D01*
X109793350Y-89407906D01*
X109707190Y-89292812D01*
X109707187Y-89292809D01*
X109592093Y-89206649D01*
X109592086Y-89206645D01*
X109457379Y-89156403D01*
X109457372Y-89156401D01*
X109397844Y-89150000D01*
X108750000Y-89150000D01*
X108750000Y-90066988D01*
X108692993Y-90034075D01*
X108565826Y-90000000D01*
X108434174Y-90000000D01*
X108307007Y-90034075D01*
X108250000Y-90066988D01*
X108250000Y-89150000D01*
X107602155Y-89150000D01*
X107542627Y-89156401D01*
X107542620Y-89156403D01*
X107407913Y-89206645D01*
X107407906Y-89206649D01*
X107292812Y-89292809D01*
X107292809Y-89292812D01*
X107206649Y-89407906D01*
X107206645Y-89407913D01*
X107156403Y-89542620D01*
X107156401Y-89542627D01*
X107150000Y-89602155D01*
X107150000Y-90250000D01*
X108066988Y-90250000D01*
X108034075Y-90307007D01*
X108000000Y-90434174D01*
X108000000Y-90565826D01*
X108034075Y-90692993D01*
X108066988Y-90750000D01*
X107150000Y-90750000D01*
X107150000Y-91397844D01*
X107156401Y-91457372D01*
X107156403Y-91457379D01*
X107206645Y-91592086D01*
X107206649Y-91592093D01*
X107292809Y-91707187D01*
X107292812Y-91707190D01*
X107407906Y-91793350D01*
X107407913Y-91793354D01*
X107542620Y-91843596D01*
X107542627Y-91843598D01*
X107602155Y-91849999D01*
X107602172Y-91850000D01*
X108004435Y-91850000D01*
X108071474Y-91869685D01*
X108117229Y-91922489D01*
X108127173Y-91991647D01*
X108098148Y-92055203D01*
X108051888Y-92088561D01*
X108002403Y-92109058D01*
X107830342Y-92224024D01*
X107684022Y-92370344D01*
X107574411Y-92534391D01*
X107520799Y-92579196D01*
X107471309Y-92589500D01*
X106027966Y-92589500D01*
X105960927Y-92569815D01*
X105940285Y-92553181D01*
X103206819Y-89819715D01*
X103192115Y-89792787D01*
X103175523Y-89766969D01*
X103174631Y-89760768D01*
X103173334Y-89758392D01*
X103170500Y-89732034D01*
X103170500Y-87124500D01*
X103190185Y-87057461D01*
X103242989Y-87011706D01*
X103294500Y-87000500D01*
X103539750Y-87000500D01*
X103539751Y-87000499D01*
X103554568Y-86997552D01*
X103598229Y-86988868D01*
X103598229Y-86988867D01*
X103598231Y-86988867D01*
X103664552Y-86944552D01*
X103708867Y-86878231D01*
X103708867Y-86878229D01*
X103708868Y-86878229D01*
X103720499Y-86819752D01*
X103720500Y-86819750D01*
X103720500Y-85581899D01*
X103740185Y-85514860D01*
X103756819Y-85494218D01*
X106815218Y-82435819D01*
X106876541Y-82402334D01*
X106902899Y-82399500D01*
X108776000Y-82399500D01*
X108843039Y-82419185D01*
X108888794Y-82471989D01*
X108900000Y-82523500D01*
X108900000Y-82937500D01*
X110776000Y-82937500D01*
X110784685Y-82940050D01*
X110793647Y-82938762D01*
X110817687Y-82949740D01*
X110843039Y-82957185D01*
X110848966Y-82964025D01*
X110857203Y-82967787D01*
X110871492Y-82990021D01*
X110888794Y-83009989D01*
X110891081Y-83020503D01*
X110894977Y-83026565D01*
X110900000Y-83061500D01*
X110900000Y-83213500D01*
X110880315Y-83280539D01*
X110827511Y-83326294D01*
X110776000Y-83337500D01*
X108900001Y-83337500D01*
X108900001Y-83814324D01*
X108915442Y-83931628D01*
X108915444Y-83931633D01*
X108975899Y-84077587D01*
X108975901Y-84077589D01*
X109003253Y-84113235D01*
X109028447Y-84178404D01*
X109014409Y-84246849D01*
X108992558Y-84276402D01*
X108248835Y-85020126D01*
X108187512Y-85053611D01*
X108117821Y-85048627D01*
X108113704Y-85047007D01*
X108091836Y-85037949D01*
X108091828Y-85037947D01*
X107898543Y-84999500D01*
X107898541Y-84999500D01*
X107701459Y-84999500D01*
X107701457Y-84999500D01*
X107508170Y-85037947D01*
X107508160Y-85037950D01*
X107326092Y-85113364D01*
X107326079Y-85113371D01*
X107162218Y-85222860D01*
X107162214Y-85222863D01*
X107022863Y-85362214D01*
X107022860Y-85362218D01*
X106913371Y-85526079D01*
X106913364Y-85526092D01*
X106837950Y-85708160D01*
X106837947Y-85708170D01*
X106799500Y-85901456D01*
X106799500Y-85901459D01*
X106799500Y-86098541D01*
X106799500Y-86098543D01*
X106799499Y-86098543D01*
X106837947Y-86291829D01*
X106837950Y-86291839D01*
X106913364Y-86473907D01*
X106913371Y-86473920D01*
X107002700Y-86607609D01*
X107023578Y-86674286D01*
X107005094Y-86741667D01*
X106953115Y-86788357D01*
X106899598Y-86800500D01*
X106642899Y-86800500D01*
X106575860Y-86780815D01*
X106555218Y-86764181D01*
X106239873Y-86448836D01*
X106206388Y-86387513D01*
X106211372Y-86317821D01*
X106212993Y-86313702D01*
X106216594Y-86305009D01*
X106222051Y-86291835D01*
X106239941Y-86201899D01*
X106260500Y-86098543D01*
X106260500Y-85901456D01*
X106222052Y-85708170D01*
X106222051Y-85708169D01*
X106222051Y-85708165D01*
X106205086Y-85667207D01*
X106146635Y-85526092D01*
X106146628Y-85526079D01*
X106037139Y-85362218D01*
X106037136Y-85362214D01*
X105897785Y-85222863D01*
X105897781Y-85222860D01*
X105733920Y-85113371D01*
X105733907Y-85113364D01*
X105551839Y-85037950D01*
X105551829Y-85037947D01*
X105358543Y-84999500D01*
X105358541Y-84999500D01*
X105161459Y-84999500D01*
X105161457Y-84999500D01*
X104968170Y-85037947D01*
X104968160Y-85037950D01*
X104786092Y-85113364D01*
X104786079Y-85113371D01*
X104622218Y-85222860D01*
X104622214Y-85222863D01*
X104482863Y-85362214D01*
X104482860Y-85362218D01*
X104373371Y-85526079D01*
X104373364Y-85526092D01*
X104297950Y-85708160D01*
X104297947Y-85708170D01*
X104259500Y-85901456D01*
X104259500Y-85901459D01*
X104259500Y-86098541D01*
X104259500Y-86098543D01*
X104259499Y-86098543D01*
X104297947Y-86291829D01*
X104297950Y-86291839D01*
X104373364Y-86473907D01*
X104373371Y-86473920D01*
X104482860Y-86637781D01*
X104482863Y-86637785D01*
X104622214Y-86777136D01*
X104622218Y-86777139D01*
X104786079Y-86886628D01*
X104786092Y-86886635D01*
X104946297Y-86952993D01*
X104968165Y-86962051D01*
X104968169Y-86962051D01*
X104968170Y-86962052D01*
X105161456Y-87000500D01*
X105161459Y-87000500D01*
X105358543Y-87000500D01*
X105488582Y-86974632D01*
X105551835Y-86962051D01*
X105573702Y-86952992D01*
X105643171Y-86945524D01*
X105705650Y-86976799D01*
X105708836Y-86979873D01*
X106135525Y-87406562D01*
X106205438Y-87476475D01*
X106279960Y-87519500D01*
X106291062Y-87525910D01*
X106338811Y-87538705D01*
X106338812Y-87538705D01*
X106348903Y-87541408D01*
X106386564Y-87551500D01*
X106386565Y-87551500D01*
X106386566Y-87551500D01*
X108373435Y-87551500D01*
X108373436Y-87551500D01*
X108421186Y-87538705D01*
X108468938Y-87525910D01*
X108554562Y-87476475D01*
X108624475Y-87406562D01*
X109390378Y-86640658D01*
X109451699Y-86607175D01*
X109521390Y-86612159D01*
X109565738Y-86640660D01*
X109702214Y-86777136D01*
X109702218Y-86777139D01*
X109866079Y-86886628D01*
X109866092Y-86886635D01*
X110026297Y-86952993D01*
X110048165Y-86962051D01*
X110048169Y-86962051D01*
X110048170Y-86962052D01*
X110241456Y-87000500D01*
X110241459Y-87000500D01*
X110438543Y-87000500D01*
X110568582Y-86974632D01*
X110631835Y-86962051D01*
X110653702Y-86952992D01*
X110723171Y-86945524D01*
X110785650Y-86976799D01*
X110788836Y-86979873D01*
X111215525Y-87406562D01*
X111285438Y-87476475D01*
X111359960Y-87519500D01*
X111371062Y-87525910D01*
X111418811Y-87538705D01*
X111418812Y-87538705D01*
X111428903Y-87541408D01*
X111466564Y-87551500D01*
X111466565Y-87551500D01*
X111466566Y-87551500D01*
X113416551Y-87551500D01*
X113416552Y-87551500D01*
X113464302Y-87538705D01*
X113512054Y-87525910D01*
X113597678Y-87476475D01*
X113667591Y-87406562D01*
X114356474Y-86717679D01*
X114356475Y-86717678D01*
X114405910Y-86632054D01*
X114405912Y-86632044D01*
X114406340Y-86631014D01*
X114406941Y-86630267D01*
X114409974Y-86625015D01*
X114410792Y-86625487D01*
X114450176Y-86576607D01*
X114516469Y-86554536D01*
X114584170Y-86571810D01*
X114624007Y-86609566D01*
X114642860Y-86637781D01*
X114642863Y-86637785D01*
X114782214Y-86777136D01*
X114782218Y-86777139D01*
X114946079Y-86886628D01*
X114946092Y-86886635D01*
X115106297Y-86952993D01*
X115128165Y-86962051D01*
X115128169Y-86962051D01*
X115128170Y-86962052D01*
X115321456Y-87000500D01*
X115321459Y-87000500D01*
X115518543Y-87000500D01*
X115648582Y-86974632D01*
X115711835Y-86962051D01*
X115872147Y-86895648D01*
X115893907Y-86886635D01*
X115893907Y-86886634D01*
X115893914Y-86886632D01*
X116057782Y-86777139D01*
X116197139Y-86637782D01*
X116306632Y-86473914D01*
X116382051Y-86291835D01*
X116399941Y-86201899D01*
X116420500Y-86098543D01*
X116420500Y-85901456D01*
X116382052Y-85708170D01*
X116382051Y-85708169D01*
X116382051Y-85708165D01*
X116372992Y-85686296D01*
X116365523Y-85616830D01*
X116396796Y-85554350D01*
X116399813Y-85551222D01*
X116715220Y-85235816D01*
X116776541Y-85202334D01*
X116802899Y-85199500D01*
X117059598Y-85199500D01*
X117126637Y-85219185D01*
X117172392Y-85271989D01*
X117182336Y-85341147D01*
X117162700Y-85392391D01*
X117073371Y-85526079D01*
X117073364Y-85526092D01*
X116997950Y-85708160D01*
X116997947Y-85708170D01*
X116959500Y-85901456D01*
X116959500Y-85901459D01*
X116959500Y-86098541D01*
X116959500Y-86098543D01*
X116959499Y-86098543D01*
X116997947Y-86291829D01*
X116997950Y-86291839D01*
X117073364Y-86473907D01*
X117073371Y-86473920D01*
X117182860Y-86637781D01*
X117182863Y-86637785D01*
X117322214Y-86777136D01*
X117322218Y-86777139D01*
X117486079Y-86886628D01*
X117486092Y-86886635D01*
X117646297Y-86952993D01*
X117668165Y-86962051D01*
X117668169Y-86962051D01*
X117668170Y-86962052D01*
X117861456Y-87000500D01*
X117861459Y-87000500D01*
X118058543Y-87000500D01*
X118188582Y-86974632D01*
X118251835Y-86962051D01*
X118273702Y-86952992D01*
X118343171Y-86945524D01*
X118405650Y-86976799D01*
X118408834Y-86979871D01*
X119456437Y-88027475D01*
X119542063Y-88076911D01*
X119637564Y-88102500D01*
X119637565Y-88102500D01*
X119637566Y-88102500D01*
X123804783Y-88102500D01*
X123804784Y-88102500D01*
X123852534Y-88089705D01*
X123900286Y-88076910D01*
X123985910Y-88027475D01*
X124055823Y-87957562D01*
X125067474Y-86945911D01*
X125067475Y-86945910D01*
X125116910Y-86860286D01*
X125119067Y-86852235D01*
X125131068Y-86807452D01*
X125138094Y-86781228D01*
X125142500Y-86764784D01*
X125142500Y-86665912D01*
X125142500Y-85235217D01*
X125139745Y-85224937D01*
X125124533Y-85168165D01*
X125116910Y-85139714D01*
X125067475Y-85054090D01*
X124997562Y-84984177D01*
X123985911Y-83972526D01*
X123985910Y-83972525D01*
X123900286Y-83923090D01*
X123848037Y-83909090D01*
X123848035Y-83909089D01*
X123848033Y-83909088D01*
X123804784Y-83897500D01*
X123804783Y-83897500D01*
X123479900Y-83897500D01*
X123412861Y-83877815D01*
X123392219Y-83861181D01*
X118086168Y-78555131D01*
X118077563Y-78546526D01*
X118077562Y-78546525D01*
X118046585Y-78528640D01*
X118046580Y-78528637D01*
X117991943Y-78497092D01*
X117991936Y-78497089D01*
X117930261Y-78480562D01*
X117930261Y-78480563D01*
X117896438Y-78471500D01*
X117896436Y-78471500D01*
X117896435Y-78471500D01*
X115852833Y-78471500D01*
X115785794Y-78451815D01*
X115768135Y-78431435D01*
X122348500Y-78431435D01*
X122348500Y-80773435D01*
X122374090Y-80868938D01*
X122408323Y-80928231D01*
X122423526Y-80954563D01*
X122423528Y-80954565D01*
X122863181Y-81394218D01*
X122896666Y-81455541D01*
X122899500Y-81481899D01*
X122899500Y-81806517D01*
X122907100Y-81854500D01*
X122914354Y-81900304D01*
X122971950Y-82013342D01*
X123061658Y-82103050D01*
X123061660Y-82103051D01*
X123061663Y-82103054D01*
X123069557Y-82108790D01*
X123067903Y-82111066D01*
X123107584Y-82148535D01*
X123124500Y-82211057D01*
X123124500Y-82549435D01*
X123150090Y-82644938D01*
X123150091Y-82644939D01*
X123150091Y-82644940D01*
X123199526Y-82730563D01*
X125811181Y-85342218D01*
X125844666Y-85403541D01*
X125847500Y-85429899D01*
X125847500Y-85865495D01*
X125855667Y-85895976D01*
X125873089Y-85960994D01*
X125873089Y-85960995D01*
X125873090Y-85960996D01*
X125906912Y-86019577D01*
X125922526Y-86046621D01*
X126963467Y-87087562D01*
X127033380Y-87157475D01*
X127106213Y-87199525D01*
X127119004Y-87206910D01*
X127165988Y-87219500D01*
X127165989Y-87219500D01*
X127176241Y-87222247D01*
X127214506Y-87232500D01*
X127214507Y-87232500D01*
X127650101Y-87232500D01*
X127717140Y-87252185D01*
X127737782Y-87268819D01*
X128537181Y-88068218D01*
X128570666Y-88129541D01*
X128573500Y-88155899D01*
X128573500Y-93284100D01*
X128553815Y-93351139D01*
X128537181Y-93371781D01*
X127347104Y-94561857D01*
X127285781Y-94595342D01*
X127216089Y-94590358D01*
X127211972Y-94588738D01*
X127210980Y-94588327D01*
X127166420Y-94569870D01*
X127166416Y-94569869D01*
X127166412Y-94569867D01*
X126963469Y-94529500D01*
X126963465Y-94529500D01*
X126756535Y-94529500D01*
X126756530Y-94529500D01*
X126553587Y-94569868D01*
X126553579Y-94569870D01*
X126362403Y-94649058D01*
X126190342Y-94764024D01*
X126044024Y-94910342D01*
X125929058Y-95082403D01*
X125849870Y-95273579D01*
X125849868Y-95273587D01*
X125809500Y-95476530D01*
X125809500Y-95683469D01*
X125849868Y-95886412D01*
X125849870Y-95886420D01*
X125905277Y-96020185D01*
X125929059Y-96077598D01*
X125955944Y-96117834D01*
X126044024Y-96249657D01*
X126190342Y-96395975D01*
X126190345Y-96395977D01*
X126362402Y-96510941D01*
X126553580Y-96590130D01*
X126756530Y-96630499D01*
X126756534Y-96630500D01*
X126756535Y-96630500D01*
X126963466Y-96630500D01*
X126963467Y-96630499D01*
X127166420Y-96590130D01*
X127357598Y-96510941D01*
X127529655Y-96395977D01*
X127675977Y-96249655D01*
X127790941Y-96077598D01*
X127870130Y-95886420D01*
X127910500Y-95683465D01*
X127910500Y-95476535D01*
X127870130Y-95273580D01*
X127851260Y-95228025D01*
X127843792Y-95158560D01*
X127875066Y-95096080D01*
X127878112Y-95092923D01*
X128912820Y-94058215D01*
X128974142Y-94024732D01*
X129043834Y-94029716D01*
X129099767Y-94071588D01*
X129124184Y-94137052D01*
X129124500Y-94145898D01*
X129124500Y-95273099D01*
X129104815Y-95340138D01*
X129088181Y-95360780D01*
X127347103Y-97101857D01*
X127285780Y-97135342D01*
X127216088Y-97130358D01*
X127211970Y-97128737D01*
X127166424Y-97109871D01*
X127166412Y-97109868D01*
X126963469Y-97069500D01*
X126963465Y-97069500D01*
X126756535Y-97069500D01*
X126756530Y-97069500D01*
X126553587Y-97109868D01*
X126553579Y-97109870D01*
X126362403Y-97189058D01*
X126190342Y-97304024D01*
X126044024Y-97450342D01*
X125929058Y-97622403D01*
X125849870Y-97813579D01*
X125849868Y-97813587D01*
X125809500Y-98016530D01*
X125809500Y-98223469D01*
X125849868Y-98426412D01*
X125849870Y-98426420D01*
X125929058Y-98617596D01*
X126044024Y-98789657D01*
X126190342Y-98935975D01*
X126190345Y-98935977D01*
X126362402Y-99050941D01*
X126553580Y-99130130D01*
X126756530Y-99170499D01*
X126756534Y-99170500D01*
X126756535Y-99170500D01*
X126963466Y-99170500D01*
X126963467Y-99170499D01*
X127166420Y-99130130D01*
X127357598Y-99050941D01*
X127529655Y-98935977D01*
X127675977Y-98789655D01*
X127790941Y-98617598D01*
X127870130Y-98426420D01*
X127910500Y-98223465D01*
X127910500Y-98016535D01*
X127870130Y-97813580D01*
X127851261Y-97768028D01*
X127843792Y-97698561D01*
X127874962Y-97636289D01*
X156017261Y-97636289D01*
X156017262Y-97636290D01*
X156023471Y-97640801D01*
X156177742Y-97719408D01*
X156342415Y-97772914D01*
X156513429Y-97800000D01*
X156686571Y-97800000D01*
X156857584Y-97772914D01*
X157022257Y-97719408D01*
X157176525Y-97640803D01*
X157182736Y-97636289D01*
X157182737Y-97636289D01*
X156600001Y-97053553D01*
X156600000Y-97053553D01*
X156017261Y-97636289D01*
X127874962Y-97636289D01*
X127875066Y-97636082D01*
X127878112Y-97632924D01*
X129800475Y-95710563D01*
X129849911Y-95624937D01*
X129875500Y-95529436D01*
X129875500Y-95430564D01*
X129875500Y-93395730D01*
X130999500Y-93395730D01*
X130999500Y-95604269D01*
X131002353Y-95634699D01*
X131002353Y-95634701D01*
X131047206Y-95762880D01*
X131047207Y-95762882D01*
X131127850Y-95872150D01*
X131237118Y-95952793D01*
X131279845Y-95967744D01*
X131365299Y-95997646D01*
X131395730Y-96000500D01*
X131395734Y-96000500D01*
X133604270Y-96000500D01*
X133634699Y-95997646D01*
X133634701Y-95997646D01*
X133698790Y-95975219D01*
X133762882Y-95952793D01*
X133872150Y-95872150D01*
X133952793Y-95762882D01*
X133980582Y-95683465D01*
X133997646Y-95634701D01*
X133997646Y-95634699D01*
X134000500Y-95604269D01*
X134000500Y-94382014D01*
X135700000Y-94382014D01*
X135700000Y-94617985D01*
X135730799Y-94851914D01*
X135791870Y-95079837D01*
X135882160Y-95297819D01*
X135882165Y-95297828D01*
X136000144Y-95502171D01*
X136000145Y-95502172D01*
X136062721Y-95583723D01*
X136898958Y-94747487D01*
X136923978Y-94807890D01*
X136995112Y-94914351D01*
X137085649Y-95004888D01*
X137192110Y-95076022D01*
X137252511Y-95101041D01*
X136416275Y-95937277D01*
X136497827Y-95999854D01*
X136497828Y-95999855D01*
X136702171Y-96117834D01*
X136702180Y-96117839D01*
X136920163Y-96208129D01*
X136920161Y-96208129D01*
X137148085Y-96269200D01*
X137382014Y-96299999D01*
X137382029Y-96300000D01*
X137617971Y-96300000D01*
X137617985Y-96299999D01*
X137851914Y-96269200D01*
X138079837Y-96208129D01*
X138297819Y-96117839D01*
X138297828Y-96117834D01*
X138502181Y-95999850D01*
X138583723Y-95937279D01*
X138583723Y-95937276D01*
X137747487Y-95101041D01*
X137807890Y-95076022D01*
X137914351Y-95004888D01*
X138004888Y-94914351D01*
X138076022Y-94807890D01*
X138101041Y-94747488D01*
X138937276Y-95583723D01*
X138937279Y-95583723D01*
X138999850Y-95502181D01*
X139117834Y-95297828D01*
X139117839Y-95297819D01*
X139208129Y-95079837D01*
X139269200Y-94851914D01*
X139299999Y-94617985D01*
X139300000Y-94617971D01*
X139300000Y-94382028D01*
X139299999Y-94382014D01*
X139269200Y-94148085D01*
X139208129Y-93920162D01*
X139117839Y-93702180D01*
X139117834Y-93702171D01*
X138999855Y-93497828D01*
X138999854Y-93497827D01*
X138937277Y-93416275D01*
X138101041Y-94252511D01*
X138076022Y-94192110D01*
X138004888Y-94085649D01*
X137914351Y-93995112D01*
X137807890Y-93923978D01*
X137747488Y-93898958D01*
X138583723Y-93062721D01*
X138502172Y-93000145D01*
X138502171Y-93000144D01*
X138297828Y-92882165D01*
X138297819Y-92882160D01*
X138079836Y-92791870D01*
X138079838Y-92791870D01*
X137851914Y-92730799D01*
X137617985Y-92700000D01*
X137382014Y-92700000D01*
X137148085Y-92730799D01*
X136920162Y-92791870D01*
X136702180Y-92882160D01*
X136702171Y-92882165D01*
X136497828Y-93000144D01*
X136497818Y-93000150D01*
X136416275Y-93062720D01*
X136416275Y-93062721D01*
X137252512Y-93898958D01*
X137192110Y-93923978D01*
X137085649Y-93995112D01*
X136995112Y-94085649D01*
X136923978Y-94192110D01*
X136898958Y-94252511D01*
X136062721Y-93416275D01*
X136062720Y-93416275D01*
X136000150Y-93497818D01*
X136000144Y-93497828D01*
X135882165Y-93702171D01*
X135882160Y-93702180D01*
X135791870Y-93920162D01*
X135730799Y-94148085D01*
X135700000Y-94382014D01*
X134000500Y-94382014D01*
X134000500Y-93395730D01*
X133997646Y-93365300D01*
X133997646Y-93365298D01*
X133952793Y-93237119D01*
X133952792Y-93237117D01*
X133872150Y-93127850D01*
X133762882Y-93047207D01*
X133762880Y-93047206D01*
X133634700Y-93002353D01*
X133604270Y-92999500D01*
X133604266Y-92999500D01*
X131395734Y-92999500D01*
X131395730Y-92999500D01*
X131365300Y-93002353D01*
X131365298Y-93002353D01*
X131237119Y-93047206D01*
X131237117Y-93047207D01*
X131127850Y-93127850D01*
X131047207Y-93237117D01*
X131047206Y-93237119D01*
X131002353Y-93365298D01*
X131002353Y-93365300D01*
X130999500Y-93395730D01*
X129875500Y-93395730D01*
X129875500Y-87450565D01*
X129874137Y-87445480D01*
X129861352Y-87397765D01*
X129849910Y-87355062D01*
X129800475Y-87269438D01*
X129738218Y-87207181D01*
X129704733Y-87145858D01*
X129709717Y-87076166D01*
X129751589Y-87020233D01*
X129817053Y-86995816D01*
X129825899Y-86995500D01*
X130369750Y-86995500D01*
X130436789Y-87015185D01*
X130482544Y-87067989D01*
X130484297Y-87072016D01*
X130490737Y-87087562D01*
X130493367Y-87093912D01*
X130493371Y-87093919D01*
X130602860Y-87257782D01*
X130742214Y-87397136D01*
X130742218Y-87397139D01*
X130906079Y-87506628D01*
X130906092Y-87506635D01*
X131065814Y-87572793D01*
X131088165Y-87582051D01*
X131088169Y-87582051D01*
X131088170Y-87582052D01*
X131281456Y-87620500D01*
X131281459Y-87620500D01*
X131478543Y-87620500D01*
X131608582Y-87594632D01*
X131671835Y-87582051D01*
X131853914Y-87506632D01*
X132017782Y-87397139D01*
X132157139Y-87257782D01*
X132266632Y-87093914D01*
X132342051Y-86911835D01*
X132360368Y-86819750D01*
X132380500Y-86718543D01*
X132380500Y-86521456D01*
X132342052Y-86328170D01*
X132342051Y-86328169D01*
X132342051Y-86328165D01*
X132339672Y-86322421D01*
X132266635Y-86146092D01*
X132266628Y-86146079D01*
X132157139Y-85982218D01*
X132157136Y-85982214D01*
X132017785Y-85842863D01*
X132017781Y-85842860D01*
X131853920Y-85733371D01*
X131853907Y-85733364D01*
X131671839Y-85657950D01*
X131671829Y-85657947D01*
X131478543Y-85619500D01*
X131478541Y-85619500D01*
X131281459Y-85619500D01*
X131281457Y-85619500D01*
X131088170Y-85657947D01*
X131088160Y-85657950D01*
X130906092Y-85733364D01*
X130906079Y-85733371D01*
X130742218Y-85842860D01*
X130742214Y-85842863D01*
X130602860Y-85982217D01*
X130493371Y-86146080D01*
X130493367Y-86146087D01*
X130491524Y-86150537D01*
X130484310Y-86167952D01*
X130440471Y-86222355D01*
X130374177Y-86244421D01*
X130369750Y-86244500D01*
X129746900Y-86244500D01*
X129679861Y-86224815D01*
X129659219Y-86208181D01*
X129018142Y-85567104D01*
X128984657Y-85505781D01*
X128989641Y-85436089D01*
X128991262Y-85431970D01*
X128993683Y-85426126D01*
X129010130Y-85386420D01*
X129050500Y-85183465D01*
X129050500Y-84976535D01*
X129010130Y-84773580D01*
X128930941Y-84582402D01*
X128930940Y-84582400D01*
X128930940Y-84582399D01*
X128824026Y-84422390D01*
X128803148Y-84355713D01*
X128821633Y-84288333D01*
X128873612Y-84241643D01*
X128927128Y-84229500D01*
X130287872Y-84229500D01*
X130354911Y-84249185D01*
X130400666Y-84301989D01*
X130409489Y-84329307D01*
X130417948Y-84371830D01*
X130417950Y-84371839D01*
X130493364Y-84553907D01*
X130493371Y-84553920D01*
X130602860Y-84717781D01*
X130602863Y-84717785D01*
X130742214Y-84857136D01*
X130742218Y-84857139D01*
X130906079Y-84966628D01*
X130906092Y-84966635D01*
X131085195Y-85040821D01*
X131088165Y-85042051D01*
X131088169Y-85042051D01*
X131088170Y-85042052D01*
X131281456Y-85080500D01*
X131281459Y-85080500D01*
X131478543Y-85080500D01*
X131608939Y-85054562D01*
X131671835Y-85042051D01*
X131853914Y-84966632D01*
X132017782Y-84857139D01*
X132157139Y-84717782D01*
X132266632Y-84553914D01*
X132279396Y-84523100D01*
X132297544Y-84479285D01*
X132342051Y-84371835D01*
X132363480Y-84264104D01*
X132380500Y-84178543D01*
X132380500Y-83981456D01*
X132342052Y-83788170D01*
X132342051Y-83788169D01*
X132342051Y-83788165D01*
X132339181Y-83781236D01*
X132266635Y-83606092D01*
X132266628Y-83606079D01*
X132157139Y-83442218D01*
X132157136Y-83442214D01*
X132017785Y-83302863D01*
X132017781Y-83302860D01*
X131853920Y-83193371D01*
X131853907Y-83193364D01*
X131671839Y-83117950D01*
X131671829Y-83117947D01*
X131478543Y-83079500D01*
X131478541Y-83079500D01*
X131281459Y-83079500D01*
X131281457Y-83079500D01*
X131088170Y-83117947D01*
X131088160Y-83117950D01*
X130906092Y-83193364D01*
X130906079Y-83193371D01*
X130742218Y-83302860D01*
X130742214Y-83302863D01*
X130602897Y-83442181D01*
X130541574Y-83475666D01*
X130515216Y-83478500D01*
X129230195Y-83478500D01*
X129163156Y-83458815D01*
X129117401Y-83406011D01*
X129107457Y-83336853D01*
X129129877Y-83281615D01*
X129154620Y-83247557D01*
X129251095Y-83058217D01*
X129316757Y-82856130D01*
X129316757Y-82856127D01*
X129350000Y-82646246D01*
X129350000Y-82433753D01*
X129316757Y-82223872D01*
X129316757Y-82223869D01*
X129261005Y-82052281D01*
X129259010Y-81982440D01*
X129295090Y-81922607D01*
X129357791Y-81891779D01*
X129411030Y-81894188D01*
X129425888Y-81898169D01*
X129434822Y-81900564D01*
X129446601Y-81903720D01*
X129490564Y-81915500D01*
X129490565Y-81915500D01*
X130369750Y-81915500D01*
X130436789Y-81935185D01*
X130482544Y-81987989D01*
X130484297Y-81992016D01*
X130489390Y-82004310D01*
X130493367Y-82013912D01*
X130493371Y-82013919D01*
X130602860Y-82177782D01*
X130742214Y-82317136D01*
X130742218Y-82317139D01*
X130906079Y-82426628D01*
X130906092Y-82426635D01*
X131085804Y-82501073D01*
X131088165Y-82502051D01*
X131088169Y-82502051D01*
X131088170Y-82502052D01*
X131281456Y-82540500D01*
X131281459Y-82540500D01*
X131478543Y-82540500D01*
X131639454Y-82508492D01*
X131671835Y-82502051D01*
X131812655Y-82443721D01*
X131853907Y-82426635D01*
X131853907Y-82426634D01*
X131853914Y-82426632D01*
X132017782Y-82317139D01*
X132157139Y-82177782D01*
X132266632Y-82013914D01*
X132342051Y-81831835D01*
X132363595Y-81723526D01*
X132380500Y-81638543D01*
X132380500Y-81441456D01*
X132342052Y-81248170D01*
X132342051Y-81248169D01*
X132342051Y-81248165D01*
X132341681Y-81247271D01*
X132266635Y-81066092D01*
X132266628Y-81066079D01*
X132157139Y-80902218D01*
X132157136Y-80902214D01*
X132017785Y-80762863D01*
X132017781Y-80762860D01*
X131853920Y-80653371D01*
X131853907Y-80653364D01*
X131671839Y-80577950D01*
X131671829Y-80577947D01*
X131478543Y-80539500D01*
X131478541Y-80539500D01*
X131281459Y-80539500D01*
X131281457Y-80539500D01*
X131088170Y-80577947D01*
X131088160Y-80577950D01*
X130906092Y-80653364D01*
X130906079Y-80653371D01*
X130742218Y-80762860D01*
X130742214Y-80762863D01*
X130602860Y-80902217D01*
X130493371Y-81066080D01*
X130493367Y-81066087D01*
X130489201Y-81076144D01*
X130484310Y-81087952D01*
X130440471Y-81142355D01*
X130374177Y-81164421D01*
X130369750Y-81164500D01*
X129746900Y-81164500D01*
X129679861Y-81144815D01*
X129659219Y-81128181D01*
X129086819Y-80555781D01*
X129053334Y-80494458D01*
X129050500Y-80468100D01*
X129050500Y-79130249D01*
X129050499Y-79130247D01*
X129038868Y-79071770D01*
X129038867Y-79071769D01*
X128994552Y-79005447D01*
X128928230Y-78961132D01*
X128928229Y-78961131D01*
X128869752Y-78949500D01*
X128869748Y-78949500D01*
X127130252Y-78949500D01*
X127097057Y-78956103D01*
X127070381Y-78961409D01*
X127000789Y-78955181D01*
X126958509Y-78927472D01*
X126118218Y-78087181D01*
X126084733Y-78025858D01*
X126089717Y-77956166D01*
X126131589Y-77900233D01*
X126197053Y-77875816D01*
X126205899Y-77875500D01*
X129673101Y-77875500D01*
X129740140Y-77895185D01*
X129760782Y-77911819D01*
X130400126Y-78551163D01*
X130433611Y-78612486D01*
X130428627Y-78682178D01*
X130427008Y-78686291D01*
X130417950Y-78708160D01*
X130417947Y-78708171D01*
X130379500Y-78901456D01*
X130379500Y-78901459D01*
X130379500Y-79098541D01*
X130379500Y-79098543D01*
X130379499Y-79098543D01*
X130417947Y-79291829D01*
X130417950Y-79291839D01*
X130493364Y-79473907D01*
X130493371Y-79473920D01*
X130602860Y-79637781D01*
X130602863Y-79637785D01*
X130742214Y-79777136D01*
X130742218Y-79777139D01*
X130906079Y-79886628D01*
X130906092Y-79886635D01*
X131088160Y-79962049D01*
X131088165Y-79962051D01*
X131088169Y-79962051D01*
X131088170Y-79962052D01*
X131281456Y-80000500D01*
X131281459Y-80000500D01*
X131478543Y-80000500D01*
X131608733Y-79974603D01*
X131671835Y-79962051D01*
X131820433Y-79900500D01*
X131853907Y-79886635D01*
X131853907Y-79886634D01*
X131853914Y-79886632D01*
X132017782Y-79777139D01*
X132157139Y-79637782D01*
X132266632Y-79473914D01*
X132274657Y-79454541D01*
X132325045Y-79332892D01*
X132342051Y-79291835D01*
X132369390Y-79154394D01*
X132380500Y-79098543D01*
X132380500Y-78901456D01*
X132342052Y-78708170D01*
X132342051Y-78708169D01*
X132342051Y-78708165D01*
X132332991Y-78686291D01*
X132266635Y-78526092D01*
X132266628Y-78526079D01*
X132157139Y-78362218D01*
X132157136Y-78362214D01*
X132017785Y-78222863D01*
X132017781Y-78222860D01*
X131853920Y-78113371D01*
X131853907Y-78113364D01*
X131671839Y-78037950D01*
X131671829Y-78037947D01*
X131478543Y-77999500D01*
X131478541Y-77999500D01*
X131281459Y-77999500D01*
X131281457Y-77999500D01*
X131088171Y-78037947D01*
X131088160Y-78037950D01*
X131066291Y-78047008D01*
X130996821Y-78054474D01*
X130934344Y-78023196D01*
X130931163Y-78020126D01*
X130110563Y-77199526D01*
X130110562Y-77199525D01*
X130041616Y-77159719D01*
X130024940Y-77150091D01*
X130024939Y-77150090D01*
X130024938Y-77150090D01*
X129977186Y-77137295D01*
X129977184Y-77137294D01*
X129977182Y-77137293D01*
X129929436Y-77124500D01*
X129929435Y-77124500D01*
X123754306Y-77124500D01*
X123655434Y-77124500D01*
X123559933Y-77150089D01*
X123559930Y-77150090D01*
X123474310Y-77199522D01*
X123474305Y-77199526D01*
X122493438Y-78180395D01*
X122423526Y-78250306D01*
X122374091Y-78335929D01*
X122374091Y-78335930D01*
X122374090Y-78335932D01*
X122348500Y-78431435D01*
X115768135Y-78431435D01*
X115740039Y-78399011D01*
X115730095Y-78329853D01*
X115759120Y-78266297D01*
X115765152Y-78259819D01*
X115781285Y-78243686D01*
X115802206Y-78222765D01*
X115847585Y-78119991D01*
X115850500Y-78094865D01*
X115850499Y-76798311D01*
X131750001Y-76798311D01*
X131760144Y-76897607D01*
X131813452Y-77058481D01*
X131813457Y-77058492D01*
X131902424Y-77202728D01*
X131902427Y-77202732D01*
X132022267Y-77322572D01*
X132022271Y-77322575D01*
X132166507Y-77411542D01*
X132166518Y-77411547D01*
X132327393Y-77464855D01*
X132426683Y-77474999D01*
X132450000Y-77474998D01*
X132450000Y-76750000D01*
X131750001Y-76750000D01*
X131750001Y-76798311D01*
X115850499Y-76798311D01*
X115850499Y-76730136D01*
X115847585Y-76705009D01*
X115833355Y-76672782D01*
X115831321Y-76666378D01*
X115831076Y-76655268D01*
X115825500Y-76628833D01*
X115825500Y-76400567D01*
X115825500Y-76400565D01*
X115799910Y-76305062D01*
X115750475Y-76219438D01*
X115680562Y-76149525D01*
X115488633Y-75957596D01*
X115455148Y-75896273D01*
X115460132Y-75826581D01*
X115502004Y-75770648D01*
X115567468Y-75746231D01*
X115623765Y-75755353D01*
X115683580Y-75780130D01*
X115807681Y-75804815D01*
X115886530Y-75820499D01*
X115886534Y-75820500D01*
X115886535Y-75820500D01*
X116093466Y-75820500D01*
X116093467Y-75820499D01*
X116296420Y-75780130D01*
X116487598Y-75700941D01*
X116659655Y-75585977D01*
X116805977Y-75439655D01*
X116920941Y-75267598D01*
X116989165Y-75102889D01*
X117033004Y-75048488D01*
X117099298Y-75026423D01*
X117166998Y-75043702D01*
X117214609Y-75094839D01*
X117221656Y-75112026D01*
X117278904Y-75288216D01*
X117375379Y-75477557D01*
X117500272Y-75649459D01*
X117500276Y-75649464D01*
X117650535Y-75799723D01*
X117650540Y-75799727D01*
X117822442Y-75924620D01*
X118011782Y-76021095D01*
X118213871Y-76086757D01*
X118280000Y-76097231D01*
X118280000Y-75203012D01*
X118337007Y-75235925D01*
X118464174Y-75270000D01*
X118595826Y-75270000D01*
X118722993Y-75235925D01*
X118780000Y-75203012D01*
X118780000Y-76097230D01*
X118846126Y-76086757D01*
X118846129Y-76086757D01*
X119048217Y-76021095D01*
X119237557Y-75924620D01*
X119409459Y-75799727D01*
X119409464Y-75799723D01*
X119559723Y-75649464D01*
X119559727Y-75649459D01*
X119684620Y-75477557D01*
X119781095Y-75288217D01*
X119838343Y-75112026D01*
X119877780Y-75054351D01*
X119942139Y-75027152D01*
X120010985Y-75039066D01*
X120062461Y-75086310D01*
X120070833Y-75102887D01*
X120098673Y-75170099D01*
X120125939Y-75235925D01*
X120139059Y-75267598D01*
X120153668Y-75289462D01*
X120254024Y-75439657D01*
X120400342Y-75585975D01*
X120400345Y-75585977D01*
X120572402Y-75700941D01*
X120763580Y-75780130D01*
X120887681Y-75804815D01*
X120966530Y-75820499D01*
X120966534Y-75820500D01*
X120966535Y-75820500D01*
X121173466Y-75820500D01*
X121173467Y-75820499D01*
X121376420Y-75780130D01*
X121567598Y-75700941D01*
X121739655Y-75585977D01*
X121885977Y-75439655D01*
X122000941Y-75267598D01*
X122080130Y-75076420D01*
X122120500Y-74873465D01*
X122120500Y-74666535D01*
X122080130Y-74463580D01*
X122000941Y-74272402D01*
X122000940Y-74272400D01*
X122000940Y-74272399D01*
X121894026Y-74112390D01*
X121873148Y-74045713D01*
X121891633Y-73978333D01*
X121943612Y-73931643D01*
X121997128Y-73919500D01*
X122682872Y-73919500D01*
X122749911Y-73939185D01*
X122795666Y-73991989D01*
X122805610Y-74061147D01*
X122785974Y-74112390D01*
X122679059Y-74272399D01*
X122679059Y-74272400D01*
X122599870Y-74463579D01*
X122599868Y-74463587D01*
X122559500Y-74666530D01*
X122559500Y-74873469D01*
X122599868Y-75076412D01*
X122599870Y-75076420D01*
X122665939Y-75235925D01*
X122679059Y-75267598D01*
X122693668Y-75289462D01*
X122794024Y-75439657D01*
X122940342Y-75585975D01*
X122940345Y-75585977D01*
X123112402Y-75700941D01*
X123303580Y-75780130D01*
X123427681Y-75804815D01*
X123506530Y-75820499D01*
X123506534Y-75820500D01*
X123506535Y-75820500D01*
X123713466Y-75820500D01*
X123713467Y-75820499D01*
X123916420Y-75780130D01*
X124107598Y-75700941D01*
X124279655Y-75585977D01*
X124425977Y-75439655D01*
X124540941Y-75267598D01*
X124620130Y-75076420D01*
X124660500Y-74873465D01*
X124660500Y-74666535D01*
X124620130Y-74463580D01*
X124540941Y-74272402D01*
X124540940Y-74272400D01*
X124540940Y-74272399D01*
X124434026Y-74112390D01*
X124413148Y-74045713D01*
X124431633Y-73978333D01*
X124483612Y-73931643D01*
X124537128Y-73919500D01*
X125222872Y-73919500D01*
X125289911Y-73939185D01*
X125335666Y-73991989D01*
X125345610Y-74061147D01*
X125325974Y-74112390D01*
X125219059Y-74272399D01*
X125219059Y-74272400D01*
X125139870Y-74463579D01*
X125139868Y-74463587D01*
X125099500Y-74666530D01*
X125099500Y-74873469D01*
X125139868Y-75076412D01*
X125139870Y-75076420D01*
X125205939Y-75235925D01*
X125219059Y-75267598D01*
X125233668Y-75289462D01*
X125334024Y-75439657D01*
X125480342Y-75585975D01*
X125480345Y-75585977D01*
X125652402Y-75700941D01*
X125843580Y-75780130D01*
X125967681Y-75804815D01*
X126046530Y-75820499D01*
X126046534Y-75820500D01*
X126046535Y-75820500D01*
X126253466Y-75820500D01*
X126253467Y-75820499D01*
X126456420Y-75780130D01*
X126647598Y-75700941D01*
X126819655Y-75585977D01*
X126965977Y-75439655D01*
X127080941Y-75267598D01*
X127160130Y-75076420D01*
X127200500Y-74873465D01*
X127200500Y-74666535D01*
X127160130Y-74463580D01*
X127080941Y-74272402D01*
X127080940Y-74272400D01*
X127080940Y-74272399D01*
X126974026Y-74112390D01*
X126970989Y-74102691D01*
X126964334Y-74095011D01*
X126960724Y-74069911D01*
X126953148Y-74045713D01*
X126955836Y-74035913D01*
X126954390Y-74025853D01*
X126964924Y-74002784D01*
X126971633Y-73978333D01*
X126979192Y-73971542D01*
X126983415Y-73962297D01*
X127004749Y-73948586D01*
X127023612Y-73931643D01*
X127035208Y-73929011D01*
X127042193Y-73924523D01*
X127077128Y-73919500D01*
X127257101Y-73919500D01*
X127324140Y-73939185D01*
X127344782Y-73955819D01*
X127671857Y-74282895D01*
X127705342Y-74344218D01*
X127700358Y-74413910D01*
X127698738Y-74418026D01*
X127679870Y-74463578D01*
X127679867Y-74463587D01*
X127639500Y-74666530D01*
X127639500Y-74873469D01*
X127679868Y-75076412D01*
X127679870Y-75076420D01*
X127745939Y-75235925D01*
X127759059Y-75267598D01*
X127773668Y-75289462D01*
X127874024Y-75439657D01*
X128020342Y-75585975D01*
X128020345Y-75585977D01*
X128192402Y-75700941D01*
X128383580Y-75780130D01*
X128507681Y-75804815D01*
X128586530Y-75820499D01*
X128586534Y-75820500D01*
X128586535Y-75820500D01*
X128793466Y-75820500D01*
X128793467Y-75820499D01*
X128996420Y-75780130D01*
X129187598Y-75700941D01*
X129359655Y-75585977D01*
X129505977Y-75439655D01*
X129620941Y-75267598D01*
X129700130Y-75076420D01*
X129740500Y-74873465D01*
X129740500Y-74666535D01*
X129700130Y-74463580D01*
X129620941Y-74272402D01*
X129505977Y-74100345D01*
X129505975Y-74100342D01*
X129359657Y-73954024D01*
X129191655Y-73841770D01*
X129187598Y-73839059D01*
X129187593Y-73839057D01*
X128996420Y-73759870D01*
X128996412Y-73759868D01*
X128793469Y-73719500D01*
X128793465Y-73719500D01*
X128586535Y-73719500D01*
X128586530Y-73719500D01*
X128383587Y-73759867D01*
X128383578Y-73759870D01*
X128338026Y-73778738D01*
X128268556Y-73786205D01*
X128206078Y-73754929D01*
X128202895Y-73751857D01*
X127708823Y-73257786D01*
X127694563Y-73243526D01*
X127694562Y-73243525D01*
X127608938Y-73194090D01*
X127561186Y-73181295D01*
X127549099Y-73178056D01*
X127549095Y-73178054D01*
X127513436Y-73168500D01*
X127513435Y-73168500D01*
X126996495Y-73168500D01*
X126929456Y-73148815D01*
X126883701Y-73096011D01*
X126873757Y-73026853D01*
X126902782Y-72963297D01*
X126908814Y-72956819D01*
X126965974Y-72899658D01*
X126965975Y-72899657D01*
X126965977Y-72899655D01*
X127080941Y-72727598D01*
X127160130Y-72536420D01*
X127200500Y-72333465D01*
X127200500Y-72126535D01*
X127200499Y-72126530D01*
X127639500Y-72126530D01*
X127639500Y-72333469D01*
X127679868Y-72536412D01*
X127679870Y-72536420D01*
X127745939Y-72695925D01*
X127759059Y-72727598D01*
X127772836Y-72748217D01*
X127874024Y-72899657D01*
X128020342Y-73045975D01*
X128020345Y-73045977D01*
X128192402Y-73160941D01*
X128383580Y-73240130D01*
X128548855Y-73273005D01*
X128586530Y-73280499D01*
X128586534Y-73280500D01*
X128586535Y-73280500D01*
X128793466Y-73280500D01*
X128793467Y-73280499D01*
X128996420Y-73240130D01*
X129187598Y-73160941D01*
X129359655Y-73045977D01*
X129505977Y-72899655D01*
X129620941Y-72727598D01*
X129689165Y-72562889D01*
X129733004Y-72508488D01*
X129799298Y-72486423D01*
X129866998Y-72503702D01*
X129914609Y-72554839D01*
X129921656Y-72572026D01*
X129978904Y-72748216D01*
X130075379Y-72937557D01*
X130200272Y-73109459D01*
X130200276Y-73109464D01*
X130350535Y-73259723D01*
X130350540Y-73259727D01*
X130522442Y-73384620D01*
X130711782Y-73481095D01*
X130887973Y-73538343D01*
X130945648Y-73577780D01*
X130972847Y-73642139D01*
X130960932Y-73710985D01*
X130913688Y-73762461D01*
X130897108Y-73770835D01*
X130732403Y-73839057D01*
X130560342Y-73954024D01*
X130414024Y-74100342D01*
X130299058Y-74272403D01*
X130219870Y-74463579D01*
X130219868Y-74463587D01*
X130179500Y-74666530D01*
X130179500Y-74873469D01*
X130219868Y-75076412D01*
X130219870Y-75076420D01*
X130285939Y-75235925D01*
X130299059Y-75267598D01*
X130313668Y-75289462D01*
X130414024Y-75439657D01*
X130560342Y-75585975D01*
X130560345Y-75585977D01*
X130732402Y-75700941D01*
X130923580Y-75780130D01*
X131047681Y-75804815D01*
X131126530Y-75820499D01*
X131126534Y-75820500D01*
X131126535Y-75820500D01*
X131333466Y-75820500D01*
X131333467Y-75820499D01*
X131536420Y-75780130D01*
X131687892Y-75717387D01*
X131757359Y-75709919D01*
X131819838Y-75741194D01*
X131855491Y-75801282D01*
X131852998Y-75871108D01*
X131840882Y-75897045D01*
X131813457Y-75941509D01*
X131813452Y-75941518D01*
X131760144Y-76102393D01*
X131750000Y-76201677D01*
X131750000Y-76250000D01*
X132450000Y-76250000D01*
X132450000Y-75524999D01*
X132426693Y-75525000D01*
X132426674Y-75525001D01*
X132327391Y-75535144D01*
X132226653Y-75568525D01*
X132156825Y-75570927D01*
X132096783Y-75535195D01*
X132065591Y-75472674D01*
X132073152Y-75403215D01*
X132084545Y-75381933D01*
X132160941Y-75267598D01*
X132240130Y-75076420D01*
X132280500Y-74873465D01*
X132280500Y-74666535D01*
X132280499Y-74666530D01*
X132719500Y-74666530D01*
X132719500Y-74873469D01*
X132759868Y-75076412D01*
X132759870Y-75076420D01*
X132825939Y-75235925D01*
X132839059Y-75267598D01*
X132853668Y-75289462D01*
X132930059Y-75403791D01*
X132950936Y-75470469D01*
X132950000Y-75473880D01*
X132950000Y-77474999D01*
X132973308Y-77474999D01*
X132973322Y-77474998D01*
X133072607Y-77464855D01*
X133233481Y-77411547D01*
X133233492Y-77411542D01*
X133377728Y-77322575D01*
X133377732Y-77322572D01*
X133497573Y-77202731D01*
X133559606Y-77102160D01*
X133611554Y-77055435D01*
X133680516Y-77044212D01*
X133744599Y-77072056D01*
X133752826Y-77079575D01*
X133771774Y-77098523D01*
X133771778Y-77098526D01*
X133771780Y-77098528D01*
X133891874Y-77159719D01*
X133891876Y-77159719D01*
X133891878Y-77159720D01*
X133991507Y-77175500D01*
X134500500Y-77175500D01*
X134509185Y-77178050D01*
X134518147Y-77176762D01*
X134542187Y-77187740D01*
X134567539Y-77195185D01*
X134573466Y-77202025D01*
X134581703Y-77205787D01*
X134595992Y-77228021D01*
X134613294Y-77247989D01*
X134615581Y-77258503D01*
X134619477Y-77264565D01*
X134624500Y-77299500D01*
X134624500Y-77475500D01*
X134604815Y-77542539D01*
X134552011Y-77588294D01*
X134500500Y-77599500D01*
X134435929Y-77599500D01*
X134310261Y-77624497D01*
X134310255Y-77624499D01*
X134191875Y-77673533D01*
X134191866Y-77673538D01*
X134085331Y-77744723D01*
X134085327Y-77744726D01*
X133994726Y-77835327D01*
X133994723Y-77835331D01*
X133923538Y-77941866D01*
X133923533Y-77941875D01*
X133874499Y-78060255D01*
X133874497Y-78060261D01*
X133849500Y-78185928D01*
X133849500Y-78185931D01*
X133849500Y-78314069D01*
X133849500Y-78314071D01*
X133849499Y-78314071D01*
X133874497Y-78439738D01*
X133874499Y-78439744D01*
X133923533Y-78558124D01*
X133923538Y-78558133D01*
X133994723Y-78664668D01*
X133994726Y-78664672D01*
X134085327Y-78755273D01*
X134085331Y-78755276D01*
X134191866Y-78826461D01*
X134191872Y-78826464D01*
X134191873Y-78826465D01*
X134310256Y-78875501D01*
X134310260Y-78875501D01*
X134310261Y-78875502D01*
X134435928Y-78900500D01*
X134435931Y-78900500D01*
X134564071Y-78900500D01*
X134578237Y-78897682D01*
X137700000Y-78897682D01*
X137700000Y-79102317D01*
X137732009Y-79304417D01*
X137795244Y-79499031D01*
X137888141Y-79681350D01*
X137888147Y-79681359D01*
X137920523Y-79725921D01*
X137920524Y-79725922D01*
X138600000Y-79046446D01*
X138600000Y-79052661D01*
X138627259Y-79154394D01*
X138679920Y-79245606D01*
X138754394Y-79320080D01*
X138845606Y-79372741D01*
X138947339Y-79400000D01*
X138953553Y-79400000D01*
X138274076Y-80079474D01*
X138318650Y-80111859D01*
X138500968Y-80204755D01*
X138695582Y-80267990D01*
X138884268Y-80297875D01*
X138947403Y-80327804D01*
X138984334Y-80387116D01*
X138983336Y-80456978D01*
X138944726Y-80515211D01*
X138889062Y-80541965D01*
X138708170Y-80577947D01*
X138708160Y-80577950D01*
X138526092Y-80653364D01*
X138526079Y-80653371D01*
X138362218Y-80762860D01*
X138362214Y-80762863D01*
X138222863Y-80902214D01*
X138222860Y-80902218D01*
X138113371Y-81066079D01*
X138113364Y-81066092D01*
X138037950Y-81248160D01*
X138037947Y-81248170D01*
X137999500Y-81441456D01*
X137999500Y-81441459D01*
X137999500Y-81638541D01*
X137999500Y-81638543D01*
X137999499Y-81638543D01*
X138037947Y-81831829D01*
X138037950Y-81831839D01*
X138113364Y-82013907D01*
X138113371Y-82013920D01*
X138222860Y-82177781D01*
X138222863Y-82177785D01*
X138362214Y-82317136D01*
X138362218Y-82317139D01*
X138526079Y-82426628D01*
X138526092Y-82426635D01*
X138705804Y-82501073D01*
X138708165Y-82502051D01*
X138708169Y-82502051D01*
X138708170Y-82502052D01*
X138901456Y-82540500D01*
X138901459Y-82540500D01*
X139098543Y-82540500D01*
X139259454Y-82508492D01*
X139291835Y-82502051D01*
X139432655Y-82443721D01*
X139473907Y-82426635D01*
X139473907Y-82426634D01*
X139473914Y-82426632D01*
X139637782Y-82317139D01*
X139649447Y-82305474D01*
X139662819Y-82292103D01*
X139724142Y-82258618D01*
X139793834Y-82263602D01*
X139849767Y-82305474D01*
X139874184Y-82370938D01*
X139874500Y-82379784D01*
X139874500Y-83240216D01*
X139854815Y-83307255D01*
X139802011Y-83353010D01*
X139732853Y-83362954D01*
X139669297Y-83333929D01*
X139662819Y-83327897D01*
X139637785Y-83302863D01*
X139637781Y-83302860D01*
X139473920Y-83193371D01*
X139473907Y-83193364D01*
X139291839Y-83117950D01*
X139291829Y-83117947D01*
X139098543Y-83079500D01*
X139098541Y-83079500D01*
X138901459Y-83079500D01*
X138901457Y-83079500D01*
X138708170Y-83117947D01*
X138708160Y-83117950D01*
X138526092Y-83193364D01*
X138526079Y-83193371D01*
X138362218Y-83302860D01*
X138362214Y-83302863D01*
X138222863Y-83442214D01*
X138222860Y-83442218D01*
X138113371Y-83606079D01*
X138113364Y-83606092D01*
X138037950Y-83788160D01*
X138037947Y-83788170D01*
X137999500Y-83981456D01*
X137999500Y-83981459D01*
X137999500Y-84178541D01*
X137999500Y-84178543D01*
X137999499Y-84178543D01*
X138037947Y-84371829D01*
X138037950Y-84371839D01*
X138113364Y-84553907D01*
X138113371Y-84553920D01*
X138222860Y-84717781D01*
X138222863Y-84717785D01*
X138362214Y-84857136D01*
X138362218Y-84857139D01*
X138526079Y-84966628D01*
X138526092Y-84966635D01*
X138705195Y-85040821D01*
X138708165Y-85042051D01*
X138708169Y-85042051D01*
X138708170Y-85042052D01*
X138901456Y-85080500D01*
X138901459Y-85080500D01*
X139098543Y-85080500D01*
X139228939Y-85054562D01*
X139291835Y-85042051D01*
X139473914Y-84966632D01*
X139637782Y-84857139D01*
X139649447Y-84845474D01*
X139662819Y-84832103D01*
X139682255Y-84821490D01*
X139698989Y-84806990D01*
X139712320Y-84805073D01*
X139724142Y-84798618D01*
X139746228Y-84800197D01*
X139768147Y-84797046D01*
X139780398Y-84802641D01*
X139793834Y-84803602D01*
X139811560Y-84816872D01*
X139831703Y-84826071D01*
X139838985Y-84837402D01*
X139849767Y-84845474D01*
X139857504Y-84866219D01*
X139869477Y-84884849D01*
X139872628Y-84906767D01*
X139874184Y-84910938D01*
X139874500Y-84919784D01*
X139874500Y-85163101D01*
X139854815Y-85230140D01*
X139838181Y-85250782D01*
X139505782Y-85583181D01*
X139444459Y-85616666D01*
X139418101Y-85619500D01*
X138395730Y-85619500D01*
X138365300Y-85622353D01*
X138365298Y-85622353D01*
X138237119Y-85667206D01*
X138237117Y-85667207D01*
X138127850Y-85747850D01*
X138047207Y-85857117D01*
X138047206Y-85857119D01*
X138002353Y-85985298D01*
X138002353Y-85985300D01*
X137999500Y-86015730D01*
X137999500Y-87224269D01*
X138002353Y-87254699D01*
X138002353Y-87254701D01*
X138037472Y-87355062D01*
X138047207Y-87382882D01*
X138127850Y-87492150D01*
X138237118Y-87572793D01*
X138263576Y-87582051D01*
X138365299Y-87617646D01*
X138395730Y-87620500D01*
X138395734Y-87620500D01*
X139604270Y-87620500D01*
X139634699Y-87617646D01*
X139634701Y-87617646D01*
X139698790Y-87595219D01*
X139762882Y-87572793D01*
X139872150Y-87492150D01*
X139952793Y-87382882D01*
X139983547Y-87294993D01*
X139997646Y-87254701D01*
X139997646Y-87254699D01*
X140000500Y-87224269D01*
X140000500Y-86201899D01*
X140020185Y-86134860D01*
X140036819Y-86114218D01*
X140410819Y-85740218D01*
X140472142Y-85706733D01*
X140541834Y-85711717D01*
X140597767Y-85753589D01*
X140622184Y-85819053D01*
X140622500Y-85827899D01*
X140622500Y-91754006D01*
X140622500Y-91891994D01*
X140622500Y-91891996D01*
X140622499Y-91891996D01*
X140649418Y-92027322D01*
X140649421Y-92027332D01*
X140702222Y-92154807D01*
X140778887Y-92269545D01*
X140778888Y-92269546D01*
X142463181Y-93953838D01*
X142496666Y-94015161D01*
X142499500Y-94041519D01*
X142499500Y-95604269D01*
X142502353Y-95634699D01*
X142502353Y-95634701D01*
X142547206Y-95762880D01*
X142547207Y-95762882D01*
X142627850Y-95872150D01*
X142737118Y-95952793D01*
X142779845Y-95967744D01*
X142865299Y-95997646D01*
X142895730Y-96000500D01*
X142895734Y-96000500D01*
X144458481Y-96000500D01*
X144525520Y-96020185D01*
X144546162Y-96036819D01*
X145753453Y-97244111D01*
X145753454Y-97244112D01*
X145868192Y-97320777D01*
X145995667Y-97373578D01*
X145995672Y-97373580D01*
X145995676Y-97373580D01*
X145995677Y-97373581D01*
X146131003Y-97400500D01*
X146131006Y-97400500D01*
X146131007Y-97400500D01*
X154174684Y-97400500D01*
X154222136Y-97409939D01*
X154319679Y-97450342D01*
X154366503Y-97469737D01*
X154521153Y-97500499D01*
X154521156Y-97500500D01*
X154521158Y-97500500D01*
X154678844Y-97500500D01*
X154678845Y-97500499D01*
X154730856Y-97490153D01*
X154833494Y-97469738D01*
X154833497Y-97469737D01*
X154979172Y-97409397D01*
X154979172Y-97409396D01*
X154979179Y-97409394D01*
X155110289Y-97321789D01*
X155221789Y-97210289D01*
X155309394Y-97079179D01*
X155309395Y-97079176D01*
X155309397Y-97079173D01*
X155324904Y-97041735D01*
X155368744Y-96987331D01*
X155435038Y-96965266D01*
X155502738Y-96982545D01*
X155550348Y-97033682D01*
X155557396Y-97050869D01*
X155580591Y-97122257D01*
X155659196Y-97276525D01*
X155663709Y-97282736D01*
X155663709Y-97282737D01*
X156246446Y-96700001D01*
X156246446Y-96699999D01*
X156206951Y-96660504D01*
X156300000Y-96660504D01*
X156300000Y-96739496D01*
X156320444Y-96815796D01*
X156359940Y-96884205D01*
X156415795Y-96940060D01*
X156484204Y-96979556D01*
X156560504Y-97000000D01*
X156639496Y-97000000D01*
X156715796Y-96979556D01*
X156784205Y-96940060D01*
X156840060Y-96884205D01*
X156879556Y-96815796D01*
X156900000Y-96739496D01*
X156900000Y-96699999D01*
X156953553Y-96699999D01*
X156953553Y-96700000D01*
X157536289Y-97282736D01*
X157540803Y-97276525D01*
X157619408Y-97122257D01*
X157672914Y-96957584D01*
X157700000Y-96786571D01*
X157700000Y-96613428D01*
X157672913Y-96442414D01*
X157672912Y-96442408D01*
X157667958Y-96427161D01*
X157667957Y-96427159D01*
X157657089Y-96393713D01*
X160149500Y-96393713D01*
X160149500Y-96606287D01*
X160182754Y-96816243D01*
X160241329Y-96996519D01*
X160248444Y-97018414D01*
X160344951Y-97207820D01*
X160469890Y-97379786D01*
X160620213Y-97530109D01*
X160792179Y-97655048D01*
X160792181Y-97655049D01*
X160792184Y-97655051D01*
X160981588Y-97751557D01*
X161183757Y-97817246D01*
X161393713Y-97850500D01*
X161393714Y-97850500D01*
X161606286Y-97850500D01*
X161606287Y-97850500D01*
X161816243Y-97817246D01*
X162018412Y-97751557D01*
X162207816Y-97655051D01*
X162229789Y-97639086D01*
X162379786Y-97530109D01*
X162379788Y-97530106D01*
X162379792Y-97530104D01*
X162530104Y-97379792D01*
X162530106Y-97379788D01*
X162530109Y-97379786D01*
X162655048Y-97207820D01*
X162655047Y-97207820D01*
X162655051Y-97207816D01*
X162751557Y-97018412D01*
X162817246Y-96816243D01*
X162850500Y-96606287D01*
X162850500Y-96393713D01*
X162817246Y-96183757D01*
X162751557Y-95981588D01*
X162655051Y-95792184D01*
X162655049Y-95792181D01*
X162655048Y-95792179D01*
X162530109Y-95620213D01*
X162379786Y-95469890D01*
X162207820Y-95344951D01*
X162018414Y-95248444D01*
X162018413Y-95248443D01*
X162018412Y-95248443D01*
X161816243Y-95182754D01*
X161816241Y-95182753D01*
X161816240Y-95182753D01*
X161618794Y-95151481D01*
X161606287Y-95149500D01*
X161393713Y-95149500D01*
X161381206Y-95151481D01*
X161183760Y-95182753D01*
X160981585Y-95248444D01*
X160792179Y-95344951D01*
X160620213Y-95469890D01*
X160469890Y-95620213D01*
X160344951Y-95792179D01*
X160248444Y-95981585D01*
X160182753Y-96183760D01*
X160172316Y-96249657D01*
X160149500Y-96393713D01*
X157657089Y-96393713D01*
X157619408Y-96277744D01*
X157540801Y-96123471D01*
X157536290Y-96117262D01*
X157536289Y-96117261D01*
X156953553Y-96699999D01*
X156900000Y-96699999D01*
X156900000Y-96660504D01*
X156879556Y-96584204D01*
X156840060Y-96515795D01*
X156784205Y-96459940D01*
X156715796Y-96420444D01*
X156639496Y-96400000D01*
X156560504Y-96400000D01*
X156484204Y-96420444D01*
X156415795Y-96459940D01*
X156359940Y-96515795D01*
X156320444Y-96584204D01*
X156300000Y-96660504D01*
X156206951Y-96660504D01*
X155663709Y-96117261D01*
X155663708Y-96117261D01*
X155659203Y-96123463D01*
X155659193Y-96123480D01*
X155580592Y-96277740D01*
X155557396Y-96349131D01*
X155517958Y-96406806D01*
X155453599Y-96434004D01*
X155384753Y-96422089D01*
X155333277Y-96374845D01*
X155324904Y-96358265D01*
X155309395Y-96320823D01*
X155309390Y-96320814D01*
X155221789Y-96189711D01*
X155221786Y-96189707D01*
X155110292Y-96078213D01*
X155110288Y-96078210D01*
X154979185Y-95990609D01*
X154979172Y-95990602D01*
X154833496Y-95930262D01*
X154833494Y-95930261D01*
X154678845Y-95899500D01*
X154678842Y-95899500D01*
X154521158Y-95899500D01*
X154521155Y-95899500D01*
X154366510Y-95930261D01*
X154366498Y-95930264D01*
X154222136Y-95990061D01*
X154174684Y-95999500D01*
X150197309Y-95999500D01*
X150130270Y-95979815D01*
X150109628Y-95963181D01*
X149910155Y-95763708D01*
X156017261Y-95763708D01*
X156017261Y-95763709D01*
X156600000Y-96346446D01*
X156600001Y-96346446D01*
X157182737Y-95763709D01*
X157176525Y-95759196D01*
X157022259Y-95680592D01*
X156857584Y-95627085D01*
X156686571Y-95600000D01*
X156513429Y-95600000D01*
X156342415Y-95627085D01*
X156177740Y-95680592D01*
X156023480Y-95759193D01*
X156023463Y-95759203D01*
X156017261Y-95763708D01*
X149910155Y-95763708D01*
X149247487Y-95101041D01*
X149307890Y-95076022D01*
X149414351Y-95004888D01*
X149504888Y-94914351D01*
X149576022Y-94807890D01*
X149601041Y-94747488D01*
X150437276Y-95583723D01*
X150437279Y-95583723D01*
X150499850Y-95502181D01*
X150617834Y-95297828D01*
X150617839Y-95297819D01*
X150708129Y-95079837D01*
X150769200Y-94851914D01*
X150799999Y-94617985D01*
X150800000Y-94617971D01*
X150800000Y-94382028D01*
X150799999Y-94382014D01*
X150769200Y-94148085D01*
X150708129Y-93920162D01*
X150617839Y-93702180D01*
X150617834Y-93702171D01*
X150499855Y-93497828D01*
X150499854Y-93497827D01*
X150437277Y-93416275D01*
X149601041Y-94252511D01*
X149576022Y-94192110D01*
X149504888Y-94085649D01*
X149414351Y-93995112D01*
X149307890Y-93923978D01*
X149247488Y-93898958D01*
X150083723Y-93062721D01*
X150002172Y-93000145D01*
X150002171Y-93000144D01*
X149797828Y-92882165D01*
X149797819Y-92882160D01*
X149579836Y-92791870D01*
X149579838Y-92791870D01*
X149351914Y-92730799D01*
X149117985Y-92700000D01*
X148882014Y-92700000D01*
X148648085Y-92730799D01*
X148420162Y-92791870D01*
X148202180Y-92882160D01*
X148202171Y-92882165D01*
X147997828Y-93000144D01*
X147997818Y-93000150D01*
X147916275Y-93062720D01*
X147916275Y-93062721D01*
X148752512Y-93898958D01*
X148692110Y-93923978D01*
X148585649Y-93995112D01*
X148495112Y-94085649D01*
X148423978Y-94192110D01*
X148398958Y-94252511D01*
X147562721Y-93416275D01*
X147562720Y-93416275D01*
X147500150Y-93497818D01*
X147500144Y-93497828D01*
X147382165Y-93702171D01*
X147382160Y-93702180D01*
X147291870Y-93920162D01*
X147230799Y-94148085D01*
X147200000Y-94382014D01*
X147200000Y-94617985D01*
X147230799Y-94851914D01*
X147291870Y-95079837D01*
X147382160Y-95297819D01*
X147382165Y-95297828D01*
X147500144Y-95502171D01*
X147500145Y-95502172D01*
X147562721Y-95583723D01*
X148398958Y-94747487D01*
X148423978Y-94807890D01*
X148495112Y-94914351D01*
X148585649Y-95004888D01*
X148692110Y-95076022D01*
X148752512Y-95101041D01*
X147890372Y-95963181D01*
X147829049Y-95996666D01*
X147802691Y-95999500D01*
X146541519Y-95999500D01*
X146474480Y-95979815D01*
X146453838Y-95963181D01*
X145536819Y-95046162D01*
X145503334Y-94984839D01*
X145500500Y-94958481D01*
X145500500Y-93395730D01*
X145497646Y-93365300D01*
X145497646Y-93365298D01*
X145452793Y-93237119D01*
X145452792Y-93237117D01*
X145372150Y-93127850D01*
X145262882Y-93047207D01*
X145262880Y-93047206D01*
X145134700Y-93002353D01*
X145104270Y-92999500D01*
X145104266Y-92999500D01*
X143541519Y-92999500D01*
X143474480Y-92979815D01*
X143453838Y-92963181D01*
X142059819Y-91569162D01*
X142045115Y-91542234D01*
X142028523Y-91516416D01*
X142027631Y-91510215D01*
X142026334Y-91507839D01*
X142023500Y-91481481D01*
X142023500Y-91317682D01*
X152160000Y-91317682D01*
X152160000Y-91522317D01*
X152192009Y-91724417D01*
X152255244Y-91919031D01*
X152348141Y-92101350D01*
X152348147Y-92101359D01*
X152380523Y-92145921D01*
X152380524Y-92145922D01*
X153060000Y-91466446D01*
X153060000Y-91472661D01*
X153087259Y-91574394D01*
X153139920Y-91665606D01*
X153214394Y-91740080D01*
X153305606Y-91792741D01*
X153407339Y-91820000D01*
X153413553Y-91820000D01*
X152734076Y-92499474D01*
X152778650Y-92531859D01*
X152960968Y-92624755D01*
X153155582Y-92687990D01*
X153357683Y-92720000D01*
X153562317Y-92720000D01*
X153764417Y-92687990D01*
X153959031Y-92624755D01*
X154141349Y-92531859D01*
X154185921Y-92499474D01*
X153506447Y-91820000D01*
X153512661Y-91820000D01*
X153614394Y-91792741D01*
X153705606Y-91740080D01*
X153780080Y-91665606D01*
X153832741Y-91574394D01*
X153860000Y-91472661D01*
X153860000Y-91466447D01*
X154539474Y-92145921D01*
X154571859Y-92101349D01*
X154664755Y-91919031D01*
X154727990Y-91724417D01*
X154757875Y-91535731D01*
X154787804Y-91472596D01*
X154847116Y-91435665D01*
X154916978Y-91436663D01*
X154975211Y-91475273D01*
X155001965Y-91530937D01*
X155037947Y-91711829D01*
X155037950Y-91711839D01*
X155113364Y-91893907D01*
X155113371Y-91893920D01*
X155222860Y-92057781D01*
X155222863Y-92057785D01*
X155362214Y-92197136D01*
X155362218Y-92197139D01*
X155526079Y-92306628D01*
X155526092Y-92306635D01*
X155679904Y-92370345D01*
X155708165Y-92382051D01*
X155708169Y-92382051D01*
X155708170Y-92382052D01*
X155901456Y-92420500D01*
X155901459Y-92420500D01*
X156098543Y-92420500D01*
X156228582Y-92394632D01*
X156291835Y-92382051D01*
X156473914Y-92306632D01*
X156637782Y-92197139D01*
X156777139Y-92057782D01*
X156886632Y-91893914D01*
X156887427Y-91891996D01*
X156944583Y-91754006D01*
X156962051Y-91711835D01*
X156974632Y-91648582D01*
X157000500Y-91518543D01*
X157000500Y-91321456D01*
X156962052Y-91128170D01*
X156962051Y-91128169D01*
X156962051Y-91128165D01*
X156950352Y-91099920D01*
X156886635Y-90946092D01*
X156886628Y-90946079D01*
X156777139Y-90782218D01*
X156777136Y-90782214D01*
X156637785Y-90642863D01*
X156637781Y-90642860D01*
X156473920Y-90533371D01*
X156473907Y-90533364D01*
X156291839Y-90457950D01*
X156291829Y-90457947D01*
X156098543Y-90419500D01*
X156098541Y-90419500D01*
X155901459Y-90419500D01*
X155901457Y-90419500D01*
X155708170Y-90457947D01*
X155708160Y-90457950D01*
X155526092Y-90533364D01*
X155526079Y-90533371D01*
X155362218Y-90642860D01*
X155362214Y-90642863D01*
X155222863Y-90782214D01*
X155222860Y-90782218D01*
X155113371Y-90946079D01*
X155113364Y-90946092D01*
X155037950Y-91128160D01*
X155037947Y-91128170D01*
X155001965Y-91309062D01*
X154969580Y-91370973D01*
X154908864Y-91405547D01*
X154839094Y-91401806D01*
X154782423Y-91360940D01*
X154757875Y-91304268D01*
X154727990Y-91115582D01*
X154664755Y-90920968D01*
X154571859Y-90738650D01*
X154539474Y-90694077D01*
X154539474Y-90694076D01*
X153860000Y-91373551D01*
X153860000Y-91367339D01*
X153832741Y-91265606D01*
X153780080Y-91174394D01*
X153705606Y-91099920D01*
X153614394Y-91047259D01*
X153512661Y-91020000D01*
X153506446Y-91020000D01*
X154185922Y-90340524D01*
X154185921Y-90340523D01*
X154141359Y-90308147D01*
X154141350Y-90308141D01*
X153959031Y-90215244D01*
X153764417Y-90152009D01*
X153562317Y-90120000D01*
X153357683Y-90120000D01*
X153155582Y-90152009D01*
X152960968Y-90215244D01*
X152778644Y-90308143D01*
X152734077Y-90340523D01*
X152734077Y-90340524D01*
X153413554Y-91020000D01*
X153407339Y-91020000D01*
X153305606Y-91047259D01*
X153214394Y-91099920D01*
X153139920Y-91174394D01*
X153087259Y-91265606D01*
X153060000Y-91367339D01*
X153060000Y-91373553D01*
X152380524Y-90694077D01*
X152380523Y-90694077D01*
X152348143Y-90738644D01*
X152255244Y-90920968D01*
X152192009Y-91115582D01*
X152160000Y-91317682D01*
X142023500Y-91317682D01*
X142023500Y-90402769D01*
X142043185Y-90335730D01*
X142095989Y-90289975D01*
X142165147Y-90280031D01*
X142194950Y-90288207D01*
X142284256Y-90325199D01*
X142284260Y-90325199D01*
X142284261Y-90325200D01*
X142409928Y-90350198D01*
X142409931Y-90350198D01*
X142538071Y-90350198D01*
X142622615Y-90333380D01*
X142663744Y-90325199D01*
X142782127Y-90276163D01*
X142888669Y-90204974D01*
X142979276Y-90114367D01*
X143050465Y-90007825D01*
X143060295Y-89984090D01*
X143087179Y-89943858D01*
X143100780Y-89930258D01*
X143998492Y-89032545D01*
X144300474Y-88730563D01*
X144324854Y-88688336D01*
X144349910Y-88644938D01*
X144363671Y-88593580D01*
X144375500Y-88549436D01*
X144375500Y-88450564D01*
X144375500Y-88299499D01*
X144395185Y-88232460D01*
X144447989Y-88186705D01*
X144499500Y-88175499D01*
X145369856Y-88175499D01*
X145369864Y-88175499D01*
X145369879Y-88175497D01*
X145369882Y-88175497D01*
X145394987Y-88172586D01*
X145394988Y-88172585D01*
X145394991Y-88172585D01*
X145497765Y-88127206D01*
X145577206Y-88047765D01*
X145622585Y-87944991D01*
X145625500Y-87919865D01*
X145625499Y-87677577D01*
X146425975Y-87677577D01*
X146531236Y-87721178D01*
X146531240Y-87721179D01*
X146676126Y-87749999D01*
X146676129Y-87750000D01*
X146823871Y-87750000D01*
X146823873Y-87749999D01*
X146968760Y-87721179D01*
X146968775Y-87721175D01*
X147074024Y-87677578D01*
X147074024Y-87677577D01*
X147925975Y-87677577D01*
X148031236Y-87721178D01*
X148031240Y-87721179D01*
X148176126Y-87749999D01*
X148176129Y-87750000D01*
X148323871Y-87750000D01*
X148323873Y-87749999D01*
X148468760Y-87721179D01*
X148468775Y-87721175D01*
X148574024Y-87677578D01*
X148574024Y-87677577D01*
X148250001Y-87353554D01*
X148250000Y-87353554D01*
X147925975Y-87677577D01*
X147074024Y-87677577D01*
X146750001Y-87353554D01*
X146750000Y-87353554D01*
X146425975Y-87677577D01*
X145625499Y-87677577D01*
X145625499Y-87630136D01*
X145622585Y-87605009D01*
X145577206Y-87502235D01*
X145575748Y-87500777D01*
X145571598Y-87487817D01*
X145570902Y-87459194D01*
X145567185Y-87430808D01*
X145569980Y-87421287D01*
X145569900Y-87417968D01*
X145571938Y-87414619D01*
X145576257Y-87399913D01*
X145577204Y-87397766D01*
X145577206Y-87397765D01*
X145622585Y-87294991D01*
X145625500Y-87269865D01*
X145625499Y-86980136D01*
X145625497Y-86980117D01*
X145622945Y-86958109D01*
X145622944Y-86958107D01*
X145622585Y-86955009D01*
X145609832Y-86926126D01*
X146000000Y-86926126D01*
X146000000Y-87073873D01*
X146028820Y-87218759D01*
X146028822Y-87218767D01*
X146072421Y-87324024D01*
X146396446Y-87000000D01*
X146396446Y-86999999D01*
X146366610Y-86970163D01*
X146600000Y-86970163D01*
X146600000Y-87029837D01*
X146622836Y-87084968D01*
X146665032Y-87127164D01*
X146720163Y-87150000D01*
X146779837Y-87150000D01*
X146834968Y-87127164D01*
X146877164Y-87084968D01*
X146900000Y-87029837D01*
X146900000Y-86999999D01*
X147103554Y-86999999D01*
X147103554Y-87000001D01*
X147427576Y-87324023D01*
X147475807Y-87314430D01*
X147524191Y-87314430D01*
X147572422Y-87324024D01*
X147896446Y-87000000D01*
X147896446Y-86999999D01*
X147866610Y-86970163D01*
X148100000Y-86970163D01*
X148100000Y-87029837D01*
X148122836Y-87084968D01*
X148165032Y-87127164D01*
X148220163Y-87150000D01*
X148279837Y-87150000D01*
X148334968Y-87127164D01*
X148377164Y-87084968D01*
X148400000Y-87029837D01*
X148400000Y-86999999D01*
X148603554Y-86999999D01*
X148603554Y-87000001D01*
X148927577Y-87324024D01*
X148927578Y-87324024D01*
X148971175Y-87218775D01*
X148971179Y-87218760D01*
X148999999Y-87073873D01*
X149000000Y-87073871D01*
X149000000Y-86926128D01*
X148999999Y-86926126D01*
X148971179Y-86781240D01*
X148971178Y-86781236D01*
X148927577Y-86675975D01*
X148603554Y-86999999D01*
X148400000Y-86999999D01*
X148400000Y-86970163D01*
X148377164Y-86915032D01*
X148334968Y-86872836D01*
X148279837Y-86850000D01*
X148220163Y-86850000D01*
X148165032Y-86872836D01*
X148122836Y-86915032D01*
X148100000Y-86970163D01*
X147866610Y-86970163D01*
X147572421Y-86675974D01*
X147524190Y-86685568D01*
X147475808Y-86685568D01*
X147427577Y-86675974D01*
X147103554Y-86999999D01*
X146900000Y-86999999D01*
X146900000Y-86970163D01*
X146877164Y-86915032D01*
X146834968Y-86872836D01*
X146779837Y-86850000D01*
X146720163Y-86850000D01*
X146665032Y-86872836D01*
X146622836Y-86915032D01*
X146600000Y-86970163D01*
X146366610Y-86970163D01*
X146072421Y-86675974D01*
X146072420Y-86675974D01*
X146028823Y-86781228D01*
X146028820Y-86781240D01*
X146000000Y-86926126D01*
X145609832Y-86926126D01*
X145577206Y-86852235D01*
X145577161Y-86852190D01*
X145575869Y-86849200D01*
X145571658Y-86814972D01*
X145567185Y-86780808D01*
X145567376Y-86780156D01*
X145567339Y-86779853D01*
X145567662Y-86779180D01*
X145576257Y-86749913D01*
X145577204Y-86747766D01*
X145577206Y-86747765D01*
X145622585Y-86644991D01*
X145625500Y-86619865D01*
X145625499Y-86511850D01*
X145645183Y-86444813D01*
X145674013Y-86413476D01*
X145752923Y-86352926D01*
X145849100Y-86227586D01*
X145869814Y-86177577D01*
X146425974Y-86177577D01*
X146435568Y-86225808D01*
X146435568Y-86274190D01*
X146425974Y-86322421D01*
X146750000Y-86646446D01*
X146750001Y-86646446D01*
X147074024Y-86322422D01*
X147064430Y-86274191D01*
X147064430Y-86265853D01*
X147062540Y-86261050D01*
X147064430Y-86225807D01*
X147074023Y-86177577D01*
X147925974Y-86177577D01*
X147935568Y-86225808D01*
X147935568Y-86274190D01*
X147925974Y-86322421D01*
X148250000Y-86646446D01*
X148250001Y-86646446D01*
X148574024Y-86322422D01*
X148564430Y-86274191D01*
X148564430Y-86225807D01*
X148574023Y-86177576D01*
X148250001Y-85853554D01*
X148250000Y-85853554D01*
X147925974Y-86177577D01*
X147074023Y-86177577D01*
X147074023Y-86177576D01*
X146750001Y-85853554D01*
X146750000Y-85853554D01*
X146425974Y-86177577D01*
X145869814Y-86177577D01*
X145900490Y-86103518D01*
X145926317Y-85927766D01*
X145937289Y-85903935D01*
X145944681Y-85878759D01*
X145951670Y-85872701D01*
X145955539Y-85864301D01*
X145977654Y-85850184D01*
X145997483Y-85833002D01*
X146006637Y-85831685D01*
X146014434Y-85826709D01*
X146040669Y-85826790D01*
X146066641Y-85823055D01*
X146072403Y-85824042D01*
X146396446Y-85500000D01*
X146396446Y-85499999D01*
X146366610Y-85470163D01*
X146600000Y-85470163D01*
X146600000Y-85529837D01*
X146622836Y-85584968D01*
X146665032Y-85627164D01*
X146720163Y-85650000D01*
X146779837Y-85650000D01*
X146834968Y-85627164D01*
X146877164Y-85584968D01*
X146900000Y-85529837D01*
X146900000Y-85499999D01*
X147103554Y-85499999D01*
X147103554Y-85500001D01*
X147427576Y-85824023D01*
X147475807Y-85814430D01*
X147524191Y-85814430D01*
X147572422Y-85824024D01*
X147896446Y-85500000D01*
X147896446Y-85499999D01*
X147866610Y-85470163D01*
X148100000Y-85470163D01*
X148100000Y-85529837D01*
X148122836Y-85584968D01*
X148165032Y-85627164D01*
X148220163Y-85650000D01*
X148279837Y-85650000D01*
X148334968Y-85627164D01*
X148377164Y-85584968D01*
X148400000Y-85529837D01*
X148400000Y-85499999D01*
X148603554Y-85499999D01*
X148603554Y-85500001D01*
X148927577Y-85824024D01*
X148927578Y-85824024D01*
X148971175Y-85718775D01*
X148971179Y-85718760D01*
X148999999Y-85573873D01*
X149000000Y-85573871D01*
X149000000Y-85426128D01*
X148999999Y-85426126D01*
X148971179Y-85281240D01*
X148971178Y-85281236D01*
X148927577Y-85175975D01*
X148603554Y-85499999D01*
X148400000Y-85499999D01*
X148400000Y-85470163D01*
X148377164Y-85415032D01*
X148334968Y-85372836D01*
X148279837Y-85350000D01*
X148220163Y-85350000D01*
X148165032Y-85372836D01*
X148122836Y-85415032D01*
X148100000Y-85470163D01*
X147866610Y-85470163D01*
X147572421Y-85175974D01*
X147524190Y-85185568D01*
X147475808Y-85185568D01*
X147427577Y-85175974D01*
X147103554Y-85499999D01*
X146900000Y-85499999D01*
X146900000Y-85470163D01*
X146877164Y-85415032D01*
X146834968Y-85372836D01*
X146779837Y-85350000D01*
X146720163Y-85350000D01*
X146665032Y-85372836D01*
X146622836Y-85415032D01*
X146600000Y-85470163D01*
X146366610Y-85470163D01*
X146072421Y-85175974D01*
X146072420Y-85175974D01*
X146028823Y-85281228D01*
X146028821Y-85281237D01*
X146022913Y-85310937D01*
X145990527Y-85372847D01*
X145929811Y-85407421D01*
X145860042Y-85403680D01*
X145814554Y-85375354D01*
X145662757Y-85226757D01*
X145649186Y-85202522D01*
X145632810Y-85180094D01*
X145631084Y-85170195D01*
X145628620Y-85165794D01*
X145629059Y-85158573D01*
X145625499Y-85138147D01*
X145625499Y-85030143D01*
X145625499Y-85030136D01*
X145625497Y-85030115D01*
X145622586Y-85005012D01*
X145622585Y-85005008D01*
X145576257Y-84900086D01*
X145567185Y-84830808D01*
X145570298Y-84816513D01*
X145574913Y-84800057D01*
X145577206Y-84797765D01*
X145622585Y-84694991D01*
X145624605Y-84677577D01*
X146425974Y-84677577D01*
X146435568Y-84725808D01*
X146435568Y-84774190D01*
X146425974Y-84822421D01*
X146750000Y-85146446D01*
X146750001Y-85146446D01*
X147074024Y-84822422D01*
X147064430Y-84774191D01*
X147064430Y-84765853D01*
X147062540Y-84761050D01*
X147064430Y-84725807D01*
X147074023Y-84677577D01*
X147925974Y-84677577D01*
X147935568Y-84725808D01*
X147935568Y-84774190D01*
X147925974Y-84822421D01*
X148250000Y-85146446D01*
X148250001Y-85146446D01*
X148574024Y-84822422D01*
X148564430Y-84774191D01*
X148564430Y-84725807D01*
X148574023Y-84677576D01*
X148250001Y-84353554D01*
X148250000Y-84353554D01*
X147925974Y-84677577D01*
X147074023Y-84677577D01*
X147074023Y-84677576D01*
X146750001Y-84353554D01*
X146750000Y-84353554D01*
X146425974Y-84677577D01*
X145624605Y-84677577D01*
X145625500Y-84669865D01*
X145625499Y-84561851D01*
X145645183Y-84494814D01*
X145674013Y-84463476D01*
X145752924Y-84402924D01*
X145850893Y-84275250D01*
X145907321Y-84234047D01*
X145977067Y-84229892D01*
X146037987Y-84264104D01*
X146063830Y-84303283D01*
X146072421Y-84324024D01*
X146396446Y-84000000D01*
X146396446Y-83999999D01*
X146366610Y-83970163D01*
X146600000Y-83970163D01*
X146600000Y-84029837D01*
X146622836Y-84084968D01*
X146665032Y-84127164D01*
X146720163Y-84150000D01*
X146779837Y-84150000D01*
X146834968Y-84127164D01*
X146877164Y-84084968D01*
X146900000Y-84029837D01*
X146900000Y-83999999D01*
X147103554Y-83999999D01*
X147103554Y-84000001D01*
X147427576Y-84324023D01*
X147475807Y-84314430D01*
X147524191Y-84314430D01*
X147572422Y-84324024D01*
X147896446Y-84000000D01*
X147896446Y-83999999D01*
X147866610Y-83970163D01*
X148100000Y-83970163D01*
X148100000Y-84029837D01*
X148122836Y-84084968D01*
X148165032Y-84127164D01*
X148220163Y-84150000D01*
X148279837Y-84150000D01*
X148334968Y-84127164D01*
X148377164Y-84084968D01*
X148400000Y-84029837D01*
X148400000Y-83999999D01*
X148603554Y-83999999D01*
X148603554Y-84000001D01*
X148927577Y-84324024D01*
X148927578Y-84324024D01*
X148971175Y-84218775D01*
X148971179Y-84218760D01*
X148999999Y-84073873D01*
X149000000Y-84073871D01*
X149000000Y-83926128D01*
X148999999Y-83926126D01*
X148971179Y-83781240D01*
X148971178Y-83781236D01*
X148927577Y-83675975D01*
X148603554Y-83999999D01*
X148400000Y-83999999D01*
X148400000Y-83970163D01*
X148377164Y-83915032D01*
X148334968Y-83872836D01*
X148279837Y-83850000D01*
X148220163Y-83850000D01*
X148165032Y-83872836D01*
X148122836Y-83915032D01*
X148100000Y-83970163D01*
X147866610Y-83970163D01*
X147572421Y-83675974D01*
X147524190Y-83685568D01*
X147475808Y-83685568D01*
X147427577Y-83675974D01*
X147103554Y-83999999D01*
X146900000Y-83999999D01*
X146900000Y-83970163D01*
X146877164Y-83915032D01*
X146834968Y-83872836D01*
X146779837Y-83850000D01*
X146720163Y-83850000D01*
X146665032Y-83872836D01*
X146622836Y-83915032D01*
X146600000Y-83970163D01*
X146366610Y-83970163D01*
X146072421Y-83675974D01*
X146043807Y-83681666D01*
X146016296Y-83679204D01*
X145988693Y-83680131D01*
X145981990Y-83676134D01*
X145974215Y-83675439D01*
X145952400Y-83658492D01*
X145928681Y-83644351D01*
X145923208Y-83635816D01*
X145919038Y-83632576D01*
X145908614Y-83615316D01*
X145815959Y-83429223D01*
X145752924Y-83347074D01*
X145720795Y-83322420D01*
X146425974Y-83322420D01*
X146425974Y-83322421D01*
X146750000Y-83646446D01*
X146750001Y-83646446D01*
X147074024Y-83322421D01*
X147074022Y-83322420D01*
X147925974Y-83322420D01*
X147925974Y-83322421D01*
X148250000Y-83646446D01*
X148250001Y-83646446D01*
X148574024Y-83322421D01*
X148468767Y-83278822D01*
X148468759Y-83278820D01*
X148323872Y-83250000D01*
X148176128Y-83250000D01*
X148031240Y-83278820D01*
X148031228Y-83278823D01*
X147925974Y-83322420D01*
X147074022Y-83322420D01*
X146968767Y-83278822D01*
X146968759Y-83278820D01*
X146823872Y-83250000D01*
X146676128Y-83250000D01*
X146531240Y-83278820D01*
X146531228Y-83278823D01*
X146425974Y-83322420D01*
X145720795Y-83322420D01*
X145674012Y-83286522D01*
X145671764Y-83283444D01*
X145668296Y-83281860D01*
X145651318Y-83255441D01*
X145632810Y-83230094D01*
X145631984Y-83225357D01*
X145630522Y-83223082D01*
X145625499Y-83188147D01*
X145625499Y-83080131D01*
X149374500Y-83080131D01*
X149374500Y-83369856D01*
X149374502Y-83369882D01*
X149377413Y-83394986D01*
X149377414Y-83394990D01*
X149377415Y-83394991D01*
X149422794Y-83497765D01*
X149422795Y-83497766D01*
X149423743Y-83499913D01*
X149432814Y-83569191D01*
X149423743Y-83600085D01*
X149377415Y-83705009D01*
X149374500Y-83730131D01*
X149374500Y-84019856D01*
X149374502Y-84019882D01*
X149377413Y-84044986D01*
X149377414Y-84044990D01*
X149377415Y-84044991D01*
X149422794Y-84147765D01*
X149422795Y-84147766D01*
X149423743Y-84149913D01*
X149432814Y-84219191D01*
X149423743Y-84250085D01*
X149377415Y-84355009D01*
X149374500Y-84380131D01*
X149374500Y-84669856D01*
X149374502Y-84669882D01*
X149377413Y-84694986D01*
X149377414Y-84694990D01*
X149377415Y-84694991D01*
X149422794Y-84797765D01*
X149422795Y-84797766D01*
X149423743Y-84799913D01*
X149432814Y-84869191D01*
X149423743Y-84900085D01*
X149377415Y-85005009D01*
X149374500Y-85030131D01*
X149374500Y-85319856D01*
X149374502Y-85319882D01*
X149377413Y-85344986D01*
X149377414Y-85344990D01*
X149377415Y-85344991D01*
X149422794Y-85447765D01*
X149422795Y-85447766D01*
X149423743Y-85449913D01*
X149432814Y-85519191D01*
X149423743Y-85550085D01*
X149377415Y-85655009D01*
X149374500Y-85680131D01*
X149374500Y-85969856D01*
X149374502Y-85969882D01*
X149377413Y-85994986D01*
X149377414Y-85994990D01*
X149377415Y-85994991D01*
X149422794Y-86097765D01*
X149422795Y-86097766D01*
X149423743Y-86099913D01*
X149432814Y-86169191D01*
X149423743Y-86200085D01*
X149377415Y-86305009D01*
X149374500Y-86330131D01*
X149374500Y-86619856D01*
X149374502Y-86619882D01*
X149377413Y-86644986D01*
X149377414Y-86644990D01*
X149377415Y-86644991D01*
X149422794Y-86747765D01*
X149422795Y-86747766D01*
X149423743Y-86749913D01*
X149432814Y-86819191D01*
X149423743Y-86850085D01*
X149377415Y-86955009D01*
X149374500Y-86980131D01*
X149374500Y-87269856D01*
X149374502Y-87269882D01*
X149377413Y-87294986D01*
X149377414Y-87294990D01*
X149377415Y-87294991D01*
X149422794Y-87397765D01*
X149422795Y-87397766D01*
X149423743Y-87399913D01*
X149432814Y-87469191D01*
X149423743Y-87500085D01*
X149377415Y-87605009D01*
X149374500Y-87630131D01*
X149374500Y-87919856D01*
X149374502Y-87919882D01*
X149377413Y-87944987D01*
X149377415Y-87944991D01*
X149422793Y-88047764D01*
X149422794Y-88047765D01*
X149502235Y-88127206D01*
X149605009Y-88172585D01*
X149630135Y-88175500D01*
X150180600Y-88175499D01*
X150247639Y-88195183D01*
X150268281Y-88211818D01*
X151199525Y-89143062D01*
X151269438Y-89212975D01*
X151355062Y-89262410D01*
X151355066Y-89262411D01*
X151398042Y-89273927D01*
X151398043Y-89273927D01*
X151412116Y-89277697D01*
X151450564Y-89288000D01*
X151450565Y-89288000D01*
X151771911Y-89288000D01*
X151838950Y-89307685D01*
X151875494Y-89347288D01*
X151876786Y-89346426D01*
X151951359Y-89458032D01*
X151951362Y-89458036D01*
X152041963Y-89548637D01*
X152041967Y-89548640D01*
X152148502Y-89619825D01*
X152148508Y-89619828D01*
X152148509Y-89619829D01*
X152266892Y-89668865D01*
X152266896Y-89668865D01*
X152266897Y-89668866D01*
X152392564Y-89693864D01*
X152392567Y-89693864D01*
X152520707Y-89693864D01*
X152605251Y-89677046D01*
X152646380Y-89668865D01*
X152764763Y-89619829D01*
X152871305Y-89548640D01*
X152961912Y-89458033D01*
X153033101Y-89351491D01*
X153082137Y-89233108D01*
X153097395Y-89156403D01*
X153107136Y-89107435D01*
X153107136Y-88979292D01*
X153082138Y-88853625D01*
X153082137Y-88853624D01*
X153082137Y-88853620D01*
X153033101Y-88735237D01*
X153033100Y-88735236D01*
X153033097Y-88735230D01*
X152961912Y-88628695D01*
X152961909Y-88628691D01*
X152866998Y-88533780D01*
X152868537Y-88532240D01*
X152834728Y-88482596D01*
X152832864Y-88412751D01*
X152869057Y-88352986D01*
X152931816Y-88322277D01*
X152952731Y-88320500D01*
X155780725Y-88320500D01*
X155847764Y-88340185D01*
X155891209Y-88388204D01*
X155973240Y-88549199D01*
X156084310Y-88702073D01*
X156217927Y-88835690D01*
X156370801Y-88946760D01*
X156434649Y-88979292D01*
X156539163Y-89032545D01*
X156539165Y-89032545D01*
X156539168Y-89032547D01*
X156572718Y-89043448D01*
X156718881Y-89090940D01*
X156905514Y-89120500D01*
X156905519Y-89120500D01*
X157094486Y-89120500D01*
X157281118Y-89090940D01*
X157460832Y-89032547D01*
X157629199Y-88946760D01*
X157782073Y-88835690D01*
X157915690Y-88702073D01*
X158026760Y-88549199D01*
X158112547Y-88380832D01*
X158170940Y-88201118D01*
X158182646Y-88127205D01*
X158186939Y-88100103D01*
X158216868Y-88036968D01*
X158276179Y-88000036D01*
X158309412Y-87995500D01*
X160418921Y-87995500D01*
X160485960Y-88015185D01*
X160518690Y-88045865D01*
X160534172Y-88066842D01*
X160552848Y-88092148D01*
X160552850Y-88092150D01*
X160662118Y-88172793D01*
X160696701Y-88184894D01*
X160790299Y-88217646D01*
X160820730Y-88220500D01*
X160820734Y-88220500D01*
X162179270Y-88220500D01*
X162209699Y-88217646D01*
X162209701Y-88217646D01*
X162273895Y-88195183D01*
X162337882Y-88172793D01*
X162447150Y-88092150D01*
X162527793Y-87982882D01*
X162553131Y-87910471D01*
X162572646Y-87854701D01*
X162572646Y-87854699D01*
X162575500Y-87824269D01*
X162575500Y-87015730D01*
X162572646Y-86985300D01*
X162572646Y-86985298D01*
X162533293Y-86872836D01*
X162527793Y-86857118D01*
X162447150Y-86747850D01*
X162337882Y-86667207D01*
X162337880Y-86667206D01*
X162209700Y-86622353D01*
X162179270Y-86619500D01*
X162179266Y-86619500D01*
X160820734Y-86619500D01*
X160820730Y-86619500D01*
X160790300Y-86622353D01*
X160790298Y-86622353D01*
X160662119Y-86667206D01*
X160662117Y-86667207D01*
X160552850Y-86747850D01*
X160552848Y-86747851D01*
X160540351Y-86764785D01*
X160522955Y-86788357D01*
X160518692Y-86794133D01*
X160463044Y-86836384D01*
X160418921Y-86844500D01*
X157924234Y-86844500D01*
X157777865Y-86883719D01*
X157777864Y-86883719D01*
X157757202Y-86895648D01*
X157689301Y-86912117D01*
X157633761Y-86895016D01*
X157633540Y-86895452D01*
X157631041Y-86894179D01*
X157630421Y-86893988D01*
X157629207Y-86893244D01*
X157460836Y-86807454D01*
X157281118Y-86749059D01*
X157094486Y-86719500D01*
X157094481Y-86719500D01*
X156905519Y-86719500D01*
X156905514Y-86719500D01*
X156718881Y-86749059D01*
X156539163Y-86807454D01*
X156370800Y-86893240D01*
X156288558Y-86952993D01*
X156217927Y-87004310D01*
X156217925Y-87004312D01*
X156217924Y-87004312D01*
X156084312Y-87137924D01*
X156084312Y-87137925D01*
X156084310Y-87137927D01*
X156056310Y-87176466D01*
X155973240Y-87290800D01*
X155920351Y-87394601D01*
X155891837Y-87450565D01*
X155891210Y-87451795D01*
X155843236Y-87502591D01*
X155780725Y-87519500D01*
X152443047Y-87519500D01*
X152413606Y-87510855D01*
X152383620Y-87504332D01*
X152378604Y-87500577D01*
X152376008Y-87499815D01*
X152355366Y-87483181D01*
X152334366Y-87462181D01*
X152300881Y-87400858D01*
X152305865Y-87331166D01*
X152347737Y-87275233D01*
X152413201Y-87250816D01*
X152422047Y-87250500D01*
X152514071Y-87250500D01*
X152598615Y-87233682D01*
X152639744Y-87225501D01*
X152758127Y-87176465D01*
X152864669Y-87105276D01*
X152955276Y-87014669D01*
X153026465Y-86908127D01*
X153075501Y-86789744D01*
X153089836Y-86717678D01*
X153100500Y-86664071D01*
X153100500Y-86551729D01*
X153120185Y-86484690D01*
X153172989Y-86438935D01*
X153242147Y-86428991D01*
X153248677Y-86430109D01*
X153293046Y-86438935D01*
X153401456Y-86460500D01*
X153401459Y-86460500D01*
X153598543Y-86460500D01*
X153751310Y-86430112D01*
X153791835Y-86422051D01*
X153973914Y-86346632D01*
X154137782Y-86237139D01*
X154277139Y-86097782D01*
X154308659Y-86050609D01*
X154362271Y-86005804D01*
X154411761Y-85995500D01*
X160617059Y-85995500D01*
X160684098Y-86015185D01*
X160704740Y-86031819D01*
X160714707Y-86041786D01*
X160714711Y-86041789D01*
X160845814Y-86129390D01*
X160845827Y-86129397D01*
X160991498Y-86189735D01*
X160991503Y-86189737D01*
X161084227Y-86208181D01*
X161146153Y-86220499D01*
X161146156Y-86220500D01*
X161146158Y-86220500D01*
X161853844Y-86220500D01*
X161853845Y-86220499D01*
X162008497Y-86189737D01*
X162154179Y-86129394D01*
X162285289Y-86041789D01*
X162396789Y-85930289D01*
X162484394Y-85799179D01*
X162544737Y-85653497D01*
X162575500Y-85498842D01*
X162575500Y-85341158D01*
X162575500Y-85341155D01*
X162575499Y-85341153D01*
X162571268Y-85319882D01*
X162544737Y-85186503D01*
X162525357Y-85139714D01*
X162484397Y-85040827D01*
X162484390Y-85040814D01*
X162396789Y-84909711D01*
X162396786Y-84909707D01*
X162285292Y-84798213D01*
X162285288Y-84798210D01*
X162154185Y-84710609D01*
X162154172Y-84710602D01*
X162008501Y-84650264D01*
X162008489Y-84650261D01*
X161853845Y-84619500D01*
X161853842Y-84619500D01*
X161146158Y-84619500D01*
X161146155Y-84619500D01*
X160991510Y-84650261D01*
X160991498Y-84650264D01*
X160845827Y-84710602D01*
X160845814Y-84710609D01*
X160714711Y-84798210D01*
X160714707Y-84798213D01*
X160704740Y-84808181D01*
X160643417Y-84841666D01*
X160617059Y-84844500D01*
X155462118Y-84844500D01*
X155395079Y-84824815D01*
X155349324Y-84772011D01*
X155339380Y-84702853D01*
X155359016Y-84651609D01*
X155415461Y-84567133D01*
X155415461Y-84567132D01*
X155415465Y-84567127D01*
X155464501Y-84448744D01*
X155480759Y-84367011D01*
X155489500Y-84323071D01*
X155489500Y-84194928D01*
X155464502Y-84069261D01*
X155464501Y-84069260D01*
X155464501Y-84069256D01*
X155415465Y-83950873D01*
X155415464Y-83950872D01*
X155415461Y-83950866D01*
X155344276Y-83844331D01*
X155344273Y-83844327D01*
X155253672Y-83753726D01*
X155253668Y-83753723D01*
X155147133Y-83682538D01*
X155147124Y-83682533D01*
X155028744Y-83633499D01*
X155028738Y-83633497D01*
X154941363Y-83616117D01*
X154879452Y-83583732D01*
X154844878Y-83523016D01*
X154848619Y-83453246D01*
X154889485Y-83396575D01*
X154954503Y-83370993D01*
X154965555Y-83370500D01*
X155806201Y-83370500D01*
X155873240Y-83390185D01*
X155916685Y-83438204D01*
X155973240Y-83549199D01*
X156084310Y-83702073D01*
X156217927Y-83835690D01*
X156370801Y-83946760D01*
X156421368Y-83972525D01*
X156539163Y-84032545D01*
X156539165Y-84032545D01*
X156539168Y-84032547D01*
X156635497Y-84063846D01*
X156718881Y-84090940D01*
X156905514Y-84120500D01*
X156905519Y-84120500D01*
X157094486Y-84120500D01*
X157281118Y-84090940D01*
X157316000Y-84079606D01*
X157460832Y-84032547D01*
X157629199Y-83946760D01*
X157782073Y-83835690D01*
X157915690Y-83702073D01*
X158026760Y-83549199D01*
X158112547Y-83380832D01*
X158170940Y-83201118D01*
X158174698Y-83177392D01*
X158200500Y-83014486D01*
X158200500Y-82825513D01*
X158170940Y-82638881D01*
X158139768Y-82542944D01*
X158112547Y-82459168D01*
X158112545Y-82459165D01*
X158112545Y-82459163D01*
X158064399Y-82364672D01*
X158026760Y-82290801D01*
X157915690Y-82137927D01*
X157782073Y-82004310D01*
X157629199Y-81893240D01*
X157626332Y-81891779D01*
X157460836Y-81807454D01*
X157281118Y-81749059D01*
X157094486Y-81719500D01*
X157094481Y-81719500D01*
X156905519Y-81719500D01*
X156905514Y-81719500D01*
X156718881Y-81749059D01*
X156539163Y-81807454D01*
X156370800Y-81893240D01*
X156313069Y-81935185D01*
X156217927Y-82004310D01*
X156217925Y-82004312D01*
X156217924Y-82004312D01*
X156084312Y-82137924D01*
X156084312Y-82137925D01*
X156084310Y-82137927D01*
X156053333Y-82180563D01*
X155973240Y-82290800D01*
X155916686Y-82401795D01*
X155868712Y-82452591D01*
X155806201Y-82469500D01*
X154468556Y-82469500D01*
X154401517Y-82449815D01*
X154365454Y-82414390D01*
X154277142Y-82282222D01*
X154277136Y-82282214D01*
X154137785Y-82142863D01*
X154137781Y-82142860D01*
X153973920Y-82033371D01*
X153973907Y-82033364D01*
X153791839Y-81957950D01*
X153791829Y-81957947D01*
X153598543Y-81919500D01*
X153598541Y-81919500D01*
X153401459Y-81919500D01*
X153401457Y-81919500D01*
X153208170Y-81957947D01*
X153208160Y-81957950D01*
X153026092Y-82033364D01*
X153026079Y-82033371D01*
X152862218Y-82142860D01*
X152862214Y-82142863D01*
X152722863Y-82282214D01*
X152722860Y-82282218D01*
X152613371Y-82446079D01*
X152613364Y-82446092D01*
X152537950Y-82628160D01*
X152537947Y-82628170D01*
X152499500Y-82821456D01*
X152499500Y-82994070D01*
X152479815Y-83061109D01*
X152427011Y-83106864D01*
X152375500Y-83118070D01*
X151643794Y-83118070D01*
X151541929Y-83145364D01*
X151541927Y-83145365D01*
X151533031Y-83150501D01*
X151465130Y-83166970D01*
X151399104Y-83144115D01*
X151355916Y-83089191D01*
X151347861Y-83057391D01*
X151347585Y-83055012D01*
X151347585Y-83055009D01*
X151302206Y-82952235D01*
X151222765Y-82872794D01*
X151170009Y-82849500D01*
X151119992Y-82827415D01*
X151094868Y-82824500D01*
X151094865Y-82824500D01*
X150862000Y-82824500D01*
X150853314Y-82821949D01*
X150844353Y-82823238D01*
X150820312Y-82812259D01*
X150794961Y-82804815D01*
X150789033Y-82797974D01*
X150780797Y-82794213D01*
X150766507Y-82771978D01*
X150749206Y-82752011D01*
X150746918Y-82741496D01*
X150743023Y-82735435D01*
X150738000Y-82700500D01*
X150738000Y-82572783D01*
X150757685Y-82505744D01*
X150793109Y-82469681D01*
X150814669Y-82455276D01*
X150905276Y-82364669D01*
X150976465Y-82258127D01*
X151025501Y-82139744D01*
X151037737Y-82078230D01*
X151050500Y-82014071D01*
X151050500Y-81885928D01*
X151025502Y-81760261D01*
X151025501Y-81760260D01*
X151025501Y-81760256D01*
X150984510Y-81661295D01*
X150976466Y-81641875D01*
X150976461Y-81641866D01*
X150905276Y-81535331D01*
X150905273Y-81535327D01*
X150814672Y-81444726D01*
X150814668Y-81444723D01*
X150708133Y-81373538D01*
X150708124Y-81373533D01*
X150589744Y-81324499D01*
X150589738Y-81324497D01*
X150464071Y-81299500D01*
X150464069Y-81299500D01*
X150335931Y-81299500D01*
X150335929Y-81299500D01*
X150210261Y-81324497D01*
X150210255Y-81324499D01*
X150091875Y-81373533D01*
X150091866Y-81373538D01*
X149985331Y-81444723D01*
X149985327Y-81444726D01*
X149894726Y-81535327D01*
X149894723Y-81535331D01*
X149823538Y-81641866D01*
X149823533Y-81641875D01*
X149774499Y-81760255D01*
X149774497Y-81760261D01*
X149749500Y-81885928D01*
X149749500Y-81885931D01*
X149749500Y-82014069D01*
X149749500Y-82014071D01*
X149749499Y-82014071D01*
X149774497Y-82139738D01*
X149774499Y-82139744D01*
X149823533Y-82258124D01*
X149823538Y-82258133D01*
X149894722Y-82364667D01*
X149894723Y-82364668D01*
X149894724Y-82364669D01*
X149950682Y-82420627D01*
X149965388Y-82447558D01*
X149981977Y-82473372D01*
X149982868Y-82479571D01*
X149984166Y-82481948D01*
X149987000Y-82508307D01*
X149987000Y-82700500D01*
X149967315Y-82767539D01*
X149914511Y-82813294D01*
X149863001Y-82824500D01*
X149630143Y-82824500D01*
X149630117Y-82824502D01*
X149605012Y-82827413D01*
X149605008Y-82827415D01*
X149502235Y-82872793D01*
X149422794Y-82952234D01*
X149377415Y-83055006D01*
X149377415Y-83055008D01*
X149374500Y-83080131D01*
X145625499Y-83080131D01*
X145625499Y-83080130D01*
X145622586Y-83055012D01*
X145622585Y-83055010D01*
X145622585Y-83055009D01*
X145577206Y-82952235D01*
X145577205Y-82952234D01*
X145572565Y-82941724D01*
X145574976Y-82940659D01*
X145558500Y-82890105D01*
X145576201Y-82822515D01*
X145594761Y-82798775D01*
X145800474Y-82593063D01*
X145800475Y-82593062D01*
X145945716Y-82447820D01*
X146007034Y-82414338D01*
X146076726Y-82419322D01*
X146121074Y-82447823D01*
X146221774Y-82548523D01*
X146221778Y-82548526D01*
X146221780Y-82548528D01*
X146341874Y-82609719D01*
X146341876Y-82609719D01*
X146341878Y-82609720D01*
X146441507Y-82625500D01*
X146441512Y-82625500D01*
X146958493Y-82625500D01*
X147058121Y-82609720D01*
X147058121Y-82609719D01*
X147058126Y-82609719D01*
X147178220Y-82548528D01*
X147197173Y-82529574D01*
X147258494Y-82496090D01*
X147328185Y-82501073D01*
X147384120Y-82542944D01*
X147390392Y-82552159D01*
X147452424Y-82652728D01*
X147452427Y-82652732D01*
X147572267Y-82772572D01*
X147572271Y-82772575D01*
X147716507Y-82861542D01*
X147716518Y-82861547D01*
X147877393Y-82914855D01*
X147976683Y-82924999D01*
X148500000Y-82924999D01*
X148523308Y-82924999D01*
X148523322Y-82924998D01*
X148622607Y-82914855D01*
X148783481Y-82861547D01*
X148783492Y-82861542D01*
X148927728Y-82772575D01*
X148927732Y-82772572D01*
X149047572Y-82652732D01*
X149047575Y-82652728D01*
X149136542Y-82508492D01*
X149136547Y-82508481D01*
X149189855Y-82347606D01*
X149199999Y-82248322D01*
X149200000Y-82248309D01*
X149200000Y-82200000D01*
X148500000Y-82200000D01*
X148500000Y-82924999D01*
X147976683Y-82924999D01*
X148000000Y-82924998D01*
X148000000Y-81700000D01*
X148500000Y-81700000D01*
X149199999Y-81700000D01*
X149199999Y-81651692D01*
X149199998Y-81651677D01*
X149189855Y-81552392D01*
X149136547Y-81391518D01*
X149136542Y-81391507D01*
X149047575Y-81247271D01*
X149047572Y-81247267D01*
X148927732Y-81127427D01*
X148927728Y-81127424D01*
X148783492Y-81038457D01*
X148783481Y-81038452D01*
X148622606Y-80985144D01*
X148523322Y-80975000D01*
X148500000Y-80975000D01*
X148500000Y-81700000D01*
X148000000Y-81700000D01*
X148000000Y-80974999D01*
X147976693Y-80975000D01*
X147976674Y-80975001D01*
X147877392Y-80985144D01*
X147721165Y-81036912D01*
X147581674Y-81121624D01*
X147572267Y-81127427D01*
X147452426Y-81247268D01*
X147390392Y-81347841D01*
X147338444Y-81394565D01*
X147269481Y-81405786D01*
X147205399Y-81377943D01*
X147197173Y-81370424D01*
X147178225Y-81351476D01*
X147178221Y-81351473D01*
X147178220Y-81351472D01*
X147058126Y-81290281D01*
X147058124Y-81290280D01*
X147058121Y-81290279D01*
X146958493Y-81274500D01*
X146958488Y-81274500D01*
X146441512Y-81274500D01*
X146441507Y-81274500D01*
X146341878Y-81290279D01*
X146221778Y-81351473D01*
X146221774Y-81351476D01*
X146126476Y-81446774D01*
X146126471Y-81446781D01*
X146109984Y-81479139D01*
X146062010Y-81529934D01*
X145994188Y-81546729D01*
X145928054Y-81524191D01*
X145884603Y-81469476D01*
X145875500Y-81422843D01*
X145875500Y-80999271D01*
X145895185Y-80932232D01*
X145943203Y-80888787D01*
X146013342Y-80853050D01*
X146053382Y-80813010D01*
X146103050Y-80763343D01*
X146108786Y-80755448D01*
X146111059Y-80757100D01*
X146148546Y-80717409D01*
X146211057Y-80700500D01*
X146338943Y-80700500D01*
X146353545Y-80704787D01*
X146368751Y-80704136D01*
X146386389Y-80714431D01*
X146405982Y-80720185D01*
X146416879Y-80732229D01*
X146429093Y-80739359D01*
X146440698Y-80755822D01*
X146441214Y-80755448D01*
X146446950Y-80763343D01*
X146536652Y-80853045D01*
X146536654Y-80853046D01*
X146536658Y-80853050D01*
X146643459Y-80907468D01*
X146649698Y-80910647D01*
X146743475Y-80925499D01*
X146743481Y-80925500D01*
X147356518Y-80925499D01*
X147450304Y-80910646D01*
X147563342Y-80853050D01*
X147653050Y-80763342D01*
X147710646Y-80650304D01*
X147710646Y-80650302D01*
X147710647Y-80650301D01*
X147725499Y-80556524D01*
X147725500Y-80556519D01*
X147725499Y-80093482D01*
X147717646Y-80043895D01*
X147726602Y-79974603D01*
X147771599Y-79921152D01*
X147838351Y-79900513D01*
X147840120Y-79900500D01*
X149089229Y-79900500D01*
X149156268Y-79920185D01*
X149158091Y-79921379D01*
X149172402Y-79930941D01*
X149363580Y-80010130D01*
X149566530Y-80050499D01*
X149566534Y-80050500D01*
X149566535Y-80050500D01*
X149773466Y-80050500D01*
X149773467Y-80050499D01*
X149976420Y-80010130D01*
X150167598Y-79930941D01*
X150339655Y-79815977D01*
X150485977Y-79669655D01*
X150600941Y-79497598D01*
X150669165Y-79332889D01*
X150713004Y-79278488D01*
X150779298Y-79256423D01*
X150846998Y-79273702D01*
X150894609Y-79324839D01*
X150901656Y-79342026D01*
X150958904Y-79518216D01*
X151055375Y-79707550D01*
X151094728Y-79761716D01*
X151727036Y-79129407D01*
X151744075Y-79192993D01*
X151809901Y-79307007D01*
X151902993Y-79400099D01*
X152017007Y-79465925D01*
X152080590Y-79482962D01*
X151448282Y-80115269D01*
X151448282Y-80115270D01*
X151502449Y-80154624D01*
X151691782Y-80251095D01*
X151893870Y-80316757D01*
X152103754Y-80350000D01*
X152316246Y-80350000D01*
X152526127Y-80316757D01*
X152526130Y-80316757D01*
X152728217Y-80251095D01*
X152917554Y-80154622D01*
X152971716Y-80115270D01*
X152971717Y-80115270D01*
X152339408Y-79482962D01*
X152402993Y-79465925D01*
X152517007Y-79400099D01*
X152610099Y-79307007D01*
X152675925Y-79192993D01*
X152692962Y-79129409D01*
X153325270Y-79761717D01*
X153325270Y-79761716D01*
X153364622Y-79707554D01*
X153463306Y-79513879D01*
X153464321Y-79514396D01*
X153504779Y-79464192D01*
X153571073Y-79442127D01*
X153638772Y-79459406D01*
X153686383Y-79510542D01*
X153699500Y-79566048D01*
X153699500Y-79869752D01*
X153711131Y-79928229D01*
X153711132Y-79928230D01*
X153755447Y-79994552D01*
X153821769Y-80038867D01*
X153821770Y-80038868D01*
X153880247Y-80050499D01*
X153880250Y-80050500D01*
X153880252Y-80050500D01*
X155619750Y-80050500D01*
X155619751Y-80050499D01*
X155634568Y-80047552D01*
X155678229Y-80038868D01*
X155678229Y-80038867D01*
X155678231Y-80038867D01*
X155744552Y-79994552D01*
X155788867Y-79928231D01*
X155788867Y-79928229D01*
X155788868Y-79928229D01*
X155800499Y-79869752D01*
X155800500Y-79869750D01*
X155800500Y-78130249D01*
X155800499Y-78130247D01*
X155788868Y-78071770D01*
X155788867Y-78071769D01*
X155744552Y-78005447D01*
X155678230Y-77961132D01*
X155678229Y-77961131D01*
X155619752Y-77949500D01*
X155619748Y-77949500D01*
X154281899Y-77949500D01*
X154214860Y-77929815D01*
X154194218Y-77913181D01*
X153754563Y-77473526D01*
X153754562Y-77473525D01*
X153668938Y-77424090D01*
X153621186Y-77411295D01*
X153621184Y-77411294D01*
X153621182Y-77411293D01*
X153573436Y-77398500D01*
X153573435Y-77398500D01*
X151199073Y-77398500D01*
X151132034Y-77378815D01*
X151111392Y-77362181D01*
X149580001Y-75830790D01*
X149546516Y-75769467D01*
X149551500Y-75699775D01*
X149593372Y-75643842D01*
X149598770Y-75640021D01*
X149679655Y-75585977D01*
X149825977Y-75439655D01*
X149940941Y-75267598D01*
X150020130Y-75076420D01*
X150060500Y-74873465D01*
X150060500Y-74666535D01*
X150060499Y-74666530D01*
X150499500Y-74666530D01*
X150499500Y-74873469D01*
X150539868Y-75076412D01*
X150539870Y-75076420D01*
X150605939Y-75235925D01*
X150619059Y-75267598D01*
X150633668Y-75289462D01*
X150734024Y-75439657D01*
X150880342Y-75585975D01*
X150880345Y-75585977D01*
X151052402Y-75700941D01*
X151243580Y-75780130D01*
X151367681Y-75804815D01*
X151446530Y-75820499D01*
X151446534Y-75820500D01*
X151446535Y-75820500D01*
X151653466Y-75820500D01*
X151653467Y-75820499D01*
X151856420Y-75780130D01*
X152047598Y-75700941D01*
X152219655Y-75585977D01*
X152365977Y-75439655D01*
X152480941Y-75267598D01*
X152560130Y-75076420D01*
X152600500Y-74873465D01*
X152600500Y-74666535D01*
X152600499Y-74666530D01*
X153039500Y-74666530D01*
X153039500Y-74873469D01*
X153079868Y-75076412D01*
X153079870Y-75076420D01*
X153145939Y-75235925D01*
X153159059Y-75267598D01*
X153173668Y-75289462D01*
X153274024Y-75439657D01*
X153420342Y-75585975D01*
X153420345Y-75585977D01*
X153592402Y-75700941D01*
X153783580Y-75780130D01*
X153907681Y-75804815D01*
X153986530Y-75820499D01*
X153986534Y-75820500D01*
X153986535Y-75820500D01*
X154193466Y-75820500D01*
X154193467Y-75820499D01*
X154396420Y-75780130D01*
X154587598Y-75700941D01*
X154759655Y-75585977D01*
X154905977Y-75439655D01*
X155020941Y-75267598D01*
X155089165Y-75102889D01*
X155133004Y-75048488D01*
X155199298Y-75026423D01*
X155266998Y-75043702D01*
X155314609Y-75094839D01*
X155321656Y-75112026D01*
X155378904Y-75288216D01*
X155475379Y-75477557D01*
X155600272Y-75649459D01*
X155600276Y-75649464D01*
X155750535Y-75799723D01*
X155750540Y-75799727D01*
X155922442Y-75924620D01*
X156111782Y-76021095D01*
X156313871Y-76086757D01*
X156380000Y-76097231D01*
X156380000Y-75203012D01*
X156437007Y-75235925D01*
X156564174Y-75270000D01*
X156695826Y-75270000D01*
X156822993Y-75235925D01*
X156880000Y-75203012D01*
X156880000Y-76097231D01*
X156946126Y-76086757D01*
X156946129Y-76086757D01*
X157148217Y-76021095D01*
X157337557Y-75924620D01*
X157509459Y-75799727D01*
X157509464Y-75799723D01*
X157659723Y-75649464D01*
X157659727Y-75649459D01*
X157784620Y-75477557D01*
X157881095Y-75288217D01*
X157946757Y-75086129D01*
X157946757Y-75086126D01*
X157957231Y-75020000D01*
X157063012Y-75020000D01*
X157095925Y-74962993D01*
X157130000Y-74835826D01*
X157130000Y-74704174D01*
X157095925Y-74577007D01*
X157063012Y-74520000D01*
X157957231Y-74520000D01*
X157946757Y-74453873D01*
X157946757Y-74453870D01*
X157881095Y-74251782D01*
X157784620Y-74062442D01*
X157659727Y-73890540D01*
X157659723Y-73890535D01*
X157509464Y-73740276D01*
X157509459Y-73740272D01*
X157337557Y-73615379D01*
X157148218Y-73518905D01*
X157110877Y-73506772D01*
X157110877Y-73506771D01*
X156972026Y-73461656D01*
X156914350Y-73422218D01*
X156902304Y-73393713D01*
X160149500Y-73393713D01*
X160149500Y-73606287D01*
X160158118Y-73660700D01*
X160181835Y-73810444D01*
X160182754Y-73816243D01*
X160235420Y-73978333D01*
X160248444Y-74018414D01*
X160344951Y-74207820D01*
X160469890Y-74379786D01*
X160620213Y-74530109D01*
X160792179Y-74655048D01*
X160792181Y-74655049D01*
X160792184Y-74655051D01*
X160981588Y-74751557D01*
X161183757Y-74817246D01*
X161393713Y-74850500D01*
X161393714Y-74850500D01*
X161606286Y-74850500D01*
X161606287Y-74850500D01*
X161816243Y-74817246D01*
X162018412Y-74751557D01*
X162207816Y-74655051D01*
X162274498Y-74606604D01*
X162379786Y-74530109D01*
X162379788Y-74530106D01*
X162379792Y-74530104D01*
X162530104Y-74379792D01*
X162530106Y-74379788D01*
X162530109Y-74379786D01*
X162655048Y-74207820D01*
X162655047Y-74207820D01*
X162655051Y-74207816D01*
X162751557Y-74018412D01*
X162817246Y-73816243D01*
X162850500Y-73606287D01*
X162850500Y-73393713D01*
X162817246Y-73183757D01*
X162751557Y-72981588D01*
X162655051Y-72792184D01*
X162655049Y-72792181D01*
X162655048Y-72792179D01*
X162530109Y-72620213D01*
X162379786Y-72469890D01*
X162207820Y-72344951D01*
X162018414Y-72248444D01*
X162018413Y-72248443D01*
X162018412Y-72248443D01*
X161816243Y-72182754D01*
X161816241Y-72182753D01*
X161816240Y-72182753D01*
X161654957Y-72157208D01*
X161606287Y-72149500D01*
X161393713Y-72149500D01*
X161345042Y-72157208D01*
X161183760Y-72182753D01*
X160981585Y-72248444D01*
X160792179Y-72344951D01*
X160620213Y-72469890D01*
X160469890Y-72620213D01*
X160344951Y-72792179D01*
X160248444Y-72981585D01*
X160182753Y-73183760D01*
X160173287Y-73243526D01*
X160149500Y-73393713D01*
X156902304Y-73393713D01*
X156887152Y-73357860D01*
X156899067Y-73289013D01*
X156946311Y-73237538D01*
X156962882Y-73229168D01*
X157127598Y-73160941D01*
X157299655Y-73045977D01*
X157445977Y-72899655D01*
X157560941Y-72727598D01*
X157640130Y-72536420D01*
X157680500Y-72333465D01*
X157680500Y-72126535D01*
X157640130Y-71923580D01*
X157560941Y-71732402D01*
X157445977Y-71560345D01*
X157445975Y-71560342D01*
X157299657Y-71414024D01*
X157183332Y-71336299D01*
X157127598Y-71299059D01*
X156936420Y-71219870D01*
X156936412Y-71219868D01*
X156733469Y-71179500D01*
X156733465Y-71179500D01*
X156526535Y-71179500D01*
X156526530Y-71179500D01*
X156323587Y-71219868D01*
X156323579Y-71219870D01*
X156132403Y-71299058D01*
X155960342Y-71414024D01*
X155814024Y-71560342D01*
X155699058Y-71732403D01*
X155619870Y-71923579D01*
X155619868Y-71923587D01*
X155579500Y-72126530D01*
X155579500Y-72333469D01*
X155619868Y-72536412D01*
X155619870Y-72536420D01*
X155685939Y-72695925D01*
X155699059Y-72727598D01*
X155712836Y-72748217D01*
X155814024Y-72899657D01*
X155960342Y-73045975D01*
X156132405Y-73160943D01*
X156235043Y-73203456D01*
X156297108Y-73229164D01*
X156351511Y-73273005D01*
X156373576Y-73339299D01*
X156356297Y-73406998D01*
X156305160Y-73454609D01*
X156287974Y-73461656D01*
X156111781Y-73518905D01*
X155922442Y-73615379D01*
X155750540Y-73740272D01*
X155750535Y-73740276D01*
X155600276Y-73890535D01*
X155600272Y-73890540D01*
X155475379Y-74062442D01*
X155378905Y-74251781D01*
X155321656Y-74427974D01*
X155282218Y-74485649D01*
X155217859Y-74512847D01*
X155149013Y-74500932D01*
X155097537Y-74453688D01*
X155089164Y-74437107D01*
X155081260Y-74418026D01*
X155061327Y-74369901D01*
X155020943Y-74272405D01*
X154905975Y-74100342D01*
X154759657Y-73954024D01*
X154591655Y-73841770D01*
X154587598Y-73839059D01*
X154587593Y-73839057D01*
X154396420Y-73759870D01*
X154396412Y-73759868D01*
X154193469Y-73719500D01*
X154193465Y-73719500D01*
X153986535Y-73719500D01*
X153986530Y-73719500D01*
X153783587Y-73759868D01*
X153783579Y-73759870D01*
X153592403Y-73839058D01*
X153420342Y-73954024D01*
X153274024Y-74100342D01*
X153159058Y-74272403D01*
X153079870Y-74463579D01*
X153079868Y-74463587D01*
X153039500Y-74666530D01*
X152600499Y-74666530D01*
X152560130Y-74463580D01*
X152480941Y-74272402D01*
X152365977Y-74100345D01*
X152365975Y-74100342D01*
X152219657Y-73954024D01*
X152051655Y-73841770D01*
X152047598Y-73839059D01*
X152047593Y-73839057D01*
X151856420Y-73759870D01*
X151856412Y-73759868D01*
X151653469Y-73719500D01*
X151653465Y-73719500D01*
X151446535Y-73719500D01*
X151446530Y-73719500D01*
X151243587Y-73759868D01*
X151243579Y-73759870D01*
X151052403Y-73839058D01*
X150880342Y-73954024D01*
X150734024Y-74100342D01*
X150619058Y-74272403D01*
X150539870Y-74463579D01*
X150539868Y-74463587D01*
X150499500Y-74666530D01*
X150060499Y-74666530D01*
X150020130Y-74463580D01*
X149940941Y-74272402D01*
X149825977Y-74100345D01*
X149825975Y-74100342D01*
X149679657Y-73954024D01*
X149511655Y-73841770D01*
X149507598Y-73839059D01*
X149507593Y-73839057D01*
X149438516Y-73810444D01*
X149342890Y-73770834D01*
X149288488Y-73726994D01*
X149266423Y-73660700D01*
X149283702Y-73593001D01*
X149334839Y-73545390D01*
X149352026Y-73538343D01*
X149528217Y-73481095D01*
X149717557Y-73384620D01*
X149889459Y-73259727D01*
X149889464Y-73259723D01*
X150039723Y-73109464D01*
X150039727Y-73109459D01*
X150164620Y-72937557D01*
X150261095Y-72748217D01*
X150318343Y-72572026D01*
X150357780Y-72514351D01*
X150422139Y-72487152D01*
X150490985Y-72499066D01*
X150542461Y-72546310D01*
X150550833Y-72562887D01*
X150578673Y-72630099D01*
X150605939Y-72695925D01*
X150619059Y-72727598D01*
X150632836Y-72748217D01*
X150734024Y-72899657D01*
X150880342Y-73045975D01*
X150880345Y-73045977D01*
X151052402Y-73160941D01*
X151243580Y-73240130D01*
X151408855Y-73273005D01*
X151446530Y-73280499D01*
X151446534Y-73280500D01*
X151446535Y-73280500D01*
X151653466Y-73280500D01*
X151653467Y-73280499D01*
X151856420Y-73240130D01*
X152047598Y-73160941D01*
X152219655Y-73045977D01*
X152365977Y-72899655D01*
X152480941Y-72727598D01*
X152560130Y-72536420D01*
X152600500Y-72333465D01*
X152600500Y-72126535D01*
X152600499Y-72126530D01*
X153039500Y-72126530D01*
X153039500Y-72333469D01*
X153079868Y-72536412D01*
X153079870Y-72536420D01*
X153145939Y-72695925D01*
X153159059Y-72727598D01*
X153172836Y-72748217D01*
X153274024Y-72899657D01*
X153420342Y-73045975D01*
X153420345Y-73045977D01*
X153592402Y-73160941D01*
X153783580Y-73240130D01*
X153948855Y-73273005D01*
X153986530Y-73280499D01*
X153986534Y-73280500D01*
X153986535Y-73280500D01*
X154193466Y-73280500D01*
X154193467Y-73280499D01*
X154396420Y-73240130D01*
X154587598Y-73160941D01*
X154759655Y-73045977D01*
X154905977Y-72899655D01*
X155020941Y-72727598D01*
X155100130Y-72536420D01*
X155140500Y-72333465D01*
X155140500Y-72126535D01*
X155100130Y-71923580D01*
X155020941Y-71732402D01*
X154905977Y-71560345D01*
X154905975Y-71560342D01*
X154759657Y-71414024D01*
X154643332Y-71336299D01*
X154587598Y-71299059D01*
X154396420Y-71219870D01*
X154396412Y-71219868D01*
X154193469Y-71179500D01*
X154193465Y-71179500D01*
X153986535Y-71179500D01*
X153986530Y-71179500D01*
X153783587Y-71219868D01*
X153783579Y-71219870D01*
X153592403Y-71299058D01*
X153420342Y-71414024D01*
X153274024Y-71560342D01*
X153159058Y-71732403D01*
X153079870Y-71923579D01*
X153079868Y-71923587D01*
X153039500Y-72126530D01*
X152600499Y-72126530D01*
X152560130Y-71923580D01*
X152480941Y-71732402D01*
X152365977Y-71560345D01*
X152365975Y-71560342D01*
X152219657Y-71414024D01*
X152103332Y-71336299D01*
X152047598Y-71299059D01*
X151856420Y-71219870D01*
X151856412Y-71219868D01*
X151653469Y-71179500D01*
X151653465Y-71179500D01*
X151446535Y-71179500D01*
X151446530Y-71179500D01*
X151243587Y-71219868D01*
X151243579Y-71219870D01*
X151052403Y-71299058D01*
X150880342Y-71414024D01*
X150734024Y-71560342D01*
X150619057Y-71732403D01*
X150550835Y-71897108D01*
X150506994Y-71951511D01*
X150440700Y-71973576D01*
X150373000Y-71956297D01*
X150325390Y-71905159D01*
X150318343Y-71887973D01*
X150261095Y-71711782D01*
X150164620Y-71522442D01*
X150039727Y-71350540D01*
X150039723Y-71350535D01*
X149889464Y-71200276D01*
X149889459Y-71200272D01*
X149717557Y-71075379D01*
X149528215Y-70978903D01*
X149326124Y-70913241D01*
X149260000Y-70902768D01*
X149260000Y-71796988D01*
X149202993Y-71764075D01*
X149075826Y-71730000D01*
X148944174Y-71730000D01*
X148817007Y-71764075D01*
X148760000Y-71796988D01*
X148760000Y-70902768D01*
X148759999Y-70902768D01*
X148693875Y-70913241D01*
X148491784Y-70978903D01*
X148302442Y-71075379D01*
X148130540Y-71200272D01*
X148130535Y-71200276D01*
X147980276Y-71350535D01*
X147980272Y-71350540D01*
X147855379Y-71522442D01*
X147758905Y-71711781D01*
X147701656Y-71887974D01*
X147662218Y-71945649D01*
X147597859Y-71972847D01*
X147529013Y-71960932D01*
X147477537Y-71913688D01*
X147469164Y-71897107D01*
X147400943Y-71732405D01*
X147285975Y-71560342D01*
X147139657Y-71414024D01*
X147023332Y-71336299D01*
X146967598Y-71299059D01*
X146776420Y-71219870D01*
X146776412Y-71219868D01*
X146573469Y-71179500D01*
X146573465Y-71179500D01*
X146366535Y-71179500D01*
X146366530Y-71179500D01*
X146163587Y-71219868D01*
X146163579Y-71219870D01*
X145972403Y-71299058D01*
X145800342Y-71414024D01*
X145654024Y-71560342D01*
X145539057Y-71732403D01*
X145470835Y-71897108D01*
X145426994Y-71951511D01*
X145360700Y-71973576D01*
X145293000Y-71956297D01*
X145245390Y-71905159D01*
X145238343Y-71887973D01*
X145181095Y-71711782D01*
X145084620Y-71522442D01*
X144959727Y-71350540D01*
X144959723Y-71350535D01*
X144809464Y-71200276D01*
X144809459Y-71200272D01*
X144637557Y-71075379D01*
X144448215Y-70978903D01*
X144246124Y-70913241D01*
X144180000Y-70902768D01*
X144180000Y-71796988D01*
X144122993Y-71764075D01*
X143995826Y-71730000D01*
X143864174Y-71730000D01*
X143737007Y-71764075D01*
X143680000Y-71796988D01*
X143680000Y-70902768D01*
X143679999Y-70902768D01*
X143613875Y-70913241D01*
X143411784Y-70978903D01*
X143222442Y-71075379D01*
X143050540Y-71200272D01*
X143050535Y-71200276D01*
X142900276Y-71350535D01*
X142900272Y-71350540D01*
X142775379Y-71522442D01*
X142678905Y-71711781D01*
X142621656Y-71887974D01*
X142582218Y-71945649D01*
X142517859Y-71972847D01*
X142449013Y-71960932D01*
X142397537Y-71913688D01*
X142389164Y-71897107D01*
X142320943Y-71732405D01*
X142205975Y-71560342D01*
X142059657Y-71414024D01*
X141943332Y-71336299D01*
X141887598Y-71299059D01*
X141696420Y-71219870D01*
X141696412Y-71219868D01*
X141493469Y-71179500D01*
X141493465Y-71179500D01*
X141286535Y-71179500D01*
X141286530Y-71179500D01*
X141083587Y-71219868D01*
X141083579Y-71219870D01*
X140892403Y-71299058D01*
X140720342Y-71414024D01*
X140574024Y-71560342D01*
X140459058Y-71732403D01*
X140379870Y-71923579D01*
X140379868Y-71923587D01*
X140339500Y-72126530D01*
X140339500Y-72333469D01*
X140379868Y-72536412D01*
X140379870Y-72536420D01*
X140445939Y-72695925D01*
X140459059Y-72727598D01*
X140472836Y-72748217D01*
X140574024Y-72899657D01*
X140720342Y-73045975D01*
X140720345Y-73045977D01*
X140892402Y-73160941D01*
X141083580Y-73240130D01*
X141248855Y-73273005D01*
X141286530Y-73280499D01*
X141286534Y-73280500D01*
X141286535Y-73280500D01*
X141493466Y-73280500D01*
X141493467Y-73280499D01*
X141696420Y-73240130D01*
X141887598Y-73160941D01*
X142059655Y-73045977D01*
X142205977Y-72899655D01*
X142320941Y-72727598D01*
X142389165Y-72562889D01*
X142433004Y-72508488D01*
X142499298Y-72486423D01*
X142566998Y-72503702D01*
X142614609Y-72554839D01*
X142621656Y-72572026D01*
X142678904Y-72748216D01*
X142775379Y-72937557D01*
X142900272Y-73109459D01*
X142900276Y-73109464D01*
X143050535Y-73259723D01*
X143050540Y-73259727D01*
X143222442Y-73384620D01*
X143411782Y-73481095D01*
X143587973Y-73538343D01*
X143645648Y-73577780D01*
X143672847Y-73642139D01*
X143660932Y-73710985D01*
X143613688Y-73762461D01*
X143597108Y-73770835D01*
X143432403Y-73839057D01*
X143260342Y-73954024D01*
X143114024Y-74100342D01*
X142999058Y-74272403D01*
X142919870Y-74463579D01*
X142919868Y-74463587D01*
X142879500Y-74666530D01*
X142879500Y-74873469D01*
X142919868Y-75076412D01*
X142919870Y-75076420D01*
X142985939Y-75235925D01*
X142999059Y-75267598D01*
X143013668Y-75289462D01*
X143114024Y-75439657D01*
X143260342Y-75585975D01*
X143260345Y-75585977D01*
X143432402Y-75700941D01*
X143623580Y-75780130D01*
X143747681Y-75804815D01*
X143826530Y-75820499D01*
X143826534Y-75820500D01*
X143826535Y-75820500D01*
X144033466Y-75820500D01*
X144033467Y-75820499D01*
X144236420Y-75780130D01*
X144427598Y-75700941D01*
X144599655Y-75585977D01*
X144745977Y-75439655D01*
X144860941Y-75267598D01*
X144940130Y-75076420D01*
X144980500Y-74873465D01*
X144980500Y-74666535D01*
X144980499Y-74666530D01*
X145419500Y-74666530D01*
X145419500Y-74873469D01*
X145459868Y-75076412D01*
X145459870Y-75076420D01*
X145525939Y-75235925D01*
X145539059Y-75267598D01*
X145553668Y-75289462D01*
X145654024Y-75439657D01*
X145800342Y-75585975D01*
X145800345Y-75585977D01*
X145972402Y-75700941D01*
X146163580Y-75780130D01*
X146287681Y-75804815D01*
X146366530Y-75820499D01*
X146366534Y-75820500D01*
X146366535Y-75820500D01*
X146573466Y-75820500D01*
X146573467Y-75820499D01*
X146776420Y-75780130D01*
X146967598Y-75700941D01*
X147139655Y-75585977D01*
X147285977Y-75439655D01*
X147400941Y-75267598D01*
X147480130Y-75076420D01*
X147520500Y-74873465D01*
X147520500Y-74666535D01*
X147480130Y-74463580D01*
X147400941Y-74272402D01*
X147285977Y-74100345D01*
X147285975Y-74100342D01*
X147139657Y-73954024D01*
X146971655Y-73841770D01*
X146967598Y-73839059D01*
X146967593Y-73839057D01*
X146776420Y-73759870D01*
X146776412Y-73759868D01*
X146573469Y-73719500D01*
X146573465Y-73719500D01*
X146366535Y-73719500D01*
X146366530Y-73719500D01*
X146163587Y-73759868D01*
X146163579Y-73759870D01*
X145972403Y-73839058D01*
X145800342Y-73954024D01*
X145654024Y-74100342D01*
X145539058Y-74272403D01*
X145459870Y-74463579D01*
X145459868Y-74463587D01*
X145419500Y-74666530D01*
X144980499Y-74666530D01*
X144940130Y-74463580D01*
X144860941Y-74272402D01*
X144745977Y-74100345D01*
X144745975Y-74100342D01*
X144599657Y-73954024D01*
X144431655Y-73841770D01*
X144427598Y-73839059D01*
X144427593Y-73839057D01*
X144358516Y-73810444D01*
X144262890Y-73770834D01*
X144208488Y-73726994D01*
X144186423Y-73660700D01*
X144203702Y-73593001D01*
X144254839Y-73545390D01*
X144272026Y-73538343D01*
X144448217Y-73481095D01*
X144637557Y-73384620D01*
X144809459Y-73259727D01*
X144809464Y-73259723D01*
X144959723Y-73109464D01*
X144959727Y-73109459D01*
X145084620Y-72937557D01*
X145181095Y-72748217D01*
X145238343Y-72572026D01*
X145277780Y-72514351D01*
X145342139Y-72487152D01*
X145410985Y-72499066D01*
X145462461Y-72546310D01*
X145470833Y-72562887D01*
X145498673Y-72630099D01*
X145525939Y-72695925D01*
X145539059Y-72727598D01*
X145552836Y-72748217D01*
X145654024Y-72899657D01*
X145800342Y-73045975D01*
X145800345Y-73045977D01*
X145972402Y-73160941D01*
X146163580Y-73240130D01*
X146328855Y-73273005D01*
X146366530Y-73280499D01*
X146366534Y-73280500D01*
X146366535Y-73280500D01*
X146573466Y-73280500D01*
X146573467Y-73280499D01*
X146776420Y-73240130D01*
X146967598Y-73160941D01*
X147139655Y-73045977D01*
X147285977Y-72899655D01*
X147400941Y-72727598D01*
X147469165Y-72562889D01*
X147513004Y-72508488D01*
X147579298Y-72486423D01*
X147646998Y-72503702D01*
X147694609Y-72554839D01*
X147701656Y-72572026D01*
X147758904Y-72748216D01*
X147855379Y-72937557D01*
X147980272Y-73109459D01*
X147980276Y-73109464D01*
X148130535Y-73259723D01*
X148130540Y-73259727D01*
X148302442Y-73384620D01*
X148491782Y-73481095D01*
X148667973Y-73538343D01*
X148725648Y-73577780D01*
X148752847Y-73642139D01*
X148740932Y-73710985D01*
X148693688Y-73762461D01*
X148677108Y-73770835D01*
X148512403Y-73839057D01*
X148340342Y-73954024D01*
X148194024Y-74100342D01*
X148079058Y-74272403D01*
X147999870Y-74463579D01*
X147999868Y-74463587D01*
X147959500Y-74666530D01*
X147959500Y-74873469D01*
X147999868Y-75076412D01*
X147999870Y-75076420D01*
X148065939Y-75235925D01*
X148079059Y-75267598D01*
X148093668Y-75289462D01*
X148194024Y-75439657D01*
X148340342Y-75585975D01*
X148340345Y-75585977D01*
X148512402Y-75700941D01*
X148557955Y-75719809D01*
X148612355Y-75763648D01*
X148634421Y-75829942D01*
X148634500Y-75834369D01*
X148634500Y-75841261D01*
X148660090Y-75936764D01*
X148660091Y-75936765D01*
X148660091Y-75936766D01*
X148662835Y-75941518D01*
X148709525Y-76022388D01*
X148709526Y-76022389D01*
X150691699Y-78004562D01*
X150761612Y-78074475D01*
X150847236Y-78123910D01*
X150867434Y-78129322D01*
X150942738Y-78149500D01*
X150942739Y-78149500D01*
X150946254Y-78149500D01*
X150957175Y-78152297D01*
X150981064Y-78166497D01*
X151006489Y-78177744D01*
X151010685Y-78184105D01*
X151017235Y-78187999D01*
X151029656Y-78212864D01*
X151044963Y-78236068D01*
X151045053Y-78243686D01*
X151048459Y-78250503D01*
X151045465Y-78278135D01*
X151045797Y-78305932D01*
X151041170Y-78317773D01*
X151040933Y-78319967D01*
X151039732Y-78321453D01*
X151036896Y-78328715D01*
X150958905Y-78481781D01*
X150901656Y-78657974D01*
X150862218Y-78715649D01*
X150797859Y-78742847D01*
X150729013Y-78730932D01*
X150677537Y-78683688D01*
X150669164Y-78667107D01*
X150668155Y-78664672D01*
X150624026Y-78558133D01*
X150600943Y-78502405D01*
X150485975Y-78330342D01*
X150339657Y-78184024D01*
X150233916Y-78113371D01*
X150167598Y-78069059D01*
X150146343Y-78060255D01*
X149976420Y-77989870D01*
X149976412Y-77989868D01*
X149773469Y-77949500D01*
X149773465Y-77949500D01*
X149566535Y-77949500D01*
X149566530Y-77949500D01*
X149363587Y-77989868D01*
X149363579Y-77989870D01*
X149172403Y-78069058D01*
X149000342Y-78184024D01*
X148854024Y-78330342D01*
X148739058Y-78502403D01*
X148659870Y-78693579D01*
X148659868Y-78693587D01*
X148619500Y-78896530D01*
X148619500Y-78975500D01*
X148599815Y-79042539D01*
X148547011Y-79088294D01*
X148495500Y-79099500D01*
X147840121Y-79099500D01*
X147773082Y-79079815D01*
X147727327Y-79027011D01*
X147717383Y-78957853D01*
X147717648Y-78956103D01*
X147725499Y-78906525D01*
X147725500Y-78906519D01*
X147725499Y-78443482D01*
X147710646Y-78349696D01*
X147653050Y-78236658D01*
X147653046Y-78236654D01*
X147653045Y-78236652D01*
X147563347Y-78146954D01*
X147563343Y-78146951D01*
X147563342Y-78146950D01*
X147549168Y-78139728D01*
X147493204Y-78111212D01*
X147442408Y-78063237D01*
X147427535Y-78023100D01*
X147425500Y-78012005D01*
X147425500Y-78000565D01*
X147420140Y-77980563D01*
X147409773Y-77941873D01*
X147404135Y-77920829D01*
X147399910Y-77905062D01*
X147367269Y-77848526D01*
X147367268Y-77848525D01*
X147359649Y-77835327D01*
X147350475Y-77819437D01*
X146936819Y-77405781D01*
X146903334Y-77344458D01*
X146900500Y-77318100D01*
X146900500Y-77185928D01*
X146875502Y-77060261D01*
X146875501Y-77060260D01*
X146875501Y-77060256D01*
X146826465Y-76941873D01*
X146826464Y-76941872D01*
X146826461Y-76941866D01*
X146755276Y-76835331D01*
X146755273Y-76835327D01*
X146664672Y-76744726D01*
X146664668Y-76744723D01*
X146558133Y-76673538D01*
X146558124Y-76673533D01*
X146439744Y-76624499D01*
X146439738Y-76624497D01*
X146314071Y-76599500D01*
X146314069Y-76599500D01*
X146185931Y-76599500D01*
X146185929Y-76599500D01*
X146060261Y-76624497D01*
X146060255Y-76624499D01*
X145941875Y-76673533D01*
X145941866Y-76673538D01*
X145835331Y-76744723D01*
X145835327Y-76744726D01*
X145744726Y-76835327D01*
X145744723Y-76835331D01*
X145673538Y-76941866D01*
X145673533Y-76941875D01*
X145624499Y-77060255D01*
X145624497Y-77060261D01*
X145599500Y-77185928D01*
X145599500Y-77185931D01*
X145599500Y-77314069D01*
X145599500Y-77314071D01*
X145599499Y-77314071D01*
X145624497Y-77439738D01*
X145624499Y-77439744D01*
X145673533Y-77558124D01*
X145673538Y-77558133D01*
X145744723Y-77664668D01*
X145744726Y-77664672D01*
X145835327Y-77755273D01*
X145835331Y-77755276D01*
X145941866Y-77826461D01*
X145941872Y-77826464D01*
X145941873Y-77826465D01*
X146060256Y-77875501D01*
X146060260Y-77875501D01*
X146060261Y-77875502D01*
X146185928Y-77900500D01*
X146318100Y-77900500D01*
X146347540Y-77909144D01*
X146377527Y-77915668D01*
X146382542Y-77919422D01*
X146385139Y-77920185D01*
X146405781Y-77936819D01*
X146488603Y-78019641D01*
X146522088Y-78080964D01*
X146517104Y-78150656D01*
X146488604Y-78195002D01*
X146446954Y-78236652D01*
X146446949Y-78236659D01*
X146385483Y-78357291D01*
X146337508Y-78408086D01*
X146269687Y-78424881D01*
X146203553Y-78402343D01*
X146164514Y-78357290D01*
X146160646Y-78349699D01*
X146160646Y-78349696D01*
X146103050Y-78236658D01*
X146103048Y-78236656D01*
X146103045Y-78236652D01*
X146013347Y-78146954D01*
X146013344Y-78146952D01*
X146013342Y-78146950D01*
X145936517Y-78107805D01*
X145900301Y-78089352D01*
X145806524Y-78074500D01*
X145806519Y-78074500D01*
X145656899Y-78074500D01*
X145589860Y-78054815D01*
X145569218Y-78038181D01*
X145230563Y-77699526D01*
X145230562Y-77699525D01*
X145144938Y-77650090D01*
X145097186Y-77637295D01*
X145097184Y-77637294D01*
X145097182Y-77637293D01*
X145049436Y-77624500D01*
X145049435Y-77624500D01*
X144574500Y-77624500D01*
X144507461Y-77604815D01*
X144461706Y-77552011D01*
X144450500Y-77500500D01*
X144450500Y-76980249D01*
X144450499Y-76980247D01*
X144438868Y-76921770D01*
X144438867Y-76921769D01*
X144394552Y-76855447D01*
X144328230Y-76811132D01*
X144328229Y-76811131D01*
X144269752Y-76799500D01*
X144269748Y-76799500D01*
X142230252Y-76799500D01*
X142230247Y-76799500D01*
X142171770Y-76811131D01*
X142171769Y-76811132D01*
X142105447Y-76855447D01*
X142061132Y-76921769D01*
X142061131Y-76921770D01*
X142049500Y-76980247D01*
X142049500Y-77500500D01*
X142029815Y-77567539D01*
X141977011Y-77613294D01*
X141925500Y-77624500D01*
X141600564Y-77624500D01*
X141552812Y-77637295D01*
X141552811Y-77637294D01*
X141505063Y-77650089D01*
X141505062Y-77650089D01*
X141419435Y-77699527D01*
X140449179Y-78669782D01*
X140387856Y-78703267D01*
X140318164Y-78698283D01*
X140262231Y-78656411D01*
X140243567Y-78620419D01*
X140204755Y-78500970D01*
X140111859Y-78318650D01*
X140079474Y-78274077D01*
X140079474Y-78274076D01*
X139400000Y-78953553D01*
X139400000Y-78947339D01*
X139372741Y-78845606D01*
X139320080Y-78754394D01*
X139245606Y-78679920D01*
X139154394Y-78627259D01*
X139052661Y-78600000D01*
X139046446Y-78600000D01*
X139725922Y-77920524D01*
X139725921Y-77920523D01*
X139681359Y-77888147D01*
X139681350Y-77888141D01*
X139499031Y-77795244D01*
X139304417Y-77732009D01*
X139102317Y-77700000D01*
X138897683Y-77700000D01*
X138695582Y-77732009D01*
X138500968Y-77795244D01*
X138318644Y-77888143D01*
X138274077Y-77920523D01*
X138274077Y-77920524D01*
X138953554Y-78600000D01*
X138947339Y-78600000D01*
X138845606Y-78627259D01*
X138754394Y-78679920D01*
X138679920Y-78754394D01*
X138627259Y-78845606D01*
X138600000Y-78947339D01*
X138600000Y-78953553D01*
X137920524Y-78274077D01*
X137920523Y-78274077D01*
X137888143Y-78318644D01*
X137795244Y-78500968D01*
X137732009Y-78695582D01*
X137700000Y-78897682D01*
X134578237Y-78897682D01*
X134655051Y-78882402D01*
X134689744Y-78875501D01*
X134808127Y-78826465D01*
X134808194Y-78826420D01*
X134863130Y-78789714D01*
X134890953Y-78771122D01*
X134914669Y-78755276D01*
X135005276Y-78664669D01*
X135076465Y-78558127D01*
X135125501Y-78439744D01*
X135138280Y-78375500D01*
X135150500Y-78314071D01*
X135150500Y-78181900D01*
X135170185Y-78114861D01*
X135186819Y-78094219D01*
X135243091Y-78037947D01*
X135300475Y-77980563D01*
X135349911Y-77894937D01*
X135375500Y-77799436D01*
X135375500Y-77700564D01*
X135375500Y-77299500D01*
X135395185Y-77232461D01*
X135447989Y-77186706D01*
X135499500Y-77175500D01*
X136008493Y-77175500D01*
X136108121Y-77159720D01*
X136108121Y-77159719D01*
X136108126Y-77159719D01*
X136228220Y-77098528D01*
X136247173Y-77079574D01*
X136308494Y-77046090D01*
X136378185Y-77051073D01*
X136434120Y-77092944D01*
X136440392Y-77102159D01*
X136502424Y-77202728D01*
X136502427Y-77202732D01*
X136622267Y-77322572D01*
X136622271Y-77322575D01*
X136766507Y-77411542D01*
X136766518Y-77411547D01*
X136927393Y-77464855D01*
X137026683Y-77474999D01*
X137550000Y-77474999D01*
X137573308Y-77474999D01*
X137573322Y-77474998D01*
X137672607Y-77464855D01*
X137833481Y-77411547D01*
X137833492Y-77411542D01*
X137977728Y-77322575D01*
X137977732Y-77322572D01*
X138097572Y-77202732D01*
X138097575Y-77202728D01*
X138186542Y-77058492D01*
X138186547Y-77058481D01*
X138239855Y-76897606D01*
X138249999Y-76798322D01*
X138250000Y-76798309D01*
X138250000Y-76750000D01*
X137550000Y-76750000D01*
X137550000Y-77474999D01*
X137026683Y-77474999D01*
X137050000Y-77474998D01*
X137050000Y-75566994D01*
X137069685Y-75499955D01*
X137086319Y-75479313D01*
X137095163Y-75470469D01*
X137125977Y-75439655D01*
X137240941Y-75267598D01*
X137309165Y-75102889D01*
X137353004Y-75048488D01*
X137419298Y-75026423D01*
X137486998Y-75043702D01*
X137534609Y-75094839D01*
X137541656Y-75112026D01*
X137598905Y-75288219D01*
X137627686Y-75344704D01*
X137640583Y-75413373D01*
X137614307Y-75478114D01*
X137557201Y-75518372D01*
X137556514Y-75518485D01*
X137550000Y-75525000D01*
X137550000Y-76250000D01*
X138249999Y-76250000D01*
X138249999Y-76201692D01*
X138249998Y-76201682D01*
X138247452Y-76176760D01*
X138260220Y-76108067D01*
X138308100Y-76057182D01*
X138375890Y-76040260D01*
X138409129Y-76046225D01*
X138533874Y-76086758D01*
X138600000Y-76097231D01*
X138600000Y-75203012D01*
X138657007Y-75235925D01*
X138784174Y-75270000D01*
X138915826Y-75270000D01*
X139042993Y-75235925D01*
X139100000Y-75203012D01*
X139100000Y-76097231D01*
X139166126Y-76086757D01*
X139166129Y-76086757D01*
X139368217Y-76021095D01*
X139557557Y-75924620D01*
X139729459Y-75799727D01*
X139729464Y-75799723D01*
X139879723Y-75649464D01*
X139879727Y-75649459D01*
X140004620Y-75477557D01*
X140101095Y-75288217D01*
X140158343Y-75112026D01*
X140197780Y-75054351D01*
X140262139Y-75027152D01*
X140330985Y-75039066D01*
X140382461Y-75086310D01*
X140390833Y-75102887D01*
X140418673Y-75170099D01*
X140445939Y-75235925D01*
X140459059Y-75267598D01*
X140473668Y-75289462D01*
X140574024Y-75439657D01*
X140720342Y-75585975D01*
X140720345Y-75585977D01*
X140892402Y-75700941D01*
X141083580Y-75780130D01*
X141207681Y-75804815D01*
X141286530Y-75820499D01*
X141286534Y-75820500D01*
X141286535Y-75820500D01*
X141493466Y-75820500D01*
X141493467Y-75820499D01*
X141696420Y-75780130D01*
X141887598Y-75700941D01*
X142059655Y-75585977D01*
X142205977Y-75439655D01*
X142320941Y-75267598D01*
X142400130Y-75076420D01*
X142440500Y-74873465D01*
X142440500Y-74666535D01*
X142400130Y-74463580D01*
X142320941Y-74272402D01*
X142205977Y-74100345D01*
X142205975Y-74100342D01*
X142059657Y-73954024D01*
X141891655Y-73841770D01*
X141887598Y-73839059D01*
X141887593Y-73839057D01*
X141696420Y-73759870D01*
X141696412Y-73759868D01*
X141493469Y-73719500D01*
X141493465Y-73719500D01*
X141286535Y-73719500D01*
X141286530Y-73719500D01*
X141083587Y-73759868D01*
X141083579Y-73759870D01*
X140892403Y-73839058D01*
X140720342Y-73954024D01*
X140574024Y-74100342D01*
X140459057Y-74272403D01*
X140390835Y-74437108D01*
X140346994Y-74491511D01*
X140280700Y-74513576D01*
X140213000Y-74496297D01*
X140165390Y-74445159D01*
X140158343Y-74427973D01*
X140101095Y-74251782D01*
X140004620Y-74062442D01*
X139879727Y-73890540D01*
X139879723Y-73890535D01*
X139729464Y-73740276D01*
X139729459Y-73740272D01*
X139557557Y-73615379D01*
X139368216Y-73518904D01*
X139192026Y-73461656D01*
X139134350Y-73422218D01*
X139107152Y-73357860D01*
X139119067Y-73289013D01*
X139166311Y-73237538D01*
X139182882Y-73229168D01*
X139347598Y-73160941D01*
X139519655Y-73045977D01*
X139665977Y-72899655D01*
X139780941Y-72727598D01*
X139860130Y-72536420D01*
X139900500Y-72333465D01*
X139900500Y-72126535D01*
X139860130Y-71923580D01*
X139780941Y-71732402D01*
X139665977Y-71560345D01*
X139665975Y-71560342D01*
X139519657Y-71414024D01*
X139403332Y-71336299D01*
X139347598Y-71299059D01*
X139156420Y-71219870D01*
X139156412Y-71219868D01*
X138953469Y-71179500D01*
X138953465Y-71179500D01*
X138746535Y-71179500D01*
X138746530Y-71179500D01*
X138543587Y-71219868D01*
X138543579Y-71219870D01*
X138352403Y-71299058D01*
X138180342Y-71414024D01*
X138034024Y-71560342D01*
X137919058Y-71732403D01*
X137839870Y-71923579D01*
X137839868Y-71923587D01*
X137799500Y-72126530D01*
X137799500Y-72333469D01*
X137839868Y-72536412D01*
X137839870Y-72536420D01*
X137905939Y-72695925D01*
X137919059Y-72727598D01*
X137932836Y-72748217D01*
X138034024Y-72899657D01*
X138180342Y-73045975D01*
X138352405Y-73160943D01*
X138455043Y-73203456D01*
X138517108Y-73229164D01*
X138571511Y-73273005D01*
X138593576Y-73339299D01*
X138576297Y-73406998D01*
X138525160Y-73454609D01*
X138507974Y-73461656D01*
X138331781Y-73518905D01*
X138142442Y-73615379D01*
X137970540Y-73740272D01*
X137970535Y-73740276D01*
X137820276Y-73890535D01*
X137820272Y-73890540D01*
X137695379Y-74062442D01*
X137598905Y-74251781D01*
X137541656Y-74427974D01*
X137502218Y-74485649D01*
X137437859Y-74512847D01*
X137369013Y-74500932D01*
X137317537Y-74453688D01*
X137309164Y-74437107D01*
X137301260Y-74418026D01*
X137281327Y-74369901D01*
X137240943Y-74272405D01*
X137125975Y-74100342D01*
X136979657Y-73954024D01*
X136811655Y-73841770D01*
X136807598Y-73839059D01*
X136807593Y-73839057D01*
X136616420Y-73759870D01*
X136616412Y-73759868D01*
X136413469Y-73719500D01*
X136413465Y-73719500D01*
X136206535Y-73719500D01*
X136206530Y-73719500D01*
X136003587Y-73759868D01*
X136003579Y-73759870D01*
X135812403Y-73839058D01*
X135640342Y-73954024D01*
X135494024Y-74100342D01*
X135379058Y-74272403D01*
X135299870Y-74463579D01*
X135299868Y-74463587D01*
X135259500Y-74666530D01*
X135259500Y-74873469D01*
X135299868Y-75076412D01*
X135299870Y-75076420D01*
X135365939Y-75235925D01*
X135379059Y-75267598D01*
X135393668Y-75289462D01*
X135494024Y-75439657D01*
X135640341Y-75585974D01*
X135640345Y-75585977D01*
X135657437Y-75597398D01*
X135702242Y-75651011D01*
X135710949Y-75720336D01*
X135680794Y-75783363D01*
X135621351Y-75820082D01*
X135588546Y-75824500D01*
X135491507Y-75824500D01*
X135391878Y-75840279D01*
X135271778Y-75901473D01*
X135271774Y-75901476D01*
X135176476Y-75996774D01*
X135176469Y-75996783D01*
X135145892Y-76056795D01*
X135135443Y-76067857D01*
X135129121Y-76081703D01*
X135111939Y-76092744D01*
X135097918Y-76107591D01*
X135082238Y-76111832D01*
X135070343Y-76119477D01*
X135035408Y-76124500D01*
X134964592Y-76124500D01*
X134897553Y-76104815D01*
X134854108Y-76056795D01*
X134823530Y-75996783D01*
X134823523Y-75996774D01*
X134728225Y-75901476D01*
X134728221Y-75901473D01*
X134728220Y-75901472D01*
X134608126Y-75840281D01*
X134608124Y-75840280D01*
X134608121Y-75840279D01*
X134508493Y-75824500D01*
X134508488Y-75824500D01*
X134491454Y-75824500D01*
X134424415Y-75804815D01*
X134378660Y-75752011D01*
X134368716Y-75682853D01*
X134397741Y-75619297D01*
X134422563Y-75597398D01*
X134430441Y-75592133D01*
X134439655Y-75585977D01*
X134585977Y-75439655D01*
X134700941Y-75267598D01*
X134780130Y-75076420D01*
X134820500Y-74873465D01*
X134820500Y-74666535D01*
X134780130Y-74463580D01*
X134700941Y-74272402D01*
X134585977Y-74100345D01*
X134585975Y-74100342D01*
X134439657Y-73954024D01*
X134271655Y-73841770D01*
X134267598Y-73839059D01*
X134267593Y-73839057D01*
X134076420Y-73759870D01*
X134076412Y-73759868D01*
X133873469Y-73719500D01*
X133873465Y-73719500D01*
X133666535Y-73719500D01*
X133666530Y-73719500D01*
X133463587Y-73759868D01*
X133463579Y-73759870D01*
X133272403Y-73839058D01*
X133100342Y-73954024D01*
X132954024Y-74100342D01*
X132839058Y-74272403D01*
X132759870Y-74463579D01*
X132759868Y-74463587D01*
X132719500Y-74666530D01*
X132280499Y-74666530D01*
X132240130Y-74463580D01*
X132160941Y-74272402D01*
X132045977Y-74100345D01*
X132045975Y-74100342D01*
X131899657Y-73954024D01*
X131731655Y-73841770D01*
X131727598Y-73839059D01*
X131727593Y-73839057D01*
X131658516Y-73810444D01*
X131562890Y-73770834D01*
X131508488Y-73726994D01*
X131486423Y-73660700D01*
X131503702Y-73593001D01*
X131554839Y-73545390D01*
X131572026Y-73538343D01*
X131748217Y-73481095D01*
X131937557Y-73384620D01*
X132109459Y-73259727D01*
X132109464Y-73259723D01*
X132259723Y-73109464D01*
X132259727Y-73109459D01*
X132384620Y-72937557D01*
X132481095Y-72748217D01*
X132538343Y-72572026D01*
X132577780Y-72514351D01*
X132642139Y-72487152D01*
X132710985Y-72499066D01*
X132762461Y-72546310D01*
X132770833Y-72562887D01*
X132798673Y-72630099D01*
X132825939Y-72695925D01*
X132839059Y-72727598D01*
X132852836Y-72748217D01*
X132954024Y-72899657D01*
X133100342Y-73045975D01*
X133100345Y-73045977D01*
X133272402Y-73160941D01*
X133463580Y-73240130D01*
X133628855Y-73273005D01*
X133666530Y-73280499D01*
X133666534Y-73280500D01*
X133666535Y-73280500D01*
X133873466Y-73280500D01*
X133873467Y-73280499D01*
X134076420Y-73240130D01*
X134267598Y-73160941D01*
X134439655Y-73045977D01*
X134585977Y-72899655D01*
X134700941Y-72727598D01*
X134780130Y-72536420D01*
X134820500Y-72333465D01*
X134820500Y-72126535D01*
X134820499Y-72126530D01*
X135259500Y-72126530D01*
X135259500Y-72333469D01*
X135299868Y-72536412D01*
X135299870Y-72536420D01*
X135365939Y-72695925D01*
X135379059Y-72727598D01*
X135392836Y-72748217D01*
X135494024Y-72899657D01*
X135640342Y-73045975D01*
X135640345Y-73045977D01*
X135812402Y-73160941D01*
X136003580Y-73240130D01*
X136168855Y-73273005D01*
X136206530Y-73280499D01*
X136206534Y-73280500D01*
X136206535Y-73280500D01*
X136413466Y-73280500D01*
X136413467Y-73280499D01*
X136616420Y-73240130D01*
X136807598Y-73160941D01*
X136979655Y-73045977D01*
X137125977Y-72899655D01*
X137240941Y-72727598D01*
X137320130Y-72536420D01*
X137360500Y-72333465D01*
X137360500Y-72126535D01*
X137320130Y-71923580D01*
X137240941Y-71732402D01*
X137125977Y-71560345D01*
X137125975Y-71560342D01*
X136979657Y-71414024D01*
X136863332Y-71336299D01*
X136807598Y-71299059D01*
X136616420Y-71219870D01*
X136616412Y-71219868D01*
X136413469Y-71179500D01*
X136413465Y-71179500D01*
X136206535Y-71179500D01*
X136206530Y-71179500D01*
X136003587Y-71219868D01*
X136003579Y-71219870D01*
X135812403Y-71299058D01*
X135640342Y-71414024D01*
X135494024Y-71560342D01*
X135379058Y-71732403D01*
X135299870Y-71923579D01*
X135299868Y-71923587D01*
X135259500Y-72126530D01*
X134820499Y-72126530D01*
X134780130Y-71923580D01*
X134700941Y-71732402D01*
X134585977Y-71560345D01*
X134585975Y-71560342D01*
X134439657Y-71414024D01*
X134323332Y-71336299D01*
X134267598Y-71299059D01*
X134076420Y-71219870D01*
X134076412Y-71219868D01*
X133873469Y-71179500D01*
X133873465Y-71179500D01*
X133666535Y-71179500D01*
X133666530Y-71179500D01*
X133463587Y-71219868D01*
X133463579Y-71219870D01*
X133272403Y-71299058D01*
X133100342Y-71414024D01*
X132954024Y-71560342D01*
X132839057Y-71732403D01*
X132770835Y-71897108D01*
X132726994Y-71951511D01*
X132660700Y-71973576D01*
X132593000Y-71956297D01*
X132545390Y-71905159D01*
X132538343Y-71887973D01*
X132481095Y-71711782D01*
X132384620Y-71522442D01*
X132259727Y-71350540D01*
X132259723Y-71350535D01*
X132109464Y-71200276D01*
X132109459Y-71200272D01*
X131937557Y-71075379D01*
X131748215Y-70978903D01*
X131546124Y-70913241D01*
X131480000Y-70902768D01*
X131480000Y-71796988D01*
X131422993Y-71764075D01*
X131295826Y-71730000D01*
X131164174Y-71730000D01*
X131037007Y-71764075D01*
X130980000Y-71796988D01*
X130980000Y-70902768D01*
X130979999Y-70902768D01*
X130913875Y-70913241D01*
X130711784Y-70978903D01*
X130522442Y-71075379D01*
X130350540Y-71200272D01*
X130350535Y-71200276D01*
X130200276Y-71350535D01*
X130200272Y-71350540D01*
X130075379Y-71522442D01*
X129978905Y-71711781D01*
X129921656Y-71887974D01*
X129882218Y-71945649D01*
X129817859Y-71972847D01*
X129749013Y-71960932D01*
X129697537Y-71913688D01*
X129689164Y-71897107D01*
X129620943Y-71732405D01*
X129505975Y-71560342D01*
X129359657Y-71414024D01*
X129243332Y-71336299D01*
X129187598Y-71299059D01*
X128996420Y-71219870D01*
X128996412Y-71219868D01*
X128793469Y-71179500D01*
X128793465Y-71179500D01*
X128586535Y-71179500D01*
X128586530Y-71179500D01*
X128383587Y-71219868D01*
X128383579Y-71219870D01*
X128192403Y-71299058D01*
X128020342Y-71414024D01*
X127874024Y-71560342D01*
X127759058Y-71732403D01*
X127679870Y-71923579D01*
X127679868Y-71923587D01*
X127639500Y-72126530D01*
X127200499Y-72126530D01*
X127160130Y-71923580D01*
X127080941Y-71732402D01*
X126965977Y-71560345D01*
X126965975Y-71560342D01*
X126819657Y-71414024D01*
X126703332Y-71336299D01*
X126647598Y-71299059D01*
X126456420Y-71219870D01*
X126456412Y-71219868D01*
X126253469Y-71179500D01*
X126253465Y-71179500D01*
X126046535Y-71179500D01*
X126046530Y-71179500D01*
X125843587Y-71219868D01*
X125843579Y-71219870D01*
X125652403Y-71299058D01*
X125480342Y-71414024D01*
X125334024Y-71560342D01*
X125219057Y-71732403D01*
X125150835Y-71897108D01*
X125106994Y-71951511D01*
X125040700Y-71973576D01*
X124973000Y-71956297D01*
X124925390Y-71905159D01*
X124918343Y-71887973D01*
X124861095Y-71711782D01*
X124764620Y-71522442D01*
X124639727Y-71350540D01*
X124639723Y-71350535D01*
X124489464Y-71200276D01*
X124489459Y-71200272D01*
X124317557Y-71075379D01*
X124128215Y-70978903D01*
X123926124Y-70913241D01*
X123860000Y-70902768D01*
X123860000Y-71796988D01*
X123802993Y-71764075D01*
X123675826Y-71730000D01*
X123544174Y-71730000D01*
X123417007Y-71764075D01*
X123360000Y-71796988D01*
X123360000Y-70902768D01*
X123359999Y-70902768D01*
X123293875Y-70913241D01*
X123091784Y-70978903D01*
X122902442Y-71075379D01*
X122730540Y-71200272D01*
X122730535Y-71200276D01*
X122580276Y-71350535D01*
X122580272Y-71350540D01*
X122455379Y-71522442D01*
X122358905Y-71711781D01*
X122301656Y-71887974D01*
X122262218Y-71945649D01*
X122197859Y-71972847D01*
X122129013Y-71960932D01*
X122077537Y-71913688D01*
X122069164Y-71897107D01*
X122000943Y-71732405D01*
X121885975Y-71560342D01*
X121739657Y-71414024D01*
X121623332Y-71336299D01*
X121567598Y-71299059D01*
X121376420Y-71219870D01*
X121376412Y-71219868D01*
X121173469Y-71179500D01*
X121173465Y-71179500D01*
X120966535Y-71179500D01*
X120966530Y-71179500D01*
X120763587Y-71219868D01*
X120763579Y-71219870D01*
X120572403Y-71299058D01*
X120400342Y-71414024D01*
X120254024Y-71560342D01*
X120139058Y-71732403D01*
X120059870Y-71923579D01*
X120059868Y-71923587D01*
X120019500Y-72126530D01*
X120019500Y-72333469D01*
X120059868Y-72536412D01*
X120059870Y-72536420D01*
X120125939Y-72695925D01*
X120139059Y-72727598D01*
X120152836Y-72748217D01*
X120254024Y-72899657D01*
X120311186Y-72956819D01*
X120344671Y-73018142D01*
X120339687Y-73087834D01*
X120297815Y-73143767D01*
X120232351Y-73168184D01*
X120223505Y-73168500D01*
X119376495Y-73168500D01*
X119309456Y-73148815D01*
X119263701Y-73096011D01*
X119253757Y-73026853D01*
X119282782Y-72963297D01*
X119288814Y-72956819D01*
X119345974Y-72899658D01*
X119345975Y-72899657D01*
X119345977Y-72899655D01*
X119460941Y-72727598D01*
X119540130Y-72536420D01*
X119580500Y-72333465D01*
X119580500Y-72126535D01*
X119540130Y-71923580D01*
X119460941Y-71732402D01*
X119345977Y-71560345D01*
X119345975Y-71560342D01*
X119199657Y-71414024D01*
X119083332Y-71336299D01*
X119027598Y-71299059D01*
X118836420Y-71219870D01*
X118836412Y-71219868D01*
X118633469Y-71179500D01*
X118633465Y-71179500D01*
X118426535Y-71179500D01*
X118426530Y-71179500D01*
X118223587Y-71219868D01*
X118223579Y-71219870D01*
X118032403Y-71299058D01*
X117860342Y-71414024D01*
X117714024Y-71560342D01*
X117599058Y-71732403D01*
X117519870Y-71923579D01*
X117519868Y-71923587D01*
X117479500Y-72126530D01*
X117479500Y-72333469D01*
X117519868Y-72536412D01*
X117519870Y-72536420D01*
X117585939Y-72695925D01*
X117599059Y-72727598D01*
X117612836Y-72748217D01*
X117714024Y-72899657D01*
X117771186Y-72956819D01*
X117804671Y-73018142D01*
X117799687Y-73087834D01*
X117757815Y-73143767D01*
X117692351Y-73168184D01*
X117683505Y-73168500D01*
X116836495Y-73168500D01*
X116769456Y-73148815D01*
X116723701Y-73096011D01*
X116713757Y-73026853D01*
X116742782Y-72963297D01*
X116748814Y-72956819D01*
X116805974Y-72899658D01*
X116805975Y-72899657D01*
X116805977Y-72899655D01*
X116920941Y-72727598D01*
X117000130Y-72536420D01*
X117040500Y-72333465D01*
X117040500Y-72126535D01*
X117000130Y-71923580D01*
X116920941Y-71732402D01*
X116805977Y-71560345D01*
X116805975Y-71560342D01*
X116659657Y-71414024D01*
X116543332Y-71336299D01*
X116487598Y-71299059D01*
X116296420Y-71219870D01*
X116296412Y-71219868D01*
X116093469Y-71179500D01*
X116093465Y-71179500D01*
X115886535Y-71179500D01*
X115886530Y-71179500D01*
X115683587Y-71219868D01*
X115683579Y-71219870D01*
X115492403Y-71299058D01*
X115320342Y-71414024D01*
X115174024Y-71560342D01*
X115059057Y-71732403D01*
X114990835Y-71897108D01*
X114946994Y-71951511D01*
X114880700Y-71973576D01*
X114813000Y-71956297D01*
X114765390Y-71905159D01*
X114758343Y-71887973D01*
X114701095Y-71711782D01*
X114604620Y-71522442D01*
X114479727Y-71350540D01*
X114479723Y-71350535D01*
X114329464Y-71200276D01*
X114329459Y-71200272D01*
X114157557Y-71075379D01*
X113968215Y-70978903D01*
X113766124Y-70913241D01*
X113700000Y-70902768D01*
X113700000Y-71796988D01*
X113642993Y-71764075D01*
X113515826Y-71730000D01*
X113384174Y-71730000D01*
X113257007Y-71764075D01*
X113200000Y-71796988D01*
X113200000Y-70902768D01*
X113199999Y-70902768D01*
X113133875Y-70913241D01*
X112931784Y-70978903D01*
X112742442Y-71075379D01*
X112570540Y-71200272D01*
X112570535Y-71200276D01*
X112420276Y-71350535D01*
X112420272Y-71350540D01*
X112295379Y-71522442D01*
X112198905Y-71711781D01*
X112141656Y-71887974D01*
X112102218Y-71945649D01*
X112037859Y-71972847D01*
X111969013Y-71960932D01*
X111917537Y-71913688D01*
X111909164Y-71897107D01*
X111840943Y-71732405D01*
X111725975Y-71560342D01*
X111579657Y-71414024D01*
X111463332Y-71336299D01*
X111407598Y-71299059D01*
X111216420Y-71219870D01*
X111216412Y-71219868D01*
X111013469Y-71179500D01*
X111013465Y-71179500D01*
X110806535Y-71179500D01*
X110806530Y-71179500D01*
X110603587Y-71219868D01*
X110603579Y-71219870D01*
X110412403Y-71299058D01*
X110240342Y-71414024D01*
X110094024Y-71560342D01*
X109979058Y-71732403D01*
X109899870Y-71923579D01*
X109899868Y-71923587D01*
X109859500Y-72126530D01*
X109859500Y-72333469D01*
X109899868Y-72536412D01*
X109899870Y-72536420D01*
X109965939Y-72695925D01*
X109979059Y-72727598D01*
X109992836Y-72748217D01*
X110094024Y-72899657D01*
X110151186Y-72956819D01*
X110184671Y-73018142D01*
X110179687Y-73087834D01*
X110137815Y-73143767D01*
X110072351Y-73168184D01*
X110063505Y-73168500D01*
X109546564Y-73168500D01*
X109498812Y-73181295D01*
X109498811Y-73181294D01*
X109451066Y-73194088D01*
X109451059Y-73194091D01*
X109427126Y-73207908D01*
X109408250Y-73218807D01*
X109397546Y-73224986D01*
X109365440Y-73243522D01*
X109365435Y-73243526D01*
X108925781Y-73683181D01*
X108864458Y-73716666D01*
X108838100Y-73719500D01*
X107500247Y-73719500D01*
X107441770Y-73731131D01*
X107441769Y-73731132D01*
X107375447Y-73775447D01*
X107331132Y-73841769D01*
X107331131Y-73841770D01*
X107319500Y-73900247D01*
X107319500Y-75639752D01*
X107331131Y-75698229D01*
X107331132Y-75698230D01*
X107375447Y-75764552D01*
X107441769Y-75808867D01*
X107441770Y-75808868D01*
X107500247Y-75820499D01*
X107500250Y-75820500D01*
X107500252Y-75820500D01*
X108838100Y-75820500D01*
X108905139Y-75840185D01*
X108925781Y-75856819D01*
X109188181Y-76119218D01*
X109221666Y-76180541D01*
X109224500Y-76206899D01*
X109224500Y-76628832D01*
X109213935Y-76678917D01*
X109202415Y-76705006D01*
X109202415Y-76705008D01*
X109199500Y-76730131D01*
X109199500Y-78094856D01*
X109199502Y-78094882D01*
X109202413Y-78119987D01*
X109202414Y-78119988D01*
X109202414Y-78119990D01*
X109202415Y-78119991D01*
X109206946Y-78130252D01*
X109213934Y-78146078D01*
X109224500Y-78196165D01*
X109224500Y-81524500D01*
X109204815Y-81591539D01*
X109152011Y-81637294D01*
X109100500Y-81648500D01*
X106646564Y-81648500D01*
X106598812Y-81661295D01*
X106598811Y-81661294D01*
X106551063Y-81674089D01*
X106551062Y-81674089D01*
X106465435Y-81723527D01*
X103225782Y-84963181D01*
X103164459Y-84996666D01*
X103138101Y-84999500D01*
X101900247Y-84999500D01*
X101841770Y-85011131D01*
X101841769Y-85011132D01*
X101775447Y-85055447D01*
X101731132Y-85121769D01*
X101731131Y-85121770D01*
X101719500Y-85180247D01*
X100050500Y-85180247D01*
X100050500Y-73393713D01*
X102149500Y-73393713D01*
X102149500Y-73606287D01*
X102158118Y-73660700D01*
X102181835Y-73810444D01*
X102182754Y-73816243D01*
X102235420Y-73978333D01*
X102248444Y-74018414D01*
X102344951Y-74207820D01*
X102469890Y-74379786D01*
X102620213Y-74530109D01*
X102792179Y-74655048D01*
X102792181Y-74655049D01*
X102792184Y-74655051D01*
X102981588Y-74751557D01*
X103183757Y-74817246D01*
X103393713Y-74850500D01*
X103393714Y-74850500D01*
X103606286Y-74850500D01*
X103606287Y-74850500D01*
X103816243Y-74817246D01*
X104018412Y-74751557D01*
X104207816Y-74655051D01*
X104274498Y-74606604D01*
X104379786Y-74530109D01*
X104379788Y-74530106D01*
X104379792Y-74530104D01*
X104530104Y-74379792D01*
X104530106Y-74379788D01*
X104530109Y-74379786D01*
X104655048Y-74207820D01*
X104655047Y-74207820D01*
X104655051Y-74207816D01*
X104751557Y-74018412D01*
X104817246Y-73816243D01*
X104850500Y-73606287D01*
X104850500Y-73393713D01*
X104817246Y-73183757D01*
X104751557Y-72981588D01*
X104655051Y-72792184D01*
X104655049Y-72792181D01*
X104655048Y-72792179D01*
X104530109Y-72620213D01*
X104379786Y-72469890D01*
X104207820Y-72344951D01*
X104018414Y-72248444D01*
X104018413Y-72248443D01*
X104018412Y-72248443D01*
X103816243Y-72182754D01*
X103816241Y-72182753D01*
X103816240Y-72182753D01*
X103654957Y-72157208D01*
X103606287Y-72149500D01*
X103393713Y-72149500D01*
X103345042Y-72157208D01*
X103183760Y-72182753D01*
X102981585Y-72248444D01*
X102792179Y-72344951D01*
X102620213Y-72469890D01*
X102469890Y-72620213D01*
X102344951Y-72792179D01*
X102248444Y-72981585D01*
X102182753Y-73183760D01*
X102173287Y-73243526D01*
X102149500Y-73393713D01*
X100050500Y-73393713D01*
X100050500Y-73003480D01*
X100050695Y-72996527D01*
X100059478Y-72840130D01*
X100068656Y-72676700D01*
X100070210Y-72662907D01*
X100123283Y-72350537D01*
X100126377Y-72336985D01*
X100151886Y-72248444D01*
X100187008Y-72126530D01*
X107319500Y-72126530D01*
X107319500Y-72333469D01*
X107359868Y-72536412D01*
X107359870Y-72536420D01*
X107425939Y-72695925D01*
X107439059Y-72727598D01*
X107452836Y-72748217D01*
X107554024Y-72899657D01*
X107700342Y-73045975D01*
X107700345Y-73045977D01*
X107872402Y-73160941D01*
X108063580Y-73240130D01*
X108228855Y-73273005D01*
X108266530Y-73280499D01*
X108266534Y-73280500D01*
X108266535Y-73280500D01*
X108473466Y-73280500D01*
X108473467Y-73280499D01*
X108676420Y-73240130D01*
X108867598Y-73160941D01*
X109039655Y-73045977D01*
X109185977Y-72899655D01*
X109300941Y-72727598D01*
X109380130Y-72536420D01*
X109420500Y-72333465D01*
X109420500Y-72126535D01*
X109380130Y-71923580D01*
X109300941Y-71732402D01*
X109185977Y-71560345D01*
X109185975Y-71560342D01*
X109039657Y-71414024D01*
X108923332Y-71336299D01*
X108867598Y-71299059D01*
X108676420Y-71219870D01*
X108676412Y-71219868D01*
X108473469Y-71179500D01*
X108473465Y-71179500D01*
X108266535Y-71179500D01*
X108266530Y-71179500D01*
X108063587Y-71219868D01*
X108063579Y-71219870D01*
X107872403Y-71299058D01*
X107700342Y-71414024D01*
X107554024Y-71560342D01*
X107439058Y-71732403D01*
X107359870Y-71923579D01*
X107359868Y-71923587D01*
X107319500Y-72126530D01*
X100187008Y-72126530D01*
X100214090Y-72032526D01*
X100218682Y-72019406D01*
X100337562Y-71732403D01*
X100339929Y-71726686D01*
X100345951Y-71714180D01*
X100499227Y-71436850D01*
X100506605Y-71425107D01*
X100689972Y-71166676D01*
X100698619Y-71155834D01*
X100909750Y-70919579D01*
X100919581Y-70909749D01*
X100927393Y-70902768D01*
X101155834Y-70698619D01*
X101166676Y-70689972D01*
X101425107Y-70506605D01*
X101436850Y-70499227D01*
X101714180Y-70345951D01*
X101726686Y-70339929D01*
X102019406Y-70218682D01*
X102032526Y-70214090D01*
X102336990Y-70126375D01*
X102350537Y-70123283D01*
X102662907Y-70070210D01*
X102676700Y-70068656D01*
X102996528Y-70050695D01*
X103003481Y-70050500D01*
X103016408Y-70050500D01*
X161983592Y-70050500D01*
X161996519Y-70050500D01*
X162003472Y-70050695D01*
G37*
G04 #@! TD.AperFunction*
M02*
