G04 #@! TF.GenerationSoftware,KiCad,Pcbnew,9.0.3*
G04 #@! TF.CreationDate,2025-07-11T16:30:42-04:00*
G04 #@! TF.ProjectId,main,6d61696e-2e6b-4696-9361-645f70636258,rev?*
G04 #@! TF.SameCoordinates,Original*
G04 #@! TF.FileFunction,AssemblyDrawing,Bot*
%FSLAX46Y46*%
G04 Gerber Fmt 4.6, Leading zero omitted, Abs format (unit mm)*
G04 Created by KiCad (PCBNEW 9.0.3) date 2025-07-11 16:30:42*
%MOMM*%
%LPD*%
G01*
G04 APERTURE LIST*
%ADD10C,0.150000*%
%ADD11C,0.100000*%
G04 APERTURE END LIST*
D10*
X133499999Y-68502438D02*
X133595237Y-68454819D01*
X133595237Y-68454819D02*
X133738094Y-68454819D01*
X133738094Y-68454819D02*
X133880951Y-68502438D01*
X133880951Y-68502438D02*
X133976189Y-68597676D01*
X133976189Y-68597676D02*
X134023808Y-68692914D01*
X134023808Y-68692914D02*
X134071427Y-68883390D01*
X134071427Y-68883390D02*
X134071427Y-69026247D01*
X134071427Y-69026247D02*
X134023808Y-69216723D01*
X134023808Y-69216723D02*
X133976189Y-69311961D01*
X133976189Y-69311961D02*
X133880951Y-69407200D01*
X133880951Y-69407200D02*
X133738094Y-69454819D01*
X133738094Y-69454819D02*
X133642856Y-69454819D01*
X133642856Y-69454819D02*
X133499999Y-69407200D01*
X133499999Y-69407200D02*
X133452380Y-69359580D01*
X133452380Y-69359580D02*
X133452380Y-69026247D01*
X133452380Y-69026247D02*
X133642856Y-69026247D01*
X133023808Y-69454819D02*
X133023808Y-68454819D01*
X133023808Y-68454819D02*
X132642856Y-68454819D01*
X132642856Y-68454819D02*
X132547618Y-68502438D01*
X132547618Y-68502438D02*
X132499999Y-68550057D01*
X132499999Y-68550057D02*
X132452380Y-68645295D01*
X132452380Y-68645295D02*
X132452380Y-68788152D01*
X132452380Y-68788152D02*
X132499999Y-68883390D01*
X132499999Y-68883390D02*
X132547618Y-68931009D01*
X132547618Y-68931009D02*
X132642856Y-68978628D01*
X132642856Y-68978628D02*
X133023808Y-68978628D01*
X132023808Y-69454819D02*
X132023808Y-68454819D01*
X131357142Y-68454819D02*
X131166666Y-68454819D01*
X131166666Y-68454819D02*
X131071428Y-68502438D01*
X131071428Y-68502438D02*
X130976190Y-68597676D01*
X130976190Y-68597676D02*
X130928571Y-68788152D01*
X130928571Y-68788152D02*
X130928571Y-69121485D01*
X130928571Y-69121485D02*
X130976190Y-69311961D01*
X130976190Y-69311961D02*
X131071428Y-69407200D01*
X131071428Y-69407200D02*
X131166666Y-69454819D01*
X131166666Y-69454819D02*
X131357142Y-69454819D01*
X131357142Y-69454819D02*
X131452380Y-69407200D01*
X131452380Y-69407200D02*
X131547618Y-69311961D01*
X131547618Y-69311961D02*
X131595237Y-69121485D01*
X131595237Y-69121485D02*
X131595237Y-68788152D01*
X131595237Y-68788152D02*
X131547618Y-68597676D01*
X131547618Y-68597676D02*
X131452380Y-68502438D01*
X131452380Y-68502438D02*
X131357142Y-68454819D01*
X132833333Y-72954819D02*
X132833333Y-73669104D01*
X132833333Y-73669104D02*
X132880952Y-73811961D01*
X132880952Y-73811961D02*
X132976190Y-73907200D01*
X132976190Y-73907200D02*
X133119047Y-73954819D01*
X133119047Y-73954819D02*
X133214285Y-73954819D01*
X131833333Y-73954819D02*
X132404761Y-73954819D01*
X132119047Y-73954819D02*
X132119047Y-72954819D01*
X132119047Y-72954819D02*
X132214285Y-73097676D01*
X132214285Y-73097676D02*
X132309523Y-73192914D01*
X132309523Y-73192914D02*
X132404761Y-73240533D01*
D11*
X107100000Y-70960000D02*
X107100000Y-75040000D01*
X107100000Y-75040000D02*
X108100000Y-76040000D01*
X108100000Y-76040000D02*
X157900000Y-76040000D01*
X157900000Y-70960000D02*
X107100000Y-70960000D01*
X157900000Y-76040000D02*
X157900000Y-70960000D01*
M02*
