G04 #@! TF.GenerationSoftware,KiCad,Pcbnew,9.0.3*
G04 #@! TF.CreationDate,2025-07-11T16:30:41-04:00*
G04 #@! TF.ProjectId,main,6d61696e-2e6b-4696-9361-645f70636258,rev?*
G04 #@! TF.SameCoordinates,Original*
G04 #@! TF.FileFunction,Legend,Top*
G04 #@! TF.FilePolarity,Positive*
%FSLAX46Y46*%
G04 Gerber Fmt 4.6, Leading zero omitted, Abs format (unit mm)*
G04 Created by KiCad (PCBNEW 9.0.3) date 2025-07-11 16:30:41*
%MOMM*%
%LPD*%
G01*
G04 APERTURE LIST*
%ADD10C,0.120000*%
%ADD11C,0.150000*%
%ADD12C,0.000000*%
G04 APERTURE END LIST*
D10*
X106600000Y-93800000D02*
X105800000Y-94200000D01*
X105800000Y-93400000D01*
X106600000Y-93800000D01*
G36*
X106600000Y-93800000D02*
G01*
X105800000Y-94200000D01*
X105800000Y-93400000D01*
X106600000Y-93800000D01*
G37*
X115800000Y-93800000D02*
X115000000Y-94200000D01*
X115000000Y-93400000D01*
X115800000Y-93800000D01*
G36*
X115800000Y-93800000D02*
G01*
X115000000Y-94200000D01*
X115000000Y-93400000D01*
X115800000Y-93800000D01*
G37*
X152800000Y-97100000D02*
X152000000Y-96700000D01*
X152800000Y-96300000D01*
X152800000Y-97100000D01*
G36*
X152800000Y-97100000D02*
G01*
X152000000Y-96700000D01*
X152800000Y-96300000D01*
X152800000Y-97100000D01*
G37*
X111200000Y-93800000D02*
X110400000Y-94200000D01*
X110400000Y-93400000D01*
X111200000Y-93800000D01*
G36*
X111200000Y-93800000D02*
G01*
X110400000Y-94200000D01*
X110400000Y-93400000D01*
X111200000Y-93800000D01*
G37*
X126000000Y-86200000D02*
X125200000Y-86600000D01*
X125200000Y-85800000D01*
X126000000Y-86200000D01*
G36*
X126000000Y-86200000D02*
G01*
X125200000Y-86600000D01*
X125200000Y-85800000D01*
X126000000Y-86200000D01*
G37*
X160000000Y-91000000D02*
X159200000Y-91000000D01*
X159600000Y-90200000D01*
X160000000Y-91000000D01*
G36*
X160000000Y-91000000D02*
G01*
X159200000Y-91000000D01*
X159600000Y-90200000D01*
X160000000Y-91000000D01*
G37*
X125000000Y-93800000D02*
X124200000Y-94200000D01*
X124200000Y-93400000D01*
X125000000Y-93800000D01*
G36*
X125000000Y-93800000D02*
G01*
X124200000Y-94200000D01*
X124200000Y-93400000D01*
X125000000Y-93800000D01*
G37*
X129500000Y-93800000D02*
X128700000Y-94200000D01*
X128700000Y-93400000D01*
X129500000Y-93800000D01*
G36*
X129500000Y-93800000D02*
G01*
X128700000Y-94200000D01*
X128700000Y-93400000D01*
X129500000Y-93800000D01*
G37*
X149000000Y-77000000D02*
X148600000Y-76200000D01*
X149400000Y-76200000D01*
X149000000Y-77000000D01*
G36*
X149000000Y-77000000D02*
G01*
X148600000Y-76200000D01*
X149400000Y-76200000D01*
X149000000Y-77000000D01*
G37*
X120400000Y-93800000D02*
X119600000Y-94200000D01*
X119600000Y-93400000D01*
X120400000Y-93800000D01*
G36*
X120400000Y-93800000D02*
G01*
X119600000Y-94200000D01*
X119600000Y-93400000D01*
X120400000Y-93800000D01*
G37*
D11*
X114869819Y-93006077D02*
X114869819Y-92434649D01*
X115869819Y-92720363D02*
X114869819Y-92720363D01*
X115869819Y-91958458D02*
X115822200Y-92053696D01*
X115822200Y-92053696D02*
X115774580Y-92101315D01*
X115774580Y-92101315D02*
X115679342Y-92148934D01*
X115679342Y-92148934D02*
X115393628Y-92148934D01*
X115393628Y-92148934D02*
X115298390Y-92101315D01*
X115298390Y-92101315D02*
X115250771Y-92053696D01*
X115250771Y-92053696D02*
X115203152Y-91958458D01*
X115203152Y-91958458D02*
X115203152Y-91815601D01*
X115203152Y-91815601D02*
X115250771Y-91720363D01*
X115250771Y-91720363D02*
X115298390Y-91672744D01*
X115298390Y-91672744D02*
X115393628Y-91625125D01*
X115393628Y-91625125D02*
X115679342Y-91625125D01*
X115679342Y-91625125D02*
X115774580Y-91672744D01*
X115774580Y-91672744D02*
X115822200Y-91720363D01*
X115822200Y-91720363D02*
X115869819Y-91815601D01*
X115869819Y-91815601D02*
X115869819Y-91958458D01*
X115346009Y-90863220D02*
X115346009Y-91196553D01*
X115869819Y-91196553D02*
X114869819Y-91196553D01*
X114869819Y-91196553D02*
X114869819Y-90720363D01*
X114869819Y-89672743D02*
X114869819Y-89053696D01*
X114869819Y-89053696D02*
X115250771Y-89387029D01*
X115250771Y-89387029D02*
X115250771Y-89244172D01*
X115250771Y-89244172D02*
X115298390Y-89148934D01*
X115298390Y-89148934D02*
X115346009Y-89101315D01*
X115346009Y-89101315D02*
X115441247Y-89053696D01*
X115441247Y-89053696D02*
X115679342Y-89053696D01*
X115679342Y-89053696D02*
X115774580Y-89101315D01*
X115774580Y-89101315D02*
X115822200Y-89148934D01*
X115822200Y-89148934D02*
X115869819Y-89244172D01*
X115869819Y-89244172D02*
X115869819Y-89529886D01*
X115869819Y-89529886D02*
X115822200Y-89625124D01*
X115822200Y-89625124D02*
X115774580Y-89672743D01*
X156286779Y-98238866D02*
X157048684Y-98238866D01*
X137136779Y-99588866D02*
X137898684Y-99588866D01*
X149889160Y-77022200D02*
X150032017Y-77069819D01*
X150032017Y-77069819D02*
X150270112Y-77069819D01*
X150270112Y-77069819D02*
X150365350Y-77022200D01*
X150365350Y-77022200D02*
X150412969Y-76974580D01*
X150412969Y-76974580D02*
X150460588Y-76879342D01*
X150460588Y-76879342D02*
X150460588Y-76784104D01*
X150460588Y-76784104D02*
X150412969Y-76688866D01*
X150412969Y-76688866D02*
X150365350Y-76641247D01*
X150365350Y-76641247D02*
X150270112Y-76593628D01*
X150270112Y-76593628D02*
X150079636Y-76546009D01*
X150079636Y-76546009D02*
X149984398Y-76498390D01*
X149984398Y-76498390D02*
X149936779Y-76450771D01*
X149936779Y-76450771D02*
X149889160Y-76355533D01*
X149889160Y-76355533D02*
X149889160Y-76260295D01*
X149889160Y-76260295D02*
X149936779Y-76165057D01*
X149936779Y-76165057D02*
X149984398Y-76117438D01*
X149984398Y-76117438D02*
X150079636Y-76069819D01*
X150079636Y-76069819D02*
X150317731Y-76069819D01*
X150317731Y-76069819D02*
X150460588Y-76117438D01*
X150746303Y-76403152D02*
X151127255Y-76403152D01*
X150889160Y-76069819D02*
X150889160Y-76926961D01*
X150889160Y-76926961D02*
X150936779Y-77022200D01*
X150936779Y-77022200D02*
X151032017Y-77069819D01*
X151032017Y-77069819D02*
X151127255Y-77069819D01*
X151841541Y-77022200D02*
X151746303Y-77069819D01*
X151746303Y-77069819D02*
X151555827Y-77069819D01*
X151555827Y-77069819D02*
X151460589Y-77022200D01*
X151460589Y-77022200D02*
X151412970Y-76926961D01*
X151412970Y-76926961D02*
X151412970Y-76546009D01*
X151412970Y-76546009D02*
X151460589Y-76450771D01*
X151460589Y-76450771D02*
X151555827Y-76403152D01*
X151555827Y-76403152D02*
X151746303Y-76403152D01*
X151746303Y-76403152D02*
X151841541Y-76450771D01*
X151841541Y-76450771D02*
X151889160Y-76546009D01*
X151889160Y-76546009D02*
X151889160Y-76641247D01*
X151889160Y-76641247D02*
X151412970Y-76736485D01*
X152698684Y-77022200D02*
X152603446Y-77069819D01*
X152603446Y-77069819D02*
X152412970Y-77069819D01*
X152412970Y-77069819D02*
X152317732Y-77022200D01*
X152317732Y-77022200D02*
X152270113Y-76926961D01*
X152270113Y-76926961D02*
X152270113Y-76546009D01*
X152270113Y-76546009D02*
X152317732Y-76450771D01*
X152317732Y-76450771D02*
X152412970Y-76403152D01*
X152412970Y-76403152D02*
X152603446Y-76403152D01*
X152603446Y-76403152D02*
X152698684Y-76450771D01*
X152698684Y-76450771D02*
X152746303Y-76546009D01*
X152746303Y-76546009D02*
X152746303Y-76641247D01*
X152746303Y-76641247D02*
X152270113Y-76736485D01*
X153174875Y-77069819D02*
X153174875Y-76403152D01*
X153174875Y-76593628D02*
X153222494Y-76498390D01*
X153222494Y-76498390D02*
X153270113Y-76450771D01*
X153270113Y-76450771D02*
X153365351Y-76403152D01*
X153365351Y-76403152D02*
X153460589Y-76403152D01*
X153793923Y-77069819D02*
X153793923Y-76403152D01*
X153793923Y-76069819D02*
X153746304Y-76117438D01*
X153746304Y-76117438D02*
X153793923Y-76165057D01*
X153793923Y-76165057D02*
X153841542Y-76117438D01*
X153841542Y-76117438D02*
X153793923Y-76069819D01*
X153793923Y-76069819D02*
X153793923Y-76165057D01*
X154270113Y-76403152D02*
X154270113Y-77069819D01*
X154270113Y-76498390D02*
X154317732Y-76450771D01*
X154317732Y-76450771D02*
X154412970Y-76403152D01*
X154412970Y-76403152D02*
X154555827Y-76403152D01*
X154555827Y-76403152D02*
X154651065Y-76450771D01*
X154651065Y-76450771D02*
X154698684Y-76546009D01*
X154698684Y-76546009D02*
X154698684Y-77069819D01*
X155603446Y-76403152D02*
X155603446Y-77212676D01*
X155603446Y-77212676D02*
X155555827Y-77307914D01*
X155555827Y-77307914D02*
X155508208Y-77355533D01*
X155508208Y-77355533D02*
X155412970Y-77403152D01*
X155412970Y-77403152D02*
X155270113Y-77403152D01*
X155270113Y-77403152D02*
X155174875Y-77355533D01*
X155603446Y-77022200D02*
X155508208Y-77069819D01*
X155508208Y-77069819D02*
X155317732Y-77069819D01*
X155317732Y-77069819D02*
X155222494Y-77022200D01*
X155222494Y-77022200D02*
X155174875Y-76974580D01*
X155174875Y-76974580D02*
X155127256Y-76879342D01*
X155127256Y-76879342D02*
X155127256Y-76593628D01*
X155127256Y-76593628D02*
X155174875Y-76498390D01*
X155174875Y-76498390D02*
X155222494Y-76450771D01*
X155222494Y-76450771D02*
X155317732Y-76403152D01*
X155317732Y-76403152D02*
X155508208Y-76403152D01*
X155508208Y-76403152D02*
X155603446Y-76450771D01*
X102199999Y-81864636D02*
X102152380Y-81912256D01*
X102152380Y-81912256D02*
X102009523Y-81959875D01*
X102009523Y-81959875D02*
X101914285Y-81959875D01*
X101914285Y-81959875D02*
X101771428Y-81912256D01*
X101771428Y-81912256D02*
X101676190Y-81817017D01*
X101676190Y-81817017D02*
X101628571Y-81721779D01*
X101628571Y-81721779D02*
X101580952Y-81531303D01*
X101580952Y-81531303D02*
X101580952Y-81388446D01*
X101580952Y-81388446D02*
X101628571Y-81197970D01*
X101628571Y-81197970D02*
X101676190Y-81102732D01*
X101676190Y-81102732D02*
X101771428Y-81007494D01*
X101771428Y-81007494D02*
X101914285Y-80959875D01*
X101914285Y-80959875D02*
X102009523Y-80959875D01*
X102009523Y-80959875D02*
X102152380Y-81007494D01*
X102152380Y-81007494D02*
X102199999Y-81055113D01*
X102580952Y-81674160D02*
X103057142Y-81674160D01*
X102485714Y-81959875D02*
X102819047Y-80959875D01*
X102819047Y-80959875D02*
X103152380Y-81959875D01*
X103485714Y-81959875D02*
X103485714Y-80959875D01*
X103485714Y-80959875D02*
X104057142Y-81959875D01*
X104057142Y-81959875D02*
X104057142Y-80959875D01*
X104485714Y-81674160D02*
X104961904Y-81674160D01*
X104390476Y-81959875D02*
X104723809Y-80959875D01*
X104723809Y-80959875D02*
X105057142Y-81959875D01*
X105390476Y-81959875D02*
X105390476Y-80959875D01*
X105390476Y-80959875D02*
X105628571Y-80959875D01*
X105628571Y-80959875D02*
X105771428Y-81007494D01*
X105771428Y-81007494D02*
X105866666Y-81102732D01*
X105866666Y-81102732D02*
X105914285Y-81197970D01*
X105914285Y-81197970D02*
X105961904Y-81388446D01*
X105961904Y-81388446D02*
X105961904Y-81531303D01*
X105961904Y-81531303D02*
X105914285Y-81721779D01*
X105914285Y-81721779D02*
X105866666Y-81817017D01*
X105866666Y-81817017D02*
X105771428Y-81912256D01*
X105771428Y-81912256D02*
X105628571Y-81959875D01*
X105628571Y-81959875D02*
X105390476Y-81959875D01*
X106342857Y-81674160D02*
X106819047Y-81674160D01*
X106247619Y-81959875D02*
X106580952Y-80959875D01*
X106580952Y-80959875D02*
X106914285Y-81959875D01*
X100461905Y-82569819D02*
X100700000Y-83569819D01*
X100700000Y-83569819D02*
X100890476Y-82855533D01*
X100890476Y-82855533D02*
X101080952Y-83569819D01*
X101080952Y-83569819D02*
X101319048Y-82569819D01*
X102271428Y-83569819D02*
X101938095Y-83093628D01*
X101700000Y-83569819D02*
X101700000Y-82569819D01*
X101700000Y-82569819D02*
X102080952Y-82569819D01*
X102080952Y-82569819D02*
X102176190Y-82617438D01*
X102176190Y-82617438D02*
X102223809Y-82665057D01*
X102223809Y-82665057D02*
X102271428Y-82760295D01*
X102271428Y-82760295D02*
X102271428Y-82903152D01*
X102271428Y-82903152D02*
X102223809Y-82998390D01*
X102223809Y-82998390D02*
X102176190Y-83046009D01*
X102176190Y-83046009D02*
X102080952Y-83093628D01*
X102080952Y-83093628D02*
X101700000Y-83093628D01*
X102890476Y-82569819D02*
X103080952Y-82569819D01*
X103080952Y-82569819D02*
X103176190Y-82617438D01*
X103176190Y-82617438D02*
X103271428Y-82712676D01*
X103271428Y-82712676D02*
X103319047Y-82903152D01*
X103319047Y-82903152D02*
X103319047Y-83236485D01*
X103319047Y-83236485D02*
X103271428Y-83426961D01*
X103271428Y-83426961D02*
X103176190Y-83522200D01*
X103176190Y-83522200D02*
X103080952Y-83569819D01*
X103080952Y-83569819D02*
X102890476Y-83569819D01*
X102890476Y-83569819D02*
X102795238Y-83522200D01*
X102795238Y-83522200D02*
X102700000Y-83426961D01*
X102700000Y-83426961D02*
X102652381Y-83236485D01*
X102652381Y-83236485D02*
X102652381Y-82903152D01*
X102652381Y-82903152D02*
X102700000Y-82712676D01*
X102700000Y-82712676D02*
X102795238Y-82617438D01*
X102795238Y-82617438D02*
X102890476Y-82569819D01*
X104461905Y-82665057D02*
X104509524Y-82617438D01*
X104509524Y-82617438D02*
X104604762Y-82569819D01*
X104604762Y-82569819D02*
X104842857Y-82569819D01*
X104842857Y-82569819D02*
X104938095Y-82617438D01*
X104938095Y-82617438D02*
X104985714Y-82665057D01*
X104985714Y-82665057D02*
X105033333Y-82760295D01*
X105033333Y-82760295D02*
X105033333Y-82855533D01*
X105033333Y-82855533D02*
X104985714Y-82998390D01*
X104985714Y-82998390D02*
X104414286Y-83569819D01*
X104414286Y-83569819D02*
X105033333Y-83569819D01*
X105652381Y-82569819D02*
X105747619Y-82569819D01*
X105747619Y-82569819D02*
X105842857Y-82617438D01*
X105842857Y-82617438D02*
X105890476Y-82665057D01*
X105890476Y-82665057D02*
X105938095Y-82760295D01*
X105938095Y-82760295D02*
X105985714Y-82950771D01*
X105985714Y-82950771D02*
X105985714Y-83188866D01*
X105985714Y-83188866D02*
X105938095Y-83379342D01*
X105938095Y-83379342D02*
X105890476Y-83474580D01*
X105890476Y-83474580D02*
X105842857Y-83522200D01*
X105842857Y-83522200D02*
X105747619Y-83569819D01*
X105747619Y-83569819D02*
X105652381Y-83569819D01*
X105652381Y-83569819D02*
X105557143Y-83522200D01*
X105557143Y-83522200D02*
X105509524Y-83474580D01*
X105509524Y-83474580D02*
X105461905Y-83379342D01*
X105461905Y-83379342D02*
X105414286Y-83188866D01*
X105414286Y-83188866D02*
X105414286Y-82950771D01*
X105414286Y-82950771D02*
X105461905Y-82760295D01*
X105461905Y-82760295D02*
X105509524Y-82665057D01*
X105509524Y-82665057D02*
X105557143Y-82617438D01*
X105557143Y-82617438D02*
X105652381Y-82569819D01*
X106366667Y-82665057D02*
X106414286Y-82617438D01*
X106414286Y-82617438D02*
X106509524Y-82569819D01*
X106509524Y-82569819D02*
X106747619Y-82569819D01*
X106747619Y-82569819D02*
X106842857Y-82617438D01*
X106842857Y-82617438D02*
X106890476Y-82665057D01*
X106890476Y-82665057D02*
X106938095Y-82760295D01*
X106938095Y-82760295D02*
X106938095Y-82855533D01*
X106938095Y-82855533D02*
X106890476Y-82998390D01*
X106890476Y-82998390D02*
X106319048Y-83569819D01*
X106319048Y-83569819D02*
X106938095Y-83569819D01*
X107842857Y-82569819D02*
X107366667Y-82569819D01*
X107366667Y-82569819D02*
X107319048Y-83046009D01*
X107319048Y-83046009D02*
X107366667Y-82998390D01*
X107366667Y-82998390D02*
X107461905Y-82950771D01*
X107461905Y-82950771D02*
X107700000Y-82950771D01*
X107700000Y-82950771D02*
X107795238Y-82998390D01*
X107795238Y-82998390D02*
X107842857Y-83046009D01*
X107842857Y-83046009D02*
X107890476Y-83141247D01*
X107890476Y-83141247D02*
X107890476Y-83379342D01*
X107890476Y-83379342D02*
X107842857Y-83474580D01*
X107842857Y-83474580D02*
X107795238Y-83522200D01*
X107795238Y-83522200D02*
X107700000Y-83569819D01*
X107700000Y-83569819D02*
X107461905Y-83569819D01*
X107461905Y-83569819D02*
X107366667Y-83522200D01*
X107366667Y-83522200D02*
X107319048Y-83474580D01*
X119469819Y-93006077D02*
X119469819Y-92434649D01*
X120469819Y-92720363D02*
X119469819Y-92720363D01*
X120469819Y-91958458D02*
X120422200Y-92053696D01*
X120422200Y-92053696D02*
X120374580Y-92101315D01*
X120374580Y-92101315D02*
X120279342Y-92148934D01*
X120279342Y-92148934D02*
X119993628Y-92148934D01*
X119993628Y-92148934D02*
X119898390Y-92101315D01*
X119898390Y-92101315D02*
X119850771Y-92053696D01*
X119850771Y-92053696D02*
X119803152Y-91958458D01*
X119803152Y-91958458D02*
X119803152Y-91815601D01*
X119803152Y-91815601D02*
X119850771Y-91720363D01*
X119850771Y-91720363D02*
X119898390Y-91672744D01*
X119898390Y-91672744D02*
X119993628Y-91625125D01*
X119993628Y-91625125D02*
X120279342Y-91625125D01*
X120279342Y-91625125D02*
X120374580Y-91672744D01*
X120374580Y-91672744D02*
X120422200Y-91720363D01*
X120422200Y-91720363D02*
X120469819Y-91815601D01*
X120469819Y-91815601D02*
X120469819Y-91958458D01*
X119946009Y-90863220D02*
X119946009Y-91196553D01*
X120469819Y-91196553D02*
X119469819Y-91196553D01*
X119469819Y-91196553D02*
X119469819Y-90720363D01*
X119803152Y-89148934D02*
X120469819Y-89148934D01*
X119422200Y-89387029D02*
X120136485Y-89625124D01*
X120136485Y-89625124D02*
X120136485Y-89006077D01*
X160580952Y-91059875D02*
X160580952Y-90059875D01*
X160580952Y-90059875D02*
X160819047Y-90059875D01*
X160819047Y-90059875D02*
X160961904Y-90107494D01*
X160961904Y-90107494D02*
X161057142Y-90202732D01*
X161057142Y-90202732D02*
X161104761Y-90297970D01*
X161104761Y-90297970D02*
X161152380Y-90488446D01*
X161152380Y-90488446D02*
X161152380Y-90631303D01*
X161152380Y-90631303D02*
X161104761Y-90821779D01*
X161104761Y-90821779D02*
X161057142Y-90917017D01*
X161057142Y-90917017D02*
X160961904Y-91012256D01*
X160961904Y-91012256D02*
X160819047Y-91059875D01*
X160819047Y-91059875D02*
X160580952Y-91059875D01*
X161580952Y-91059875D02*
X161580952Y-90393208D01*
X161580952Y-90583684D02*
X161628571Y-90488446D01*
X161628571Y-90488446D02*
X161676190Y-90440827D01*
X161676190Y-90440827D02*
X161771428Y-90393208D01*
X161771428Y-90393208D02*
X161866666Y-90393208D01*
X162200000Y-91059875D02*
X162200000Y-90393208D01*
X162200000Y-90059875D02*
X162152381Y-90107494D01*
X162152381Y-90107494D02*
X162200000Y-90155113D01*
X162200000Y-90155113D02*
X162247619Y-90107494D01*
X162247619Y-90107494D02*
X162200000Y-90059875D01*
X162200000Y-90059875D02*
X162200000Y-90155113D01*
X162580952Y-90393208D02*
X162819047Y-91059875D01*
X162819047Y-91059875D02*
X163057142Y-90393208D01*
X163819047Y-91012256D02*
X163723809Y-91059875D01*
X163723809Y-91059875D02*
X163533333Y-91059875D01*
X163533333Y-91059875D02*
X163438095Y-91012256D01*
X163438095Y-91012256D02*
X163390476Y-90917017D01*
X163390476Y-90917017D02*
X163390476Y-90536065D01*
X163390476Y-90536065D02*
X163438095Y-90440827D01*
X163438095Y-90440827D02*
X163533333Y-90393208D01*
X163533333Y-90393208D02*
X163723809Y-90393208D01*
X163723809Y-90393208D02*
X163819047Y-90440827D01*
X163819047Y-90440827D02*
X163866666Y-90536065D01*
X163866666Y-90536065D02*
X163866666Y-90631303D01*
X163866666Y-90631303D02*
X163390476Y-90726541D01*
X160366666Y-92669819D02*
X160366666Y-91669819D01*
X160366666Y-91669819D02*
X160699999Y-92384104D01*
X160699999Y-92384104D02*
X161033332Y-91669819D01*
X161033332Y-91669819D02*
X161033332Y-92669819D01*
X161652380Y-92669819D02*
X161557142Y-92622200D01*
X161557142Y-92622200D02*
X161509523Y-92574580D01*
X161509523Y-92574580D02*
X161461904Y-92479342D01*
X161461904Y-92479342D02*
X161461904Y-92193628D01*
X161461904Y-92193628D02*
X161509523Y-92098390D01*
X161509523Y-92098390D02*
X161557142Y-92050771D01*
X161557142Y-92050771D02*
X161652380Y-92003152D01*
X161652380Y-92003152D02*
X161795237Y-92003152D01*
X161795237Y-92003152D02*
X161890475Y-92050771D01*
X161890475Y-92050771D02*
X161938094Y-92098390D01*
X161938094Y-92098390D02*
X161985713Y-92193628D01*
X161985713Y-92193628D02*
X161985713Y-92479342D01*
X161985713Y-92479342D02*
X161938094Y-92574580D01*
X161938094Y-92574580D02*
X161890475Y-92622200D01*
X161890475Y-92622200D02*
X161795237Y-92669819D01*
X161795237Y-92669819D02*
X161652380Y-92669819D01*
X162271428Y-92003152D02*
X162652380Y-92003152D01*
X162414285Y-91669819D02*
X162414285Y-92526961D01*
X162414285Y-92526961D02*
X162461904Y-92622200D01*
X162461904Y-92622200D02*
X162557142Y-92669819D01*
X162557142Y-92669819D02*
X162652380Y-92669819D01*
X163128571Y-92669819D02*
X163033333Y-92622200D01*
X163033333Y-92622200D02*
X162985714Y-92574580D01*
X162985714Y-92574580D02*
X162938095Y-92479342D01*
X162938095Y-92479342D02*
X162938095Y-92193628D01*
X162938095Y-92193628D02*
X162985714Y-92098390D01*
X162985714Y-92098390D02*
X163033333Y-92050771D01*
X163033333Y-92050771D02*
X163128571Y-92003152D01*
X163128571Y-92003152D02*
X163271428Y-92003152D01*
X163271428Y-92003152D02*
X163366666Y-92050771D01*
X163366666Y-92050771D02*
X163414285Y-92098390D01*
X163414285Y-92098390D02*
X163461904Y-92193628D01*
X163461904Y-92193628D02*
X163461904Y-92479342D01*
X163461904Y-92479342D02*
X163414285Y-92574580D01*
X163414285Y-92574580D02*
X163366666Y-92622200D01*
X163366666Y-92622200D02*
X163271428Y-92669819D01*
X163271428Y-92669819D02*
X163128571Y-92669819D01*
X163890476Y-92669819D02*
X163890476Y-92003152D01*
X163890476Y-92193628D02*
X163938095Y-92098390D01*
X163938095Y-92098390D02*
X163985714Y-92050771D01*
X163985714Y-92050771D02*
X164080952Y-92003152D01*
X164080952Y-92003152D02*
X164176190Y-92003152D01*
X148536779Y-99588866D02*
X149298684Y-99588866D01*
G36*
X162812715Y-79479077D02*
G01*
X162843122Y-79509484D01*
X162881615Y-79586471D01*
X162924999Y-79760005D01*
X162924999Y-79979632D01*
X162881615Y-80153166D01*
X162843121Y-80230153D01*
X162812714Y-80260561D01*
X162744199Y-80294819D01*
X162684371Y-80294819D01*
X162615855Y-80260561D01*
X162585448Y-80230153D01*
X162546954Y-80153166D01*
X162503571Y-79979632D01*
X162503571Y-79760005D01*
X162546954Y-79586471D01*
X162585448Y-79509484D01*
X162615855Y-79479077D01*
X162684371Y-79444819D01*
X162744199Y-79444819D01*
X162812715Y-79479077D01*
G37*
G36*
X161288906Y-77869133D02*
G01*
X161319313Y-77899540D01*
X161353571Y-77968056D01*
X161353571Y-78075503D01*
X161319313Y-78144019D01*
X161288906Y-78174426D01*
X161220390Y-78208684D01*
X160932143Y-78208684D01*
X160932143Y-77834875D01*
X161220390Y-77834875D01*
X161288906Y-77869133D01*
G37*
G36*
X163471236Y-80555930D02*
G01*
X160671032Y-80555930D01*
X160671032Y-79646152D01*
X160925589Y-79646152D01*
X160927663Y-79675342D01*
X160940750Y-79701517D01*
X160962858Y-79720690D01*
X160990619Y-79729944D01*
X161019809Y-79727870D01*
X161033541Y-79722615D01*
X161128779Y-79674996D01*
X161135078Y-79671031D01*
X161136906Y-79670274D01*
X161138962Y-79668585D01*
X161141222Y-79667164D01*
X161142521Y-79665665D01*
X161148271Y-79660947D01*
X161210714Y-79598504D01*
X161210714Y-80294819D01*
X161000000Y-80294819D01*
X160985368Y-80296260D01*
X160958332Y-80307459D01*
X160937640Y-80328151D01*
X160926441Y-80355187D01*
X160926441Y-80384451D01*
X160937640Y-80411487D01*
X160958332Y-80432179D01*
X160985368Y-80443378D01*
X161000000Y-80444819D01*
X161571428Y-80444819D01*
X161586060Y-80443378D01*
X161613096Y-80432179D01*
X161633788Y-80411487D01*
X161644987Y-80384451D01*
X161644987Y-80355187D01*
X161633788Y-80328151D01*
X161613206Y-80307569D01*
X161878822Y-80307569D01*
X161878822Y-80336832D01*
X161883859Y-80348991D01*
X161890021Y-80363868D01*
X161899348Y-80375233D01*
X161946967Y-80422852D01*
X161958332Y-80432179D01*
X161985368Y-80443378D01*
X161985369Y-80443378D01*
X162014631Y-80443378D01*
X162014632Y-80443378D01*
X162041668Y-80432179D01*
X162053033Y-80422852D01*
X162100652Y-80375233D01*
X162109979Y-80363868D01*
X162121178Y-80336832D01*
X162121178Y-80307569D01*
X162121132Y-80307459D01*
X162109980Y-80280533D01*
X162100652Y-80269167D01*
X162053034Y-80221548D01*
X162041668Y-80212220D01*
X162041667Y-80212219D01*
X162023371Y-80204641D01*
X162014632Y-80201021D01*
X162014631Y-80201021D01*
X161985368Y-80201021D01*
X161976629Y-80204641D01*
X161958333Y-80212219D01*
X161958332Y-80212220D01*
X161946966Y-80221548D01*
X161899347Y-80269168D01*
X161890020Y-80280533D01*
X161878822Y-80307569D01*
X161613206Y-80307569D01*
X161613096Y-80307459D01*
X161586060Y-80296260D01*
X161571428Y-80294819D01*
X161360714Y-80294819D01*
X161360714Y-79750771D01*
X162353571Y-79750771D01*
X162353571Y-79988866D01*
X162353822Y-79991419D01*
X162353660Y-79992512D01*
X162354469Y-79997985D01*
X162355012Y-80003498D01*
X162355434Y-80004519D01*
X162355810Y-80007056D01*
X162403429Y-80197532D01*
X162403814Y-80198611D01*
X162403853Y-80199151D01*
X162406180Y-80205232D01*
X162408376Y-80211378D01*
X162408698Y-80211813D01*
X162409108Y-80212883D01*
X162456727Y-80308121D01*
X162460690Y-80314417D01*
X162461448Y-80316247D01*
X162463137Y-80318305D01*
X162464559Y-80320564D01*
X162466057Y-80321863D01*
X162470775Y-80327612D01*
X162518394Y-80375232D01*
X162524143Y-80379950D01*
X162525444Y-80381450D01*
X162527703Y-80382872D01*
X162529760Y-80384560D01*
X162531587Y-80385317D01*
X162537887Y-80389282D01*
X162633125Y-80436901D01*
X162646856Y-80442156D01*
X162649545Y-80442347D01*
X162652034Y-80443378D01*
X162666666Y-80444819D01*
X162761904Y-80444819D01*
X162776536Y-80443378D01*
X162779025Y-80442346D01*
X162781713Y-80442156D01*
X162795445Y-80436901D01*
X162890683Y-80389282D01*
X162896982Y-80385317D01*
X162898810Y-80384560D01*
X162900866Y-80382872D01*
X162903126Y-80381450D01*
X162904426Y-80379950D01*
X162910176Y-80375232D01*
X162957794Y-80327613D01*
X162962512Y-80321863D01*
X162964011Y-80320564D01*
X162965432Y-80318305D01*
X162967122Y-80316247D01*
X162967879Y-80314417D01*
X162971843Y-80308121D01*
X163019462Y-80212883D01*
X163019871Y-80211813D01*
X163020194Y-80211378D01*
X163022386Y-80205241D01*
X163024717Y-80199152D01*
X163024755Y-80198611D01*
X163025141Y-80197532D01*
X163072760Y-80007056D01*
X163073135Y-80004519D01*
X163073558Y-80003498D01*
X163074100Y-79997985D01*
X163074910Y-79992512D01*
X163074747Y-79991419D01*
X163074999Y-79988866D01*
X163074999Y-79750771D01*
X163074747Y-79748217D01*
X163074910Y-79747125D01*
X163074100Y-79741651D01*
X163073558Y-79736139D01*
X163073135Y-79735117D01*
X163072760Y-79732581D01*
X163025141Y-79542105D01*
X163024755Y-79541025D01*
X163024717Y-79540485D01*
X163022386Y-79534395D01*
X163020194Y-79528259D01*
X163019871Y-79527823D01*
X163019462Y-79526754D01*
X162971843Y-79431516D01*
X162967878Y-79425216D01*
X162967121Y-79423389D01*
X162965432Y-79421332D01*
X162964011Y-79419073D01*
X162962512Y-79417773D01*
X162957794Y-79412024D01*
X162910175Y-79364405D01*
X162904425Y-79359686D01*
X162903126Y-79358188D01*
X162900866Y-79356766D01*
X162898810Y-79355078D01*
X162896982Y-79354320D01*
X162890683Y-79350356D01*
X162795445Y-79302737D01*
X162781713Y-79297482D01*
X162779025Y-79297291D01*
X162776536Y-79296260D01*
X162761904Y-79294819D01*
X162666666Y-79294819D01*
X162652034Y-79296260D01*
X162649545Y-79297290D01*
X162646856Y-79297482D01*
X162633125Y-79302737D01*
X162537887Y-79350356D01*
X162531587Y-79354320D01*
X162529760Y-79355078D01*
X162527703Y-79356766D01*
X162525444Y-79358188D01*
X162524144Y-79359686D01*
X162518395Y-79364405D01*
X162470776Y-79412024D01*
X162466057Y-79417773D01*
X162464559Y-79419073D01*
X162463137Y-79421332D01*
X162461449Y-79423389D01*
X162460691Y-79425216D01*
X162456727Y-79431516D01*
X162409108Y-79526754D01*
X162408698Y-79527823D01*
X162408376Y-79528259D01*
X162406180Y-79534404D01*
X162403853Y-79540486D01*
X162403814Y-79541025D01*
X162403429Y-79542105D01*
X162355810Y-79732581D01*
X162355434Y-79735117D01*
X162355012Y-79736139D01*
X162354469Y-79741651D01*
X162353660Y-79747125D01*
X162353822Y-79748217D01*
X162353571Y-79750771D01*
X161360714Y-79750771D01*
X161360714Y-79369819D01*
X161360708Y-79369766D01*
X161360714Y-79369740D01*
X161360698Y-79369663D01*
X161359273Y-79355187D01*
X161356431Y-79348326D01*
X161354975Y-79341045D01*
X161350885Y-79334938D01*
X161348074Y-79328151D01*
X161342825Y-79322902D01*
X161338692Y-79316730D01*
X161332575Y-79312652D01*
X161327382Y-79307459D01*
X161320522Y-79304617D01*
X161314343Y-79300498D01*
X161307134Y-79299072D01*
X161300346Y-79296260D01*
X161292919Y-79296260D01*
X161285635Y-79294819D01*
X161278430Y-79296260D01*
X161271082Y-79296260D01*
X161264221Y-79299101D01*
X161256941Y-79300558D01*
X161250835Y-79304646D01*
X161244046Y-79307459D01*
X161238795Y-79312709D01*
X161232626Y-79316841D01*
X161223405Y-79328099D01*
X161223354Y-79328151D01*
X161223344Y-79328173D01*
X161223310Y-79328216D01*
X161132190Y-79464896D01*
X161050811Y-79546275D01*
X160966459Y-79588451D01*
X160954016Y-79596283D01*
X160934843Y-79618391D01*
X160925589Y-79646152D01*
X160671032Y-79646152D01*
X160671032Y-77759875D01*
X160782143Y-77759875D01*
X160782143Y-78759875D01*
X160783584Y-78774507D01*
X160794783Y-78801543D01*
X160815475Y-78822235D01*
X160842511Y-78833434D01*
X160871775Y-78833434D01*
X160898811Y-78822235D01*
X160919503Y-78801543D01*
X160930702Y-78774507D01*
X160932143Y-78759875D01*
X160932143Y-78358684D01*
X161056189Y-78358684D01*
X161367129Y-78802885D01*
X161376700Y-78814045D01*
X161401379Y-78829772D01*
X161430196Y-78834858D01*
X161458767Y-78828528D01*
X161482741Y-78811746D01*
X161498468Y-78787068D01*
X161503553Y-78758250D01*
X161497224Y-78729679D01*
X161490014Y-78716866D01*
X161239210Y-78358574D01*
X161252727Y-78357243D01*
X161255216Y-78356211D01*
X161257904Y-78356021D01*
X161271636Y-78350766D01*
X161366874Y-78303147D01*
X161373173Y-78299182D01*
X161375001Y-78298425D01*
X161377057Y-78296736D01*
X161379317Y-78295315D01*
X161380616Y-78293816D01*
X161386366Y-78289098D01*
X161433985Y-78241479D01*
X161438703Y-78235729D01*
X161440202Y-78234430D01*
X161441623Y-78232170D01*
X161443312Y-78230114D01*
X161444069Y-78228286D01*
X161448034Y-78221987D01*
X161495653Y-78126749D01*
X161500908Y-78113018D01*
X161501099Y-78110328D01*
X161502130Y-78107840D01*
X161503571Y-78093208D01*
X161503571Y-77950351D01*
X161502130Y-77935719D01*
X161501099Y-77933230D01*
X161500908Y-77930541D01*
X161495653Y-77916810D01*
X161448034Y-77821572D01*
X161444069Y-77815272D01*
X161443312Y-77813445D01*
X161441623Y-77811388D01*
X161440202Y-77809129D01*
X161438703Y-77807829D01*
X161433985Y-77802080D01*
X161391780Y-77759875D01*
X161782143Y-77759875D01*
X161782143Y-78759875D01*
X161783584Y-78774507D01*
X161794783Y-78801543D01*
X161815475Y-78822235D01*
X161842511Y-78833434D01*
X161857143Y-78834875D01*
X162333333Y-78834875D01*
X162347965Y-78833434D01*
X162375001Y-78822235D01*
X162395693Y-78801543D01*
X162406892Y-78774507D01*
X162406892Y-78745243D01*
X162395693Y-78718207D01*
X162375001Y-78697515D01*
X162347965Y-78686316D01*
X162333333Y-78684875D01*
X161932143Y-78684875D01*
X161932143Y-78311065D01*
X162190476Y-78311065D01*
X162205108Y-78309624D01*
X162232144Y-78298425D01*
X162252836Y-78277733D01*
X162264035Y-78250697D01*
X162264035Y-78221433D01*
X162252836Y-78194397D01*
X162232144Y-78173705D01*
X162205108Y-78162506D01*
X162190476Y-78161065D01*
X161932143Y-78161065D01*
X161932143Y-77834875D01*
X162333333Y-77834875D01*
X162347965Y-77833434D01*
X162375001Y-77822235D01*
X162395693Y-77801543D01*
X162406892Y-77774507D01*
X162406892Y-77769255D01*
X162544637Y-77769255D01*
X162547897Y-77783592D01*
X162881230Y-78783592D01*
X162887224Y-78797017D01*
X162890734Y-78801064D01*
X162893131Y-78805858D01*
X162900239Y-78812023D01*
X162906398Y-78819124D01*
X162911187Y-78821518D01*
X162915238Y-78825032D01*
X162924163Y-78828006D01*
X162932571Y-78832211D01*
X162937915Y-78832590D01*
X162943001Y-78834286D01*
X162952381Y-78833619D01*
X162961761Y-78834286D01*
X162966846Y-78832590D01*
X162972191Y-78832211D01*
X162980601Y-78828005D01*
X162989523Y-78825032D01*
X162993570Y-78821521D01*
X162998364Y-78819125D01*
X163004527Y-78812019D01*
X163011631Y-78805858D01*
X163014026Y-78801066D01*
X163017538Y-78797018D01*
X163023532Y-78783592D01*
X163356865Y-77783592D01*
X163360125Y-77769256D01*
X163358050Y-77740066D01*
X163344964Y-77713892D01*
X163322856Y-77694718D01*
X163295094Y-77685464D01*
X163265904Y-77687539D01*
X163239731Y-77700626D01*
X163220557Y-77722733D01*
X163214563Y-77736158D01*
X162952381Y-78522704D01*
X162690199Y-77736158D01*
X162684205Y-77722732D01*
X162665031Y-77700625D01*
X162638858Y-77687539D01*
X162609668Y-77685464D01*
X162581905Y-77694718D01*
X162559798Y-77713892D01*
X162546712Y-77740065D01*
X162544637Y-77769255D01*
X162406892Y-77769255D01*
X162406892Y-77745243D01*
X162395693Y-77718207D01*
X162375001Y-77697515D01*
X162347965Y-77686316D01*
X162333333Y-77684875D01*
X161857143Y-77684875D01*
X161842511Y-77686316D01*
X161815475Y-77697515D01*
X161794783Y-77718207D01*
X161783584Y-77745243D01*
X161782143Y-77759875D01*
X161391780Y-77759875D01*
X161386366Y-77754461D01*
X161380616Y-77749742D01*
X161379317Y-77748244D01*
X161377057Y-77746822D01*
X161375001Y-77745134D01*
X161373173Y-77744376D01*
X161366874Y-77740412D01*
X161271636Y-77692793D01*
X161257904Y-77687538D01*
X161255216Y-77687347D01*
X161252727Y-77686316D01*
X161238095Y-77684875D01*
X160857143Y-77684875D01*
X160842511Y-77686316D01*
X160815475Y-77697515D01*
X160794783Y-77718207D01*
X160783584Y-77745243D01*
X160782143Y-77759875D01*
X160671032Y-77759875D01*
X160671032Y-77573764D01*
X163471236Y-77573764D01*
X163471236Y-80555930D01*
G37*
X125069819Y-85406077D02*
X125069819Y-84834649D01*
X126069819Y-85120363D02*
X125069819Y-85120363D01*
X126069819Y-84072744D02*
X125546009Y-84072744D01*
X125546009Y-84072744D02*
X125450771Y-84120363D01*
X125450771Y-84120363D02*
X125403152Y-84215601D01*
X125403152Y-84215601D02*
X125403152Y-84406077D01*
X125403152Y-84406077D02*
X125450771Y-84501315D01*
X126022200Y-84072744D02*
X126069819Y-84167982D01*
X126069819Y-84167982D02*
X126069819Y-84406077D01*
X126069819Y-84406077D02*
X126022200Y-84501315D01*
X126022200Y-84501315D02*
X125926961Y-84548934D01*
X125926961Y-84548934D02*
X125831723Y-84548934D01*
X125831723Y-84548934D02*
X125736485Y-84501315D01*
X125736485Y-84501315D02*
X125688866Y-84406077D01*
X125688866Y-84406077D02*
X125688866Y-84167982D01*
X125688866Y-84167982D02*
X125641247Y-84072744D01*
X126022200Y-83167982D02*
X126069819Y-83263220D01*
X126069819Y-83263220D02*
X126069819Y-83453696D01*
X126069819Y-83453696D02*
X126022200Y-83548934D01*
X126022200Y-83548934D02*
X125974580Y-83596553D01*
X125974580Y-83596553D02*
X125879342Y-83644172D01*
X125879342Y-83644172D02*
X125593628Y-83644172D01*
X125593628Y-83644172D02*
X125498390Y-83596553D01*
X125498390Y-83596553D02*
X125450771Y-83548934D01*
X125450771Y-83548934D02*
X125403152Y-83453696D01*
X125403152Y-83453696D02*
X125403152Y-83263220D01*
X125403152Y-83263220D02*
X125450771Y-83167982D01*
X126069819Y-82739410D02*
X125069819Y-82739410D01*
X126069819Y-82310839D02*
X125546009Y-82310839D01*
X125546009Y-82310839D02*
X125450771Y-82358458D01*
X125450771Y-82358458D02*
X125403152Y-82453696D01*
X125403152Y-82453696D02*
X125403152Y-82596553D01*
X125403152Y-82596553D02*
X125450771Y-82691791D01*
X125450771Y-82691791D02*
X125498390Y-82739410D01*
X125974580Y-81834648D02*
X126022200Y-81787029D01*
X126022200Y-81787029D02*
X126069819Y-81834648D01*
X126069819Y-81834648D02*
X126022200Y-81882267D01*
X126022200Y-81882267D02*
X125974580Y-81834648D01*
X125974580Y-81834648D02*
X126069819Y-81834648D01*
X125069819Y-92863220D02*
X124069819Y-92863220D01*
X125069819Y-92387030D02*
X124069819Y-92387030D01*
X124069819Y-92387030D02*
X124784104Y-92053697D01*
X124784104Y-92053697D02*
X124069819Y-91720364D01*
X124069819Y-91720364D02*
X125069819Y-91720364D01*
X124069819Y-91244173D02*
X124879342Y-91244173D01*
X124879342Y-91244173D02*
X124974580Y-91196554D01*
X124974580Y-91196554D02*
X125022200Y-91148935D01*
X125022200Y-91148935D02*
X125069819Y-91053697D01*
X125069819Y-91053697D02*
X125069819Y-90863221D01*
X125069819Y-90863221D02*
X125022200Y-90767983D01*
X125022200Y-90767983D02*
X124974580Y-90720364D01*
X124974580Y-90720364D02*
X124879342Y-90672745D01*
X124879342Y-90672745D02*
X124069819Y-90672745D01*
X125069819Y-88910840D02*
X125069819Y-89482268D01*
X125069819Y-89196554D02*
X124069819Y-89196554D01*
X124069819Y-89196554D02*
X124212676Y-89291792D01*
X124212676Y-89291792D02*
X124307914Y-89387030D01*
X124307914Y-89387030D02*
X124355533Y-89482268D01*
X110269819Y-93006077D02*
X110269819Y-92434649D01*
X111269819Y-92720363D02*
X110269819Y-92720363D01*
X111269819Y-91958458D02*
X111222200Y-92053696D01*
X111222200Y-92053696D02*
X111174580Y-92101315D01*
X111174580Y-92101315D02*
X111079342Y-92148934D01*
X111079342Y-92148934D02*
X110793628Y-92148934D01*
X110793628Y-92148934D02*
X110698390Y-92101315D01*
X110698390Y-92101315D02*
X110650771Y-92053696D01*
X110650771Y-92053696D02*
X110603152Y-91958458D01*
X110603152Y-91958458D02*
X110603152Y-91815601D01*
X110603152Y-91815601D02*
X110650771Y-91720363D01*
X110650771Y-91720363D02*
X110698390Y-91672744D01*
X110698390Y-91672744D02*
X110793628Y-91625125D01*
X110793628Y-91625125D02*
X111079342Y-91625125D01*
X111079342Y-91625125D02*
X111174580Y-91672744D01*
X111174580Y-91672744D02*
X111222200Y-91720363D01*
X111222200Y-91720363D02*
X111269819Y-91815601D01*
X111269819Y-91815601D02*
X111269819Y-91958458D01*
X110746009Y-90863220D02*
X110746009Y-91196553D01*
X111269819Y-91196553D02*
X110269819Y-91196553D01*
X110269819Y-91196553D02*
X110269819Y-90720363D01*
X110365057Y-89625124D02*
X110317438Y-89577505D01*
X110317438Y-89577505D02*
X110269819Y-89482267D01*
X110269819Y-89482267D02*
X110269819Y-89244172D01*
X110269819Y-89244172D02*
X110317438Y-89148934D01*
X110317438Y-89148934D02*
X110365057Y-89101315D01*
X110365057Y-89101315D02*
X110460295Y-89053696D01*
X110460295Y-89053696D02*
X110555533Y-89053696D01*
X110555533Y-89053696D02*
X110698390Y-89101315D01*
X110698390Y-89101315D02*
X111269819Y-89672743D01*
X111269819Y-89672743D02*
X111269819Y-89053696D01*
X154286779Y-98238866D02*
X155048684Y-98238866D01*
X154667731Y-98619819D02*
X154667731Y-97857914D01*
X105669819Y-93006077D02*
X105669819Y-92434649D01*
X106669819Y-92720363D02*
X105669819Y-92720363D01*
X106669819Y-91958458D02*
X106622200Y-92053696D01*
X106622200Y-92053696D02*
X106574580Y-92101315D01*
X106574580Y-92101315D02*
X106479342Y-92148934D01*
X106479342Y-92148934D02*
X106193628Y-92148934D01*
X106193628Y-92148934D02*
X106098390Y-92101315D01*
X106098390Y-92101315D02*
X106050771Y-92053696D01*
X106050771Y-92053696D02*
X106003152Y-91958458D01*
X106003152Y-91958458D02*
X106003152Y-91815601D01*
X106003152Y-91815601D02*
X106050771Y-91720363D01*
X106050771Y-91720363D02*
X106098390Y-91672744D01*
X106098390Y-91672744D02*
X106193628Y-91625125D01*
X106193628Y-91625125D02*
X106479342Y-91625125D01*
X106479342Y-91625125D02*
X106574580Y-91672744D01*
X106574580Y-91672744D02*
X106622200Y-91720363D01*
X106622200Y-91720363D02*
X106669819Y-91815601D01*
X106669819Y-91815601D02*
X106669819Y-91958458D01*
X106146009Y-90863220D02*
X106146009Y-91196553D01*
X106669819Y-91196553D02*
X105669819Y-91196553D01*
X105669819Y-91196553D02*
X105669819Y-90720363D01*
X106669819Y-89053696D02*
X106669819Y-89625124D01*
X106669819Y-89339410D02*
X105669819Y-89339410D01*
X105669819Y-89339410D02*
X105812676Y-89434648D01*
X105812676Y-89434648D02*
X105907914Y-89529886D01*
X105907914Y-89529886D02*
X105955533Y-89625124D01*
X128569819Y-92387030D02*
X128569819Y-92863220D01*
X128569819Y-92863220D02*
X129046009Y-92910839D01*
X129046009Y-92910839D02*
X128998390Y-92863220D01*
X128998390Y-92863220D02*
X128950771Y-92767982D01*
X128950771Y-92767982D02*
X128950771Y-92529887D01*
X128950771Y-92529887D02*
X128998390Y-92434649D01*
X128998390Y-92434649D02*
X129046009Y-92387030D01*
X129046009Y-92387030D02*
X129141247Y-92339411D01*
X129141247Y-92339411D02*
X129379342Y-92339411D01*
X129379342Y-92339411D02*
X129474580Y-92387030D01*
X129474580Y-92387030D02*
X129522200Y-92434649D01*
X129522200Y-92434649D02*
X129569819Y-92529887D01*
X129569819Y-92529887D02*
X129569819Y-92767982D01*
X129569819Y-92767982D02*
X129522200Y-92863220D01*
X129522200Y-92863220D02*
X129474580Y-92910839D01*
X128569819Y-92053696D02*
X129569819Y-91720363D01*
X129569819Y-91720363D02*
X128569819Y-91387030D01*
X129569819Y-90291791D02*
X128569819Y-90291791D01*
X129569819Y-89815601D02*
X128569819Y-89815601D01*
X128569819Y-89815601D02*
X129569819Y-89244173D01*
X129569819Y-89244173D02*
X128569819Y-89244173D01*
X151869819Y-95906077D02*
X152869819Y-95572744D01*
X152869819Y-95572744D02*
X151869819Y-95239411D01*
X152869819Y-94906077D02*
X151869819Y-94906077D01*
X151869819Y-94906077D02*
X152584104Y-94572744D01*
X152584104Y-94572744D02*
X151869819Y-94239411D01*
X151869819Y-94239411D02*
X152869819Y-94239411D01*
X151869819Y-93572744D02*
X151869819Y-93382268D01*
X151869819Y-93382268D02*
X151917438Y-93287030D01*
X151917438Y-93287030D02*
X152012676Y-93191792D01*
X152012676Y-93191792D02*
X152203152Y-93144173D01*
X152203152Y-93144173D02*
X152536485Y-93144173D01*
X152536485Y-93144173D02*
X152726961Y-93191792D01*
X152726961Y-93191792D02*
X152822200Y-93287030D01*
X152822200Y-93287030D02*
X152869819Y-93382268D01*
X152869819Y-93382268D02*
X152869819Y-93572744D01*
X152869819Y-93572744D02*
X152822200Y-93667982D01*
X152822200Y-93667982D02*
X152726961Y-93763220D01*
X152726961Y-93763220D02*
X152536485Y-93810839D01*
X152536485Y-93810839D02*
X152203152Y-93810839D01*
X152203152Y-93810839D02*
X152012676Y-93763220D01*
X152012676Y-93763220D02*
X151917438Y-93667982D01*
X151917438Y-93667982D02*
X151869819Y-93572744D01*
X151869819Y-92858458D02*
X151869819Y-92287030D01*
X152869819Y-92572744D02*
X151869819Y-92572744D01*
X127666666Y-77074819D02*
X127666666Y-77789104D01*
X127666666Y-77789104D02*
X127619047Y-77931961D01*
X127619047Y-77931961D02*
X127523809Y-78027200D01*
X127523809Y-78027200D02*
X127380952Y-78074819D01*
X127380952Y-78074819D02*
X127285714Y-78074819D01*
X128619047Y-77074819D02*
X128142857Y-77074819D01*
X128142857Y-77074819D02*
X128095238Y-77551009D01*
X128095238Y-77551009D02*
X128142857Y-77503390D01*
X128142857Y-77503390D02*
X128238095Y-77455771D01*
X128238095Y-77455771D02*
X128476190Y-77455771D01*
X128476190Y-77455771D02*
X128571428Y-77503390D01*
X128571428Y-77503390D02*
X128619047Y-77551009D01*
X128619047Y-77551009D02*
X128666666Y-77646247D01*
X128666666Y-77646247D02*
X128666666Y-77884342D01*
X128666666Y-77884342D02*
X128619047Y-77979580D01*
X128619047Y-77979580D02*
X128571428Y-78027200D01*
X128571428Y-78027200D02*
X128476190Y-78074819D01*
X128476190Y-78074819D02*
X128238095Y-78074819D01*
X128238095Y-78074819D02*
X128142857Y-78027200D01*
X128142857Y-78027200D02*
X128095238Y-77979580D01*
X145759580Y-81966666D02*
X145807200Y-82014285D01*
X145807200Y-82014285D02*
X145854819Y-82157142D01*
X145854819Y-82157142D02*
X145854819Y-82252380D01*
X145854819Y-82252380D02*
X145807200Y-82395237D01*
X145807200Y-82395237D02*
X145711961Y-82490475D01*
X145711961Y-82490475D02*
X145616723Y-82538094D01*
X145616723Y-82538094D02*
X145426247Y-82585713D01*
X145426247Y-82585713D02*
X145283390Y-82585713D01*
X145283390Y-82585713D02*
X145092914Y-82538094D01*
X145092914Y-82538094D02*
X144997676Y-82490475D01*
X144997676Y-82490475D02*
X144902438Y-82395237D01*
X144902438Y-82395237D02*
X144854819Y-82252380D01*
X144854819Y-82252380D02*
X144854819Y-82157142D01*
X144854819Y-82157142D02*
X144902438Y-82014285D01*
X144902438Y-82014285D02*
X144950057Y-81966666D01*
X144950057Y-81585713D02*
X144902438Y-81538094D01*
X144902438Y-81538094D02*
X144854819Y-81442856D01*
X144854819Y-81442856D02*
X144854819Y-81204761D01*
X144854819Y-81204761D02*
X144902438Y-81109523D01*
X144902438Y-81109523D02*
X144950057Y-81061904D01*
X144950057Y-81061904D02*
X145045295Y-81014285D01*
X145045295Y-81014285D02*
X145140533Y-81014285D01*
X145140533Y-81014285D02*
X145283390Y-81061904D01*
X145283390Y-81061904D02*
X145854819Y-81633332D01*
X145854819Y-81633332D02*
X145854819Y-81014285D01*
X117346666Y-87574819D02*
X117346666Y-88289104D01*
X117346666Y-88289104D02*
X117299047Y-88431961D01*
X117299047Y-88431961D02*
X117203809Y-88527200D01*
X117203809Y-88527200D02*
X117060952Y-88574819D01*
X117060952Y-88574819D02*
X116965714Y-88574819D01*
X117870476Y-88574819D02*
X118060952Y-88574819D01*
X118060952Y-88574819D02*
X118156190Y-88527200D01*
X118156190Y-88527200D02*
X118203809Y-88479580D01*
X118203809Y-88479580D02*
X118299047Y-88336723D01*
X118299047Y-88336723D02*
X118346666Y-88146247D01*
X118346666Y-88146247D02*
X118346666Y-87765295D01*
X118346666Y-87765295D02*
X118299047Y-87670057D01*
X118299047Y-87670057D02*
X118251428Y-87622438D01*
X118251428Y-87622438D02*
X118156190Y-87574819D01*
X118156190Y-87574819D02*
X117965714Y-87574819D01*
X117965714Y-87574819D02*
X117870476Y-87622438D01*
X117870476Y-87622438D02*
X117822857Y-87670057D01*
X117822857Y-87670057D02*
X117775238Y-87765295D01*
X117775238Y-87765295D02*
X117775238Y-88003390D01*
X117775238Y-88003390D02*
X117822857Y-88098628D01*
X117822857Y-88098628D02*
X117870476Y-88146247D01*
X117870476Y-88146247D02*
X117965714Y-88193866D01*
X117965714Y-88193866D02*
X118156190Y-88193866D01*
X118156190Y-88193866D02*
X118251428Y-88146247D01*
X118251428Y-88146247D02*
X118299047Y-88098628D01*
X118299047Y-88098628D02*
X118346666Y-88003390D01*
X122854819Y-79166666D02*
X122378628Y-79499999D01*
X122854819Y-79738094D02*
X121854819Y-79738094D01*
X121854819Y-79738094D02*
X121854819Y-79357142D01*
X121854819Y-79357142D02*
X121902438Y-79261904D01*
X121902438Y-79261904D02*
X121950057Y-79214285D01*
X121950057Y-79214285D02*
X122045295Y-79166666D01*
X122045295Y-79166666D02*
X122188152Y-79166666D01*
X122188152Y-79166666D02*
X122283390Y-79214285D01*
X122283390Y-79214285D02*
X122331009Y-79261904D01*
X122331009Y-79261904D02*
X122378628Y-79357142D01*
X122378628Y-79357142D02*
X122378628Y-79738094D01*
X121854819Y-78309523D02*
X121854819Y-78499999D01*
X121854819Y-78499999D02*
X121902438Y-78595237D01*
X121902438Y-78595237D02*
X121950057Y-78642856D01*
X121950057Y-78642856D02*
X122092914Y-78738094D01*
X122092914Y-78738094D02*
X122283390Y-78785713D01*
X122283390Y-78785713D02*
X122664342Y-78785713D01*
X122664342Y-78785713D02*
X122759580Y-78738094D01*
X122759580Y-78738094D02*
X122807200Y-78690475D01*
X122807200Y-78690475D02*
X122854819Y-78595237D01*
X122854819Y-78595237D02*
X122854819Y-78404761D01*
X122854819Y-78404761D02*
X122807200Y-78309523D01*
X122807200Y-78309523D02*
X122759580Y-78261904D01*
X122759580Y-78261904D02*
X122664342Y-78214285D01*
X122664342Y-78214285D02*
X122426247Y-78214285D01*
X122426247Y-78214285D02*
X122331009Y-78261904D01*
X122331009Y-78261904D02*
X122283390Y-78309523D01*
X122283390Y-78309523D02*
X122235771Y-78404761D01*
X122235771Y-78404761D02*
X122235771Y-78595237D01*
X122235771Y-78595237D02*
X122283390Y-78690475D01*
X122283390Y-78690475D02*
X122331009Y-78738094D01*
X122331009Y-78738094D02*
X122426247Y-78785713D01*
X153333333Y-87454819D02*
X153000000Y-86978628D01*
X152761905Y-87454819D02*
X152761905Y-86454819D01*
X152761905Y-86454819D02*
X153142857Y-86454819D01*
X153142857Y-86454819D02*
X153238095Y-86502438D01*
X153238095Y-86502438D02*
X153285714Y-86550057D01*
X153285714Y-86550057D02*
X153333333Y-86645295D01*
X153333333Y-86645295D02*
X153333333Y-86788152D01*
X153333333Y-86788152D02*
X153285714Y-86883390D01*
X153285714Y-86883390D02*
X153238095Y-86931009D01*
X153238095Y-86931009D02*
X153142857Y-86978628D01*
X153142857Y-86978628D02*
X152761905Y-86978628D01*
X154238095Y-86454819D02*
X153761905Y-86454819D01*
X153761905Y-86454819D02*
X153714286Y-86931009D01*
X153714286Y-86931009D02*
X153761905Y-86883390D01*
X153761905Y-86883390D02*
X153857143Y-86835771D01*
X153857143Y-86835771D02*
X154095238Y-86835771D01*
X154095238Y-86835771D02*
X154190476Y-86883390D01*
X154190476Y-86883390D02*
X154238095Y-86931009D01*
X154238095Y-86931009D02*
X154285714Y-87026247D01*
X154285714Y-87026247D02*
X154285714Y-87264342D01*
X154285714Y-87264342D02*
X154238095Y-87359580D01*
X154238095Y-87359580D02*
X154190476Y-87407200D01*
X154190476Y-87407200D02*
X154095238Y-87454819D01*
X154095238Y-87454819D02*
X153857143Y-87454819D01*
X153857143Y-87454819D02*
X153761905Y-87407200D01*
X153761905Y-87407200D02*
X153714286Y-87359580D01*
X140854819Y-82261904D02*
X140854819Y-81690476D01*
X141854819Y-81976190D02*
X140854819Y-81976190D01*
X141854819Y-81357142D02*
X140854819Y-81357142D01*
X140854819Y-81357142D02*
X140854819Y-80976190D01*
X140854819Y-80976190D02*
X140902438Y-80880952D01*
X140902438Y-80880952D02*
X140950057Y-80833333D01*
X140950057Y-80833333D02*
X141045295Y-80785714D01*
X141045295Y-80785714D02*
X141188152Y-80785714D01*
X141188152Y-80785714D02*
X141283390Y-80833333D01*
X141283390Y-80833333D02*
X141331009Y-80880952D01*
X141331009Y-80880952D02*
X141378628Y-80976190D01*
X141378628Y-80976190D02*
X141378628Y-81357142D01*
X140950057Y-80404761D02*
X140902438Y-80357142D01*
X140902438Y-80357142D02*
X140854819Y-80261904D01*
X140854819Y-80261904D02*
X140854819Y-80023809D01*
X140854819Y-80023809D02*
X140902438Y-79928571D01*
X140902438Y-79928571D02*
X140950057Y-79880952D01*
X140950057Y-79880952D02*
X141045295Y-79833333D01*
X141045295Y-79833333D02*
X141140533Y-79833333D01*
X141140533Y-79833333D02*
X141283390Y-79880952D01*
X141283390Y-79880952D02*
X141854819Y-80452380D01*
X141854819Y-80452380D02*
X141854819Y-79833333D01*
X157633333Y-81159580D02*
X157585714Y-81207200D01*
X157585714Y-81207200D02*
X157442857Y-81254819D01*
X157442857Y-81254819D02*
X157347619Y-81254819D01*
X157347619Y-81254819D02*
X157204762Y-81207200D01*
X157204762Y-81207200D02*
X157109524Y-81111961D01*
X157109524Y-81111961D02*
X157061905Y-81016723D01*
X157061905Y-81016723D02*
X157014286Y-80826247D01*
X157014286Y-80826247D02*
X157014286Y-80683390D01*
X157014286Y-80683390D02*
X157061905Y-80492914D01*
X157061905Y-80492914D02*
X157109524Y-80397676D01*
X157109524Y-80397676D02*
X157204762Y-80302438D01*
X157204762Y-80302438D02*
X157347619Y-80254819D01*
X157347619Y-80254819D02*
X157442857Y-80254819D01*
X157442857Y-80254819D02*
X157585714Y-80302438D01*
X157585714Y-80302438D02*
X157633333Y-80350057D01*
X158538095Y-80254819D02*
X158061905Y-80254819D01*
X158061905Y-80254819D02*
X158014286Y-80731009D01*
X158014286Y-80731009D02*
X158061905Y-80683390D01*
X158061905Y-80683390D02*
X158157143Y-80635771D01*
X158157143Y-80635771D02*
X158395238Y-80635771D01*
X158395238Y-80635771D02*
X158490476Y-80683390D01*
X158490476Y-80683390D02*
X158538095Y-80731009D01*
X158538095Y-80731009D02*
X158585714Y-80826247D01*
X158585714Y-80826247D02*
X158585714Y-81064342D01*
X158585714Y-81064342D02*
X158538095Y-81159580D01*
X158538095Y-81159580D02*
X158490476Y-81207200D01*
X158490476Y-81207200D02*
X158395238Y-81254819D01*
X158395238Y-81254819D02*
X158157143Y-81254819D01*
X158157143Y-81254819D02*
X158061905Y-81207200D01*
X158061905Y-81207200D02*
X158014286Y-81159580D01*
X141654819Y-85411666D02*
X141178628Y-85744999D01*
X141654819Y-85983094D02*
X140654819Y-85983094D01*
X140654819Y-85983094D02*
X140654819Y-85602142D01*
X140654819Y-85602142D02*
X140702438Y-85506904D01*
X140702438Y-85506904D02*
X140750057Y-85459285D01*
X140750057Y-85459285D02*
X140845295Y-85411666D01*
X140845295Y-85411666D02*
X140988152Y-85411666D01*
X140988152Y-85411666D02*
X141083390Y-85459285D01*
X141083390Y-85459285D02*
X141131009Y-85506904D01*
X141131009Y-85506904D02*
X141178628Y-85602142D01*
X141178628Y-85602142D02*
X141178628Y-85983094D01*
X140750057Y-85030713D02*
X140702438Y-84983094D01*
X140702438Y-84983094D02*
X140654819Y-84887856D01*
X140654819Y-84887856D02*
X140654819Y-84649761D01*
X140654819Y-84649761D02*
X140702438Y-84554523D01*
X140702438Y-84554523D02*
X140750057Y-84506904D01*
X140750057Y-84506904D02*
X140845295Y-84459285D01*
X140845295Y-84459285D02*
X140940533Y-84459285D01*
X140940533Y-84459285D02*
X141083390Y-84506904D01*
X141083390Y-84506904D02*
X141654819Y-85078332D01*
X141654819Y-85078332D02*
X141654819Y-84459285D01*
X147754819Y-77166666D02*
X147278628Y-77499999D01*
X147754819Y-77738094D02*
X146754819Y-77738094D01*
X146754819Y-77738094D02*
X146754819Y-77357142D01*
X146754819Y-77357142D02*
X146802438Y-77261904D01*
X146802438Y-77261904D02*
X146850057Y-77214285D01*
X146850057Y-77214285D02*
X146945295Y-77166666D01*
X146945295Y-77166666D02*
X147088152Y-77166666D01*
X147088152Y-77166666D02*
X147183390Y-77214285D01*
X147183390Y-77214285D02*
X147231009Y-77261904D01*
X147231009Y-77261904D02*
X147278628Y-77357142D01*
X147278628Y-77357142D02*
X147278628Y-77738094D01*
X146754819Y-76833332D02*
X146754819Y-76214285D01*
X146754819Y-76214285D02*
X147135771Y-76547618D01*
X147135771Y-76547618D02*
X147135771Y-76404761D01*
X147135771Y-76404761D02*
X147183390Y-76309523D01*
X147183390Y-76309523D02*
X147231009Y-76261904D01*
X147231009Y-76261904D02*
X147326247Y-76214285D01*
X147326247Y-76214285D02*
X147564342Y-76214285D01*
X147564342Y-76214285D02*
X147659580Y-76261904D01*
X147659580Y-76261904D02*
X147707200Y-76309523D01*
X147707200Y-76309523D02*
X147754819Y-76404761D01*
X147754819Y-76404761D02*
X147754819Y-76690475D01*
X147754819Y-76690475D02*
X147707200Y-76785713D01*
X147707200Y-76785713D02*
X147659580Y-76833332D01*
X112756666Y-87574819D02*
X112756666Y-88289104D01*
X112756666Y-88289104D02*
X112709047Y-88431961D01*
X112709047Y-88431961D02*
X112613809Y-88527200D01*
X112613809Y-88527200D02*
X112470952Y-88574819D01*
X112470952Y-88574819D02*
X112375714Y-88574819D01*
X113375714Y-88003390D02*
X113280476Y-87955771D01*
X113280476Y-87955771D02*
X113232857Y-87908152D01*
X113232857Y-87908152D02*
X113185238Y-87812914D01*
X113185238Y-87812914D02*
X113185238Y-87765295D01*
X113185238Y-87765295D02*
X113232857Y-87670057D01*
X113232857Y-87670057D02*
X113280476Y-87622438D01*
X113280476Y-87622438D02*
X113375714Y-87574819D01*
X113375714Y-87574819D02*
X113566190Y-87574819D01*
X113566190Y-87574819D02*
X113661428Y-87622438D01*
X113661428Y-87622438D02*
X113709047Y-87670057D01*
X113709047Y-87670057D02*
X113756666Y-87765295D01*
X113756666Y-87765295D02*
X113756666Y-87812914D01*
X113756666Y-87812914D02*
X113709047Y-87908152D01*
X113709047Y-87908152D02*
X113661428Y-87955771D01*
X113661428Y-87955771D02*
X113566190Y-88003390D01*
X113566190Y-88003390D02*
X113375714Y-88003390D01*
X113375714Y-88003390D02*
X113280476Y-88051009D01*
X113280476Y-88051009D02*
X113232857Y-88098628D01*
X113232857Y-88098628D02*
X113185238Y-88193866D01*
X113185238Y-88193866D02*
X113185238Y-88384342D01*
X113185238Y-88384342D02*
X113232857Y-88479580D01*
X113232857Y-88479580D02*
X113280476Y-88527200D01*
X113280476Y-88527200D02*
X113375714Y-88574819D01*
X113375714Y-88574819D02*
X113566190Y-88574819D01*
X113566190Y-88574819D02*
X113661428Y-88527200D01*
X113661428Y-88527200D02*
X113709047Y-88479580D01*
X113709047Y-88479580D02*
X113756666Y-88384342D01*
X113756666Y-88384342D02*
X113756666Y-88193866D01*
X113756666Y-88193866D02*
X113709047Y-88098628D01*
X113709047Y-88098628D02*
X113661428Y-88051009D01*
X113661428Y-88051009D02*
X113566190Y-88003390D01*
X122854819Y-81766666D02*
X122378628Y-82099999D01*
X122854819Y-82338094D02*
X121854819Y-82338094D01*
X121854819Y-82338094D02*
X121854819Y-81957142D01*
X121854819Y-81957142D02*
X121902438Y-81861904D01*
X121902438Y-81861904D02*
X121950057Y-81814285D01*
X121950057Y-81814285D02*
X122045295Y-81766666D01*
X122045295Y-81766666D02*
X122188152Y-81766666D01*
X122188152Y-81766666D02*
X122283390Y-81814285D01*
X122283390Y-81814285D02*
X122331009Y-81861904D01*
X122331009Y-81861904D02*
X122378628Y-81957142D01*
X122378628Y-81957142D02*
X122378628Y-82338094D01*
X121854819Y-81433332D02*
X121854819Y-80766666D01*
X121854819Y-80766666D02*
X122854819Y-81195237D01*
X128654819Y-98733333D02*
X129369104Y-98733333D01*
X129369104Y-98733333D02*
X129511961Y-98780952D01*
X129511961Y-98780952D02*
X129607200Y-98876190D01*
X129607200Y-98876190D02*
X129654819Y-99019047D01*
X129654819Y-99019047D02*
X129654819Y-99114285D01*
X128750057Y-98304761D02*
X128702438Y-98257142D01*
X128702438Y-98257142D02*
X128654819Y-98161904D01*
X128654819Y-98161904D02*
X128654819Y-97923809D01*
X128654819Y-97923809D02*
X128702438Y-97828571D01*
X128702438Y-97828571D02*
X128750057Y-97780952D01*
X128750057Y-97780952D02*
X128845295Y-97733333D01*
X128845295Y-97733333D02*
X128940533Y-97733333D01*
X128940533Y-97733333D02*
X129083390Y-97780952D01*
X129083390Y-97780952D02*
X129654819Y-98352380D01*
X129654819Y-98352380D02*
X129654819Y-97733333D01*
X101909523Y-88854819D02*
X101576190Y-88378628D01*
X101338095Y-88854819D02*
X101338095Y-87854819D01*
X101338095Y-87854819D02*
X101719047Y-87854819D01*
X101719047Y-87854819D02*
X101814285Y-87902438D01*
X101814285Y-87902438D02*
X101861904Y-87950057D01*
X101861904Y-87950057D02*
X101909523Y-88045295D01*
X101909523Y-88045295D02*
X101909523Y-88188152D01*
X101909523Y-88188152D02*
X101861904Y-88283390D01*
X101861904Y-88283390D02*
X101814285Y-88331009D01*
X101814285Y-88331009D02*
X101719047Y-88378628D01*
X101719047Y-88378628D02*
X101338095Y-88378628D01*
X102338095Y-88854819D02*
X102338095Y-87854819D01*
X102338095Y-87854819D02*
X102909523Y-88854819D01*
X102909523Y-88854819D02*
X102909523Y-87854819D01*
X103909523Y-88854819D02*
X103338095Y-88854819D01*
X103623809Y-88854819D02*
X103623809Y-87854819D01*
X103623809Y-87854819D02*
X103528571Y-87997676D01*
X103528571Y-87997676D02*
X103433333Y-88092914D01*
X103433333Y-88092914D02*
X103338095Y-88140533D01*
X121460476Y-87574819D02*
X121460476Y-88289104D01*
X121460476Y-88289104D02*
X121412857Y-88431961D01*
X121412857Y-88431961D02*
X121317619Y-88527200D01*
X121317619Y-88527200D02*
X121174762Y-88574819D01*
X121174762Y-88574819D02*
X121079524Y-88574819D01*
X122460476Y-88574819D02*
X121889048Y-88574819D01*
X122174762Y-88574819D02*
X122174762Y-87574819D01*
X122174762Y-87574819D02*
X122079524Y-87717676D01*
X122079524Y-87717676D02*
X121984286Y-87812914D01*
X121984286Y-87812914D02*
X121889048Y-87860533D01*
X123079524Y-87574819D02*
X123174762Y-87574819D01*
X123174762Y-87574819D02*
X123270000Y-87622438D01*
X123270000Y-87622438D02*
X123317619Y-87670057D01*
X123317619Y-87670057D02*
X123365238Y-87765295D01*
X123365238Y-87765295D02*
X123412857Y-87955771D01*
X123412857Y-87955771D02*
X123412857Y-88193866D01*
X123412857Y-88193866D02*
X123365238Y-88384342D01*
X123365238Y-88384342D02*
X123317619Y-88479580D01*
X123317619Y-88479580D02*
X123270000Y-88527200D01*
X123270000Y-88527200D02*
X123174762Y-88574819D01*
X123174762Y-88574819D02*
X123079524Y-88574819D01*
X123079524Y-88574819D02*
X122984286Y-88527200D01*
X122984286Y-88527200D02*
X122936667Y-88479580D01*
X122936667Y-88479580D02*
X122889048Y-88384342D01*
X122889048Y-88384342D02*
X122841429Y-88193866D01*
X122841429Y-88193866D02*
X122841429Y-87955771D01*
X122841429Y-87955771D02*
X122889048Y-87765295D01*
X122889048Y-87765295D02*
X122936667Y-87670057D01*
X122936667Y-87670057D02*
X122984286Y-87622438D01*
X122984286Y-87622438D02*
X123079524Y-87574819D01*
X130833333Y-76959580D02*
X130785714Y-77007200D01*
X130785714Y-77007200D02*
X130642857Y-77054819D01*
X130642857Y-77054819D02*
X130547619Y-77054819D01*
X130547619Y-77054819D02*
X130404762Y-77007200D01*
X130404762Y-77007200D02*
X130309524Y-76911961D01*
X130309524Y-76911961D02*
X130261905Y-76816723D01*
X130261905Y-76816723D02*
X130214286Y-76626247D01*
X130214286Y-76626247D02*
X130214286Y-76483390D01*
X130214286Y-76483390D02*
X130261905Y-76292914D01*
X130261905Y-76292914D02*
X130309524Y-76197676D01*
X130309524Y-76197676D02*
X130404762Y-76102438D01*
X130404762Y-76102438D02*
X130547619Y-76054819D01*
X130547619Y-76054819D02*
X130642857Y-76054819D01*
X130642857Y-76054819D02*
X130785714Y-76102438D01*
X130785714Y-76102438D02*
X130833333Y-76150057D01*
X131690476Y-76388152D02*
X131690476Y-77054819D01*
X131452381Y-76007200D02*
X131214286Y-76721485D01*
X131214286Y-76721485D02*
X131833333Y-76721485D01*
X108166666Y-87574819D02*
X108166666Y-88289104D01*
X108166666Y-88289104D02*
X108119047Y-88431961D01*
X108119047Y-88431961D02*
X108023809Y-88527200D01*
X108023809Y-88527200D02*
X107880952Y-88574819D01*
X107880952Y-88574819D02*
X107785714Y-88574819D01*
X108547619Y-87574819D02*
X109214285Y-87574819D01*
X109214285Y-87574819D02*
X108785714Y-88574819D01*
X145754819Y-77166666D02*
X145278628Y-77499999D01*
X145754819Y-77738094D02*
X144754819Y-77738094D01*
X144754819Y-77738094D02*
X144754819Y-77357142D01*
X144754819Y-77357142D02*
X144802438Y-77261904D01*
X144802438Y-77261904D02*
X144850057Y-77214285D01*
X144850057Y-77214285D02*
X144945295Y-77166666D01*
X144945295Y-77166666D02*
X145088152Y-77166666D01*
X145088152Y-77166666D02*
X145183390Y-77214285D01*
X145183390Y-77214285D02*
X145231009Y-77261904D01*
X145231009Y-77261904D02*
X145278628Y-77357142D01*
X145278628Y-77357142D02*
X145278628Y-77738094D01*
X145754819Y-76214285D02*
X145754819Y-76785713D01*
X145754819Y-76499999D02*
X144754819Y-76499999D01*
X144754819Y-76499999D02*
X144897676Y-76595237D01*
X144897676Y-76595237D02*
X144992914Y-76690475D01*
X144992914Y-76690475D02*
X145040533Y-76785713D01*
X118789580Y-82166666D02*
X118837200Y-82214285D01*
X118837200Y-82214285D02*
X118884819Y-82357142D01*
X118884819Y-82357142D02*
X118884819Y-82452380D01*
X118884819Y-82452380D02*
X118837200Y-82595237D01*
X118837200Y-82595237D02*
X118741961Y-82690475D01*
X118741961Y-82690475D02*
X118646723Y-82738094D01*
X118646723Y-82738094D02*
X118456247Y-82785713D01*
X118456247Y-82785713D02*
X118313390Y-82785713D01*
X118313390Y-82785713D02*
X118122914Y-82738094D01*
X118122914Y-82738094D02*
X118027676Y-82690475D01*
X118027676Y-82690475D02*
X117932438Y-82595237D01*
X117932438Y-82595237D02*
X117884819Y-82452380D01*
X117884819Y-82452380D02*
X117884819Y-82357142D01*
X117884819Y-82357142D02*
X117932438Y-82214285D01*
X117932438Y-82214285D02*
X117980057Y-82166666D01*
X117884819Y-81833332D02*
X117884819Y-81214285D01*
X117884819Y-81214285D02*
X118265771Y-81547618D01*
X118265771Y-81547618D02*
X118265771Y-81404761D01*
X118265771Y-81404761D02*
X118313390Y-81309523D01*
X118313390Y-81309523D02*
X118361009Y-81261904D01*
X118361009Y-81261904D02*
X118456247Y-81214285D01*
X118456247Y-81214285D02*
X118694342Y-81214285D01*
X118694342Y-81214285D02*
X118789580Y-81261904D01*
X118789580Y-81261904D02*
X118837200Y-81309523D01*
X118837200Y-81309523D02*
X118884819Y-81404761D01*
X118884819Y-81404761D02*
X118884819Y-81690475D01*
X118884819Y-81690475D02*
X118837200Y-81785713D01*
X118837200Y-81785713D02*
X118789580Y-81833332D01*
X157733333Y-94309580D02*
X157685714Y-94357200D01*
X157685714Y-94357200D02*
X157542857Y-94404819D01*
X157542857Y-94404819D02*
X157447619Y-94404819D01*
X157447619Y-94404819D02*
X157304762Y-94357200D01*
X157304762Y-94357200D02*
X157209524Y-94261961D01*
X157209524Y-94261961D02*
X157161905Y-94166723D01*
X157161905Y-94166723D02*
X157114286Y-93976247D01*
X157114286Y-93976247D02*
X157114286Y-93833390D01*
X157114286Y-93833390D02*
X157161905Y-93642914D01*
X157161905Y-93642914D02*
X157209524Y-93547676D01*
X157209524Y-93547676D02*
X157304762Y-93452438D01*
X157304762Y-93452438D02*
X157447619Y-93404819D01*
X157447619Y-93404819D02*
X157542857Y-93404819D01*
X157542857Y-93404819D02*
X157685714Y-93452438D01*
X157685714Y-93452438D02*
X157733333Y-93500057D01*
X158590476Y-93404819D02*
X158400000Y-93404819D01*
X158400000Y-93404819D02*
X158304762Y-93452438D01*
X158304762Y-93452438D02*
X158257143Y-93500057D01*
X158257143Y-93500057D02*
X158161905Y-93642914D01*
X158161905Y-93642914D02*
X158114286Y-93833390D01*
X158114286Y-93833390D02*
X158114286Y-94214342D01*
X158114286Y-94214342D02*
X158161905Y-94309580D01*
X158161905Y-94309580D02*
X158209524Y-94357200D01*
X158209524Y-94357200D02*
X158304762Y-94404819D01*
X158304762Y-94404819D02*
X158495238Y-94404819D01*
X158495238Y-94404819D02*
X158590476Y-94357200D01*
X158590476Y-94357200D02*
X158638095Y-94309580D01*
X158638095Y-94309580D02*
X158685714Y-94214342D01*
X158685714Y-94214342D02*
X158685714Y-93976247D01*
X158685714Y-93976247D02*
X158638095Y-93881009D01*
X158638095Y-93881009D02*
X158590476Y-93833390D01*
X158590476Y-93833390D02*
X158495238Y-93785771D01*
X158495238Y-93785771D02*
X158304762Y-93785771D01*
X158304762Y-93785771D02*
X158209524Y-93833390D01*
X158209524Y-93833390D02*
X158161905Y-93881009D01*
X158161905Y-93881009D02*
X158114286Y-93976247D01*
X128654819Y-87961904D02*
X129464342Y-87961904D01*
X129464342Y-87961904D02*
X129559580Y-87914285D01*
X129559580Y-87914285D02*
X129607200Y-87866666D01*
X129607200Y-87866666D02*
X129654819Y-87771428D01*
X129654819Y-87771428D02*
X129654819Y-87580952D01*
X129654819Y-87580952D02*
X129607200Y-87485714D01*
X129607200Y-87485714D02*
X129559580Y-87438095D01*
X129559580Y-87438095D02*
X129464342Y-87390476D01*
X129464342Y-87390476D02*
X128654819Y-87390476D01*
X129654819Y-86390476D02*
X129654819Y-86961904D01*
X129654819Y-86676190D02*
X128654819Y-86676190D01*
X128654819Y-86676190D02*
X128797676Y-86771428D01*
X128797676Y-86771428D02*
X128892914Y-86866666D01*
X128892914Y-86866666D02*
X128940533Y-86961904D01*
X151854819Y-98733333D02*
X152569104Y-98733333D01*
X152569104Y-98733333D02*
X152711961Y-98780952D01*
X152711961Y-98780952D02*
X152807200Y-98876190D01*
X152807200Y-98876190D02*
X152854819Y-99019047D01*
X152854819Y-99019047D02*
X152854819Y-99114285D01*
X151854819Y-98352380D02*
X151854819Y-97733333D01*
X151854819Y-97733333D02*
X152235771Y-98066666D01*
X152235771Y-98066666D02*
X152235771Y-97923809D01*
X152235771Y-97923809D02*
X152283390Y-97828571D01*
X152283390Y-97828571D02*
X152331009Y-97780952D01*
X152331009Y-97780952D02*
X152426247Y-97733333D01*
X152426247Y-97733333D02*
X152664342Y-97733333D01*
X152664342Y-97733333D02*
X152759580Y-97780952D01*
X152759580Y-97780952D02*
X152807200Y-97828571D01*
X152807200Y-97828571D02*
X152854819Y-97923809D01*
X152854819Y-97923809D02*
X152854819Y-98209523D01*
X152854819Y-98209523D02*
X152807200Y-98304761D01*
X152807200Y-98304761D02*
X152759580Y-98352380D01*
X161666666Y-81654819D02*
X161666666Y-82369104D01*
X161666666Y-82369104D02*
X161619047Y-82511961D01*
X161619047Y-82511961D02*
X161523809Y-82607200D01*
X161523809Y-82607200D02*
X161380952Y-82654819D01*
X161380952Y-82654819D02*
X161285714Y-82654819D01*
X162571428Y-81654819D02*
X162380952Y-81654819D01*
X162380952Y-81654819D02*
X162285714Y-81702438D01*
X162285714Y-81702438D02*
X162238095Y-81750057D01*
X162238095Y-81750057D02*
X162142857Y-81892914D01*
X162142857Y-81892914D02*
X162095238Y-82083390D01*
X162095238Y-82083390D02*
X162095238Y-82464342D01*
X162095238Y-82464342D02*
X162142857Y-82559580D01*
X162142857Y-82559580D02*
X162190476Y-82607200D01*
X162190476Y-82607200D02*
X162285714Y-82654819D01*
X162285714Y-82654819D02*
X162476190Y-82654819D01*
X162476190Y-82654819D02*
X162571428Y-82607200D01*
X162571428Y-82607200D02*
X162619047Y-82559580D01*
X162619047Y-82559580D02*
X162666666Y-82464342D01*
X162666666Y-82464342D02*
X162666666Y-82226247D01*
X162666666Y-82226247D02*
X162619047Y-82131009D01*
X162619047Y-82131009D02*
X162571428Y-82083390D01*
X162571428Y-82083390D02*
X162476190Y-82035771D01*
X162476190Y-82035771D02*
X162285714Y-82035771D01*
X162285714Y-82035771D02*
X162190476Y-82083390D01*
X162190476Y-82083390D02*
X162142857Y-82131009D01*
X162142857Y-82131009D02*
X162095238Y-82226247D01*
X107779819Y-81036904D02*
X108589342Y-81036904D01*
X108589342Y-81036904D02*
X108684580Y-80989285D01*
X108684580Y-80989285D02*
X108732200Y-80941666D01*
X108732200Y-80941666D02*
X108779819Y-80846428D01*
X108779819Y-80846428D02*
X108779819Y-80655952D01*
X108779819Y-80655952D02*
X108732200Y-80560714D01*
X108732200Y-80560714D02*
X108684580Y-80513095D01*
X108684580Y-80513095D02*
X108589342Y-80465476D01*
X108589342Y-80465476D02*
X107779819Y-80465476D01*
X107779819Y-80084523D02*
X107779819Y-79465476D01*
X107779819Y-79465476D02*
X108160771Y-79798809D01*
X108160771Y-79798809D02*
X108160771Y-79655952D01*
X108160771Y-79655952D02*
X108208390Y-79560714D01*
X108208390Y-79560714D02*
X108256009Y-79513095D01*
X108256009Y-79513095D02*
X108351247Y-79465476D01*
X108351247Y-79465476D02*
X108589342Y-79465476D01*
X108589342Y-79465476D02*
X108684580Y-79513095D01*
X108684580Y-79513095D02*
X108732200Y-79560714D01*
X108732200Y-79560714D02*
X108779819Y-79655952D01*
X108779819Y-79655952D02*
X108779819Y-79941666D01*
X108779819Y-79941666D02*
X108732200Y-80036904D01*
X108732200Y-80036904D02*
X108684580Y-80084523D01*
X126050476Y-87574819D02*
X126050476Y-88289104D01*
X126050476Y-88289104D02*
X126002857Y-88431961D01*
X126002857Y-88431961D02*
X125907619Y-88527200D01*
X125907619Y-88527200D02*
X125764762Y-88574819D01*
X125764762Y-88574819D02*
X125669524Y-88574819D01*
X127050476Y-88574819D02*
X126479048Y-88574819D01*
X126764762Y-88574819D02*
X126764762Y-87574819D01*
X126764762Y-87574819D02*
X126669524Y-87717676D01*
X126669524Y-87717676D02*
X126574286Y-87812914D01*
X126574286Y-87812914D02*
X126479048Y-87860533D01*
X128002857Y-88574819D02*
X127431429Y-88574819D01*
X127717143Y-88574819D02*
X127717143Y-87574819D01*
X127717143Y-87574819D02*
X127621905Y-87717676D01*
X127621905Y-87717676D02*
X127526667Y-87812914D01*
X127526667Y-87812914D02*
X127431429Y-87860533D01*
X138833333Y-76959580D02*
X138785714Y-77007200D01*
X138785714Y-77007200D02*
X138642857Y-77054819D01*
X138642857Y-77054819D02*
X138547619Y-77054819D01*
X138547619Y-77054819D02*
X138404762Y-77007200D01*
X138404762Y-77007200D02*
X138309524Y-76911961D01*
X138309524Y-76911961D02*
X138261905Y-76816723D01*
X138261905Y-76816723D02*
X138214286Y-76626247D01*
X138214286Y-76626247D02*
X138214286Y-76483390D01*
X138214286Y-76483390D02*
X138261905Y-76292914D01*
X138261905Y-76292914D02*
X138309524Y-76197676D01*
X138309524Y-76197676D02*
X138404762Y-76102438D01*
X138404762Y-76102438D02*
X138547619Y-76054819D01*
X138547619Y-76054819D02*
X138642857Y-76054819D01*
X138642857Y-76054819D02*
X138785714Y-76102438D01*
X138785714Y-76102438D02*
X138833333Y-76150057D01*
X139785714Y-77054819D02*
X139214286Y-77054819D01*
X139500000Y-77054819D02*
X139500000Y-76054819D01*
X139500000Y-76054819D02*
X139404762Y-76197676D01*
X139404762Y-76197676D02*
X139309524Y-76292914D01*
X139309524Y-76292914D02*
X139214286Y-76340533D01*
X148954819Y-82561904D02*
X149764342Y-82561904D01*
X149764342Y-82561904D02*
X149859580Y-82514285D01*
X149859580Y-82514285D02*
X149907200Y-82466666D01*
X149907200Y-82466666D02*
X149954819Y-82371428D01*
X149954819Y-82371428D02*
X149954819Y-82180952D01*
X149954819Y-82180952D02*
X149907200Y-82085714D01*
X149907200Y-82085714D02*
X149859580Y-82038095D01*
X149859580Y-82038095D02*
X149764342Y-81990476D01*
X149764342Y-81990476D02*
X148954819Y-81990476D01*
X149050057Y-81561904D02*
X149002438Y-81514285D01*
X149002438Y-81514285D02*
X148954819Y-81419047D01*
X148954819Y-81419047D02*
X148954819Y-81180952D01*
X148954819Y-81180952D02*
X149002438Y-81085714D01*
X149002438Y-81085714D02*
X149050057Y-81038095D01*
X149050057Y-81038095D02*
X149145295Y-80990476D01*
X149145295Y-80990476D02*
X149240533Y-80990476D01*
X149240533Y-80990476D02*
X149383390Y-81038095D01*
X149383390Y-81038095D02*
X149954819Y-81609523D01*
X149954819Y-81609523D02*
X149954819Y-80990476D01*
X140854819Y-79261904D02*
X140854819Y-78690476D01*
X141854819Y-78976190D02*
X140854819Y-78976190D01*
X141854819Y-78357142D02*
X140854819Y-78357142D01*
X140854819Y-78357142D02*
X140854819Y-77976190D01*
X140854819Y-77976190D02*
X140902438Y-77880952D01*
X140902438Y-77880952D02*
X140950057Y-77833333D01*
X140950057Y-77833333D02*
X141045295Y-77785714D01*
X141045295Y-77785714D02*
X141188152Y-77785714D01*
X141188152Y-77785714D02*
X141283390Y-77833333D01*
X141283390Y-77833333D02*
X141331009Y-77880952D01*
X141331009Y-77880952D02*
X141378628Y-77976190D01*
X141378628Y-77976190D02*
X141378628Y-78357142D01*
X141854819Y-76833333D02*
X141854819Y-77404761D01*
X141854819Y-77119047D02*
X140854819Y-77119047D01*
X140854819Y-77119047D02*
X140997676Y-77214285D01*
X140997676Y-77214285D02*
X141092914Y-77309523D01*
X141092914Y-77309523D02*
X141140533Y-77404761D01*
X159054819Y-91586666D02*
X158578628Y-91919999D01*
X159054819Y-92158094D02*
X158054819Y-92158094D01*
X158054819Y-92158094D02*
X158054819Y-91777142D01*
X158054819Y-91777142D02*
X158102438Y-91681904D01*
X158102438Y-91681904D02*
X158150057Y-91634285D01*
X158150057Y-91634285D02*
X158245295Y-91586666D01*
X158245295Y-91586666D02*
X158388152Y-91586666D01*
X158388152Y-91586666D02*
X158483390Y-91634285D01*
X158483390Y-91634285D02*
X158531009Y-91681904D01*
X158531009Y-91681904D02*
X158578628Y-91777142D01*
X158578628Y-91777142D02*
X158578628Y-92158094D01*
X158388152Y-90729523D02*
X159054819Y-90729523D01*
X158007200Y-90967618D02*
X158721485Y-91205713D01*
X158721485Y-91205713D02*
X158721485Y-90586666D01*
X156584819Y-79333333D02*
X157299104Y-79333333D01*
X157299104Y-79333333D02*
X157441961Y-79380952D01*
X157441961Y-79380952D02*
X157537200Y-79476190D01*
X157537200Y-79476190D02*
X157584819Y-79619047D01*
X157584819Y-79619047D02*
X157584819Y-79714285D01*
X156918152Y-78428571D02*
X157584819Y-78428571D01*
X156537200Y-78666666D02*
X157251485Y-78904761D01*
X157251485Y-78904761D02*
X157251485Y-78285714D01*
D10*
X126620000Y-78620000D02*
X128000000Y-78620000D01*
X126620000Y-80000000D02*
X126620000Y-78620000D01*
X126620000Y-81270000D02*
X126620000Y-86460000D01*
X126620000Y-81270000D02*
X129380000Y-81270000D01*
X126620000Y-86460000D02*
X129380000Y-86460000D01*
X129380000Y-81270000D02*
X129380000Y-86460000D01*
X147334420Y-81440000D02*
X147615580Y-81440000D01*
X147334420Y-82460000D02*
X147615580Y-82460000D01*
X116300000Y-89120000D02*
X117680000Y-89120000D01*
X116300000Y-90500000D02*
X116300000Y-89120000D01*
X116300000Y-91770000D02*
X116300000Y-99500000D01*
X116300000Y-91770000D02*
X119060000Y-91770000D01*
X116300000Y-99500000D02*
X119060000Y-99500000D01*
X119060000Y-91770000D02*
X119060000Y-99500000D01*
X124562258Y-78477500D02*
X124087742Y-78477500D01*
X124562258Y-79522500D02*
X124087742Y-79522500D01*
X152580000Y-84373272D02*
G75*
G02*
X154420000Y-84373272I920000J1453272D01*
G01*
X142050000Y-79800000D02*
X144450000Y-79800000D01*
X142050000Y-82200000D02*
X142050000Y-79800000D01*
X144450000Y-79800000D02*
X144450000Y-82200000D01*
X144450000Y-82200000D02*
X142050000Y-82200000D01*
X155630000Y-81550000D02*
X158370000Y-81550000D01*
X155630000Y-89290000D02*
X155630000Y-81550000D01*
X158370000Y-81550000D02*
X158370000Y-89290000D01*
X158370000Y-89290000D02*
X155630000Y-89290000D01*
X141977500Y-85007742D02*
X141977500Y-85482258D01*
X143022500Y-85007742D02*
X143022500Y-85482258D01*
X146527500Y-79737258D02*
X146527500Y-79262742D01*
X147572500Y-79737258D02*
X147572500Y-79262742D01*
X111710000Y-89120000D02*
X113090000Y-89120000D01*
X111710000Y-90500000D02*
X111710000Y-89120000D01*
X111710000Y-91770000D02*
X111710000Y-99500000D01*
X111710000Y-91770000D02*
X114470000Y-91770000D01*
X111710000Y-99500000D02*
X114470000Y-99500000D01*
X114470000Y-91770000D02*
X114470000Y-99500000D01*
X124562258Y-80977500D02*
X124087742Y-80977500D01*
X124562258Y-82022500D02*
X124087742Y-82022500D01*
X129880000Y-89180000D02*
X140120000Y-89180000D01*
X129880000Y-92200000D02*
X140120000Y-92200000D01*
X129880000Y-97100000D02*
X140120000Y-97100000D01*
X129880000Y-98600000D02*
X140120000Y-98600000D01*
X129880000Y-99220000D02*
X129880000Y-89180000D01*
X132200000Y-99220000D02*
X129880000Y-99220000D01*
X140120000Y-89180000D02*
X140120000Y-99220000D01*
X140120000Y-99220000D02*
X132800000Y-99220000D01*
X132940000Y-99830000D02*
X132060000Y-99830000D01*
X132500000Y-99220000D01*
X132940000Y-99830000D01*
G36*
X132940000Y-99830000D02*
G01*
X132060000Y-99830000D01*
X132500000Y-99220000D01*
X132940000Y-99830000D01*
G37*
X101370000Y-84690000D02*
X101370000Y-87310000D01*
X101370000Y-87310000D02*
X124390000Y-87310000D01*
X103990000Y-84690000D02*
X103990000Y-87310000D01*
X124390000Y-84690000D02*
X101370000Y-84690000D01*
X124390000Y-87310000D02*
X124390000Y-84690000D01*
X120890000Y-89120000D02*
X122270000Y-89120000D01*
X120890000Y-90500000D02*
X120890000Y-89120000D01*
X120890000Y-91770000D02*
X120890000Y-99500000D01*
X120890000Y-91770000D02*
X123650000Y-91770000D01*
X120890000Y-99500000D02*
X123650000Y-99500000D01*
X123650000Y-91770000D02*
X123650000Y-99500000D01*
X133615580Y-75990000D02*
X133334420Y-75990000D01*
X133615580Y-77010000D02*
X133334420Y-77010000D01*
D12*
G36*
X102749925Y-78999999D02*
G01*
X102749925Y-80500073D01*
X101999888Y-80500073D01*
X101249852Y-80500073D01*
X101249852Y-78999999D01*
X101249852Y-77499926D01*
X101999888Y-77499926D01*
X102749925Y-77499926D01*
X102749925Y-78999999D01*
G37*
G36*
X107250147Y-78999999D02*
G01*
X107250147Y-80500073D01*
X106500110Y-80500073D01*
X105750073Y-80500073D01*
X105750073Y-78999999D01*
X105750073Y-77499926D01*
X106500110Y-77499926D01*
X107250147Y-77499926D01*
X107250147Y-78999999D01*
G37*
G36*
X104251984Y-77758347D02*
G01*
X104257064Y-77767718D01*
X104264945Y-77782638D01*
X104275329Y-77802538D01*
X104287924Y-77826848D01*
X104302432Y-77854997D01*
X104318558Y-77886414D01*
X104336009Y-77920531D01*
X104354487Y-77956776D01*
X104356867Y-77961454D01*
X104381913Y-78010501D01*
X104403757Y-78052900D01*
X104422459Y-78088758D01*
X104438076Y-78118182D01*
X104450665Y-78141280D01*
X104460284Y-78158159D01*
X104466992Y-78168927D01*
X104470845Y-78173691D01*
X104470959Y-78173770D01*
X104477095Y-78177324D01*
X104483300Y-78179473D01*
X104490316Y-78179932D01*
X104498885Y-78178417D01*
X104509753Y-78174641D01*
X104523661Y-78168321D01*
X104541352Y-78159171D01*
X104563570Y-78146906D01*
X104591059Y-78131240D01*
X104609425Y-78120648D01*
X104634525Y-78106239D01*
X104657522Y-78093233D01*
X104677623Y-78082062D01*
X104694036Y-78073159D01*
X104705968Y-78066957D01*
X104712627Y-78063888D01*
X104713739Y-78063671D01*
X104713356Y-78067583D01*
X104711633Y-78078324D01*
X104708668Y-78095364D01*
X104704561Y-78118169D01*
X104699409Y-78146209D01*
X104693313Y-78178952D01*
X104686371Y-78215867D01*
X104678681Y-78256422D01*
X104670344Y-78300085D01*
X104661457Y-78346324D01*
X104653485Y-78387569D01*
X104644146Y-78435920D01*
X104635232Y-78482386D01*
X104626847Y-78526407D01*
X104619095Y-78567426D01*
X104612078Y-78604886D01*
X104605900Y-78638227D01*
X104600665Y-78666892D01*
X104596476Y-78690324D01*
X104593437Y-78707963D01*
X104591651Y-78719253D01*
X104591195Y-78723364D01*
X104593720Y-78736872D01*
X104602034Y-78749419D01*
X104602209Y-78749615D01*
X104610713Y-78757655D01*
X104619377Y-78761167D01*
X104630033Y-78761863D01*
X104643757Y-78760373D01*
X104654056Y-78755068D01*
X104657081Y-78752487D01*
X104661615Y-78747933D01*
X104670725Y-78738463D01*
X104683870Y-78724648D01*
X104700513Y-78707060D01*
X104720115Y-78686267D01*
X104742136Y-78662843D01*
X104766038Y-78637356D01*
X104791281Y-78610379D01*
X104794274Y-78607176D01*
X104819310Y-78580431D01*
X104842807Y-78555419D01*
X104864267Y-78532665D01*
X104883192Y-78512691D01*
X104899084Y-78496022D01*
X104911447Y-78483180D01*
X104919782Y-78474690D01*
X104923591Y-78471075D01*
X104923755Y-78470983D01*
X104925856Y-78474205D01*
X104930396Y-78483381D01*
X104936931Y-78497537D01*
X104945018Y-78515702D01*
X104954213Y-78536904D01*
X104959278Y-78548790D01*
X104971420Y-78577111D01*
X104981368Y-78599209D01*
X104989667Y-78615844D01*
X104996862Y-78627775D01*
X105003498Y-78635762D01*
X105010122Y-78640563D01*
X105017279Y-78642938D01*
X105025514Y-78643646D01*
X105027434Y-78643654D01*
X105034335Y-78642869D01*
X105047737Y-78640657D01*
X105066808Y-78637178D01*
X105090719Y-78632593D01*
X105118640Y-78627063D01*
X105149741Y-78620750D01*
X105183192Y-78613815D01*
X105207234Y-78608746D01*
X105241121Y-78601622D01*
X105272646Y-78595131D01*
X105301075Y-78589414D01*
X105325675Y-78584611D01*
X105345712Y-78580864D01*
X105360454Y-78578314D01*
X105369166Y-78577102D01*
X105371304Y-78577172D01*
X105370175Y-78581276D01*
X105366933Y-78591817D01*
X105361800Y-78608107D01*
X105354998Y-78629455D01*
X105346746Y-78655171D01*
X105337265Y-78684565D01*
X105326777Y-78716947D01*
X105315503Y-78751626D01*
X105313011Y-78759275D01*
X105298799Y-78803078D01*
X105286895Y-78840228D01*
X105277171Y-78871162D01*
X105269495Y-78896321D01*
X105263739Y-78916142D01*
X105259774Y-78931066D01*
X105257468Y-78941531D01*
X105256694Y-78947976D01*
X105256805Y-78949652D01*
X105259091Y-78957129D01*
X105263630Y-78964141D01*
X105271224Y-78971242D01*
X105282679Y-78978984D01*
X105298797Y-78987921D01*
X105320384Y-78998606D01*
X105344036Y-79009662D01*
X105364138Y-79019048D01*
X105381600Y-79027471D01*
X105395386Y-79034409D01*
X105404462Y-79039342D01*
X105407794Y-79041747D01*
X105407789Y-79041798D01*
X105404814Y-79044444D01*
X105396394Y-79051479D01*
X105382922Y-79062584D01*
X105364792Y-79077437D01*
X105342397Y-79095719D01*
X105316130Y-79117111D01*
X105286385Y-79141292D01*
X105253553Y-79167942D01*
X105218030Y-79196741D01*
X105180207Y-79227369D01*
X105140477Y-79259506D01*
X105116292Y-79279054D01*
X105075407Y-79312137D01*
X105036066Y-79344066D01*
X104998677Y-79374504D01*
X104963647Y-79403116D01*
X104931385Y-79429564D01*
X104902297Y-79453514D01*
X104876792Y-79474628D01*
X104855277Y-79492571D01*
X104838159Y-79507007D01*
X104825847Y-79517600D01*
X104818749Y-79524013D01*
X104817215Y-79525636D01*
X104811571Y-79536014D01*
X104808829Y-79546007D01*
X104808779Y-79547143D01*
X104810027Y-79553092D01*
X104813552Y-79565087D01*
X104819027Y-79582143D01*
X104826125Y-79603272D01*
X104834521Y-79627487D01*
X104843887Y-79653802D01*
X104845875Y-79659303D01*
X104856549Y-79688808D01*
X104864865Y-79712002D01*
X104871023Y-79729623D01*
X104875224Y-79742413D01*
X104877669Y-79751109D01*
X104878557Y-79756452D01*
X104878089Y-79759180D01*
X104876466Y-79760033D01*
X104873888Y-79759751D01*
X104873061Y-79759577D01*
X104862757Y-79757524D01*
X104846330Y-79754453D01*
X104824512Y-79750489D01*
X104798032Y-79745758D01*
X104767619Y-79740384D01*
X104734004Y-79734493D01*
X104697916Y-79728209D01*
X104660085Y-79721658D01*
X104621241Y-79714964D01*
X104582114Y-79708253D01*
X104543433Y-79701649D01*
X104505929Y-79695279D01*
X104470330Y-79689265D01*
X104437368Y-79683735D01*
X104407771Y-79678812D01*
X104382269Y-79674622D01*
X104361593Y-79671290D01*
X104346472Y-79668940D01*
X104337635Y-79667699D01*
X104335783Y-79667532D01*
X104322894Y-79669007D01*
X104311125Y-79672612D01*
X104310010Y-79673154D01*
X104298190Y-79682111D01*
X104287320Y-79695023D01*
X104279922Y-79708718D01*
X104278786Y-79712389D01*
X104278674Y-79717256D01*
X104278922Y-79728876D01*
X104279494Y-79746511D01*
X104280355Y-79769423D01*
X104281470Y-79796874D01*
X104282805Y-79828128D01*
X104284323Y-79862447D01*
X104285991Y-79899093D01*
X104287772Y-79937328D01*
X104289632Y-79976416D01*
X104291536Y-80015618D01*
X104293449Y-80054197D01*
X104295335Y-80091415D01*
X104297160Y-80126535D01*
X104298888Y-80158820D01*
X104300484Y-80187531D01*
X104301914Y-80211932D01*
X104303142Y-80231284D01*
X104304074Y-80244123D01*
X104305970Y-80267562D01*
X104249999Y-80267562D01*
X104194029Y-80267562D01*
X104195925Y-80244123D01*
X104196441Y-80236386D01*
X104197300Y-80221849D01*
X104198465Y-80201203D01*
X104199898Y-80175138D01*
X104201563Y-80144345D01*
X104203421Y-80109515D01*
X104205437Y-80071338D01*
X104207572Y-80030505D01*
X104209790Y-79987707D01*
X104210731Y-79969424D01*
X104223642Y-79718163D01*
X104215257Y-79701291D01*
X104203087Y-79683799D01*
X104187348Y-79672402D01*
X104168840Y-79667642D01*
X104165389Y-79667532D01*
X104159106Y-79668174D01*
X104146069Y-79670030D01*
X104126910Y-79672995D01*
X104102259Y-79676965D01*
X104072748Y-79681834D01*
X104039006Y-79687497D01*
X104001664Y-79693851D01*
X103961354Y-79700790D01*
X103918705Y-79708209D01*
X103883954Y-79714309D01*
X103840394Y-79721972D01*
X103799046Y-79729222D01*
X103760493Y-79735958D01*
X103725322Y-79742077D01*
X103694116Y-79747481D01*
X103667461Y-79752066D01*
X103645941Y-79755733D01*
X103630141Y-79758380D01*
X103620645Y-79759907D01*
X103617968Y-79760248D01*
X103619060Y-79756653D01*
X103622415Y-79746904D01*
X103627717Y-79731891D01*
X103634649Y-79712501D01*
X103642894Y-79689623D01*
X103652137Y-79664148D01*
X103654319Y-79658157D01*
X103663841Y-79631694D01*
X103672452Y-79607128D01*
X103679822Y-79585451D01*
X103685620Y-79567657D01*
X103689517Y-79554737D01*
X103691182Y-79547686D01*
X103691219Y-79547143D01*
X103689043Y-79537583D01*
X103683709Y-79526974D01*
X103682784Y-79525625D01*
X103678724Y-79521650D01*
X103669228Y-79513310D01*
X103654703Y-79500942D01*
X103635557Y-79484880D01*
X103612197Y-79465462D01*
X103585031Y-79443023D01*
X103554466Y-79417900D01*
X103520911Y-79390429D01*
X103484771Y-79360946D01*
X103446457Y-79329787D01*
X103406373Y-79297288D01*
X103383707Y-79278953D01*
X103343042Y-79246068D01*
X103304052Y-79214506D01*
X103267131Y-79184586D01*
X103232671Y-79156627D01*
X103201066Y-79130950D01*
X103172707Y-79107875D01*
X103147988Y-79087721D01*
X103127302Y-79070808D01*
X103111042Y-79057457D01*
X103099600Y-79047987D01*
X103093371Y-79042718D01*
X103092299Y-79041709D01*
X103095293Y-79039491D01*
X103104086Y-79034707D01*
X103117642Y-79027879D01*
X103134924Y-79019529D01*
X103154896Y-79010176D01*
X103156052Y-79009643D01*
X103182981Y-78996992D01*
X103203751Y-78986574D01*
X103219167Y-78977835D01*
X103230032Y-78970221D01*
X103237152Y-78963179D01*
X103241330Y-78956155D01*
X103243194Y-78949652D01*
X103243051Y-78944843D01*
X103241437Y-78936210D01*
X103238220Y-78923313D01*
X103233273Y-78905714D01*
X103226464Y-78882976D01*
X103217665Y-78854659D01*
X103206747Y-78820326D01*
X103193579Y-78779538D01*
X103186796Y-78758687D01*
X103175391Y-78723575D01*
X103164764Y-78690631D01*
X103155132Y-78660540D01*
X103146710Y-78633988D01*
X103139716Y-78611660D01*
X103134363Y-78594242D01*
X103130869Y-78582420D01*
X103129450Y-78576879D01*
X103129440Y-78576564D01*
X103133221Y-78576765D01*
X103143589Y-78578415D01*
X103159802Y-78581369D01*
X103181117Y-78585482D01*
X103206793Y-78590608D01*
X103236088Y-78596603D01*
X103268258Y-78603321D01*
X103293702Y-78608720D01*
X103328189Y-78616014D01*
X103360902Y-78622793D01*
X103391007Y-78628896D01*
X103417672Y-78634159D01*
X103440064Y-78638420D01*
X103457351Y-78641517D01*
X103468700Y-78643286D01*
X103472564Y-78643648D01*
X103481095Y-78643197D01*
X103488432Y-78641238D01*
X103495122Y-78637012D01*
X103501710Y-78629761D01*
X103508742Y-78618724D01*
X103516763Y-78603143D01*
X103526318Y-78582258D01*
X103537953Y-78555311D01*
X103540721Y-78548790D01*
X103550288Y-78526339D01*
X103558915Y-78506352D01*
X103566165Y-78489816D01*
X103571606Y-78477716D01*
X103574802Y-78471038D01*
X103575430Y-78470036D01*
X103578232Y-78472558D01*
X103585650Y-78480054D01*
X103597194Y-78492007D01*
X103612371Y-78507901D01*
X103630690Y-78527217D01*
X103651658Y-78549440D01*
X103674785Y-78574051D01*
X103699579Y-78600533D01*
X103704901Y-78606230D01*
X103730341Y-78633441D01*
X103754502Y-78659227D01*
X103776847Y-78683018D01*
X103796841Y-78704247D01*
X103813945Y-78722344D01*
X103827624Y-78736741D01*
X103837341Y-78746868D01*
X103842560Y-78752158D01*
X103842908Y-78752487D01*
X103852895Y-78759214D01*
X103865200Y-78761738D01*
X103869965Y-78761863D01*
X103881903Y-78760904D01*
X103890326Y-78756895D01*
X103897789Y-78749615D01*
X103905898Y-78737814D01*
X103908678Y-78725113D01*
X103908732Y-78722517D01*
X103908028Y-78716655D01*
X103905983Y-78703996D01*
X103902702Y-78685100D01*
X103898290Y-78660531D01*
X103892851Y-78630850D01*
X103886490Y-78596619D01*
X103879309Y-78558401D01*
X103871415Y-78516758D01*
X103862911Y-78472251D01*
X103853901Y-78425443D01*
X103846692Y-78388224D01*
X103837410Y-78340319D01*
X103828574Y-78294494D01*
X103820284Y-78251287D01*
X103812642Y-78211237D01*
X103805750Y-78174882D01*
X103799708Y-78142762D01*
X103794619Y-78115413D01*
X103790583Y-78093374D01*
X103787702Y-78077184D01*
X103786077Y-78067382D01*
X103785752Y-78064495D01*
X103789128Y-78065255D01*
X103798184Y-78069418D01*
X103812144Y-78076569D01*
X103830233Y-78086296D01*
X103851673Y-78098183D01*
X103875688Y-78111818D01*
X103889812Y-78119970D01*
X103920724Y-78137827D01*
X103945943Y-78152114D01*
X103966208Y-78163114D01*
X103982261Y-78171115D01*
X103994842Y-78176400D01*
X104004690Y-78179255D01*
X104012547Y-78179965D01*
X104019152Y-78178816D01*
X104025245Y-78176091D01*
X104029202Y-78173664D01*
X104032779Y-78169463D01*
X104038941Y-78159782D01*
X104047779Y-78144446D01*
X104059389Y-78123281D01*
X104073862Y-78096113D01*
X104091293Y-78062770D01*
X104111775Y-78023075D01*
X104135402Y-77976856D01*
X104143293Y-77961345D01*
X104161858Y-77924879D01*
X104179432Y-77890470D01*
X104195721Y-77858689D01*
X104210429Y-77830108D01*
X104223262Y-77805295D01*
X104233924Y-77784822D01*
X104242119Y-77769259D01*
X104247554Y-77759177D01*
X104249932Y-77755147D01*
X104249999Y-77755097D01*
X104251984Y-77758347D01*
G37*
D10*
X107120000Y-89120000D02*
X108500000Y-89120000D01*
X107120000Y-90500000D02*
X107120000Y-89120000D01*
X107120000Y-91770000D02*
X107120000Y-99500000D01*
X107120000Y-91770000D02*
X109880000Y-91770000D01*
X107120000Y-99500000D02*
X109880000Y-99500000D01*
X109880000Y-91770000D02*
X109880000Y-99500000D01*
X144977500Y-79737258D02*
X144977500Y-79262742D01*
X146022500Y-79737258D02*
X146022500Y-79262742D01*
X116490000Y-82634420D02*
X116490000Y-82915580D01*
X117510000Y-82634420D02*
X117510000Y-82915580D01*
X158220000Y-96700000D02*
G75*
G02*
X152980000Y-96700000I-2620000J0D01*
G01*
X152980000Y-96700000D02*
G75*
G02*
X158220000Y-96700000I2620000J0D01*
G01*
X132540000Y-77670000D02*
X132540000Y-87950000D01*
X132540000Y-87950000D02*
X134190000Y-87950000D01*
X136190000Y-87950000D02*
X137840000Y-87950000D01*
X137840000Y-77670000D02*
X132540000Y-77670000D01*
X137840000Y-87950000D02*
X137840000Y-77670000D01*
X140330000Y-88010000D02*
X130050000Y-88010000D01*
X130050000Y-77610000D01*
X140330000Y-77610000D01*
X140330000Y-88010000D01*
X134190000Y-87950000D02*
G75*
G02*
X136190000Y-87950000I1000000J0D01*
G01*
X141380000Y-89180000D02*
X151620000Y-89180000D01*
X141380000Y-92200000D02*
X151620000Y-92200000D01*
X141380000Y-97100000D02*
X151620000Y-97100000D01*
X141380000Y-98600000D02*
X151620000Y-98600000D01*
X141380000Y-99220000D02*
X141380000Y-89180000D01*
X143700000Y-99220000D02*
X141380000Y-99220000D01*
X151620000Y-89180000D02*
X151620000Y-99220000D01*
X151620000Y-99220000D02*
X144300000Y-99220000D01*
X144440000Y-99830000D02*
X143560000Y-99830000D01*
X144000000Y-99220000D01*
X144440000Y-99830000D01*
G36*
X144440000Y-99830000D02*
G01*
X143560000Y-99830000D01*
X144000000Y-99220000D01*
X144440000Y-99830000D01*
G37*
X159390000Y-88530000D02*
X159390000Y-89780000D01*
X159390000Y-89780000D02*
X160640000Y-89780000D01*
X159490000Y-87720000D02*
X159490000Y-88020000D01*
X159490000Y-88020000D02*
X159690000Y-88020000D01*
X159590000Y-87720000D02*
X159590000Y-88020000D01*
X159690000Y-83360000D02*
X159690000Y-89480000D01*
X159690000Y-86920000D02*
X160300000Y-86920000D01*
X159690000Y-87720000D02*
X159490000Y-87720000D01*
X159690000Y-89480000D02*
X164410000Y-89480000D01*
X160300000Y-83970000D02*
X160300000Y-85920000D01*
X160300000Y-85920000D02*
X159690000Y-85920000D01*
X160300000Y-86920000D02*
X160300000Y-88870000D01*
X160300000Y-88870000D02*
X163800000Y-88870000D01*
X161000000Y-83360000D02*
X161000000Y-83970000D01*
X161000000Y-89480000D02*
X161000000Y-88870000D01*
X162300000Y-83360000D02*
X162300000Y-83970000D01*
X162300000Y-89480000D02*
X162300000Y-88870000D01*
X163300000Y-86320000D02*
X163800000Y-86320000D01*
X163300000Y-86520000D02*
X163300000Y-86320000D01*
X163800000Y-83970000D02*
X160300000Y-83970000D01*
X163800000Y-86420000D02*
X163300000Y-86420000D01*
X163800000Y-86520000D02*
X163300000Y-86520000D01*
X163800000Y-88870000D02*
X163800000Y-83970000D01*
X164410000Y-83360000D02*
X159690000Y-83360000D01*
X164410000Y-89480000D02*
X164410000Y-83360000D01*
X109140000Y-80275000D02*
X109140000Y-78075000D01*
X109140000Y-80275000D02*
X109140000Y-82475000D01*
X115910000Y-80275000D02*
X115910000Y-78075000D01*
X115910000Y-80275000D02*
X115910000Y-82475000D01*
X109840000Y-84465000D02*
X109360000Y-84465000D01*
X109600000Y-84135000D01*
X109840000Y-84465000D01*
G36*
X109840000Y-84465000D02*
G01*
X109360000Y-84465000D01*
X109600000Y-84135000D01*
X109840000Y-84465000D01*
G37*
X125480000Y-89120000D02*
X126860000Y-89120000D01*
X125480000Y-90500000D02*
X125480000Y-89120000D01*
X125480000Y-91770000D02*
X125480000Y-99500000D01*
X125480000Y-91770000D02*
X128240000Y-91770000D01*
X125480000Y-99500000D02*
X128240000Y-99500000D01*
X128240000Y-91770000D02*
X128240000Y-99500000D01*
X136384420Y-75990000D02*
X136665580Y-75990000D01*
X136384420Y-77010000D02*
X136665580Y-77010000D01*
X147500000Y-82740000D02*
X145300000Y-82740000D01*
X147500000Y-82740000D02*
X149700000Y-82740000D01*
X147500000Y-88260000D02*
X145300000Y-88260000D01*
X147500000Y-88260000D02*
X149700000Y-88260000D01*
X151740000Y-88015000D02*
X151410000Y-87775000D01*
X151740000Y-87535000D01*
X151740000Y-88015000D01*
G36*
X151740000Y-88015000D02*
G01*
X151410000Y-87775000D01*
X151740000Y-87535000D01*
X151740000Y-88015000D01*
G37*
X142050000Y-76800000D02*
X144450000Y-76800000D01*
X142050000Y-79200000D02*
X142050000Y-76800000D01*
X144450000Y-76800000D02*
X144450000Y-79200000D01*
X144450000Y-79200000D02*
X142050000Y-79200000D01*
X154546728Y-90500000D02*
G75*
G02*
X154546728Y-92340000I1453272J-920000D01*
G01*
X148290000Y-77620000D02*
X148290000Y-80380000D01*
X153480000Y-77620000D02*
X148290000Y-77620000D01*
X153480000Y-77620000D02*
X153480000Y-80380000D01*
X153480000Y-80380000D02*
X148290000Y-80380000D01*
X154750000Y-77620000D02*
X156130000Y-77620000D01*
X156130000Y-77620000D02*
X156130000Y-79000000D01*
M02*
